<?xml version="1.0" encoding="UTF-8" standalone="no"?>
<svg xmlns:ffdec="https://www.free-decompiler.com/flash" xmlns:xlink="http://www.w3.org/1999/xlink" ffdec:objectType="shape" height="53.3px" width="60.2px" xmlns="http://www.w3.org/2000/svg">
  <g transform="matrix(1.0, 0.0, 0.0, 1.0, 35.65, 31.25)">
    <path d="M2.25 10.15 L4.4 8.55 Q7.1 6.85 11.15 6.05 18.35 4.65 19.05 10.45 L18.6 10.45 17.6 10.55 17.2 10.65 Q16.9 6.2 10.95 7.4 8.0 7.95 5.4 9.55 L2.85 11.4 2.25 10.15" fill="url(#gradient0)" fill-rule="evenodd" stroke="none"/>
    <path d="M21.25 12.15 L21.3 12.15 21.25 12.15 21.2 12.0 21.1 11.85 16.3 12.15 15.95 12.15 Q15.65 12.25 15.75 12.6 15.85 12.95 16.2 12.85 L21.1 12.5 21.25 12.15 M24.0 14.6 L13.55 15.2 13.5 15.2 Q13.75 12.05 16.6 11.2 L17.2 11.05 18.45 10.85 19.1 10.85 21.3 11.2 Q23.45 11.95 24.0 14.6 M15.55 14.15 L21.7 13.8 Q21.9 13.25 21.65 13.15 L21.5 12.95 15.45 13.4 15.45 13.45 15.35 13.5 Q15.0 13.6 15.1 13.95 15.2 14.3 15.55 14.15" fill="url(#gradient1)" fill-rule="evenodd" stroke="none"/>
    <path d="M16.3 12.15 L21.1 11.85 21.2 12.0 21.25 12.15 21.3 12.15 21.25 12.15 16.45 12.5 16.15 12.55 16.2 12.15 16.3 12.15" fill="url(#gradient2)" fill-rule="evenodd" stroke="none"/>
    <path d="M19.05 10.45 L20.55 10.55 Q21.5 10.7 22.3 11.2 24.0 12.2 24.55 14.7 L24.45 18.65 22.95 18.8 22.95 18.5 22.9 18.4 22.95 18.4 22.7 17.35 22.3 15.45 22.35 15.55 23.95 18.3 24.0 14.6 Q23.45 11.95 21.3 11.2 L19.1 10.85 18.45 10.85 17.2 11.05 16.6 11.2 Q13.75 12.05 13.5 15.2 L13.55 15.2 13.5 15.25 13.85 19.0 14.9 18.95 14.85 19.05 14.9 19.35 13.4 19.5 13.0 15.15 Q13.2 12.3 15.45 11.2 16.2 10.8 17.2 10.65 L17.6 10.55 18.6 10.45 19.05 10.45 M21.0 18.9 L16.95 19.2 17.0 18.8 16.8 15.85 18.2 18.7 20.95 18.5 21.0 18.9" fill="#666699" fill-rule="evenodd" stroke="none"/>
    <path d="M22.95 18.8 L22.95 21.5 21.2 21.6 21.0 18.9 20.95 18.5 20.7 15.5 21.15 15.45 21.5 18.45 21.45 18.45 21.5 21.2 22.7 21.15 22.65 18.45 22.05 15.45 21.8 15.45 22.35 15.4 22.35 15.55 22.3 15.45 22.7 17.35 22.9 18.4 22.95 18.5 22.95 18.8 M16.95 19.2 L16.9 21.9 15.1 22.05 14.9 19.35 14.85 19.05 14.9 18.95 15.15 15.9 15.45 15.9 15.15 18.95 15.35 21.65 16.5 21.6 16.35 18.9 16.3 18.9 16.4 15.8 16.8 15.8 16.8 15.85 17.0 18.8 16.95 19.2" fill="#333333" fill-rule="evenodd" stroke="none"/>
    <path d="M21.8 15.45 L22.05 15.45 22.65 18.45 21.5 18.45 21.15 15.45 21.8 15.45" fill="url(#gradient3)" fill-rule="evenodd" stroke="none"/>
    <path d="M21.15 15.45 L20.7 15.5 20.95 18.5 18.2 18.7 16.8 15.85 16.8 15.8 16.4 15.8 15.45 15.9 15.15 15.9 14.9 18.95 13.85 19.0 13.5 15.25 13.55 15.2 24.0 14.6 23.95 18.3 22.35 15.55 22.35 15.4 21.8 15.45 21.15 15.45 M22.7 17.35 L22.95 18.4 22.9 18.4 22.7 17.35" fill="url(#gradient4)" fill-rule="evenodd" stroke="none"/>
    <path d="M15.75 13.75 L21.75 13.3 21.65 13.15 Q21.9 13.25 21.7 13.8 L15.55 14.15 15.75 13.75" fill="url(#gradient5)" fill-rule="evenodd" stroke="none"/>
    <path d="M21.65 13.15 L21.75 13.3 15.75 13.75 15.45 13.8 15.45 13.45 15.45 13.4 21.5 12.95 21.65 13.15" fill="url(#gradient6)" fill-rule="evenodd" stroke="none"/>
    <path d="M22.65 18.45 L22.7 21.15 21.5 21.2 21.45 18.45 21.5 18.45 22.65 18.45" fill="url(#gradient7)" fill-rule="evenodd" stroke="none"/>
    <path d="M21.25 12.15 L21.1 12.5 16.2 12.85 16.45 12.5 21.25 12.15" fill="url(#gradient8)" fill-rule="evenodd" stroke="none"/>
    <path d="M16.2 12.85 Q15.85 12.95 15.75 12.6 15.65 12.25 15.95 12.15 L16.3 12.15 16.2 12.15 16.15 12.55 16.45 12.5 16.2 12.85 M15.75 13.75 L15.55 14.15 Q15.2 14.3 15.1 13.95 15.0 13.6 15.35 13.5 L15.45 13.45 15.45 13.8 15.75 13.75" fill="#ffffff" fill-rule="evenodd" stroke="none"/>
    <path d="M15.45 15.9 L16.4 15.8 16.3 18.9 15.15 18.95 15.45 15.9" fill="url(#gradient9)" fill-rule="evenodd" stroke="none"/>
    <path d="M16.3 18.9 L16.35 18.9 16.5 21.6 15.35 21.65 15.15 18.95 16.3 18.9" fill="url(#gradient10)" fill-rule="evenodd" stroke="none"/>
    <path d="M6.8 -27.15 L7.65 -29.8 8.5 -27.15 10.75 -28.75 9.95 -26.15 12.7 -26.1 10.5 -24.5 12.7 -22.85 9.95 -22.85 10.75 -20.2 8.5 -21.8 7.65 -19.2 6.8 -21.8 4.55 -20.2 5.35 -22.85 2.6 -22.85 4.85 -24.5 2.6 -26.1 5.35 -26.15 4.55 -28.75 6.8 -27.15" fill="url(#gradient11)" fill-rule="evenodd" stroke="none"/>
    <path d="M10.3 -14.45 L10.6 -14.05 Q13.2 -10.35 8.3 -3.85 4.65 1.0 -1.6 5.2 L-2.35 5.7 -6.3 8.05 -8.75 9.4 -10.2 10.1 -10.9 10.4 -12.7 11.2 -14.4 11.85 Q-19.6 13.8 -24.45 14.3 L-24.75 14.35 -25.75 14.4 Q-33.0 14.75 -34.6 11.0 L-35.1 10.2 -35.0 10.25 Q-33.0 13.8 -25.35 13.0 -17.15 12.15 -7.4 6.8 2.3 1.4 7.4 -5.15 11.85 -10.9 10.3 -14.45" fill="url(#gradient12)" fill-rule="evenodd" stroke="none"/>
    <path d="M14.6 -13.95 L14.15 -15.25 13.05 -14.45 13.45 -15.75 12.1 -15.75 13.2 -16.6 12.1 -17.4 13.45 -17.4 13.05 -18.75 14.15 -17.95 14.6 -19.25 15.05 -17.95 16.15 -18.75 15.75 -17.4 17.15 -17.4 16.0 -16.6 17.15 -15.75 15.75 -15.75 16.15 -14.45 15.05 -15.25 14.6 -13.95" fill="url(#gradient13)" fill-rule="evenodd" stroke="none"/>
    <path d="M-24.1 -7.35 L-26.7 -17.9 Q-27.35 -19.7 -25.15 -20.15 L-0.4 -24.65 Q0.9 -25.0 1.2 -23.3 L1.85 -17.85 1.8 -17.85 1.95 -16.7 3.6 -2.9 2.3 -1.65 -0.3 -20.85 -22.95 -16.0 -18.45 6.65 Q-18.45 7.2 -17.9 7.0 L0.8 -0.4 -2.45 2.1 -2.95 2.3 -11.8 6.0 -11.9 5.95 -11.85 6.05 -12.6 6.35 -19.0 8.95 Q-20.0 9.3 -20.35 8.6 L-20.65 7.3 -20.8 6.7 -23.95 -6.7 -23.9 -6.75 -24.05 -7.4 -24.1 -7.35 M-24.7 -18.9 L-0.2 -23.9 Q0.35 -24.35 -0.85 -24.15 L-25.25 -19.65 Q-26.0 -19.4 -26.1 -18.25 L-19.95 8.35 -19.6 8.65 Q-19.35 8.65 -19.5 8.1 L-25.05 -18.15 Q-25.05 -18.8 -24.7 -18.9" fill="url(#gradient14)" fill-rule="evenodd" stroke="none"/>
    <path d="M-35.0 10.25 L-35.25 9.75 Q-36.6 6.65 -33.4 1.85 -30.3 -2.8 -24.1 -7.35 L-24.05 -7.4 -23.9 -6.75 -23.95 -6.7 Q-29.3 -2.6 -31.95 1.65 -34.65 5.95 -33.45 8.75 -31.95 12.1 -25.8 11.65 L-24.9 11.55 -24.45 11.5 Q-18.75 10.75 -12.05 7.6 L-11.3 7.25 -10.2 6.7 -8.15 5.6 -2.9 2.4 -2.45 2.1 0.8 -0.4 1.8 -1.25 2.3 -1.65 3.6 -2.9 5.55 -5.1 Q10.3 -10.9 8.0 -14.25 6.45 -16.55 1.95 -16.7 L1.8 -17.85 1.85 -17.85 Q7.9 -18.1 9.85 -15.25 L10.3 -14.45 Q11.85 -10.9 7.4 -5.15 2.3 1.4 -7.4 6.8 -17.15 12.15 -25.35 13.0 -33.0 13.8 -35.0 10.25" fill="url(#gradient15)" fill-rule="evenodd" stroke="none"/>
    <path d="M1.8 -1.25 L0.8 -0.4 -17.9 7.0 Q-18.45 7.2 -18.45 6.65 L1.8 -1.25" fill="url(#gradient16)" fill-rule="evenodd" stroke="none"/>
    <path d="M2.3 -1.65 L1.8 -1.25 -18.45 6.65 -22.95 -16.0 -0.3 -20.85 2.3 -1.65" fill="url(#gradient17)" fill-rule="evenodd" stroke="none"/>
    <path d="M-18.05 -26.95 L-16.65 -26.95 -17.1 -28.25 -15.95 -27.45 -15.5 -28.75 -15.1 -27.45 -13.95 -28.25 -14.4 -26.95 -13.0 -26.95 -14.1 -26.1 -13.0 -25.3 -14.4 -25.3 -13.95 -23.95 -15.1 -24.75 -15.5 -23.45 -15.95 -24.75 -17.1 -23.95 -16.65 -25.3 -18.05 -25.3 -16.95 -26.1 -18.05 -26.95" fill="url(#gradient18)" fill-rule="evenodd" stroke="none"/>
    <path d="M-7.2 -30.75 L-6.1 -29.95 -5.65 -31.25 -5.2 -29.95 -4.1 -30.75 -4.5 -29.45 -3.15 -29.4 -4.25 -28.6 -3.15 -27.8 -4.5 -27.75 -4.1 -26.45 -5.2 -27.25 -5.65 -25.95 -6.1 -27.25 -7.2 -26.45 -6.8 -27.75 -8.15 -27.8 -7.05 -28.6 -8.15 -29.4 -6.8 -29.45 -7.2 -30.75" fill="url(#gradient19)" fill-rule="evenodd" stroke="none"/>
    <path d="M-24.7 -18.9 Q-25.05 -18.8 -25.05 -18.15 L-19.5 8.1 Q-19.35 8.65 -19.6 8.65 L-19.95 8.35 -26.1 -18.25 Q-26.0 -19.4 -25.25 -19.65 L-0.85 -24.15 Q0.35 -24.35 -0.2 -23.9 L-24.7 -18.9" fill="url(#gradient20)" fill-rule="evenodd" stroke="none"/>
    <path d="M-1.6 5.2 L-1.4 7.1 -1.3 7.95 -1.1 12.8 -1.1 14.05 -1.15 15.25 Q-2.95 17.4 -7.2 18.35 L-9.1 17.0 -9.25 16.15 -9.55 14.95 Q-9.95 13.25 -10.5 11.6 L-10.55 11.45 -10.9 10.4 -10.2 10.1 -9.85 11.2 -8.85 14.9 -8.55 16.1 -8.4 16.7 -7.9 17.05 -7.25 17.55 -7.15 17.55 Q-3.8 16.75 -1.75 14.95 L-1.75 14.4 -1.75 13.25 Q-1.85 9.35 -2.35 5.7 L-1.6 5.2 M-2.45 2.1 L-2.9 2.4 -2.95 2.3 -2.45 2.1 M-11.3 7.25 L-12.05 7.6 -12.6 6.35 -11.85 6.05 -11.3 7.25" fill="url(#gradient21)" fill-rule="evenodd" stroke="none"/>
    <path d="M-2.9 2.4 L-8.15 5.6 -10.2 6.7 -11.8 6.0 -2.95 2.3 -2.9 2.4 M-2.35 5.7 Q-1.85 9.35 -1.75 13.25 L-1.75 14.4 -1.75 14.95 Q-3.8 16.75 -7.15 17.55 L-7.25 17.55 -7.9 17.05 -7.15 17.55 -7.3 16.0 -7.45 14.85 Q-7.9 12.3 -8.75 9.4 L-6.3 8.05 -2.35 5.7" fill="url(#gradient22)" fill-rule="evenodd" stroke="none"/>
    <path d="M-1.4 7.1 L-1.2 7.2 Q1.2 8.5 2.25 10.15 L2.85 11.4 3.05 12.9 Q3.05 16.2 -1.2 18.55 -5.45 20.9 -11.45 20.9 -17.5 20.9 -21.75 18.55 -25.0 16.75 -25.75 14.4 L-24.75 14.35 Q-24.0 16.4 -21.1 18.0 -17.15 20.15 -11.6 20.15 -6.0 20.15 -2.05 18.0 1.9 15.8 1.9 12.75 L1.85 12.1 1.45 10.8 Q0.7 9.25 -1.3 7.95 L-1.4 7.1 M-24.9 11.55 L-25.8 11.65 Q-25.15 9.1 -21.75 7.2 L-20.8 6.7 -20.65 7.3 -21.1 7.5 Q-24.25 9.25 -24.9 11.55" fill="url(#gradient23)" fill-rule="evenodd" stroke="none"/>
    <path d="M-10.2 6.7 L-11.3 7.25 -11.85 6.05 -11.9 5.95 -11.8 6.0 -10.2 6.7 M-7.9 17.05 L-8.4 16.7 -8.55 16.1 -8.85 14.9 -9.85 11.2 -10.2 10.1 -8.75 9.4 Q-7.9 12.3 -7.45 14.85 L-7.3 16.0 -7.15 17.55 -7.9 17.05" fill="url(#gradient24)" fill-rule="evenodd" stroke="none"/>
    <path d="M-12.05 7.6 Q-18.75 10.75 -24.45 11.5 L-24.9 11.55 Q-24.25 9.25 -21.1 7.5 L-20.65 7.3 -20.35 8.6 Q-20.0 9.3 -19.0 8.95 L-12.6 6.35 -12.05 7.6 M-1.3 7.95 Q0.7 9.25 1.45 10.8 L1.85 12.1 1.9 12.75 Q1.9 15.8 -2.05 18.0 -6.0 20.15 -11.6 20.15 -17.15 20.15 -21.1 18.0 -24.0 16.4 -24.75 14.35 L-24.45 14.3 Q-19.6 13.8 -14.4 11.85 L-12.7 11.2 -10.9 10.4 -10.55 11.45 -10.5 11.6 Q-9.95 13.25 -9.55 14.95 L-9.25 16.15 -9.1 17.0 -7.2 18.35 Q-2.95 17.4 -1.15 15.25 L-1.1 14.05 -1.1 12.8 -1.3 7.95" fill="url(#gradient25)" fill-rule="evenodd" stroke="none"/>
    <path d="M2.25 10.15 L4.4 8.55 Q7.1 6.85 11.15 6.05 18.35 4.65 19.05 10.45 M17.2 10.65 Q16.9 6.2 10.95 7.4 8.0 7.95 5.4 9.55 L2.85 11.4 M-10.5 11.6 L-10.55 11.45" ffdec:has-small-stroke="true" ffdec:original-stroke-width="0.75" fill="none" stroke="#999999" stroke-linecap="round" stroke-linejoin="round" stroke-width="1.0"/>
  </g>
  <defs>
    <linearGradient gradientTransform="matrix(0.0193, -0.0052, -0.0025, -0.0052, 2.0, 12.0)" gradientUnits="userSpaceOnUse" id="gradient0" spreadMethod="pad" x1="-819.2" x2="819.2">
      <stop offset="0.0" stop-color="#cccccc"/>
      <stop offset="1.0" stop-color="#ffffff"/>
    </linearGradient>
    <linearGradient gradientTransform="matrix(0.0052, 0.0027, 0.0017, -0.004, 19.05, 13.45)" gradientUnits="userSpaceOnUse" id="gradient1" spreadMethod="pad" x1="-819.2" x2="819.2">
      <stop offset="0.0" stop-color="#ffffff"/>
      <stop offset="0.4235294117647059" stop-color="#ccccff"/>
      <stop offset="1.0" stop-color="#9999cc"/>
    </linearGradient>
    <linearGradient gradientTransform="matrix(0.0028, -0.0011, -4.0E-4, -0.0011, 18.65, 12.2)" gradientUnits="userSpaceOnUse" id="gradient2" spreadMethod="pad" x1="-819.2" x2="819.2">
      <stop offset="0.0" stop-color="#ffffff"/>
      <stop offset="1.0" stop-color="#ccccff"/>
    </linearGradient>
    <linearGradient gradientTransform="matrix(-4.0E-4, -0.002, -7.0E-4, 2.0E-4, 21.8, 17.0)" gradientUnits="userSpaceOnUse" id="gradient3" spreadMethod="pad" x1="-819.2" x2="819.2">
      <stop offset="0.0" stop-color="#ffcc66"/>
      <stop offset="0.7490196078431373" stop-color="#ffff99"/>
      <stop offset="1.0" stop-color="#9999ff"/>
    </linearGradient>
    <linearGradient gradientTransform="matrix(-0.0013, -0.004, -0.0062, 0.0025, 18.85, 16.7)" gradientUnits="userSpaceOnUse" id="gradient4" spreadMethod="pad" x1="-819.2" x2="819.2">
      <stop offset="0.0" stop-color="#9999ff"/>
      <stop offset="1.0" stop-color="#666699"/>
    </linearGradient>
    <linearGradient gradientTransform="matrix(0.0032, 0.0017, 9.0E-4, -0.0021, 18.55, 13.7)" gradientUnits="userSpaceOnUse" id="gradient5" spreadMethod="pad" x1="-819.2" x2="819.2">
      <stop offset="0.0" stop-color="#9999cc"/>
      <stop offset="0.23529411764705882" stop-color="#9999cc"/>
      <stop offset="1.0" stop-color="#6666cc"/>
    </linearGradient>
    <linearGradient gradientTransform="matrix(0.0035, -0.0014, -4.0E-4, -0.0013, 18.5, 13.35)" gradientUnits="userSpaceOnUse" id="gradient6" spreadMethod="pad" x1="-819.2" x2="819.2">
      <stop offset="0.0" stop-color="#ffffff"/>
      <stop offset="1.0" stop-color="#ccccff"/>
    </linearGradient>
    <linearGradient gradientTransform="matrix(4.0E-4, -0.0018, -0.0011, -3.0E-4, 22.05, 19.85)" gradientUnits="userSpaceOnUse" id="gradient7" spreadMethod="pad" x1="-819.2" x2="819.2">
      <stop offset="0.0" stop-color="#ffff99"/>
      <stop offset="0.4470588235294118" stop-color="#ffcc66"/>
      <stop offset="1.0" stop-color="#996600"/>
    </linearGradient>
    <linearGradient gradientTransform="matrix(0.0026, 0.0014, 7.0E-4, -0.0017, 18.55, 12.4)" gradientUnits="userSpaceOnUse" id="gradient8" spreadMethod="pad" x1="-819.2" x2="819.2">
      <stop offset="0.0" stop-color="#9999cc"/>
      <stop offset="0.23529411764705882" stop-color="#9999cc"/>
      <stop offset="1.0" stop-color="#6666cc"/>
    </linearGradient>
    <linearGradient gradientTransform="matrix(-4.0E-4, -0.0019, -0.0011, 3.0E-4, 15.75, 17.45)" gradientUnits="userSpaceOnUse" id="gradient9" spreadMethod="pad" x1="-819.2" x2="819.2">
      <stop offset="0.0" stop-color="#ffcc66"/>
      <stop offset="0.7490196078431373" stop-color="#ffff99"/>
      <stop offset="1.0" stop-color="#9999ff"/>
    </linearGradient>
    <linearGradient gradientTransform="matrix(-6.0E-4, -0.0017, -0.001, 4.0E-4, 15.85, 20.3)" gradientUnits="userSpaceOnUse" id="gradient10" spreadMethod="pad" x1="-819.2" x2="819.2">
      <stop offset="0.0" stop-color="#ffff99"/>
      <stop offset="0.4470588235294118" stop-color="#ffcc66"/>
      <stop offset="1.0" stop-color="#996600"/>
    </linearGradient>
    <radialGradient cx="0" cy="0" gradientTransform="matrix(0.0065, 0.0, 0.0, 0.0065, 7.65, -24.5)" gradientUnits="userSpaceOnUse" id="gradient11" r="819.2" spreadMethod="pad">
      <stop offset="0.0" stop-color="#ffff99"/>
      <stop offset="0.3333333333333333" stop-color="#ffff00"/>
      <stop offset="1.0" stop-color="#f26c21"/>
    </radialGradient>
    <linearGradient gradientTransform="matrix(0.0276, -0.0153, -0.0036, -0.0065, -11.45, 3.65)" gradientUnits="userSpaceOnUse" id="gradient12" spreadMethod="pad" x1="-819.2" x2="819.2">
      <stop offset="0.0" stop-color="#003399"/>
      <stop offset="0.5215686274509804" stop-color="#ffffff"/>
      <stop offset="0.792156862745098" stop-color="#99ccff"/>
      <stop offset="1.0" stop-color="#9999ff"/>
    </linearGradient>
    <radialGradient cx="0" cy="0" gradientTransform="matrix(0.0032, 0.0, 0.0, 0.0032, 14.6, -16.6)" gradientUnits="userSpaceOnUse" id="gradient13" r="819.2" spreadMethod="pad">
      <stop offset="0.0" stop-color="#ffff99"/>
      <stop offset="0.2980392156862745" stop-color="#ffff00"/>
      <stop offset="1.0" stop-color="#ff9933"/>
    </radialGradient>
    <linearGradient gradientTransform="matrix(-0.0149, -0.0149, -0.0165, 0.0165, -10.05, -6.5)" gradientUnits="userSpaceOnUse" id="gradient14" spreadMethod="pad" x1="-819.2" x2="819.2">
      <stop offset="0.0" stop-color="#6666cc"/>
      <stop offset="1.0" stop-color="#999999"/>
    </linearGradient>
    <linearGradient gradientTransform="matrix(-0.0231, -0.0066, -0.0066, 0.0231, -12.5, -2.35)" gradientUnits="userSpaceOnUse" id="gradient15" spreadMethod="pad" x1="-819.2" x2="819.2">
      <stop offset="0.0" stop-color="#003399"/>
      <stop offset="0.3176470588235294" stop-color="#ff3300"/>
      <stop offset="1.0" stop-color="#99ccff"/>
    </linearGradient>
    <linearGradient gradientTransform="matrix(-0.0122, 0.0065, 9.0E-4, 0.0016, -7.8, 2.9)" gradientUnits="userSpaceOnUse" id="gradient16" spreadMethod="pad" x1="-819.2" x2="819.2">
      <stop offset="0.0" stop-color="#6666cc"/>
      <stop offset="0.0784313725490196" stop-color="#9999cc"/>
      <stop offset="1.0" stop-color="#ffffff"/>
    </linearGradient>
    <radialGradient cx="0" cy="0" gradientTransform="matrix(0.0341, 0.0, 0.0, 0.0341, -10.2, -20.0)" gradientUnits="userSpaceOnUse" id="gradient17" r="819.2" spreadMethod="pad">
      <stop offset="0.0" stop-color="#ccffff"/>
      <stop offset="0.09411764705882353" stop-color="#ccffff"/>
      <stop offset="1.0" stop-color="#0099ff"/>
    </radialGradient>
    <radialGradient cx="0" cy="0" gradientTransform="matrix(0.0032, 0.0, 0.0, 0.0032, -15.5, -26.1)" gradientUnits="userSpaceOnUse" id="gradient18" r="819.2" spreadMethod="pad">
      <stop offset="0.0" stop-color="#ffff99"/>
      <stop offset="0.2980392156862745" stop-color="#ffff00"/>
      <stop offset="1.0" stop-color="#ff9933"/>
    </radialGradient>
    <radialGradient cx="0" cy="0" gradientTransform="matrix(0.0032, 0.0, 0.0, 0.0032, -5.65, -28.6)" gradientUnits="userSpaceOnUse" id="gradient19" r="819.2" spreadMethod="pad">
      <stop offset="0.0" stop-color="#ffff99"/>
      <stop offset="0.2980392156862745" stop-color="#ffff00"/>
      <stop offset="1.0" stop-color="#ff9933"/>
    </radialGradient>
    <linearGradient gradientTransform="matrix(-0.0104, -0.0104, -0.016, 0.016, -8.05, -5.55)" gradientUnits="userSpaceOnUse" id="gradient20" spreadMethod="pad" x1="-819.2" x2="819.2">
      <stop offset="0.0" stop-color="#9999cc"/>
      <stop offset="1.0" stop-color="#ffffff"/>
    </linearGradient>
    <linearGradient gradientTransform="matrix(-0.0061, 0.0, 0.0, 0.0094, -7.05, 9.55)" gradientUnits="userSpaceOnUse" id="gradient21" spreadMethod="pad" x1="-819.2" x2="819.2">
      <stop offset="0.0" stop-color="#666699"/>
      <stop offset="1.0" stop-color="#9999cc"/>
    </linearGradient>
    <linearGradient gradientTransform="matrix(0.0, 0.0096, 0.0064, 0.0, -7.0, 9.75)" gradientUnits="userSpaceOnUse" id="gradient22" spreadMethod="pad" x1="-819.2" x2="819.2">
      <stop offset="0.0" stop-color="#333399"/>
      <stop offset="0.28627450980392155" stop-color="#6666cc"/>
      <stop offset="1.0" stop-color="#cccccc"/>
    </linearGradient>
    <linearGradient gradientTransform="matrix(0.0, 0.0098, 0.0177, 0.0, -11.5, 12.9)" gradientUnits="userSpaceOnUse" id="gradient23" spreadMethod="pad" x1="-819.2" x2="819.2">
      <stop offset="0.0" stop-color="#9999cc"/>
      <stop offset="1.0" stop-color="#666699"/>
    </linearGradient>
    <linearGradient gradientTransform="matrix(-0.0018, 0.0055, 0.0047, 0.0015, -9.55, 11.8)" gradientUnits="userSpaceOnUse" id="gradient24" spreadMethod="pad" x1="-819.2" x2="819.2">
      <stop offset="0.0" stop-color="#9999cc"/>
      <stop offset="1.0" stop-color="#eeeeee"/>
    </linearGradient>
    <radialGradient cx="0" cy="0" gradientTransform="matrix(0.027, 0.0, 0.0, 0.027, -19.35, 10.75)" gradientUnits="userSpaceOnUse" id="gradient25" r="819.2" spreadMethod="pad">
      <stop offset="0.0" stop-color="#ffffff"/>
      <stop offset="0.2823529411764706" stop-color="#dddddd"/>
      <stop offset="1.0" stop-color="#9999cc"/>
    </radialGradient>
  </defs>
</svg>
