<?xml version="1.0" encoding="UTF-8" standalone="no"?>
<svg xmlns:ffdec="https://www.free-decompiler.com/flash" xmlns:xlink="http://www.w3.org/1999/xlink" ffdec:objectType="shape" height="157.0px" width="157.0px" xmlns="http://www.w3.org/2000/svg">
  <g transform="matrix(1.0, 0.0, 0.0, 1.0, 78.5, 78.5)">
    <path d="M-78.0 -0.05 Q-78.0 -19.65 -69.55 -35.85 -64.15 -46.2 -55.15 -55.15 -32.3 -78.0 0.0 -78.0 32.35 -78.0 55.15 -55.15 78.0 -32.35 78.0 -0.05 78.0 6.85 76.95 13.35 73.1 37.2 55.15 55.1 L49.45 60.35 Q43.85 65.1 37.7 68.5 33.6 70.8 29.3 72.55 15.75 78.0 0.0 78.0 -15.7 78.0 -29.25 72.55 -34.9 70.25 -40.2 67.1 -45.0 64.1 -49.45 60.35 L-55.15 55.1 Q-64.15 46.15 -69.55 35.75 -78.0 19.6 -78.0 -0.05" fill="#000000" fill-rule="evenodd" stroke="none"/>
    <path d="M-78.0 -0.05 Q-78.0 -19.65 -69.55 -35.85 -64.15 -46.2 -55.15 -55.15 -32.3 -78.0 0.0 -78.0 32.35 -78.0 55.15 -55.15 78.0 -32.35 78.0 -0.05 78.0 6.85 76.95 13.35 73.1 37.2 55.15 55.1 L49.45 60.35 Q43.85 65.1 37.7 68.5 33.6 70.8 29.3 72.55 15.75 78.0 0.0 78.0 -15.7 78.0 -29.25 72.55 -34.9 70.25 -40.2 67.1 -45.0 64.1 -49.45 60.35 L-55.15 55.1 Q-64.15 46.15 -69.55 35.75 -78.0 19.6 -78.0 -0.05 Z" fill="none" stroke="#00cc00" stroke-linecap="round" stroke-linejoin="round" stroke-width="1.0"/>
  </g>
</svg>
