<?xml version="1.0" encoding="UTF-8" standalone="no"?>
<svg xmlns:ffdec="https://www.free-decompiler.com/flash" xmlns:xlink="http://www.w3.org/1999/xlink" ffdec:objectType="shape" height="36.15px" width="44.15px" xmlns="http://www.w3.org/2000/svg">
  <g transform="matrix(1.0, 0.0, 0.0, 1.0, 26.05, 19.25)">
    <path d="M-17.45 -3.4 L-18.6 -3.35 Q-23.65 -3.3 -25.4 -5.6 -27.1 -7.9 -24.5 -11.15 -21.9 -14.45 -16.5 -16.8 -11.1 -19.2 -6.0 -19.25 -1.0 -19.35 0.75 -17.05 2.5 -14.8 -0.1 -11.5 L-0.95 -10.55 -1.25 -11.1 -1.05 -11.35 Q1.35 -14.45 -0.2 -16.5 -1.8 -18.6 -6.5 -18.55 -11.15 -18.45 -16.2 -16.25 -21.25 -14.05 -23.65 -11.0 -26.1 -7.95 -24.5 -5.85 -22.9 -3.8 -18.2 -3.85 L-17.65 -3.85 -17.45 -3.4" fill="url(#gradient0)" fill-rule="evenodd" stroke="none"/>
    <path d="M-10.25 -6.35 L-17.05 -5.65 Q-18.1 -5.5 -18.1 -4.9 L-17.65 -3.85 -18.2 -3.85 Q-22.9 -3.8 -24.5 -5.85 -26.1 -7.95 -23.65 -11.0 -21.25 -14.05 -16.2 -16.25 -11.15 -18.45 -6.5 -18.55 -1.8 -18.6 -0.2 -16.5 1.35 -14.45 -1.05 -11.35 L-1.25 -11.1 -4.3 -15.45 -5.15 -16.6 -11.4 -16.2 -12.7 -14.5 -10.95 -9.8 Q-10.45 -8.15 -10.25 -6.35 M-10.85 -15.35 L-10.9 -15.25 -11.0 -15.6 -10.85 -15.35" fill="url(#gradient1)" fill-rule="evenodd" stroke="none"/>
    <path d="M-9.1 -6.45 L-10.25 -6.35 Q-10.45 -8.15 -10.95 -9.8 L-12.7 -14.5 -11.4 -16.2 -5.15 -16.6 -4.3 -15.45 -4.55 -15.75 -10.75 -15.45 -10.8 -15.35 -10.85 -15.35 -11.0 -15.6 -10.9 -15.25 -11.5 -14.35 -10.0 -10.45 Q-9.55 -9.2 -9.1 -6.45" fill="url(#gradient2)" fill-rule="evenodd" stroke="none"/>
    <path d="M7.55 -6.95 L8.0 -7.3 -15.05 -4.75 Q-15.65 -4.7 -15.35 -4.3 L-15.4 -4.3 -7.0 13.05 15.25 7.35 7.55 -6.95 M0.85 -7.45 L7.35 -8.05 Q8.45 -8.2 8.95 -7.25 L17.9 8.45 Q18.5 9.7 17.15 10.0 L-7.0 16.75 Q-9.15 17.3 -9.55 15.85 -9.75 15.0 -17.45 -3.4 L-17.65 -3.85 -18.1 -4.9 Q-18.1 -5.5 -17.05 -5.65 L-10.25 -6.35 -9.1 -6.45 -9.1 -6.4 -9.0 -6.45 0.85 -7.45 M16.2 9.65 Q17.35 9.35 16.2 8.95 L-6.75 15.25 Q-7.1 15.3 -7.8 14.85 L-16.8 -4.8 Q-16.95 -5.3 -17.3 -5.15 L-17.6 -4.85 -8.65 15.45 Q-8.05 16.2 -7.2 16.05 L16.2 9.65" fill="url(#gradient3)" fill-rule="evenodd" stroke="none"/>
    <path d="M-15.35 -4.3 Q-15.65 -4.7 -15.05 -4.75 L8.0 -7.3 7.55 -6.95 -15.35 -4.3" fill="url(#gradient4)" fill-rule="evenodd" stroke="none"/>
    <path d="M7.55 -6.95 L15.25 7.35 -7.0 13.05 -15.4 -4.3 -15.35 -4.3 7.55 -6.95" fill="url(#gradient5)" fill-rule="evenodd" stroke="none"/>
    <path d="M-9.0 -6.45 L-9.1 -6.4 -9.1 -6.45 Q-9.55 -9.2 -10.0 -10.45 L-11.5 -14.35 -10.9 -15.25 -10.85 -15.35 -10.8 -15.35 Q-8.75 -12.1 -7.5 -8.05 L-9.0 -6.45" fill="url(#gradient6)" fill-rule="evenodd" stroke="none"/>
    <path d="M-0.95 -10.55 L0.85 -7.45 -9.0 -6.45 -7.5 -8.05 Q-8.75 -12.1 -10.8 -15.35 L-10.75 -15.45 -4.55 -15.75 -4.3 -15.45 -1.25 -11.1 -0.95 -10.55" fill="url(#gradient7)" fill-rule="evenodd" stroke="none"/>
  </g>
  <defs>
    <linearGradient gradientTransform="matrix(-0.0051, -0.0067, 0.016, -0.007, -12.3, -11.35)" gradientUnits="userSpaceOnUse" id="gradient0" spreadMethod="pad" x1="-819.2" x2="819.2">
      <stop offset="0.00784313725490196" stop-color="#ffffff"/>
      <stop offset="0.4823529411764706" stop-color="#9999cc"/>
      <stop offset="1.0" stop-color="#666699"/>
    </linearGradient>
    <radialGradient cx="0" cy="0" gradientTransform="matrix(0.0243, -0.0107, -0.014, -0.0185, -18.3, -6.75)" gradientUnits="userSpaceOnUse" id="gradient1" r="819.2" spreadMethod="pad">
      <stop offset="0.0" stop-color="#ffffff"/>
      <stop offset="0.2823529411764706" stop-color="#dddddd"/>
      <stop offset="1.0" stop-color="#9999cc"/>
    </radialGradient>
    <linearGradient gradientTransform="matrix(-0.0019, 0.0054, -0.0085, -0.0017, -7.3, -11.7)" gradientUnits="userSpaceOnUse" id="gradient2" spreadMethod="pad" x1="-819.2" x2="819.2">
      <stop offset="0.0" stop-color="#666699"/>
      <stop offset="1.0" stop-color="#9999cc"/>
    </linearGradient>
    <linearGradient gradientTransform="matrix(0.0, 0.0176, -0.0229, 0.0077, -0.55, 1.8)" gradientUnits="userSpaceOnUse" id="gradient3" spreadMethod="pad" x1="-819.2" x2="819.2">
      <stop offset="0.0" stop-color="#6666cc"/>
      <stop offset="0.32941176470588235" stop-color="#999999"/>
      <stop offset="0.8549019607843137" stop-color="#ffffff"/>
    </linearGradient>
    <linearGradient gradientTransform="matrix(-0.0144, 4.0E-4, -1.0E-4, -0.0015, -3.8, -5.95)" gradientUnits="userSpaceOnUse" id="gradient4" spreadMethod="pad" x1="-819.2" x2="819.2">
      <stop offset="0.0" stop-color="#6666cc"/>
      <stop offset="0.0784313725490196" stop-color="#9999cc"/>
      <stop offset="1.0" stop-color="#ffffff"/>
    </linearGradient>
    <linearGradient gradientTransform="matrix(-0.0035, -0.0167, 0.0093, -0.0032, -0.05, 3.05)" gradientUnits="userSpaceOnUse" id="gradient5" spreadMethod="pad" x1="-819.2" x2="819.2">
      <stop offset="0.32941176470588235" stop-color="#ffffff"/>
      <stop offset="1.0" stop-color="#66ccff"/>
    </linearGradient>
    <linearGradient gradientTransform="matrix(-0.0042, -0.0028, 0.0031, -0.0026, -9.95, -10.9)" gradientUnits="userSpaceOnUse" id="gradient6" spreadMethod="pad" x1="-819.2" x2="819.2">
      <stop offset="0.0" stop-color="#9999cc"/>
      <stop offset="1.0" stop-color="#eeeeee"/>
    </linearGradient>
    <linearGradient gradientTransform="matrix(-0.0067, -0.0054, 0.0054, -0.0038, -6.95, -10.3)" gradientUnits="userSpaceOnUse" id="gradient7" spreadMethod="pad" x1="-819.2" x2="819.2">
      <stop offset="0.0" stop-color="#333399"/>
      <stop offset="0.27450980392156865" stop-color="#6666cc"/>
      <stop offset="1.0" stop-color="#999999"/>
    </linearGradient>
  </defs>
</svg>
