<?xml version="1.0" encoding="UTF-8" standalone="no"?>
<svg xmlns:ffdec="https://www.free-decompiler.com/flash" xmlns:xlink="http://www.w3.org/1999/xlink" ffdec:objectType="shape" height="41.8px" width="70.1px" xmlns="http://www.w3.org/2000/svg">
  <g transform="matrix(1.0, 0.0, 0.0, 1.0, -0.05, 0.0)">
    <path d="M32.45 41.5 Q26.45 42.45 20.35 40.55 13.5 38.35 7.85 33.05 2.75 28.05 0.85 22.7 -1.05 17.3 1.5 14.6 5.45 10.5 12.45 15.2 L17.65 18.85 Q20.25 20.55 21.8 20.05 23.65 19.4 28.45 15.05 33.4 10.55 38.85 8.6 43.6 6.85 46.35 8.65 L48.35 10.4 50.4 11.85 Q52.05 12.4 54.25 10.25 L58.2 5.2 Q60.8 1.85 62.65 0.75 65.3 -0.8 67.7 0.8 71.05 3.1 69.85 8.65 68.7 13.9 63.9 20.35 58.95 26.9 51.95 32.2 L50.8 33.1 51.55 32.5 Q58.25 27.4 62.95 21.15 67.55 15.0 68.7 10.0 69.85 4.7 66.6 2.5 L61.8 2.35 Q60.0 3.45 57.5 6.65 L53.75 11.45 Q51.65 13.55 50.1 13.0 49.15 12.65 48.05 11.65 L46.2 9.95 Q43.55 8.2 39.0 9.9 33.75 11.8 29.05 16.1 24.5 20.25 22.7 20.85 21.2 21.35 18.7 19.7 L13.7 16.25 Q7.05 11.75 3.3 15.65 0.8 18.2 2.65 23.35 4.45 28.5 9.35 33.25 14.75 38.4 21.3 40.5 26.9 42.25 32.45 41.5" fill="#333366" fill-rule="evenodd" stroke="none"/>
    <path d="M63.75 7.35 Q63.0 7.25 61.85 8.25 55.95 12.7 53.05 14.35 L59.4 7.05 Q62.45 3.25 64.0 3.5 67.15 4.1 65.95 8.6 64.6 7.4 63.75 7.35" fill="#ccccff" fill-rule="evenodd" stroke="none"/>
    <path d="M63.75 7.35 Q64.6 7.4 65.95 8.6 67.15 4.1 64.0 3.5 62.45 3.25 59.4 7.05 L53.05 14.35 Q55.95 12.7 61.85 8.25 63.0 7.25 63.75 7.35 M32.45 41.5 Q26.9 42.25 21.3 40.5 14.75 38.4 9.35 33.25 4.45 28.5 2.65 23.35 0.8 18.2 3.3 15.65 7.05 11.75 13.7 16.25 L18.7 19.7 Q21.2 21.35 22.7 20.85 24.5 20.25 29.05 16.1 33.75 11.8 39.0 9.9 43.55 8.2 46.2 9.95 L48.05 11.65 Q49.15 12.65 50.1 13.0 51.65 13.55 53.75 11.45 L57.5 6.65 Q60.0 3.45 61.8 2.35 L66.6 2.5 Q69.85 4.7 68.7 10.0 67.55 15.0 62.95 21.15 58.25 27.4 51.55 32.5 L50.8 33.1 49.8 33.85 Q43.3 38.35 36.6 40.5 L36.3 40.6 36.1 40.65 32.45 41.5 M51.05 15.8 Q48.9 15.45 47.25 14.1 L45.0 12.15 Q40.2 8.95 31.5 16.85 27.25 20.7 22.8 23.3 29.6 22.55 38.85 16.05 41.5 14.15 44.9 15.0 49.35 16.05 51.05 15.8 M7.65 19.6 Q9.05 18.1 19.1 22.25 7.75 13.35 5.25 16.5 1.65 20.65 8.25 29.35 5.1 22.3 7.65 19.6" fill="url(#gradient0)" fill-rule="evenodd" stroke="none"/>
    <path d="M51.05 15.8 Q49.35 16.05 44.9 15.0 41.5 14.15 38.85 16.05 29.6 22.55 22.8 23.3 27.25 20.7 31.5 16.85 40.2 8.95 45.0 12.15 L47.25 14.1 Q48.9 15.45 51.05 15.8" fill="url(#gradient1)" fill-rule="evenodd" stroke="none"/>
    <path d="M7.65 19.6 Q5.1 22.3 8.25 29.35 1.65 20.65 5.25 16.5 7.75 13.35 19.1 22.25 9.05 18.1 7.65 19.6" fill="url(#gradient2)" fill-rule="evenodd" stroke="none"/>
  </g>
  <defs>
    <radialGradient cx="0" cy="0" gradientTransform="matrix(0.0558, -0.0339, -0.0409, -0.0465, 34.1, 39.9)" gradientUnits="userSpaceOnUse" id="gradient0" r="819.2" spreadMethod="pad">
      <stop offset="0.34509803921568627" stop-color="#eeeeee"/>
      <stop offset="0.6901960784313725" stop-color="#9999ff"/>
      <stop offset="1.0" stop-color="#6666cc"/>
    </radialGradient>
    <linearGradient gradientTransform="matrix(-0.0138, 0.0084, -0.004, -0.0046, 36.35, 18.9)" gradientUnits="userSpaceOnUse" id="gradient1" spreadMethod="pad" x1="-819.2" x2="819.2">
      <stop offset="0.0" stop-color="#ccccff"/>
      <stop offset="1.0" stop-color="#9999ff"/>
    </linearGradient>
    <linearGradient gradientTransform="matrix(-0.0052, -0.0059, 0.0068, -0.0042, 9.6, 21.1)" gradientUnits="userSpaceOnUse" id="gradient2" spreadMethod="pad" x1="-819.2" x2="819.2">
      <stop offset="0.0" stop-color="#9999ff"/>
      <stop offset="1.0" stop-color="#ccccff"/>
    </linearGradient>
  </defs>
</svg>
