<?xml version="1.0" encoding="UTF-8" standalone="no"?>
<svg xmlns:ffdec="https://www.free-decompiler.com/flash" xmlns:xlink="http://www.w3.org/1999/xlink" ffdec:objectType="shape" height="61.5px" width="84.4px" xmlns="http://www.w3.org/2000/svg">
  <g transform="matrix(1.0, 0.0, 0.0, 1.0, 42.2, 30.75)">
    <path d="M42.2 -21.25 L34.4 8.1 -11.85 -1.0 -3.9 -30.75 42.2 -21.25" fill="url(#gradient0)" fill-rule="evenodd" stroke="none"/>
    <path d="M40.2 -20.5 L32.95 6.65 -9.85 -1.75 -2.5 -29.3 40.2 -20.5" fill="url(#gradient1)" fill-rule="evenodd" stroke="none"/>
    <path d="M-4.0 -23.8 L1.1 -22.75 -3.3 -6.25 -8.4 -7.3 -4.0 -23.8" fill="url(#gradient2)" fill-rule="evenodd" stroke="none"/>
    <path d="M-0.75 -5.75 L3.65 -22.25 16.3 -19.65 11.9 -3.25 -0.75 -5.75" fill="url(#gradient3)" fill-rule="evenodd" stroke="none"/>
    <path d="M18.8 -19.15 L31.3 -16.6 26.95 -0.3 14.45 -2.75 18.8 -19.15" fill="url(#gradient4)" fill-rule="evenodd" stroke="none"/>
    <path d="M33.8 -16.1 L38.75 -15.05 34.4 1.2 29.45 0.2 33.8 -16.1" fill="url(#gradient5)" fill-rule="evenodd" stroke="none"/>
    <path d="M-8.2 -2.9 L-7.5 -5.65 -4.95 -5.15 -5.65 -2.4 -8.2 -2.9" fill="#ffffff" fill-rule="evenodd" stroke="none"/>
    <path d="M-4.4 -2.15 L-3.65 -4.9 -1.1 -4.4 -1.85 -1.65 -4.4 -2.15" fill="#ffffff" fill-rule="evenodd" stroke="none"/>
    <path d="M-0.55 -1.4 L0.15 -4.15 2.7 -3.65 1.95 -0.9 -0.55 -1.4" fill="#ffffff" fill-rule="evenodd" stroke="none"/>
    <path d="M3.25 -0.65 L3.95 -3.4 6.5 -2.9 5.75 -0.15 3.25 -0.65" fill="#ffffff" fill-rule="evenodd" stroke="none"/>
    <path d="M7.05 0.1 L7.75 -2.65 10.3 -2.15 9.55 0.6 7.05 0.1" fill="#ffffff" fill-rule="evenodd" stroke="none"/>
    <path d="M10.8 0.85 L11.55 -1.9 14.05 -1.4 13.35 1.35 10.8 0.85" fill="#ffffff" fill-rule="evenodd" stroke="none"/>
    <path d="M14.6 1.6 L15.35 -1.15 17.85 -0.65 17.1 2.1 14.6 1.6" fill="#ffffff" fill-rule="evenodd" stroke="none"/>
    <path d="M18.35 2.35 L19.1 -0.4 21.6 0.1 20.85 2.8 18.35 2.35" fill="#ffffff" fill-rule="evenodd" stroke="none"/>
    <path d="M22.1 3.05 L22.85 0.35 25.35 0.85 24.6 3.55 22.1 3.05" fill="#ffffff" fill-rule="evenodd" stroke="none"/>
    <path d="M25.85 3.8 L26.6 1.1 29.1 1.6 28.35 4.3 25.85 3.8" fill="#ffffff" fill-rule="evenodd" stroke="none"/>
    <path d="M29.6 4.55 L30.35 1.8 32.8 2.3 32.1 5.05 29.6 4.55" fill="#ffffff" fill-rule="evenodd" stroke="none"/>
    <path d="M-2.35 -24.9 L-1.6 -27.7 0.95 -27.15 0.2 -24.4 -2.35 -24.9" fill="#ffffff" fill-rule="evenodd" stroke="none"/>
    <path d="M1.5 -24.15 L2.2 -26.9 4.75 -26.35 4.0 -23.6 1.5 -24.15" fill="#ffffff" fill-rule="evenodd" stroke="none"/>
    <path d="M5.3 -23.35 L6.0 -26.1 8.55 -25.6 7.8 -22.85 5.3 -23.35" fill="#ffffff" fill-rule="evenodd" stroke="none"/>
    <path d="M9.1 -22.6 L9.8 -25.3 12.35 -24.8 11.6 -22.05 9.1 -22.6" fill="#ffffff" fill-rule="evenodd" stroke="none"/>
    <path d="M12.9 -21.8 L13.6 -24.55 16.15 -24.0 15.4 -21.3 12.9 -21.8" fill="#ffffff" fill-rule="evenodd" stroke="none"/>
    <path d="M16.65 -21.05 L17.4 -23.75 19.9 -23.25 19.15 -20.5 16.65 -21.05" fill="#ffffff" fill-rule="evenodd" stroke="none"/>
    <path d="M20.45 -20.25 L21.15 -23.0 23.65 -22.45 22.95 -19.75 20.45 -20.25" fill="#ffffff" fill-rule="evenodd" stroke="none"/>
    <path d="M24.2 -19.5 L24.9 -22.2 27.4 -21.7 26.7 -19.0 24.2 -19.5" fill="#ffffff" fill-rule="evenodd" stroke="none"/>
    <path d="M27.95 -18.7 L28.65 -21.45 31.15 -20.95 30.45 -18.2 27.95 -18.7" fill="#ffffff" fill-rule="evenodd" stroke="none"/>
    <path d="M31.65 -17.95 L32.4 -20.65 34.9 -20.15 34.15 -17.45 31.65 -17.95" fill="#ffffff" fill-rule="evenodd" stroke="none"/>
    <path d="M35.4 -17.2 L36.15 -19.9 38.6 -19.4 37.9 -16.7 35.4 -17.2" fill="#ffffff" fill-rule="evenodd" stroke="none"/>
    <path d="M-8.75 13.45 L-8.65 13.85 -12.5 15.15 -8.8 13.85 -8.95 13.35 -8.8 13.3 -8.75 13.45 M-16.65 15.45 L-18.1 14.6 Q-20.25 12.9 -21.3 9.9 -21.95 7.95 -21.9 6.25 -21.85 7.85 -21.3 9.65 -20.25 12.75 -18.1 14.55 L-16.65 15.45" fill="url(#gradient6)" fill-rule="evenodd" stroke="none"/>
    <path d="M-21.9 6.25 L-21.9 6.1 -21.65 4.35 Q-21.3 2.8 -20.5 1.9 L-19.0 0.7 -13.75 -1.2 -8.95 13.35 -8.8 13.85 -12.5 15.15 -13.75 15.55 -13.9 15.65 Q-15.05 16.0 -16.15 15.65 L-16.65 15.45 -18.1 14.55 Q-20.25 12.75 -21.3 9.65 -21.85 7.85 -21.9 6.25" fill="url(#gradient7)" fill-rule="evenodd" stroke="none"/>
    <path d="M-20.5 1.9 Q-19.8 0.7 -18.6 0.2 L-13.35 -1.6 -8.25 13.25 -8.75 13.45" fill="none" stroke="#996600" stroke-linecap="round" stroke-linejoin="round" stroke-width="1.0"/>
    <path d="M10.55 5.25 Q10.55 8.3 9.55 11.2 7.5 17.05 2.35 18.85 -2.8 20.6 -8.0 17.25 -13.2 13.9 -15.45 7.35 -16.65 3.8 -16.6 0.5 -16.55 3.55 -15.45 6.75 -13.2 13.3 -8.0 16.65 -2.8 20.0 2.35 18.25 7.5 16.45 9.55 10.6 10.45 8.0 10.55 5.25" fill="url(#gradient8)" fill-rule="evenodd" stroke="none"/>
    <path d="M-16.6 0.5 L-16.6 0.3 Q-16.65 -2.75 -15.65 -5.65 -13.65 -11.5 -8.5 -13.25 -3.3 -15.0 1.9 -11.65 7.1 -8.3 9.35 -1.8 10.55 1.7 10.55 5.05 L10.55 5.25 Q10.45 8.0 9.55 10.6 7.5 16.45 2.35 18.25 -2.8 20.0 -8.0 16.65 -13.2 13.3 -15.45 6.75 -16.55 3.55 -16.6 0.5 Z" ffdec:has-small-stroke="true" ffdec:original-stroke-width="0.75" fill="none" stroke="#333333" stroke-linecap="round" stroke-linejoin="round" stroke-width="1.0"/>
    <path d="M-8.0 17.4 Q-13.2 13.9 -15.45 7.1 -16.55 3.8 -16.6 0.6 L-16.6 0.4 Q-16.55 -2.45 -15.65 -5.15 -13.65 -11.25 -8.5 -13.05 -3.3 -14.85 1.9 -11.4 7.1 -7.9 9.35 -1.15 10.45 2.15 10.55 5.35 L10.55 5.55 Q10.45 8.4 9.55 11.1 7.5 17.2 2.35 19.05 -2.8 20.85 -8.0 17.4" fill="url(#gradient9)" fill-rule="evenodd" stroke="none"/>
    <path d="M-11.25 -0.3 Q-10.25 -3.4 -7.8 -4.25 L-6.1 -4.55 -5.05 -4.45 -4.95 -4.4 -4.85 -4.4 -3.85 -4.0 Q-3.25 -3.75 -2.7 -3.35 -0.15 -1.55 0.95 1.95 L1.1 2.4 1.45 4.9 1.45 5.0 1.45 5.2 1.1 7.8 1.1 7.85 1.0 8.2 0.75 8.95 0.8 8.75 0.9 8.4 0.9 8.35 1.25 5.75 1.25 5.65 1.25 5.55 1.25 5.45 0.9 2.95 0.75 2.5 Q-0.35 -1.0 -2.9 -2.8 L-4.05 -3.45 -5.05 -3.85 -5.15 -3.85 -5.25 -3.9 -6.3 -4.0 -8.0 -3.7 Q-10.2 -2.9 -11.25 -0.3" fill="#333333" fill-rule="evenodd" stroke="none"/>
    <path d="M0.75 8.95 L0.55 9.5 Q-0.45 11.95 -2.65 12.75 -5.15 13.65 -7.75 11.85 -10.3 10.05 -11.45 6.55 L-11.5 6.35 -11.95 3.25 Q-11.95 1.75 -11.5 0.35 L-11.3 -0.2 -11.25 -0.3 Q-10.2 -2.9 -8.0 -3.7 L-6.3 -4.0 -5.25 -3.9 -5.15 -3.85 -5.05 -3.85 -4.05 -3.45 -2.9 -2.8 Q-0.35 -1.0 0.75 2.5 L0.9 2.95 1.25 5.45 1.25 5.55 1.25 5.65 1.25 5.75 0.9 8.35 0.9 8.4 0.8 8.75 0.75 8.95" fill="url(#gradient10)" fill-rule="evenodd" stroke="none"/>
    <path d="M-10.25 -7.45 Q-7.85 -9.3 -4.75 -8.9 -0.8 -8.4 2.55 -4.1 6.05 0.4 5.9 6.45" fill="none" stroke="#999999" stroke-linecap="round" stroke-linejoin="round" stroke-width="1.25"/>
    <path d="M-2.75 -5.55 Q0.6 -4.1 1.9 -0.4" fill="none" stroke="#ffffff" stroke-linecap="round" stroke-linejoin="round" stroke-width="1.25"/>
    <path d="M-0.5 -9.7 Q4.8 -6.85 6.85 -1.55" fill="none" stroke="#ffffff" stroke-linecap="round" stroke-linejoin="round" stroke-width="1.25"/>
    <path d="M-24.5 -5.5 L-21.15 -4.45 -26.6 20.25 Q-17.45 16.65 -18.65 11.5 -14.7 18.0 -17.65 22.55 -20.05 26.35 -28.9 30.75 L-32.3 29.8 -24.5 -5.5" fill="url(#gradient11)" fill-rule="evenodd" stroke="none"/>
    <path d="M-41.95 -10.3 Q-41.0 -14.4 -37.3 -16.3 -33.6 -18.2 -29.3 -16.8 -25.05 -15.4 -22.75 -11.6 -20.4 -7.8 -21.3 -3.8 -22.15 0.2 -25.8 2.15 -29.45 4.1 -33.7 2.8 -38.0 1.5 -40.45 -2.35 -42.85 -6.2 -41.95 -10.3" fill="url(#gradient12)" fill-rule="evenodd" stroke="none"/>
    <path d="M-23.4 -5.15 L-22.25 -4.8 -29.75 29.1 -30.9 28.8 -23.4 -5.15" fill="url(#gradient13)" fill-rule="evenodd" stroke="none"/>
    <path d="M-40.75 -9.95 Q-39.95 -13.5 -36.7 -15.1 -33.4 -16.75 -29.6 -15.5 -25.85 -14.25 -23.75 -10.95 -21.65 -7.65 -22.4 -4.15 -23.2 -0.65 -26.4 1.0 -29.6 2.65 -33.4 1.5 -37.25 0.35 -39.4 -3.0 -41.55 -6.4 -40.75 -9.95" fill="url(#gradient14)" fill-rule="evenodd" stroke="none"/>
    <path d="M-38.95 -4.1 Q-38.7 -5.05 -37.8 -5.45 L-35.8 -5.55 Q-34.75 -5.2 -34.15 -4.3 -33.55 -3.4 -33.75 -2.45 -33.95 -1.5 -34.85 -1.1 L-36.85 -0.95 Q-37.95 -1.3 -38.55 -2.2 -39.15 -3.15 -38.95 -4.1" fill="url(#gradient15)" fill-rule="evenodd" stroke="none"/>
  </g>
  <defs>
    <linearGradient gradientTransform="matrix(-0.0052, 0.0264, -0.0232, -0.0046, 15.15, -11.35)" gradientUnits="userSpaceOnUse" id="gradient0" spreadMethod="pad" x1="-819.2" x2="819.2">
      <stop offset="0.0" stop-color="#000000"/>
      <stop offset="0.7058823529411765" stop-color="#ffffff"/>
    </linearGradient>
    <linearGradient gradientTransform="matrix(-0.0036, 0.0216, -0.0216, -0.0036, 15.2, -11.3)" gradientUnits="userSpaceOnUse" id="gradient1" spreadMethod="pad" x1="-819.2" x2="819.2">
      <stop offset="0.0" stop-color="#000000"/>
      <stop offset="0.6901960784313725" stop-color="#ffffff"/>
    </linearGradient>
    <linearGradient gradientTransform="matrix(0.0027, -0.0103, 0.0031, 8.0E-4, -3.65, -15.05)" gradientUnits="userSpaceOnUse" id="gradient2" spreadMethod="pad" x1="-819.2" x2="819.2">
      <stop offset="0.0" stop-color="#ffffff"/>
      <stop offset="1.0" stop-color="#66ccff"/>
    </linearGradient>
    <linearGradient gradientTransform="matrix(0.0028, -0.0105, 0.0076, 0.002, 7.7, -12.75)" gradientUnits="userSpaceOnUse" id="gradient3" spreadMethod="pad" x1="-819.2" x2="819.2">
      <stop offset="0.30196078431372547" stop-color="#ffffff"/>
      <stop offset="1.0" stop-color="#66ccff"/>
    </linearGradient>
    <linearGradient gradientTransform="matrix(0.0028, -0.0105, 0.0075, 0.002, 22.8, -9.75)" gradientUnits="userSpaceOnUse" id="gradient4" spreadMethod="pad" x1="-819.2" x2="819.2">
      <stop offset="0.25882352941176473" stop-color="#ffffff"/>
      <stop offset="0.9921568627450981" stop-color="#66ccff"/>
    </linearGradient>
    <linearGradient gradientTransform="matrix(0.0027, -0.0101, 0.003, 8.0E-4, 34.1, -7.45)" gradientUnits="userSpaceOnUse" id="gradient5" spreadMethod="pad" x1="-819.2" x2="819.2">
      <stop offset="0.0" stop-color="#ffffff"/>
      <stop offset="1.0" stop-color="#66ccff"/>
    </linearGradient>
    <linearGradient gradientTransform="matrix(0.0031, 0.0091, -0.0061, 0.0021, -14.85, 8.5)" gradientUnits="userSpaceOnUse" id="gradient6" spreadMethod="pad" x1="-819.2" x2="819.2">
      <stop offset="0.0" stop-color="#9999cc"/>
      <stop offset="0.0784313725490196" stop-color="#ff9933"/>
      <stop offset="0.28627450980392155" stop-color="#ffff99"/>
      <stop offset="0.6274509803921569" stop-color="#ffffff"/>
    </linearGradient>
    <linearGradient gradientTransform="matrix(0.0031, 0.0095, -0.0061, 0.0022, -14.85, 8.8)" gradientUnits="userSpaceOnUse" id="gradient7" spreadMethod="pad" x1="-819.2" x2="819.2">
      <stop offset="0.0" stop-color="#9999cc"/>
      <stop offset="0.0784313725490196" stop-color="#ff9933"/>
      <stop offset="0.28627450980392155" stop-color="#ffff99"/>
      <stop offset="0.6274509803921569" stop-color="#ffffff"/>
    </linearGradient>
    <linearGradient gradientTransform="matrix(0.0, -0.0148, 0.0196, 0.0, -3.15, 0.9)" gradientUnits="userSpaceOnUse" id="gradient8" spreadMethod="pad" x1="-819.2" x2="819.2">
      <stop offset="0.17254901960784313" stop-color="#ffffff"/>
      <stop offset="0.6392156862745098" stop-color="#666666"/>
      <stop offset="1.0" stop-color="#cccccc"/>
    </linearGradient>
    <linearGradient gradientTransform="matrix(0.0, -0.0154, 0.0196, 0.0, -3.15, 1.05)" gradientUnits="userSpaceOnUse" id="gradient9" spreadMethod="pad" x1="-819.2" x2="819.2">
      <stop offset="0.17254901960784313" stop-color="#ffffff"/>
      <stop offset="0.6392156862745098" stop-color="#666666"/>
      <stop offset="1.0" stop-color="#cccccc"/>
    </linearGradient>
    <radialGradient cx="0" cy="0" gradientTransform="matrix(0.0167, 0.0, 0.0, -0.0178, -8.2, 9.15)" gradientUnits="userSpaceOnUse" id="gradient10" r="819.2" spreadMethod="pad">
      <stop offset="0.5686274509803921" stop-color="#ffffff"/>
      <stop offset="0.8901960784313725" stop-color="#666666"/>
      <stop offset="1.0" stop-color="#9999ff"/>
    </radialGradient>
    <linearGradient gradientTransform="matrix(0.0046, -0.0174, 0.0161, 0.0043, -26.65, 12.25)" gradientUnits="userSpaceOnUse" id="gradient11" spreadMethod="pad" x1="-819.2" x2="819.2">
      <stop offset="0.11372549019607843" stop-color="#ffffff"/>
      <stop offset="0.8274509803921568" stop-color="#6666cc"/>
      <stop offset="1.0" stop-color="#6699ff"/>
    </linearGradient>
    <linearGradient gradientTransform="matrix(0.0, 0.0121, -0.0134, 0.0, -31.6, -7.05)" gradientUnits="userSpaceOnUse" id="gradient12" spreadMethod="pad" x1="-819.2" x2="819.2">
      <stop offset="0.0" stop-color="#333366"/>
      <stop offset="1.0" stop-color="#9999ff"/>
    </linearGradient>
    <linearGradient gradientTransform="matrix(-0.0041, 0.0209, -0.0012, -2.0E-4, -26.6, 11.95)" gradientUnits="userSpaceOnUse" id="gradient13" spreadMethod="pad" x1="-819.2" x2="819.2">
      <stop offset="0.0" stop-color="#9999ff"/>
      <stop offset="0.9058823529411765" stop-color="#ffffff"/>
    </linearGradient>
    <radialGradient cx="0" cy="0" gradientTransform="matrix(0.0197, 0.0, 0.0, -0.0197, -35.6, -2.05)" gradientUnits="userSpaceOnUse" id="gradient14" r="819.2" spreadMethod="pad">
      <stop offset="0.6313725490196078" stop-color="#ccccff"/>
      <stop offset="1.0" stop-color="#333366"/>
    </radialGradient>
    <radialGradient cx="0" cy="0" gradientTransform="matrix(0.0054, 0.0, 0.0, -0.0055, -37.5, -1.95)" gradientUnits="userSpaceOnUse" id="gradient15" r="819.2" spreadMethod="pad">
      <stop offset="0.0" stop-color="#ffffff"/>
      <stop offset="0.8509803921568627" stop-color="#ccccff"/>
      <stop offset="1.0" stop-color="#ccccff"/>
    </radialGradient>
  </defs>
</svg>
