<?xml version="1.0" encoding="UTF-8" standalone="no"?>
<svg xmlns:ffdec="https://www.free-decompiler.com/flash" xmlns:xlink="http://www.w3.org/1999/xlink" ffdec:objectType="shape" height="39.35px" width="39.3px" xmlns="http://www.w3.org/2000/svg">
  <g transform="matrix(1.0, 0.0, 0.0, 1.0, 19.6, 19.65)">
    <path d="M-13.6 13.0 Q-15.25 12.8 -15.15 11.2 -14.55 4.6 4.55 4.55 5.65 4.6 6.1 5.55 6.5 6.5 5.4 6.95 -2.65 6.9 -6.55 7.9 -10.65 8.95 -11.4 11.45 -11.9 13.2 -13.6 13.0" fill="url(#gradient0)" fill-rule="evenodd" stroke="none"/>
    <path d="M-13.6 13.0 Q-11.9 13.2 -11.4 11.45 -10.65 8.95 -6.55 7.9 -2.65 6.9 5.4 6.95 6.5 6.5 6.1 5.55 5.65 4.6 4.55 4.55 -14.55 4.6 -15.15 11.2 -15.25 12.8 -13.6 13.0 Z" fill="none" stroke="#666666" stroke-linecap="round" stroke-linejoin="round" stroke-width="1.1"/>
    <path d="M-10.45 4.15 L-9.45 8.65 2.55 8.75 1.35 4.35 -10.45 4.15 M-6.1 -19.0 L-3.7 -16.75 0.2 0.4 5.35 0.6 8.95 11.9 5.3 14.15 -17.2 14.2 -19.6 1.9 -16.75 -0.6 -10.1 -0.35 -11.15 -4.75 -8.65 -6.4 -11.5 -8.65 -9.65 -10.05 -12.6 -12.45 -10.45 -13.9 -13.45 -16.35 -9.4 -19.2 -6.1 -19.0" fill="url(#gradient1)" fill-rule="evenodd" stroke="none"/>
    <path d="M-10.35 4.15 L-9.35 8.65 2.65 8.7 1.45 4.35 -10.35 4.15 M-8.9 -18.6 L-6.7 -18.4 -4.7 -16.55 -0.7 0.95 4.6 1.2 7.7 11.8 -14.0 11.6 -16.6 0.1 -8.55 0.45 -9.75 -4.6 -7.1 -6.45 -9.95 -8.65 -8.0 -10.1 -11.1 -12.6 -8.9 -14.05 -12.0 -16.4 -8.9 -18.6" fill="url(#gradient2)" fill-rule="evenodd" stroke="none"/>
    <path d="M-16.3 13.3 L-18.6 2.05 -16.5 0.05 -13.8 11.5 -16.3 13.3" fill="url(#gradient3)" fill-rule="evenodd" stroke="none"/>
    <path d="M-16.3 13.3 L-13.8 11.4 7.7 11.85 4.75 13.6 -16.3 13.3" fill="url(#gradient4)" fill-rule="evenodd" stroke="none"/>
    <path d="M-10.1 -4.6 Q-9.35 -5.0 -8.75 -5.45 L-7.05 0.6 -8.75 0.55 -10.1 -4.6 M-7.2 -6.5 L-10.05 -8.7 -8.9 -9.3 -6.1 -7.15 -7.2 -6.5 M-8.85 -14.2 L-11.8 -16.6 -10.65 -17.15 -7.8 -14.85 -8.85 -14.2 M-8.1 -10.2 L-11.05 -12.6 Q-10.45 -12.85 -9.9 -13.2 L-7.0 -10.85 -8.1 -10.2" fill="url(#gradient5)" fill-rule="evenodd" stroke="none"/>
    <path d="M-8.0 -16.9 L-6.45 -16.8 -2.6 0.7 -4.0 0.65 -8.0 -16.9" fill="url(#gradient6)" fill-rule="evenodd" stroke="none"/>
    <path d="M0.8 8.7 L-0.1 5.3 1.4 4.15 2.6 8.7 0.8 8.7" fill="url(#gradient7)" fill-rule="evenodd" stroke="none"/>
    <path d="M-0.1 5.15 L-10.2 5.1 -10.25 4.05 1.35 4.25 -0.1 5.15" fill="url(#gradient8)" fill-rule="evenodd" stroke="none"/>
    <path d="M-10.2 5.0 L-0.1 5.15 0.0 5.7 -10.05 5.55 -10.2 5.0" fill="#666666" fill-rule="evenodd" stroke="none"/>
    <path d="M-9.45 8.05 L0.65 8.25 1.05 8.7 -9.3 8.7 -9.45 8.05" fill="#666666" fill-rule="evenodd" stroke="none"/>
    <path d="M-9.3 8.7 L-10.2 4.95 -9.55 5.05 -8.65 8.65 -9.3 8.7" fill="#666666" fill-rule="evenodd" stroke="none"/>
    <path d="M2.0 6.5 L13.25 9.65 14.1 5.2 3.15 2.05 2.0 6.5 M17.95 -18.65 L19.1 -15.85 14.85 1.2 19.7 2.65 17.8 14.2 13.35 15.4 -7.8 9.75 -4.45 -2.45 -0.6 -4.05 5.6 -2.15 6.6 -6.5 9.75 -7.45 8.1 -10.3 10.5 -11.15 8.8 -14.15 11.55 -14.95 9.8 -18.0 15.0 -19.65 17.95 -18.65" fill="url(#gradient9)" fill-rule="evenodd" stroke="none"/>
    <path d="M13.3 9.6 L14.25 5.2 3.25 2.0 2.1 6.5 13.3 9.6 M13.05 -14.7 L11.2 -17.75 15.15 -18.95 17.1 -18.25 18.1 -16.0 13.8 1.5 18.65 3.0 16.65 13.8 -3.65 8.1 -0.75 -3.3 6.6 -0.95 7.85 -6.05 11.2 -7.1 9.5 -9.9 12.05 -10.7 10.25 -13.9 13.05 -14.7" fill="url(#gradient10)" fill-rule="evenodd" stroke="none"/>
    <path d="M-3.55 -2.05 L-0.65 -3.35 -3.4 8.05 -6.6 9.15 -3.55 -2.05" fill="url(#gradient11)" fill-rule="evenodd" stroke="none"/>
    <path d="M-6.6 9.15 L-3.3 7.95 16.65 13.75 13.05 14.75 -6.6 9.15" fill="url(#gradient12)" fill-rule="evenodd" stroke="none"/>
    <path d="M10.8 -10.25 L12.4 -7.5 11.15 -7.2 9.5 -10.0 10.8 -10.25 M7.5 -6.1 L9.2 -6.6 7.95 -0.45 6.4 -0.95 7.5 -6.1 M13.1 -14.85 L11.45 -17.8 12.8 -18.05 14.4 -15.15 13.1 -14.85 M10.3 -13.85 L11.65 -14.15 13.3 -11.25 12.0 -10.9 10.3 -13.85" fill="url(#gradient13)" fill-rule="evenodd" stroke="none"/>
    <path d="M15.2 -17.15 L16.55 -16.7 12.15 0.75 10.9 0.35 15.2 -17.15" fill="#ffcc66" fill-rule="evenodd" stroke="none"/>
    <path d="M12.5 5.6 L2.9 2.95 3.35 2.0 14.25 5.1 12.5 5.6" fill="url(#gradient14)" fill-rule="evenodd" stroke="none"/>
    <path d="M3.05 2.9 L12.45 5.6 12.25 6.05 2.9 3.45 3.05 2.9" fill="#ffcc66" fill-rule="evenodd" stroke="none"/>
    <path d="M2.3 5.95 L11.7 8.6 11.85 9.15 2.1 6.5 2.3 5.95" fill="#996600" fill-rule="evenodd" stroke="none"/>
    <path d="M2.1 6.55 L3.0 2.85 3.6 3.1 2.8 6.7 2.1 6.55" fill="#ffcc66" fill-rule="evenodd" stroke="none"/>
    <path d="M2.9 6.2 Q3.15 4.55 3.5 4.55 7.25 4.45 10.1 6.25 12.6 7.8 12.9 9.55 13.4 12.85 8.75 15.65 4.6 18.2 -1.45 19.25 -7.7 20.25 -11.75 19.0 -16.3 17.55 -15.75 13.75 L-12.05 13.8 Q-12.75 16.4 -9.25 17.25 -6.1 18.0 -1.25 17.05 3.6 16.15 6.7 14.15 10.15 11.95 9.4 9.5 8.95 8.0 6.4 7.2 L2.9 6.2" fill="#ffffff" fill-rule="evenodd" stroke="none"/>
    <path d="M2.9 6.2 L6.4 7.2 Q8.95 8.0 9.4 9.5 10.15 11.95 6.7 14.15 3.6 16.15 -1.25 17.05 -6.1 18.0 -9.25 17.25 -12.75 16.4 -12.05 13.8 L-15.75 13.75" ffdec:has-small-stroke="true" ffdec:original-stroke-width="0.75" fill="none" stroke="#cccccc" stroke-linecap="round" stroke-linejoin="round" stroke-width="1.0"/>
  </g>
  <defs>
    <linearGradient gradientTransform="matrix(0.0059, -0.0075, 0.0084, 0.0036, -5.25, 8.4)" gradientUnits="userSpaceOnUse" id="gradient0" spreadMethod="pad" x1="-819.2" x2="819.2">
      <stop offset="0.0" stop-color="#99ccff"/>
      <stop offset="1.0" stop-color="#ffffff"/>
    </linearGradient>
    <linearGradient gradientTransform="matrix(0.0, 0.0083, -0.0032, -3.0E-4, 5.35, -0.9)" gradientUnits="userSpaceOnUse" id="gradient1" spreadMethod="pad" x1="-819.2" x2="819.2">
      <stop offset="0.050980392156862744" stop-color="#999999"/>
      <stop offset="0.8627450980392157" stop-color="#ffffff"/>
    </linearGradient>
    <linearGradient gradientTransform="matrix(-0.0091, 0.0158, -0.0062, -0.0015, -17.25, -11.7)" gradientUnits="userSpaceOnUse" id="gradient2" spreadMethod="pad" x1="-819.2" x2="819.2">
      <stop offset="0.0" stop-color="#cccccc"/>
      <stop offset="0.19607843137254902" stop-color="#999999"/>
      <stop offset="0.38823529411764707" stop-color="#ffffff"/>
      <stop offset="0.611764705882353" stop-color="#999999"/>
      <stop offset="1.0" stop-color="#ffffff"/>
    </linearGradient>
    <linearGradient gradientTransform="matrix(0.0019, -0.0078, 0.0042, 5.0E-4, -16.4, 6.85)" gradientUnits="userSpaceOnUse" id="gradient3" spreadMethod="pad" x1="-819.2" x2="819.2">
      <stop offset="0.0" stop-color="#ffffff"/>
      <stop offset="1.0" stop-color="#cccccc"/>
    </linearGradient>
    <linearGradient gradientTransform="matrix(-0.0139, -0.0019, 7.0E-4, -0.0028, -4.5, 12.35)" gradientUnits="userSpaceOnUse" id="gradient4" spreadMethod="pad" x1="-819.2" x2="819.2">
      <stop offset="0.0" stop-color="#cccccc"/>
      <stop offset="1.0" stop-color="#ffffff"/>
    </linearGradient>
    <linearGradient gradientTransform="matrix(-4.0E-4, -0.0019, 0.0022, -2.0E-4, -9.8, -15.65)" gradientUnits="userSpaceOnUse" id="gradient5" spreadMethod="pad" x1="-819.2" x2="819.2">
      <stop offset="0.0" stop-color="#999999"/>
      <stop offset="0.21568627450980393" stop-color="#dddddd"/>
      <stop offset="1.0" stop-color="#ffffff"/>
    </linearGradient>
    <linearGradient gradientTransform="matrix(-0.0025, 0.0101, -0.0057, -8.0E-4, -5.2, -8.05)" gradientUnits="userSpaceOnUse" id="gradient6" spreadMethod="pad" x1="-819.2" x2="819.2">
      <stop offset="0.0" stop-color="#999999"/>
      <stop offset="1.0" stop-color="#666666"/>
    </linearGradient>
    <linearGradient gradientTransform="matrix(-7.0E-4, 0.0028, -0.0021, -3.0E-4, 0.9, 6.5)" gradientUnits="userSpaceOnUse" id="gradient7" spreadMethod="pad" x1="-819.2" x2="819.2">
      <stop offset="0.0" stop-color="#999999"/>
      <stop offset="1.0" stop-color="#666666"/>
    </linearGradient>
    <linearGradient gradientTransform="matrix(0.0051, -0.0026, 0.0024, 0.0026, -4.65, 4.3)" gradientUnits="userSpaceOnUse" id="gradient8" spreadMethod="pad" x1="-819.2" x2="819.2">
      <stop offset="0.0" stop-color="#cccccc"/>
      <stop offset="1.0" stop-color="#ffffff"/>
    </linearGradient>
    <linearGradient gradientTransform="matrix(-0.0023, 0.003, -0.0073, -0.0032, 8.05, 5.8)" gradientUnits="userSpaceOnUse" id="gradient9" spreadMethod="pad" x1="-819.2" x2="819.2">
      <stop offset="0.0" stop-color="#cc9933"/>
      <stop offset="1.0" stop-color="#ffffff"/>
    </linearGradient>
    <linearGradient gradientTransform="matrix(0.0019, 0.0071, -0.0053, 0.0023, 2.0, -4.9)" gradientUnits="userSpaceOnUse" id="gradient10" spreadMethod="pad" x1="-819.2" x2="819.2">
      <stop offset="0.0" stop-color="#ff9933"/>
      <stop offset="0.25882352941176473" stop-color="#ffff99"/>
      <stop offset="0.8980392156862745" stop-color="#ffffff"/>
    </linearGradient>
    <linearGradient gradientTransform="matrix(0.0054, -0.0069, 0.0037, 0.0016, -3.55, 3.0)" gradientUnits="userSpaceOnUse" id="gradient11" spreadMethod="pad" x1="-819.2" x2="819.2">
      <stop offset="0.0" stop-color="#ffff99"/>
      <stop offset="1.0" stop-color="#ffcc66"/>
    </linearGradient>
    <linearGradient gradientTransform="matrix(-0.0122, -0.0053, 0.002, -0.0025, 4.75, 11.25)" gradientUnits="userSpaceOnUse" id="gradient12" spreadMethod="pad" x1="-819.2" x2="819.2">
      <stop offset="0.0" stop-color="#ffff99"/>
      <stop offset="1.0" stop-color="#ffffff"/>
    </linearGradient>
    <linearGradient gradientTransform="matrix(5.0E-4, -0.0019, 0.0022, 3.0E-4, 12.9, -16.45)" gradientUnits="userSpaceOnUse" id="gradient13" spreadMethod="pad" x1="-819.2" x2="819.2">
      <stop offset="0.0" stop-color="#ffcc66"/>
      <stop offset="0.21568627450980393" stop-color="#ffff99"/>
      <stop offset="1.0" stop-color="#ffffff"/>
    </linearGradient>
    <linearGradient gradientTransform="matrix(0.006, -0.0012, 0.0011, 0.0031, 8.4, 3.65)" gradientUnits="userSpaceOnUse" id="gradient14" spreadMethod="pad" x1="-819.2" x2="819.2">
      <stop offset="0.0" stop-color="#ffff99"/>
      <stop offset="1.0" stop-color="#ffffff"/>
    </linearGradient>
  </defs>
</svg>
