<?xml version="1.0" encoding="UTF-8" standalone="no"?>
<svg xmlns:ffdec="https://www.free-decompiler.com/flash" xmlns:xlink="http://www.w3.org/1999/xlink" ffdec:objectType="shape" height="51.3px" width="74.9px" xmlns="http://www.w3.org/2000/svg">
  <g transform="matrix(1.0, 0.0, 0.0, 1.0, 37.8, 26.0)">
    <path d="M-37.05 -22.65 L-31.25 -24.85 12.0 -13.6 12.0 -12.2 12.0 -11.8 7.0 -10.95 7.1 22.75 7.1 23.15 -37.05 19.55 -37.05 19.15 -37.05 -22.65 M12.0 -12.2 L7.0 -11.35 7.0 -10.95 7.0 -11.35 12.0 -12.2" fill="url(#gradient0)" fill-rule="evenodd" stroke="none"/>
    <path d="M12.0 -13.6 L12.0 -14.0 -31.25 -25.25 -37.05 -23.05 -37.05 -22.65 -37.05 19.15 M7.1 22.75 L7.0 -10.95 7.0 -11.35 12.0 -12.2 12.0 -13.6" fill="none" stroke="#666666" stroke-linecap="round" stroke-linejoin="round" stroke-width="1.5"/>
    <path d="M7.45 -10.55 L7.55 25.3 -36.65 21.55 -36.65 -21.05 7.45 -10.55" fill="url(#gradient1)" fill-rule="evenodd" stroke="none"/>
    <path d="M4.55 -8.95 L4.55 20.5 -34.0 16.55 -34.0 -17.2 4.55 -8.95" fill="url(#gradient2)" fill-rule="evenodd" stroke="none"/>
    <path d="M-30.85 -24.45 L12.4 -13.2 12.4 -11.4 7.4 -10.65 -36.65 -20.65 -36.65 -22.25 -30.85 -24.45" fill="url(#gradient3)" fill-rule="evenodd" stroke="none"/>
    <path d="M17.3 8.2 Q17.35 9.05 16.9 9.7 15.9 10.85 13.55 10.8 L1.85 4.75 Q0.85 3.5 0.95 2.45 1.0 1.85 1.35 1.35 2.35 -0.15 5.5 0.4 L16.65 6.3 17.3 8.2 16.9 9.3 Q15.9 10.45 13.55 10.4 L1.85 4.35 Q1.0 3.35 0.95 2.45 1.0 3.35 1.85 4.35 L13.55 10.4 Q15.9 10.45 16.9 9.3 L17.3 8.2" fill="url(#gradient4)" fill-rule="evenodd" stroke="none"/>
    <path d="M0.95 2.45 Q0.85 1.65 1.35 0.95 2.35 -0.55 5.5 0.0 L16.65 5.9 Q17.35 7.2 17.3 8.2 L16.9 9.3 Q15.9 10.45 13.55 10.4 L1.85 4.35 Q1.0 3.35 0.95 2.45 Z" fill="none" stroke="#cccccc" stroke-linecap="round" stroke-linejoin="round" stroke-width="1.5"/>
    <path d="M17.3 8.3 Q17.3 9.1 16.9 9.7 15.9 10.85 13.55 10.8 L1.85 4.75 Q0.9 3.55 0.95 2.55 0.95 1.9 1.35 1.35 2.35 -0.15 5.5 0.4 L16.65 6.3 Q17.25 7.4 17.3 8.3 L16.9 9.5 Q15.9 10.65 13.55 10.6 L1.85 4.55 Q1.0 3.5 0.95 2.55 1.0 3.5 1.85 4.55 L13.55 10.6 Q15.9 10.65 16.9 9.5 L17.3 8.3" fill="url(#gradient5)" fill-rule="evenodd" stroke="none"/>
    <path d="M0.95 2.55 Q0.9 1.8 1.35 1.15 2.35 -0.35 5.5 0.2 L16.65 6.1 Q17.35 7.35 17.3 8.3 L16.9 9.5 Q15.9 10.65 13.55 10.6 L1.85 4.55 Q1.0 3.5 0.95 2.55 Z" ffdec:has-small-stroke="true" ffdec:original-stroke-width="0.5" fill="none" stroke="#999999" stroke-linecap="round" stroke-linejoin="round" stroke-width="1.0"/>
    <path d="M-27.1 -5.65 L-3.1 16.35 -3.1 -0.65 -27.1 -5.65 Z" fill="none" stroke="#ffff99" stroke-linecap="round" stroke-linejoin="round" stroke-width="1.0"/>
    <path d="M-7.25 14.1 Q-6.4 10.6 -2.25 11.15" fill="none" stroke="#ffff99" stroke-linecap="round" stroke-linejoin="round" stroke-width="1.0"/>
    <path d="M-24.95 -1.5 Q-22.4 -3.3 -23.25 -6.15" fill="none" stroke="#ffff99" stroke-linecap="round" stroke-linejoin="round" stroke-width="1.0"/>
    <path d="M-7.55 2.85 L-7.55 -1.6 -3.1 -0.75 -3.0 3.6 -7.55 2.85 Z" fill="none" stroke="#ffff99" stroke-linecap="round" stroke-linejoin="round" stroke-width="1.0"/>
    <path d="M32.15 3.95 L32.85 6.0 34.65 4.75 34.0 6.85 36.2 6.85 34.4 8.15 36.2 9.45 34.0 9.5 34.65 11.55 32.85 10.3 32.15 12.4 31.45 10.3 29.7 11.55 30.35 9.5 28.15 9.45 29.9 8.15 28.15 6.85 30.35 6.85 29.7 4.75 31.45 6.0 32.15 3.95" fill="url(#gradient6)" fill-rule="evenodd" stroke="none"/>
    <path d="M27.5 -2.75 L26.4 -1.95 27.5 -1.1 26.1 -1.1 26.55 0.2 25.4 -0.6 24.95 0.75 24.55 -0.6 23.4 0.2 23.85 -1.1 22.45 -1.1 23.55 -1.95 22.45 -2.75 23.85 -2.75 23.4 -4.05 24.55 -3.25 24.95 -4.6 25.4 -3.25 26.55 -4.05 26.1 -2.75 27.5 -2.75" fill="url(#gradient7)" fill-rule="evenodd" stroke="none"/>
    <path d="M33.05 -4.45 L34.15 -3.65 34.6 -4.95 35.05 -3.65 36.15 -4.45 35.75 -3.1 37.1 -3.1 36.0 -2.3 37.1 -1.45 35.75 -1.45 36.15 -0.15 35.05 -0.95 34.6 0.35 34.15 -0.95 33.05 -0.15 33.45 -1.45 32.05 -1.45 33.2 -2.3 32.05 -3.1 33.45 -3.1 33.05 -4.45" fill="url(#gradient8)" fill-rule="evenodd" stroke="none"/>
  </g>
  <defs>
    <linearGradient gradientTransform="matrix(0.0251, -0.0251, 0.0275, 0.0275, -15.25, -1.8)" gradientUnits="userSpaceOnUse" id="gradient0" spreadMethod="pad" x1="-819.2" x2="819.2">
      <stop offset="0.0" stop-color="#996600"/>
      <stop offset="1.0" stop-color="#ffcc66"/>
    </linearGradient>
    <linearGradient gradientTransform="matrix(-0.0022, 0.0243, -0.038, -0.0038, -14.1, 3.65)" gradientUnits="userSpaceOnUse" id="gradient1" spreadMethod="pad" x1="-819.2" x2="819.2">
      <stop offset="0.0" stop-color="#ffcc66"/>
      <stop offset="1.0" stop-color="#ffffff"/>
    </linearGradient>
    <linearGradient gradientTransform="matrix(0.0, 0.0206, -0.0235, 0.0, -14.7, 0.55)" gradientUnits="userSpaceOnUse" id="gradient2" spreadMethod="pad" x1="-819.2" x2="819.2">
      <stop offset="0.0" stop-color="#333333"/>
      <stop offset="1.0" stop-color="#ffffff"/>
    </linearGradient>
    <linearGradient gradientTransform="matrix(-0.0183, -0.0183, 0.0127, -0.0127, -12.7, -18.0)" gradientUnits="userSpaceOnUse" id="gradient3" spreadMethod="pad" x1="-819.2" x2="819.2">
      <stop offset="0.0" stop-color="#cc9900"/>
      <stop offset="1.0" stop-color="#ffcc66"/>
    </linearGradient>
    <linearGradient gradientTransform="matrix(-0.0013, 0.0045, -0.0102, -0.0029, 9.1, 5.45)" gradientUnits="userSpaceOnUse" id="gradient4" spreadMethod="pad" x1="-819.2" x2="819.2">
      <stop offset="0.0" stop-color="#ffff99"/>
      <stop offset="1.0" stop-color="#ffffff"/>
    </linearGradient>
    <linearGradient gradientTransform="matrix(-0.0013, 0.0045, -0.0102, -0.0029, 9.1, 5.45)" gradientUnits="userSpaceOnUse" id="gradient5" spreadMethod="pad" x1="-819.2" x2="819.2">
      <stop offset="0.0" stop-color="#ffff99"/>
      <stop offset="1.0" stop-color="#ffffff"/>
    </linearGradient>
    <radialGradient cx="0" cy="0" gradientTransform="matrix(0.0052, 0.0, 0.0, -0.0052, 32.15, 8.15)" gradientUnits="userSpaceOnUse" id="gradient6" r="819.2" spreadMethod="pad">
      <stop offset="0.0" stop-color="#ffff99"/>
      <stop offset="0.2196078431372549" stop-color="#ffff00"/>
      <stop offset="1.0" stop-color="#ff9933"/>
    </radialGradient>
    <radialGradient cx="0" cy="0" gradientTransform="matrix(0.0032, 0.0, 0.0, -0.0033, 24.95, -1.95)" gradientUnits="userSpaceOnUse" id="gradient7" r="819.2" spreadMethod="pad">
      <stop offset="0.0" stop-color="#ffff99"/>
      <stop offset="0.2980392156862745" stop-color="#ffff00"/>
      <stop offset="1.0" stop-color="#ff9933"/>
    </radialGradient>
    <radialGradient cx="0" cy="0" gradientTransform="matrix(0.0032, 0.0, 0.0, -0.0032, 34.6, -2.3)" gradientUnits="userSpaceOnUse" id="gradient8" r="819.2" spreadMethod="pad">
      <stop offset="0.0" stop-color="#ffff99"/>
      <stop offset="0.2980392156862745" stop-color="#ffff00"/>
      <stop offset="1.0" stop-color="#ff9933"/>
    </radialGradient>
  </defs>
</svg>
