<?xml version="1.0" encoding="UTF-8" standalone="no"?>
<svg xmlns:ffdec="https://www.free-decompiler.com/flash" xmlns:xlink="http://www.w3.org/1999/xlink" ffdec:objectType="shape" height="41.4px" width="58.1px" xmlns="http://www.w3.org/2000/svg">
  <g transform="matrix(1.0, 0.0, 0.0, 1.0, 26.5, 28.95)">
    <path d="M13.65 -28.95 Q21.1 -28.95 26.35 -23.7 31.6 -18.4 31.6 -11.0 31.6 -3.6 26.35 1.65 21.1 6.9 13.65 6.9 6.25 6.9 1.0 1.65 -4.25 -3.55 -4.25 -11.0 -4.25 -18.45 1.0 -23.7 6.25 -28.95 13.65 -28.95" fill="url(#gradient0)" fill-rule="evenodd" stroke="none"/>
    <path d="M13.65 -28.0 Q20.7 -28.0 25.7 -23.0 30.65 -18.05 30.65 -11.0 30.65 -4.0 25.7 1.0 20.7 5.95 13.65 5.95 6.65 5.95 1.65 1.0 -3.3 -4.0 -3.3 -11.0 -3.3 -18.05 1.65 -23.0 6.65 -28.0 13.65 -28.0" fill="url(#gradient1)" fill-rule="evenodd" stroke="none"/>
    <path d="M23.45 -8.5 L23.45 -8.75 23.75 -8.75 23.75 -8.5 23.45 -8.5" fill="url(#gradient2)" fill-rule="evenodd" stroke="none"/>
    <path d="M12.65 -13.0 L12.65 -12.25 12.45 -12.25 12.45 -12.35 12.35 -12.35 12.35 -12.9 12.45 -12.9 12.45 -13.0 12.65 -13.0" fill="url(#gradient3)" fill-rule="evenodd" stroke="none"/>
    <path d="M10.6 -12.25 L11.0 -12.25 11.0 -12.15 11.3 -12.15 11.3 -11.85 11.1 -11.85 11.1 -11.75 10.9 -11.75 10.9 -11.55 10.5 -11.55 10.5 -11.65 10.3 -11.65 10.3 -11.55 10.05 -11.55 10.05 -11.45 9.85 -11.45 9.85 -11.3 9.55 -11.3 9.55 -11.2 9.25 -11.2 9.25 -11.1 8.85 -11.1 8.85 -11.2 8.6 -11.2 8.6 -11.55 8.95 -11.55 8.95 -11.45 9.05 -11.45 9.05 -11.55 9.35 -11.55 9.35 -11.65 9.45 -11.65 9.45 -11.75 9.65 -11.75 9.65 -11.85 9.95 -11.85 9.95 -12.25 10.2 -12.25 10.2 -12.05 10.05 -12.05 10.05 -11.95 10.3 -11.95 10.3 -12.15 10.6 -12.15 10.6 -12.25" fill="url(#gradient4)" fill-rule="evenodd" stroke="none"/>
    <path d="M10.05 -11.45 L10.3 -11.45 10.3 -11.0 9.95 -11.0 9.95 -11.2 10.05 -11.2 10.05 -11.45" fill="url(#gradient5)" fill-rule="evenodd" stroke="none"/>
    <path d="M11.4 -12.25 L11.85 -12.25 11.85 -12.15 12.15 -12.15 12.15 -11.95 11.4 -11.95 11.4 -12.25" fill="url(#gradient6)" fill-rule="evenodd" stroke="none"/>
    <path d="M12.35 -12.05 L12.25 -12.05 12.25 -12.15 12.35 -12.15 12.35 -12.05" fill="url(#gradient7)" fill-rule="evenodd" stroke="none"/>
    <path d="M12.45 -12.05 L12.45 -12.15 12.55 -12.15 12.55 -12.05 12.45 -12.05" fill="url(#gradient8)" fill-rule="evenodd" stroke="none"/>
    <path d="M10.3 -10.9 L10.3 -10.8 10.4 -10.8 10.4 -10.5 10.2 -10.5 10.2 -10.9 10.3 -10.9" fill="url(#gradient9)" fill-rule="evenodd" stroke="none"/>
    <path d="M10.4 -11.0 L10.4 -11.2 10.8 -11.2 10.8 -11.0 10.4 -11.0" fill="url(#gradient10)" fill-rule="evenodd" stroke="none"/>
    <path d="M10.05 -10.6 L10.05 -10.5 9.65 -10.5 9.65 -10.6 10.05 -10.6" fill="url(#gradient11)" fill-rule="evenodd" stroke="none"/>
    <path d="M18.45 -12.25 L18.7 -12.25 18.7 -12.15 18.8 -12.15 18.8 -11.95 18.9 -11.95 18.9 -11.75 18.55 -11.75 18.55 -11.95 18.45 -11.95 18.45 -12.25" fill="url(#gradient12)" fill-rule="evenodd" stroke="none"/>
    <path d="M8.0 4.95 L7.9 4.95 7.9 4.85 8.0 4.85 8.0 4.95" fill="url(#gradient13)" fill-rule="evenodd" stroke="none"/>
    <path d="M15.25 -19.3 L15.25 -19.2 15.45 -19.2 15.45 -19.1 15.55 -19.1 15.55 -19.0 15.65 -19.0 15.65 -18.9 15.75 -18.9 15.75 -18.8 15.9 -18.8 15.9 -18.6 16.0 -18.6 16.0 -18.05 16.1 -18.05 16.1 -17.65 16.2 -17.65 16.2 -17.45 16.3 -17.45 16.3 -17.25 16.4 -17.25 16.4 -17.15 16.5 -17.15 16.5 -16.9 16.6 -16.9 16.6 -16.8 16.7 -16.8 16.7 -16.0 16.5 -16.0 16.5 -15.9 16.3 -15.9 16.3 -15.8 16.2 -15.8 16.2 -15.65 15.9 -15.65 15.9 -15.55 15.45 -15.55 15.45 -15.45 15.15 -15.45 15.15 -15.15 14.2 -15.15 14.2 -14.65 14.1 -14.65 14.1 -14.55 14.0 -14.55 14.0 -14.45 13.9 -14.45 13.9 -14.35 13.7 -14.35 13.7 -14.2 13.6 -14.2 13.6 -14.1 13.2 -14.1 13.2 -14.0 13.0 -14.0 13.0 -13.9 12.85 -13.9 12.85 -13.8 12.75 -13.8 12.75 -13.7 12.65 -13.7 12.65 -13.6 12.55 -13.6 12.55 -13.5 12.45 -13.5 12.45 -13.4 12.25 -13.4 12.25 -13.3 11.65 -13.3 11.65 -13.4 11.5 -13.4 11.5 -13.3 11.4 -13.3 11.4 -13.2 11.2 -13.2 11.2 -13.0 10.7 -13.0 10.7 -13.1 10.5 -13.1 10.5 -13.2 10.2 -13.2 10.2 -13.3 10.05 -13.3 10.05 -13.5 9.95 -13.5 9.95 -13.6 9.85 -13.6 9.85 -13.5 9.45 -13.5 9.45 -13.6 9.25 -13.6 9.25 -13.5 9.05 -13.5 9.05 -13.4 8.95 -13.4 8.95 -13.2 8.85 -13.2 8.85 -13.1 8.95 -13.1 8.95 -12.35 8.3 -12.35 8.3 -11.75 8.4 -11.75 8.4 -11.45 7.9 -11.45 7.9 -11.55 7.6 -11.55 7.6 -11.75 7.5 -11.75 7.5 -11.85 7.3 -11.85 7.3 -11.95 6.95 -11.95 6.95 -11.85 6.65 -11.85 6.65 -11.75 6.55 -11.75 6.55 -11.45 6.45 -11.45 6.45 -11.2 6.35 -11.2 6.35 -10.9 6.25 -10.9 6.25 -10.5 6.35 -10.5 6.35 -10.4 6.45 -10.4 6.45 -10.3 6.65 -10.3 6.65 -10.2 7.6 -10.2 7.6 -10.1 8.5 -10.1 8.5 -10.2 8.6 -10.2 8.6 -10.5 8.75 -10.5 8.75 -10.7 8.85 -10.7 8.85 -10.8 8.95 -10.8 8.95 -10.9 9.05 -10.9 9.05 -11.0 9.35 -11.0 9.35 -10.9 9.45 -10.9 9.45 -10.6 9.35 -10.6 9.35 -10.4 9.25 -10.4 9.25 -10.2 9.15 -10.2 9.15 -9.75 9.25 -9.75 9.25 -9.55 9.45 -9.55 9.45 -9.45 9.55 -9.45 9.55 -9.35 9.65 -9.35 9.65 -9.15 9.85 -9.15 9.85 -9.05 9.95 -9.05 9.95 -8.95 10.05 -8.95 10.05 -8.75 9.95 -8.75 9.95 -8.65 10.2 -8.65 10.2 -8.4 10.4 -8.4 10.4 -7.8 11.1 -7.8 11.1 -7.7 11.2 -7.7 11.2 -7.6 11.1 -7.6 11.1 -7.5 11.0 -7.5 11.0 -7.4 11.1 -7.4 11.1 -7.3 11.2 -7.3 11.2 -7.2 11.4 -7.2 11.4 -7.3 11.85 -7.3 11.85 -7.2 12.05 -7.2 12.05 -7.05 12.25 -7.05 12.25 -6.85 12.15 -6.85 12.15 -6.75 12.05 -6.75 12.05 -6.65 11.85 -6.65 11.85 -6.55 11.75 -6.55 11.75 -6.25 11.85 -6.25 11.85 -5.85 11.5 -5.85 11.5 -5.95 11.4 -5.95 11.4 -5.85 11.5 -5.85 11.5 -5.75 12.25 -5.75 12.25 -5.6 12.55 -5.6 12.55 -5.75 12.75 -5.75 12.75 -5.6 12.85 -5.6 12.85 -5.5 13.0 -5.5 13.0 -5.4 13.1 -5.4 13.1 -5.3 13.3 -5.3 13.3 -5.2 13.4 -5.2 13.4 -4.8 13.3 -4.8 13.3 -4.6 13.2 -4.6 13.2 -4.5 13.1 -4.5 13.1 -4.4 12.65 -4.4 12.65 -4.25 12.55 -4.25 12.55 -3.95 12.45 -3.95 12.45 -3.85 12.35 -3.85 12.35 -3.65 12.25 -3.65 12.25 -3.35 12.15 -3.35 12.15 -3.15 12.05 -3.15 12.05 -2.95 11.95 -2.95 11.95 -2.7 11.75 -2.7 11.75 -2.8 11.65 -2.8 11.65 -3.15 11.4 -3.15 11.4 -3.25 11.1 -3.25 11.1 -3.15 11.0 -3.15 11.0 -2.4 10.8 -2.4 10.8 -2.3 10.7 -2.3 10.7 -2.2 10.6 -2.2 10.6 -2.1 9.95 -2.1 9.95 -2.0 9.85 -2.0 9.85 -1.9 10.2 -1.9 10.2 -1.5 9.95 -1.5 9.95 -1.6 9.85 -1.6 9.85 -1.7 9.65 -1.7 9.65 -1.6 9.55 -1.6 9.55 -1.5 9.45 -1.5 9.45 -1.25 9.25 -1.25 9.25 -1.15 9.15 -1.15 9.15 -1.05 8.95 -1.05 8.95 -0.85 8.85 -0.85 8.85 -0.95 8.75 -0.95 8.75 -1.05 8.5 -1.05 8.5 -1.25 8.4 -1.25 8.4 -1.6 8.6 -1.6 8.6 -1.8 8.95 -1.8 8.95 -1.7 9.05 -1.7 9.05 -1.6 9.25 -1.6 9.25 -1.7 9.45 -1.7 9.45 -2.2 9.35 -2.2 9.35 -2.6 9.45 -2.6 9.45 -2.95 9.35 -2.95 9.35 -3.55 9.45 -3.55 9.45 -3.95 9.55 -3.95 9.55 -4.05 9.45 -4.05 9.45 -4.15 9.35 -4.15 9.35 -4.25 9.25 -4.25 9.25 -4.4 9.15 -4.4 9.15 -5.1 9.25 -5.1 9.25 -5.3 9.15 -5.3 9.15 -5.4 9.05 -5.4 9.05 -5.3 8.95 -5.3 8.95 -5.1 8.85 -5.1 8.85 -5.0 8.75 -5.0 8.75 -4.7 8.6 -4.7 8.6 -4.4 8.5 -4.4 8.5 -4.25 7.6 -4.25 7.6 -4.15 7.5 -4.15 7.5 -4.05 7.4 -4.05 7.4 -3.75 7.3 -3.75 7.3 -3.55 7.05 -3.55 7.05 -3.45 6.95 -3.45 6.95 -3.25 6.85 -3.25 6.85 -3.35 6.75 -3.35 6.75 -3.25 6.65 -3.25 6.65 -3.15 6.55 -3.15 6.55 -2.95 6.65 -2.95 6.65 -2.6 6.75 -2.6 6.75 -2.5 6.85 -2.5 6.85 -2.4 6.95 -2.4 6.95 -2.3 7.05 -2.3 7.05 -2.1 7.3 -2.1 7.3 -2.0 7.8 -2.0 7.8 -1.5 7.9 -1.5 7.9 -1.25 8.0 -1.25 8.0 -1.15 8.1 -1.15 8.1 -0.85 7.9 -0.85 7.9 -0.75 8.2 -0.75 8.2 -0.85 8.4 -0.85 8.4 -0.75 8.85 -0.75 8.85 -0.55 8.95 -0.55 8.95 -0.45 9.05 -0.45 9.05 0.1 8.85 0.1 8.85 0.2 8.95 0.2 8.95 0.3 9.05 0.3 9.05 0.6 8.85 0.6 8.85 0.9 8.3 0.9 8.3 0.6 8.4 0.6 8.4 0.5 8.3 0.5 8.3 0.4 8.2 0.4 8.2 0.1 8.1 0.1 8.1 0.2 8.0 0.2 8.0 0.6 7.8 0.6 7.8 0.5 7.7 0.5 7.7 0.6 7.4 0.6 7.4 1.1 7.3 1.1 7.3 1.55 7.15 1.55 7.15 1.95 6.65 1.95 6.65 2.9 6.55 2.9 6.55 3.0 5.95 3.0 5.95 2.9 5.8 2.9 5.8 2.45 5.5 2.45 5.5 2.15 5.6 2.15 5.6 2.05 5.7 2.05 5.7 1.95 5.8 1.95 5.8 1.75 6.05 1.75 6.05 1.65 6.55 1.65 6.55 1.75 6.65 1.75 6.65 1.55 6.55 1.55 6.55 1.45 6.45 1.45 6.45 1.2 6.25 1.2 6.25 1.0 6.05 1.0 6.05 1.3 5.7 1.3 5.7 1.45 5.4 1.45 5.4 1.65 5.3 1.65 5.3 2.25 5.2 2.25 5.2 2.35 4.9 2.35 4.9 2.25 4.8 2.25 4.8 2.35 4.35 2.35 4.35 2.45 4.05 2.45 4.05 2.25 3.95 2.25 3.95 2.55 3.75 2.55 3.75 2.65 3.65 2.65 3.65 2.55 3.55 2.55 3.55 2.35 3.45 2.35 3.45 2.45 3.35 2.45 3.35 2.35 3.25 2.35 3.25 2.25 3.15 2.25 3.15 2.15 3.05 2.15 3.05 2.05 2.8 2.05 2.8 1.95 2.7 1.95 2.7 1.85 2.9 1.85 2.9 1.95 3.05 1.95 3.05 1.75 3.15 1.75 3.15 1.45 3.35 1.45 3.35 1.3 3.75 1.3 3.75 1.45 3.95 1.45 3.95 1.3 4.15 1.3 4.15 1.2 3.35 1.2 3.35 0.9 3.45 0.9 3.45 0.8 3.75 0.8 3.75 0.7 3.85 0.7 3.85 0.6 4.35 0.6 4.35 0.7 4.9 0.7 4.9 0.8 5.2 0.8 5.2 0.7 5.7 0.7 5.7 0.8 5.8 0.8 5.8 1.0 5.95 1.0 5.95 0.7 6.15 0.7 6.15 0.6 6.35 0.6 6.35 0.7 6.55 0.7 6.55 0.6 6.65 0.6 6.65 0.4 6.75 0.4 6.75 0.3 6.85 0.3 6.85 0.1 6.75 0.1 6.75 -0.05 6.45 -0.05 6.45 0.1 6.55 0.1 6.55 0.3 5.95 0.3 5.95 -0.05 5.5 -0.05 5.5 -0.15 5.4 -0.15 5.4 -0.05 5.3 -0.05 5.3 0.1 5.2 0.1 5.2 0.2 4.9 0.2 4.9 0.4 4.8 0.4 4.8 0.5 4.7 0.5 4.7 0.4 4.25 0.4 4.25 0.3 4.15 0.3 4.15 -0.05 4.25 -0.05 4.25 -0.15 4.15 -0.15 4.15 -0.25 4.05 -0.25 4.05 -0.05 3.95 -0.05 3.95 0.1 3.75 0.1 3.75 -0.05 3.25 -0.05 3.25 0.1 3.35 0.1 3.35 0.4 3.25 0.4 3.25 0.5 3.15 0.5 3.15 0.6 2.9 0.6 2.9 0.4 2.8 0.4 2.8 0.5 2.7 0.5 2.7 0.6 2.6 0.6 2.6 0.7 2.4 0.7 2.4 0.8 2.2 0.8 2.2 0.9 1.7 0.9 1.7 0.8 1.6 0.8 1.6 0.7 1.45 0.7 1.45 0.6 1.35 0.6 1.35 0.5 1.25 0.5 1.25 0.4 1.15 0.4 1.15 0.3 1.05 0.3 1.05 0.2 0.95 0.2 0.95 0.1 0.85 0.1 0.85 -0.05 0.75 -0.05 0.75 -0.15 0.65 -0.15 0.65 -0.35 0.55 -0.35 0.55 -0.45 0.45 -0.45 0.45 -0.55 0.35 -0.55 0.35 -0.65 0.25 -0.65 0.25 -0.85 0.1 -0.85 0.1 -0.95 0.0 -0.95 0.0 -1.15 -0.1 -1.15 -0.1 -1.25 -0.2 -1.25 -0.2 -1.35 -0.3 -1.35 -0.3 -1.6 -0.4 -1.6 -0.4 -1.7 -0.5 -1.7 -0.5 -1.9 -0.6 -1.9 -0.6 -2.0 -0.7 -2.0 -0.7 -2.2 -0.8 -2.2 -0.8 -2.4 -0.9 -2.4 -0.9 -2.5 -1.0 -2.5 -1.0 -2.7 -1.1 -2.7 -1.1 -2.95 -1.2 -2.95 -1.2 -3.15 -1.1 -3.15 -1.1 -3.25 -1.0 -3.25 -1.0 -3.35 -0.6 -3.35 -0.6 -3.45 -0.3 -3.45 -0.3 -3.55 -0.2 -3.55 -0.2 -3.65 -0.1 -3.65 -0.1 -3.85 0.1 -3.85 0.1 -4.15 0.25 -4.15 0.25 -4.25 0.45 -4.25 0.45 -4.4 0.35 -4.4 0.35 -4.7 0.45 -4.7 0.45 -5.0 0.55 -5.0 0.55 -5.1 0.65 -5.1 0.65 -5.2 0.75 -5.2 0.75 -5.4 0.85 -5.4 0.85 -5.5 1.05 -5.5 1.05 -5.6 1.15 -5.6 1.15 -5.75 1.35 -5.75 1.35 -5.85 1.45 -5.85 1.45 -5.95 1.6 -5.95 1.6 -6.65 1.45 -6.65 1.45 -7.2 1.35 -7.2 1.35 -8.2 1.45 -8.2 1.45 -8.4 1.6 -8.4 1.6 -8.65 1.7 -8.65 1.7 -8.75 1.8 -8.75 1.8 -8.95 2.0 -8.95 2.0 -9.15 2.1 -9.15 2.1 -9.25 2.2 -9.25 2.2 -9.35 2.5 -9.35 2.5 -9.45 2.6 -9.45 2.6 -9.75 2.7 -9.75 2.7 -9.85 2.8 -9.85 2.8 -10.1 2.9 -10.1 2.9 -10.2 3.05 -10.2 3.05 -10.4 3.15 -10.4 3.15 -10.6 3.35 -10.6 3.35 -10.7 3.45 -10.7 3.45 -10.8 3.55 -10.8 3.55 -11.0 3.65 -11.0 3.65 -11.1 3.75 -11.1 3.75 -11.3 3.95 -11.3 3.95 -11.45 4.25 -11.45 4.25 -11.2 4.15 -11.2 4.15 -11.1 4.05 -11.1 4.05 -10.9 3.95 -10.9 3.95 -10.8 3.85 -10.8 3.85 -10.6 4.05 -10.6 4.05 -10.8 4.15 -10.8 4.15 -10.9 4.35 -10.9 4.35 -11.1 4.6 -11.1 4.6 -11.2 4.7 -11.2 4.7 -11.3 4.8 -11.3 4.8 -11.75 4.9 -11.75 4.9 -12.05 5.1 -12.05 5.1 -12.15 5.5 -12.15 5.5 -12.25 5.7 -12.25 5.7 -12.35 6.25 -12.35 6.25 -12.55 7.4 -12.55 7.4 -12.65 7.5 -12.65 7.5 -12.75 7.6 -12.75 7.6 -12.9 7.7 -12.9 7.7 -13.0 8.0 -13.0 8.0 -13.1 8.2 -13.1 8.2 -13.2 8.3 -13.2 8.3 -13.4 8.4 -13.4 8.4 -13.7 8.6 -13.7 8.6 -13.8 9.35 -13.8 9.35 -13.9 9.75 -13.9 9.75 -14.0 9.85 -14.0 9.85 -14.45 9.75 -14.45 9.75 -14.65 9.65 -14.65 9.65 -14.85 9.55 -14.85 9.55 -15.15 9.45 -15.15 9.45 -15.35 9.25 -15.35 9.25 -15.45 9.15 -15.45 9.15 -15.9 9.05 -15.9 9.05 -16.1 9.15 -16.1 9.15 -16.4 9.25 -16.4 9.25 -16.5 9.35 -16.5 9.35 -16.6 9.45 -16.6 9.45 -16.8 9.55 -16.8 9.55 -17.0 9.65 -17.0 9.65 -17.55 9.75 -17.55 9.75 -17.65 9.85 -17.65 9.85 -17.75 9.95 -17.75 9.95 -17.85 10.05 -17.85 10.05 -17.95 10.3 -17.95 10.3 -18.05 10.5 -18.05 10.5 -18.15 10.6 -18.15 10.6 -18.25 10.7 -18.25 10.7 -18.35 10.8 -18.35 10.8 -20.05 10.7 -20.05 10.7 -20.35 10.6 -20.35 10.6 -21.05 10.5 -21.05 10.5 -21.6 10.4 -21.6 10.4 -21.9 10.3 -21.9 10.3 -22.6 10.4 -22.6 10.4 -22.7 10.3 -22.7 10.3 -22.95 10.2 -22.95 10.2 -23.15 10.3 -23.15 10.3 -23.95 10.2 -23.95 10.2 -24.05 10.05 -24.05 10.05 -24.5 9.95 -24.5 9.95 -25.75 10.05 -25.75 10.05 -25.85 10.2 -25.85 10.2 -25.95 10.3 -25.95 10.3 -26.05 10.5 -26.05 10.5 -25.95 10.7 -25.95 10.7 -26.05 10.8 -26.05 10.8 -26.25 10.6 -26.25 10.6 -26.55 10.8 -26.55 10.8 -26.75 11.2 -26.75 11.2 -26.85 11.4 -26.85 11.4 -26.75 11.65 -26.75 11.65 -26.85 11.85 -26.85 11.85 -26.65 11.95 -26.65 11.95 -26.35 11.85 -26.35 11.85 -26.25 11.75 -26.25 11.75 -26.15 11.4 -26.15 11.4 -26.05 11.3 -26.05 11.3 -25.95 11.2 -25.95 11.2 -25.5 11.1 -25.5 11.1 -25.3 11.2 -25.3 11.2 -25.2 11.3 -25.2 11.3 -25.0 11.4 -25.0 11.4 -24.9 11.5 -24.9 11.5 -24.8 11.65 -24.8 11.65 -24.3 11.4 -24.3 11.4 -23.95 11.65 -23.95 11.65 -23.85 11.75 -23.85 11.75 -23.55 11.85 -23.55 11.85 -23.35 11.95 -23.35 11.95 -23.05 11.85 -23.05 11.85 -22.95 12.15 -22.95 12.15 -22.7 12.25 -22.7 12.25 -22.4 12.55 -22.4 12.55 -22.5 12.75 -22.5 12.75 -22.4 13.0 -22.4 13.0 -22.3 13.1 -22.3 13.1 -21.7 13.0 -21.7 13.0 -21.6 13.6 -21.6 13.6 -21.5 13.7 -21.5 13.7 -21.25 13.8 -21.25 13.8 -21.05 13.9 -21.05 13.9 -20.85 14.0 -20.85 14.0 -20.55 14.1 -20.55 14.1 -20.45 14.2 -20.45 14.2 -20.25 14.3 -20.25 14.3 -20.05 14.45 -20.05 14.45 -19.7 14.55 -19.7 14.55 -19.6 14.65 -19.6 14.65 -19.5 14.85 -19.5 14.85 -19.3 15.25 -19.3 M14.0 -15.35 L13.9 -15.35 13.9 -15.25 14.0 -15.25 14.0 -15.35 M11.3 -6.05 L11.2 -6.05 11.2 -5.95 11.3 -5.95 11.3 -6.05 M9.25 -6.85 L9.15 -6.85 9.15 -6.75 9.25 -6.75 9.25 -6.85 M9.55 -7.3 L9.45 -7.3 9.45 -7.4 9.35 -7.4 9.35 -7.5 8.95 -7.5 8.95 -7.4 9.05 -7.4 9.05 -7.3 9.45 -7.3 9.45 -6.95 9.65 -6.95 9.65 -7.05 9.55 -7.05 9.55 -7.3 M8.5 -6.75 L8.5 -6.65 8.95 -6.65 8.95 -6.75 8.85 -6.75 8.85 -7.05 8.75 -7.05 8.75 -6.75 8.5 -6.75 M7.6 -6.25 L7.6 -6.15 7.9 -6.15 7.9 -6.25 8.0 -6.25 8.0 -6.35 8.2 -6.35 8.2 -6.45 7.9 -6.45 7.9 -6.35 7.8 -6.35 7.8 -6.45 7.4 -6.45 7.4 -6.35 7.5 -6.35 7.5 -6.25 7.6 -6.25 M8.1 -7.05 L8.1 -6.95 8.2 -6.95 8.2 -7.2 8.1 -7.2 8.1 -7.5 7.9 -7.5 7.9 -7.4 8.0 -7.4 8.0 -7.05 8.1 -7.05" fill="url(#gradient14)" fill-rule="evenodd" stroke="none"/>
    <path d="M25.0 -19.0 L25.1 -19.0 25.1 -19.3 25.2 -19.3 25.2 -19.6 25.3 -19.6 25.3 -19.9 25.4 -19.9 25.4 -20.15 25.5 -20.15 25.5 -20.55 25.6 -20.55 25.6 -20.65 25.7 -20.65 25.7 -20.75 25.85 -20.75 25.85 -20.95 25.95 -20.95 25.95 -21.5 26.15 -21.5 26.15 -21.6 26.65 -21.6 26.65 -21.5 27.3 -21.5 27.3 -21.25 27.4 -21.25 27.4 -21.15 27.5 -21.15 27.5 -20.95 27.6 -20.95 27.6 -20.85 27.7 -20.85 27.7 -20.75 27.8 -20.75 27.8 -20.55 27.9 -20.55 27.9 -20.45 28.0 -20.45 28.0 -20.25 28.1 -20.25 28.1 -20.15 28.2 -20.15 28.2 -19.9 28.3 -19.9 28.3 -19.7 28.4 -19.7 28.4 -19.6 28.5 -19.6 28.5 -19.4 28.6 -19.4 28.6 -19.2 28.75 -19.2 28.75 -19.0 28.85 -19.0 28.85 -18.8 28.95 -18.8 28.95 -18.6 29.05 -18.6 29.05 -18.35 29.15 -18.35 29.15 -18.15 29.25 -18.15 29.25 -17.95 29.35 -17.95 29.35 -17.65 29.45 -17.65 29.45 -17.45 29.55 -17.45 29.55 -17.15 29.65 -17.15 29.65 -16.9 29.75 -16.9 29.75 -16.7 29.65 -16.7 29.65 -16.5 29.75 -16.5 29.75 -16.3 29.85 -16.3 29.85 -16.2 29.95 -16.2 29.95 -16.0 30.1 -16.0 30.1 -15.55 30.2 -15.55 30.2 -15.15 30.3 -15.15 30.3 -14.75 30.4 -14.75 30.4 -14.2 30.5 -14.2 30.5 -13.7 30.4 -13.7 30.4 -13.6 30.6 -13.6 30.6 -8.4 30.5 -8.4 30.5 -7.9 30.4 -7.9 30.4 -7.4 30.3 -7.4 30.3 -6.95 30.2 -6.95 30.2 -6.55 30.1 -6.55 30.1 -6.15 29.95 -6.15 29.95 -5.85 29.85 -5.85 29.85 -5.5 29.75 -5.5 29.75 -5.2 29.65 -5.2 29.65 -5.0 29.55 -5.0 29.55 -4.7 29.45 -4.7 29.45 -4.5 29.35 -4.5 29.35 -4.15 29.25 -4.15 29.25 -3.95 29.15 -3.95 29.15 -3.75 29.05 -3.75 29.05 -3.55 28.95 -3.55 28.95 -3.35 28.85 -3.35 28.85 -3.15 28.75 -3.15 28.75 -2.95 28.6 -2.95 28.6 -2.7 28.5 -2.7 28.5 -2.5 28.4 -2.5 28.4 -2.4 28.3 -2.4 28.3 -2.2 28.2 -2.2 28.2 -2.0 28.1 -2.0 28.1 -1.9 28.0 -1.9 28.0 -1.7 27.9 -1.7 27.9 -1.6 27.8 -1.6 27.8 -1.35 27.7 -1.35 27.7 -1.25 27.6 -1.25 27.6 -1.15 27.5 -1.15 27.5 -0.95 27.4 -0.95 27.4 -0.85 27.3 -0.85 27.3 -0.65 27.15 -0.65 27.15 -0.55 27.05 -0.55 27.05 -0.45 26.95 -0.45 26.95 -0.35 26.85 -0.35 26.85 -0.15 26.75 -0.15 26.75 -0.05 26.65 -0.05 26.65 0.1 26.55 0.1 26.55 0.2 26.45 0.2 26.45 0.3 26.15 0.3 26.15 0.2 26.05 0.2 26.05 -0.05 25.95 -0.05 25.95 -0.35 25.85 -0.35 25.85 -0.55 25.7 -0.55 25.7 -0.75 25.6 -0.75 25.6 -1.05 25.4 -1.05 25.4 -1.25 25.3 -1.25 25.3 -1.5 25.2 -1.5 25.2 -1.7 25.1 -1.7 25.1 -1.8 25.0 -1.8 25.0 -1.9 24.9 -1.9 24.9 -2.0 24.8 -2.0 24.8 -2.1 24.7 -2.1 24.7 -2.2 24.6 -2.2 24.6 -2.3 24.4 -2.3 24.4 -2.4 24.25 -2.4 24.25 -2.5 24.15 -2.5 24.15 -2.6 23.95 -2.6 23.95 -2.7 24.05 -2.7 24.05 -2.8 23.95 -2.8 23.95 -3.15 24.05 -3.15 24.05 -3.55 23.95 -3.55 23.95 -3.75 24.05 -3.75 24.05 -4.05 24.15 -4.05 24.15 -4.15 24.7 -4.15 24.7 -4.05 24.8 -4.05 24.8 -3.95 24.9 -3.95 24.9 -3.75 25.0 -3.75 25.0 -3.65 25.1 -3.65 25.1 -3.55 25.2 -3.55 25.2 -3.95 25.1 -3.95 25.1 -4.15 25.2 -4.15 25.2 -4.5 25.3 -4.5 25.3 -4.7 25.4 -4.7 25.4 -4.8 25.85 -4.8 25.85 -4.7 26.05 -4.7 26.05 -4.5 26.15 -4.5 26.15 -4.15 26.25 -4.15 26.25 -3.95 26.35 -3.95 26.35 -3.75 26.45 -3.75 26.45 -3.65 26.55 -3.65 26.55 -3.25 26.35 -3.25 26.35 -2.6 26.45 -2.6 26.45 -2.5 26.55 -2.5 26.55 -2.4 26.75 -2.4 26.75 -2.3 26.85 -2.3 26.85 -3.35 26.95 -3.35 26.95 -3.45 27.15 -3.45 27.15 -3.55 27.3 -3.55 27.3 -3.65 27.15 -3.65 27.15 -4.05 27.3 -4.05 27.3 -4.25 27.15 -4.25 27.15 -4.15 27.05 -4.15 27.05 -4.05 26.95 -4.05 26.95 -4.15 26.85 -4.15 26.85 -4.25 26.75 -4.25 26.75 -4.4 26.65 -4.4 26.65 -4.7 26.55 -4.7 26.55 -4.9 26.35 -4.9 26.35 -5.0 26.25 -5.0 26.25 -4.9 26.05 -4.9 26.05 -5.0 25.95 -5.0 25.95 -5.1 25.5 -5.1 25.5 -5.0 25.0 -5.0 25.0 -4.6 25.1 -4.6 25.1 -4.4 25.0 -4.4 25.0 -4.05 24.9 -4.05 24.9 -4.15 24.7 -4.15 24.7 -4.25 24.6 -4.25 24.6 -4.4 24.5 -4.4 24.5 -4.8 24.6 -4.8 24.6 -5.2 24.4 -5.2 24.4 -5.3 23.95 -5.3 23.95 -5.5 23.85 -5.5 23.85 -5.75 23.75 -5.75 23.75 -5.85 23.65 -5.85 23.65 -5.95 23.55 -5.95 23.55 -5.5 23.45 -5.5 23.45 -5.4 23.35 -5.4 23.35 -5.3 23.25 -5.3 23.25 -5.1 23.15 -5.1 23.15 -5.0 23.05 -5.0 23.05 -4.15 22.7 -4.15 22.7 -4.05 22.6 -4.05 22.6 -3.95 22.7 -3.95 22.7 -3.75 22.3 -3.75 22.3 -3.85 22.2 -3.85 22.2 -4.15 22.1 -4.15 22.1 -4.6 22.2 -4.6 22.2 -4.8 21.6 -4.8 21.6 -5.1 21.45 -5.1 21.45 -5.0 21.25 -5.0 21.25 -5.1 21.15 -5.1 21.15 -5.3 21.35 -5.3 21.35 -5.95 21.8 -5.95 21.8 -5.85 22.1 -5.85 22.1 -5.75 22.2 -5.75 22.2 -5.85 22.4 -5.85 22.4 -5.95 22.2 -5.95 22.2 -6.05 22.1 -6.05 22.1 -6.15 22.0 -6.15 22.0 -6.35 22.4 -6.35 22.4 -6.25 22.8 -6.25 22.8 -6.35 22.5 -6.35 22.5 -6.45 22.3 -6.45 22.3 -6.75 22.5 -6.75 22.5 -6.85 22.6 -6.85 22.6 -6.95 22.7 -6.95 22.7 -7.05 22.8 -7.05 22.8 -7.7 21.9 -7.7 21.9 -7.6 21.7 -7.6 21.7 -7.7 21.45 -7.7 21.45 -9.15 21.7 -9.15 21.7 -9.35 21.8 -9.35 21.8 -9.45 21.7 -9.45 21.7 -9.75 21.6 -9.75 21.6 -9.85 21.45 -9.85 21.45 -9.95 21.35 -9.95 21.35 -10.2 21.25 -10.2 21.25 -10.4 21.15 -10.4 21.15 -10.5 21.05 -10.5 21.05 -10.6 20.95 -10.6 20.95 -10.7 20.75 -10.7 20.75 -10.8 20.65 -10.8 20.65 -10.9 20.55 -10.9 20.55 -11.1 20.25 -11.1 20.25 -11.65 20.0 -11.65 20.0 -11.75 19.9 -11.75 19.9 -11.95 19.8 -11.95 19.8 -12.05 19.9 -12.05 19.9 -12.45 20.0 -12.45 20.0 -12.65 19.9 -12.65 19.9 -12.75 19.8 -12.75 19.8 -13.4 19.9 -13.4 19.9 -13.5 20.0 -13.5 20.0 -13.6 20.15 -13.6 20.15 -13.7 20.25 -13.7 20.25 -13.8 20.45 -13.8 20.45 -13.9 20.55 -13.9 20.55 -14.0 20.65 -14.0 20.65 -14.2 20.75 -14.2 20.75 -14.45 20.95 -14.45 20.95 -14.55 21.05 -14.55 21.05 -14.65 21.15 -14.65 21.15 -14.75 21.25 -14.75 21.25 -14.85 21.9 -14.85 21.9 -14.75 22.6 -14.75 22.6 -14.85 22.7 -14.85 22.7 -14.75 23.15 -14.75 23.15 -14.65 23.65 -14.65 23.65 -14.75 23.85 -14.75 23.85 -14.85 24.5 -14.85 24.5 -14.95 24.6 -14.95 24.6 -15.25 24.5 -15.25 24.5 -15.45 24.4 -15.45 24.4 -15.9 24.5 -15.9 24.5 -16.0 24.7 -16.0 24.7 -16.3 24.8 -16.3 24.8 -16.4 24.9 -16.4 24.9 -16.8 25.0 -16.8 25.0 -16.9 25.1 -16.9 25.1 -17.15 25.2 -17.15 25.2 -17.45 25.1 -17.45 25.1 -17.55 25.0 -17.55 25.0 -17.65 25.1 -17.65 25.1 -17.85 24.9 -17.85 24.9 -18.25 24.8 -18.25 24.8 -18.6 24.9 -18.6 24.9 -18.8 25.0 -18.8 25.0 -19.0 M23.25 -9.25 L23.05 -9.25 23.05 -8.85 23.15 -8.85 23.15 -8.75 23.25 -8.75 23.25 -8.4 23.45 -8.4 23.45 -8.3 23.75 -8.3 23.75 -8.2 23.85 -8.2 23.85 -7.9 23.95 -7.9 23.95 -8.0 24.4 -8.0 24.4 -7.9 24.6 -7.9 24.6 -8.2 24.5 -8.2 24.5 -8.85 24.8 -8.85 24.8 -8.75 24.9 -8.75 24.9 -8.0 25.0 -8.0 25.0 -8.1 25.2 -8.1 25.2 -8.3 25.3 -8.3 25.3 -8.4 25.5 -8.4 25.5 -8.85 25.2 -8.85 25.2 -9.05 25.3 -9.05 25.3 -9.15 25.7 -9.15 25.7 -9.25 25.85 -9.25 25.85 -9.05 26.05 -9.05 26.05 -8.95 26.25 -8.95 26.25 -8.85 26.35 -8.85 26.35 -8.4 26.25 -8.4 26.25 -8.2 26.05 -8.2 26.05 -8.1 25.95 -8.1 25.95 -8.0 25.7 -8.0 25.7 -7.8 25.95 -7.8 25.95 -7.9 26.05 -7.9 26.05 -8.0 26.15 -8.0 26.15 -8.1 26.35 -8.1 26.35 -8.2 26.45 -8.2 26.45 -8.5 26.55 -8.5 26.55 -8.95 26.65 -8.95 26.65 -9.15 26.75 -9.15 26.75 -9.25 26.85 -9.25 26.85 -9.35 27.15 -9.35 27.15 -9.15 27.3 -9.15 27.3 -9.05 27.4 -9.05 27.4 -8.65 27.5 -8.65 27.5 -8.5 27.6 -8.5 27.6 -8.95 27.7 -8.95 27.7 -9.05 27.8 -9.05 27.8 -9.25 27.9 -9.25 27.9 -9.35 28.1 -9.35 28.1 -9.45 28.5 -9.45 28.5 -9.35 28.6 -9.35 28.6 -9.45 29.15 -9.45 29.15 -9.55 29.25 -9.55 29.25 -9.75 29.15 -9.75 29.15 -9.85 29.05 -9.85 29.05 -10.1 28.95 -10.1 28.95 -10.2 28.85 -10.2 28.85 -10.3 27.7 -10.3 27.7 -10.2 27.15 -10.2 27.15 -10.1 26.45 -10.1 26.45 -10.2 26.35 -10.2 26.35 -10.4 26.45 -10.4 26.45 -10.5 26.15 -10.5 26.15 -10.4 25.95 -10.4 25.95 -10.3 25.85 -10.3 25.85 -10.1 25.7 -10.1 25.7 -9.95 25.4 -9.95 25.4 -9.85 25.1 -9.85 25.1 -9.75 25.0 -9.75 25.0 -9.15 24.9 -9.15 24.9 -9.05 23.95 -9.05 23.95 -9.15 23.25 -9.15 23.25 -9.25 M22.6 -9.35 L22.6 -9.45 22.2 -9.45 22.2 -9.35 22.0 -9.35 22.0 -9.25 22.4 -9.25 22.4 -9.15 22.8 -9.15 22.8 -9.35 22.6 -9.35 M27.4 -1.8 L27.4 -1.9 27.3 -1.9 27.3 -2.0 27.15 -2.0 27.15 -2.1 27.05 -2.1 27.05 -2.2 26.95 -2.2 26.95 -1.8 27.05 -1.8 27.05 -1.7 27.15 -1.7 27.15 -1.6 27.5 -1.6 27.5 -1.8 27.4 -1.8 M27.5 -3.55 L27.5 -3.45 27.8 -3.45 27.8 -3.35 28.0 -3.35 28.0 -3.45 27.9 -3.45 27.9 -3.55 27.5 -3.55 M28.1 -10.7 L28.2 -10.7 28.2 -10.8 28.3 -10.8 28.3 -10.9 28.4 -10.9 28.4 -11.1 28.2 -11.1 28.2 -11.0 28.0 -11.0 28.0 -10.6 28.1 -10.6 28.1 -10.7 M25.6 -10.2 L25.7 -10.2 25.7 -10.3 25.6 -10.3 25.6 -10.2 M30.4 -13.1 L30.4 -13.3 30.3 -13.3 30.3 -13.2 30.1 -13.2 30.1 -13.1 29.95 -13.1 29.95 -13.0 29.85 -13.0 29.85 -12.75 29.65 -12.75 29.65 -12.35 29.55 -12.35 29.55 -12.15 29.45 -12.15 29.45 -11.95 29.35 -11.95 29.35 -11.75 29.25 -11.75 29.25 -11.55 29.15 -11.55 29.15 -11.3 29.05 -11.3 29.05 -11.1 28.95 -11.1 28.95 -11.0 29.15 -11.0 29.15 -11.1 29.25 -11.1 29.25 -11.2 29.35 -11.2 29.35 -11.45 29.45 -11.45 29.45 -11.55 29.55 -11.55 29.55 -11.75 29.65 -11.75 29.65 -11.95 29.75 -11.95 29.75 -12.15 29.85 -12.15 29.85 -12.25 29.95 -12.25 29.95 -12.35 30.1 -12.35 30.1 -12.65 30.2 -12.65 30.2 -12.75 30.3 -12.75 30.3 -13.1 30.4 -13.1 M22.5 -5.3 L22.2 -5.3 22.2 -5.2 22.3 -5.2 22.3 -5.1 22.5 -5.1 22.5 -5.3 M23.15 -6.45 L23.15 -6.35 23.35 -6.35 23.35 -6.25 23.55 -6.25 23.55 -6.15 23.75 -6.15 23.75 -6.35 23.85 -6.35 23.85 -6.45 23.15 -6.45 M22.8 -6.85 L22.7 -6.85 22.7 -6.75 22.6 -6.75 22.6 -6.55 22.8 -6.55 22.8 -6.85" fill="url(#gradient15)" fill-rule="evenodd" stroke="none"/>
    <path d="M-7.25 -14.5 L-7.65 -14.5 Q-11.15 -14.45 -12.3 -15.65 -13.45 -16.9 -11.65 -18.65 -9.9 -20.45 -6.15 -21.75 -2.45 -23.05 1.0 -23.1 4.5 -23.1 5.65 -21.9 6.8 -20.7 5.05 -18.9 L4.85 -18.75 2.6 -21.25 2.0 -21.95 -2.6 -21.7 -3.55 -20.7 -2.3 -17.95 -1.75 -15.95 -6.8 -15.55 Q-7.6 -15.45 -7.55 -15.1 L-7.25 -14.5 M-2.2 -21.2 L-2.25 -21.15 -2.35 -21.35 -2.2 -21.2" fill="url(#gradient16)" fill-rule="evenodd" stroke="none"/>
    <path d="M-1.75 -15.95 L-2.3 -17.95 -3.55 -20.7 -2.6 -21.7 2.0 -21.95 2.6 -21.25 2.45 -21.45 -2.1 -21.25 -2.2 -21.2 -2.35 -21.35 -2.25 -21.15 -2.7 -20.65 -1.55 -18.35 -0.95 -16.0 -1.75 -15.95" fill="url(#gradient17)" fill-rule="evenodd" stroke="none"/>
    <path d="M-2.25 -21.15 L-2.2 -21.2 -2.15 -21.2 Q-0.65 -19.3 0.25 -16.95 L-0.85 -16.0 -0.95 -16.0 -1.55 -18.35 -2.7 -20.65 -2.25 -21.15" fill="url(#gradient18)" fill-rule="evenodd" stroke="none"/>
    <path d="M4.85 -18.75 L5.1 -18.4 6.45 -16.6 -0.85 -16.0 0.25 -16.95 Q-0.65 -19.3 -2.15 -21.2 L-2.2 -21.2 -2.1 -21.25 2.45 -21.45 2.6 -21.25 4.85 -18.75" fill="url(#gradient19)" fill-rule="evenodd" stroke="none"/>
    <path d="M-5.55 -14.75 L-5.3 -15.0 11.75 -16.5 11.4 -16.3 -5.55 -14.75" fill="url(#gradient20)" fill-rule="evenodd" stroke="none"/>
    <path d="M11.4 -16.3 L17.1 -7.95 0.6 -4.6 -5.55 -14.75 11.4 -16.3" fill="url(#gradient21)" fill-rule="evenodd" stroke="none"/>
    <path d="M-7.1 -14.25 L-7.25 -14.5 -7.55 -15.1 Q-7.6 -15.45 -6.8 -15.55 L-1.75 -15.95 -0.95 -16.0 -0.85 -16.0 6.45 -16.6 11.25 -16.95 Q12.05 -17.05 12.45 -16.5 L19.05 -7.3 Q19.5 -6.55 18.5 -6.4 L0.65 -2.45 Q-0.95 -2.15 -1.25 -3.0 L-7.1 -14.25 M-6.6 -15.05 Q-6.7 -15.35 -7.0 -15.25 L-7.2 -15.1 -0.55 -3.2 Q-0.15 -2.75 0.5 -2.85 L17.8 -6.6 Q18.65 -6.8 17.8 -7.0 L0.85 -3.35 0.05 -3.55 -6.6 -15.05 M-5.55 -14.75 L0.6 -4.6 17.1 -7.95 11.4 -16.3 11.75 -16.5 -5.3 -15.0 -5.55 -14.75" fill="url(#gradient22)" fill-rule="evenodd" stroke="none"/>
    <path d="M4.85 -18.75 L5.05 -18.9 Q6.8 -20.7 5.65 -21.9 4.5 -23.1 1.0 -23.1 -2.45 -23.05 -6.15 -21.75 -9.9 -20.45 -11.65 -18.65 -13.45 -16.9 -12.3 -15.65 -11.15 -14.45 -7.65 -14.5 L-7.25 -14.5 -7.1 -14.25 -7.95 -14.2 Q-11.7 -14.15 -12.95 -15.5 -14.25 -16.85 -12.3 -18.75 -10.4 -20.7 -6.4 -22.05 -2.4 -23.45 1.35 -23.5 5.1 -23.55 6.4 -22.2 7.65 -20.9 5.75 -18.95 L5.1 -18.4 4.85 -18.75" fill="url(#gradient23)" fill-rule="evenodd" stroke="none"/>
    <path d="M-19.55 -1.05 L-19.4 -0.75 -20.3 -0.7 Q-24.5 -0.7 -25.9 -2.15 -27.35 -3.65 -25.2 -5.8 -23.05 -7.95 -18.6 -9.45 -14.15 -11.0 -10.0 -11.05 -5.85 -11.1 -4.45 -9.6 -3.0 -8.15 -5.15 -6.0 L-5.8 -5.4 -6.1 -5.75 -5.9 -5.9 Q-3.95 -7.9 -5.2 -9.25 -6.55 -10.65 -10.4 -10.6 -14.25 -10.55 -18.35 -9.1 -22.5 -7.65 -24.45 -5.7 -26.45 -3.7 -25.15 -2.35 -23.85 -1.0 -20.0 -1.05 L-19.55 -1.05" fill="url(#gradient24)" fill-rule="evenodd" stroke="none"/>
    <path d="M-13.45 -2.65 L-19.05 -2.2 Q-19.95 -2.1 -19.9 -1.7 L-19.55 -1.05 -20.0 -1.05 Q-23.85 -1.0 -25.15 -2.35 -26.45 -3.7 -24.45 -5.7 -22.5 -7.65 -18.35 -9.1 -14.25 -10.55 -10.4 -10.6 -6.55 -10.65 -5.2 -9.25 -3.95 -7.9 -5.9 -5.9 L-6.1 -5.75 -8.6 -8.6 -8.8 -8.8 -9.3 -9.3 -14.45 -9.05 -15.45 -7.95 -14.05 -4.9 -13.45 -2.65 M-13.95 -8.5 L-14.0 -8.45 -14.1 -8.7 -13.95 -8.5" fill="url(#gradient25)" fill-rule="evenodd" stroke="none"/>
    <path d="M-12.55 -2.75 L-13.45 -2.65 -14.05 -4.9 -15.45 -7.95 -14.45 -9.05 -9.3 -9.3 -8.8 -8.8 -13.9 -8.55 -13.95 -8.5 -14.1 -8.7 -14.0 -8.45 -14.5 -7.85 -13.25 -5.35 -12.55 -2.75" fill="url(#gradient26)" fill-rule="evenodd" stroke="none"/>
    <path d="M-4.35 -3.35 L1.0 -3.75 Q1.85 -3.85 2.3 -3.25 L9.65 6.95 Q10.15 7.75 9.05 7.95 L-10.8 12.35 Q-12.6 12.7 -12.9 11.75 L-19.4 -0.75 -19.55 -1.05 -19.9 -1.7 Q-19.95 -2.1 -19.05 -2.2 L-13.45 -2.65 -12.55 -2.75 -12.55 -2.7 -12.45 -2.75 -4.35 -3.35 M1.15 -3.05 L1.55 -3.3 -17.4 -1.6 Q-17.9 -1.55 -17.65 -1.3 L-17.7 -1.3 -10.8 9.95 7.5 6.25 1.15 -3.05 M-19.3 -1.9 L-19.5 -1.7 -12.15 11.5 Q-11.65 11.95 -10.95 11.9 L8.25 7.75 Q9.2 7.55 8.25 7.25 L-10.6 11.4 -11.45 11.1 -18.85 -1.65 Q-18.95 -1.95 -19.3 -1.9" fill="url(#gradient27)" fill-rule="evenodd" stroke="none"/>
    <path d="M-17.65 -1.3 Q-17.9 -1.55 -17.4 -1.6 L1.55 -3.3 1.15 -3.05 -17.65 -1.3" fill="url(#gradient28)" fill-rule="evenodd" stroke="none"/>
    <path d="M1.15 -3.05 L7.5 6.25 -10.8 9.95 -17.7 -1.3 -17.65 -1.3 1.15 -3.05" fill="url(#gradient29)" fill-rule="evenodd" stroke="none"/>
    <path d="M-12.45 -2.75 L-12.55 -2.7 -12.55 -2.75 -13.25 -5.35 -14.5 -7.85 -14.0 -8.45 -13.95 -8.5 -13.9 -8.5 Q-12.25 -6.4 -11.2 -3.75 L-12.45 -2.75" fill="url(#gradient30)" fill-rule="evenodd" stroke="none"/>
    <path d="M-4.35 -3.35 L-12.45 -2.75 -11.2 -3.75 Q-12.25 -6.4 -13.9 -8.5 L-13.95 -8.5 -13.9 -8.55 -8.8 -8.8 -8.6 -8.6 -6.1 -5.75 -5.8 -5.4 -4.35 -3.35" fill="url(#gradient31)" fill-rule="evenodd" stroke="none"/>
  </g>
  <defs>
    <linearGradient gradientTransform="matrix(0.0, 0.0219, -0.0219, 0.0, 13.65, -10.95)" gradientUnits="userSpaceOnUse" id="gradient0" spreadMethod="pad" x1="-819.2" x2="819.2">
      <stop offset="0.0" stop-color="#6666cc"/>
      <stop offset="0.7058823529411765" stop-color="#ffffff"/>
    </linearGradient>
    <radialGradient cx="0" cy="0" gradientTransform="matrix(0.0344, 0.0, 0.0, -0.0344, 11.5, -2.25)" gradientUnits="userSpaceOnUse" id="gradient1" r="819.2" spreadMethod="pad">
      <stop offset="0.49019607843137253" stop-color="#ffffff"/>
      <stop offset="0.8196078431372549" stop-color="#9999ff"/>
      <stop offset="0.9921568627450981" stop-color="#003399"/>
    </radialGradient>
    <linearGradient gradientTransform="matrix(2.0E-4, 0.0, 0.0, 2.0E-4, 23.6, -8.65)" gradientUnits="userSpaceOnUse" id="gradient2" spreadMethod="pad" x1="-819.2" x2="819.2">
      <stop offset="0.0" stop-color="#9999cc"/>
      <stop offset="1.0" stop-color="#ffffff"/>
    </linearGradient>
    <linearGradient gradientTransform="matrix(2.0E-4, 0.0, 0.0, 5.0E-4, 12.5, -12.65)" gradientUnits="userSpaceOnUse" id="gradient3" spreadMethod="pad" x1="-819.2" x2="819.2">
      <stop offset="0.0" stop-color="#9999cc"/>
      <stop offset="1.0" stop-color="#ffffff"/>
    </linearGradient>
    <linearGradient gradientTransform="matrix(0.0016, 0.0, 0.0, 7.0E-4, 9.95, -11.7)" gradientUnits="userSpaceOnUse" id="gradient4" spreadMethod="pad" x1="-819.2" x2="819.2">
      <stop offset="0.0" stop-color="#9999cc"/>
      <stop offset="1.0" stop-color="#ffffff"/>
    </linearGradient>
    <linearGradient gradientTransform="matrix(2.0E-4, 0.0, 0.0, 3.0E-4, 10.1, -11.25)" gradientUnits="userSpaceOnUse" id="gradient5" spreadMethod="pad" x1="-819.2" x2="819.2">
      <stop offset="0.0" stop-color="#9999cc"/>
      <stop offset="1.0" stop-color="#ffffff"/>
    </linearGradient>
    <linearGradient gradientTransform="matrix(5.0E-4, 0.0, 0.0, 2.0E-4, 11.75, -12.1)" gradientUnits="userSpaceOnUse" id="gradient6" spreadMethod="pad" x1="-819.2" x2="819.2">
      <stop offset="0.0" stop-color="#9999cc"/>
      <stop offset="1.0" stop-color="#ffffff"/>
    </linearGradient>
    <linearGradient gradientTransform="matrix(1.0E-4, 0.0, 0.0, 1.0E-4, 12.3, -12.1)" gradientUnits="userSpaceOnUse" id="gradient7" spreadMethod="pad" x1="-819.2" x2="819.2">
      <stop offset="0.0" stop-color="#9999cc"/>
      <stop offset="1.0" stop-color="#ffffff"/>
    </linearGradient>
    <linearGradient gradientTransform="matrix(1.0E-4, 0.0, 0.0, 1.0E-4, 12.5, -12.1)" gradientUnits="userSpaceOnUse" id="gradient8" spreadMethod="pad" x1="-819.2" x2="819.2">
      <stop offset="0.0" stop-color="#9999cc"/>
      <stop offset="1.0" stop-color="#ffffff"/>
    </linearGradient>
    <linearGradient gradientTransform="matrix(1.0E-4, 0.0, 0.0, 2.0E-4, 10.3, -10.7)" gradientUnits="userSpaceOnUse" id="gradient9" spreadMethod="pad" x1="-819.2" x2="819.2">
      <stop offset="0.0" stop-color="#9999cc"/>
      <stop offset="1.0" stop-color="#ffffff"/>
    </linearGradient>
    <linearGradient gradientTransform="matrix(2.0E-4, 0.0, 0.0, 1.0E-4, 10.6, -11.1)" gradientUnits="userSpaceOnUse" id="gradient10" spreadMethod="pad" x1="-819.2" x2="819.2">
      <stop offset="0.0" stop-color="#9999cc"/>
      <stop offset="1.0" stop-color="#ffffff"/>
    </linearGradient>
    <linearGradient gradientTransform="matrix(2.0E-4, 0.0, 0.0, 1.0E-4, 9.85, -10.55)" gradientUnits="userSpaceOnUse" id="gradient11" spreadMethod="pad" x1="-819.2" x2="819.2">
      <stop offset="0.0" stop-color="#9999cc"/>
      <stop offset="1.0" stop-color="#ffffff"/>
    </linearGradient>
    <linearGradient gradientTransform="matrix(3.0E-4, 0.0, 0.0, 3.0E-4, 18.65, -12.0)" gradientUnits="userSpaceOnUse" id="gradient12" spreadMethod="pad" x1="-819.2" x2="819.2">
      <stop offset="0.0" stop-color="#9999cc"/>
      <stop offset="1.0" stop-color="#ffffff"/>
    </linearGradient>
    <linearGradient gradientTransform="matrix(1.0E-4, 0.0, 0.0, 1.0E-4, 7.95, 4.9)" gradientUnits="userSpaceOnUse" id="gradient13" spreadMethod="pad" x1="-819.2" x2="819.2">
      <stop offset="0.0" stop-color="#9999cc"/>
      <stop offset="1.0" stop-color="#ffffff"/>
    </linearGradient>
    <linearGradient gradientTransform="matrix(-0.0011, 0.0109, -0.0181, -0.0018, 7.75, -11.95)" gradientUnits="userSpaceOnUse" id="gradient14" spreadMethod="pad" x1="-819.2" x2="819.2">
      <stop offset="0.0" stop-color="#9999cc"/>
      <stop offset="1.0" stop-color="#ffffff"/>
    </linearGradient>
    <linearGradient gradientTransform="matrix(0.0, 0.0066, -0.0134, 0.0, 25.2, -10.65)" gradientUnits="userSpaceOnUse" id="gradient15" spreadMethod="pad" x1="-819.2" x2="819.2">
      <stop offset="0.0" stop-color="#9999cc"/>
      <stop offset="1.0" stop-color="#ffffff"/>
    </linearGradient>
    <radialGradient cx="0" cy="0" gradientTransform="matrix(0.018, -0.0062, -0.0104, -0.0108, -7.75, -16.2)" gradientUnits="userSpaceOnUse" id="gradient16" r="819.2" spreadMethod="pad">
      <stop offset="0.0" stop-color="#ffffff"/>
      <stop offset="0.2823529411764706" stop-color="#dddddd"/>
      <stop offset="1.0" stop-color="#9999cc"/>
    </radialGradient>
    <linearGradient gradientTransform="matrix(-0.0014, 0.0031, -0.0063, -0.001, 0.4, -19.1)" gradientUnits="userSpaceOnUse" id="gradient17" spreadMethod="pad" x1="-819.2" x2="819.2">
      <stop offset="0.0" stop-color="#666699"/>
      <stop offset="1.0" stop-color="#9999cc"/>
    </linearGradient>
    <linearGradient gradientTransform="matrix(-0.0031, -0.0017, 0.0023, -0.0015, -1.55, -18.6)" gradientUnits="userSpaceOnUse" id="gradient18" spreadMethod="pad" x1="-819.2" x2="819.2">
      <stop offset="0.0" stop-color="#9999cc"/>
      <stop offset="1.0" stop-color="#eeeeee"/>
    </linearGradient>
    <linearGradient gradientTransform="matrix(-0.0049, -0.0032, 0.004, -0.0022, 0.7, -18.25)" gradientUnits="userSpaceOnUse" id="gradient19" spreadMethod="pad" x1="-819.2" x2="819.2">
      <stop offset="0.0" stop-color="#333399"/>
      <stop offset="0.27450980392156865" stop-color="#6666cc"/>
      <stop offset="1.0" stop-color="#999999"/>
    </linearGradient>
    <linearGradient gradientTransform="matrix(-0.0106, 2.0E-4, -1.0E-4, -9.0E-4, 3.0, -15.7)" gradientUnits="userSpaceOnUse" id="gradient20" spreadMethod="pad" x1="-819.2" x2="819.2">
      <stop offset="0.0" stop-color="#6666cc"/>
      <stop offset="0.0784313725490196" stop-color="#9999cc"/>
      <stop offset="1.0" stop-color="#ffffff"/>
    </linearGradient>
    <linearGradient gradientTransform="matrix(-0.0026, -0.0098, 0.0069, -0.0018, 5.75, -10.45)" gradientUnits="userSpaceOnUse" id="gradient21" spreadMethod="pad" x1="-819.2" x2="819.2">
      <stop offset="0.32941176470588235" stop-color="#ffffff"/>
      <stop offset="1.0" stop-color="#66ccff"/>
    </linearGradient>
    <linearGradient gradientTransform="matrix(0.0, 0.0103, -0.0169, 0.0045, 5.4, -11.2)" gradientUnits="userSpaceOnUse" id="gradient22" spreadMethod="pad" x1="-819.2" x2="819.2">
      <stop offset="0.0" stop-color="#6666cc"/>
      <stop offset="0.32941176470588235" stop-color="#999999"/>
      <stop offset="0.8549019607843137" stop-color="#ffffff"/>
    </linearGradient>
    <linearGradient gradientTransform="matrix(-0.0038, -0.0039, 0.0118, -0.0041, -3.3, -18.9)" gradientUnits="userSpaceOnUse" id="gradient23" spreadMethod="pad" x1="-819.2" x2="819.2">
      <stop offset="0.00784313725490196" stop-color="#ffffff"/>
      <stop offset="0.4823529411764706" stop-color="#9999cc"/>
      <stop offset="1.0" stop-color="#666699"/>
    </linearGradient>
    <linearGradient gradientTransform="matrix(-0.0042, -0.0044, 0.0131, -0.0045, -15.15, -5.9)" gradientUnits="userSpaceOnUse" id="gradient24" spreadMethod="pad" x1="-819.2" x2="819.2">
      <stop offset="0.00784313725490196" stop-color="#ffffff"/>
      <stop offset="0.4823529411764706" stop-color="#9999cc"/>
      <stop offset="1.0" stop-color="#666699"/>
    </linearGradient>
    <radialGradient cx="0" cy="0" gradientTransform="matrix(0.0199, -0.0069, -0.0115, -0.012, -20.1, -2.95)" gradientUnits="userSpaceOnUse" id="gradient25" r="819.2" spreadMethod="pad">
      <stop offset="0.0" stop-color="#ffffff"/>
      <stop offset="0.2823529411764706" stop-color="#dddddd"/>
      <stop offset="1.0" stop-color="#9999cc"/>
    </radialGradient>
    <linearGradient gradientTransform="matrix(-0.0016, 0.0035, -0.007, -0.0011, -11.05, -6.15)" gradientUnits="userSpaceOnUse" id="gradient26" spreadMethod="pad" x1="-819.2" x2="819.2">
      <stop offset="0.0" stop-color="#666699"/>
      <stop offset="1.0" stop-color="#9999cc"/>
    </linearGradient>
    <linearGradient gradientTransform="matrix(0.0, 0.0114, -0.0188, 0.005, -5.55, 2.65)" gradientUnits="userSpaceOnUse" id="gradient27" spreadMethod="pad" x1="-819.2" x2="819.2">
      <stop offset="0.0" stop-color="#6666cc"/>
      <stop offset="0.32941176470588235" stop-color="#999999"/>
      <stop offset="0.8549019607843137" stop-color="#ffffff"/>
    </linearGradient>
    <linearGradient gradientTransform="matrix(-0.0118, 2.0E-4, -1.0E-4, -0.001, -8.2, -2.4)" gradientUnits="userSpaceOnUse" id="gradient28" spreadMethod="pad" x1="-819.2" x2="819.2">
      <stop offset="0.0" stop-color="#6666cc"/>
      <stop offset="0.0784313725490196" stop-color="#9999cc"/>
      <stop offset="1.0" stop-color="#ffffff"/>
    </linearGradient>
    <linearGradient gradientTransform="matrix(-0.0029, -0.0108, 0.0077, -0.002, -5.1, 3.45)" gradientUnits="userSpaceOnUse" id="gradient29" spreadMethod="pad" x1="-819.2" x2="819.2">
      <stop offset="0.32941176470588235" stop-color="#ffffff"/>
      <stop offset="1.0" stop-color="#66ccff"/>
    </linearGradient>
    <linearGradient gradientTransform="matrix(-0.0034, -0.0018, 0.0026, -0.0017, -13.2, -5.6)" gradientUnits="userSpaceOnUse" id="gradient30" spreadMethod="pad" x1="-819.2" x2="819.2">
      <stop offset="0.0" stop-color="#9999cc"/>
      <stop offset="1.0" stop-color="#eeeeee"/>
    </linearGradient>
    <linearGradient gradientTransform="matrix(-0.0055, -0.0035, 0.0045, -0.0025, -10.75, -5.25)" gradientUnits="userSpaceOnUse" id="gradient31" spreadMethod="pad" x1="-819.2" x2="819.2">
      <stop offset="0.0" stop-color="#333399"/>
      <stop offset="0.27450980392156865" stop-color="#6666cc"/>
      <stop offset="1.0" stop-color="#999999"/>
    </linearGradient>
  </defs>
</svg>
