<?xml version="1.0" encoding="UTF-8" standalone="no"?>
<svg xmlns:ffdec="https://www.free-decompiler.com/flash" xmlns:xlink="http://www.w3.org/1999/xlink" ffdec:objectType="shape" height="52.65px" width="281.05px" xmlns="http://www.w3.org/2000/svg">
  <g transform="matrix(1.0, 0.0, 0.0, 1.0, 140.5, 26.3)">
    <path d="M-70.75 -12.75 L-62.1 -12.75 -62.1 25.5 -70.75 25.5 -70.75 -12.75 M-70.75 -17.3 L-70.75 -26.3 -62.1 -26.3 -62.1 -17.3 -70.75 -17.3 M-111.25 -26.3 L-101.8 -26.3 -91.45 11.5 -81.65 -26.3 -73.4 -26.3 -87.25 25.5 -97.05 25.5 -107.35 -12.55 -116.8 25.5 -126.35 25.5 -140.5 -26.3 -130.55 -26.3 -120.6 11.5 -111.25 -26.3 M-23.5 -4.15 L-23.2 -1.9 -23.15 0.8 -23.15 25.5 -31.75 25.5 -31.75 1.6 Q-31.75 0.75 -31.9 -0.05 -31.95 -0.9 -32.15 -1.6 L-32.7 -2.9 -33.4 -3.95 -34.25 -4.8 Q-34.7 -5.2 -35.3 -5.45 L-36.4 -5.9 -37.7 -6.0 -38.8 -5.95 -39.8 -5.7 -40.85 -5.25 -41.8 -4.7 -42.7 -4.05 -43.5 -3.25 -44.8 -1.25 Q-45.5 0.15 -45.85 1.85 -46.2 3.65 -46.2 5.85 L-46.2 25.5 -54.85 25.5 -54.85 -12.75 -47.0 -12.75 -47.0 -3.9 -45.75 -6.35 -44.5 -8.35 -43.2 -10.0 -41.85 -11.35 -40.4 -12.35 -38.85 -13.05 -37.1 -13.4 -35.2 -13.55 -33.6 -13.45 -32.0 -13.15 -30.4 -12.65 -28.95 -12.0 Q-28.25 -11.65 -27.65 -11.15 L-26.5 -10.15 -25.5 -9.1 -24.75 -7.9 -24.0 -6.1 -23.5 -4.15 M5.5 -3.4 L4.95 -4.05 3.7 -5.3 2.25 -6.25 0.7 -6.75 -0.95 -6.95 -2.85 -6.7 -4.45 -6.05 -5.85 -5.0 -7.05 -3.55 -7.95 -1.65 -8.65 0.65 Q-9.2 3.15 -9.2 6.35 -9.2 9.5 -8.65 11.9 -8.15 14.3 -7.15 15.95 L-6.0 17.35 -4.6 18.4 -3.05 19.05 -1.2 19.25 0.45 19.05 2.05 18.5 3.45 17.6 4.65 16.4 5.6 15.0 6.35 13.3 6.85 11.45 7.0 9.45 7.0 2.9 6.9 0.7 6.5 -1.15 5.9 -2.7 5.5 -3.4 M43.45 -4.65 L42.0 -5.7 Q40.35 -6.5 38.3 -6.5 L36.3 -6.3 Q35.4 -6.05 34.6 -5.65 L33.1 -4.6 31.85 -3.15 Q31.25 -2.35 30.8 -1.35 L30.1 0.85 29.7 3.45 29.5 6.35 29.7 9.25 30.1 11.8 30.8 14.0 31.8 15.85 33.05 17.3 Q33.7 17.95 34.5 18.4 L36.2 19.05 38.15 19.25 40.15 19.05 41.9 18.4 43.4 17.3 44.65 15.85 45.6 14.0 46.3 11.75 Q46.85 9.3 46.85 6.2 46.85 3.1 46.3 0.75 45.75 -1.65 44.65 -3.25 L43.45 -4.65 M34.5 -13.2 L38.3 -13.55 42.8 -13.1 Q44.9 -12.6 46.75 -11.65 L50.05 -9.2 Q51.55 -7.75 52.85 -5.7 L54.3 -3.0 55.3 -0.1 55.85 2.95 56.05 6.4 Q56.05 8.6 55.7 10.6 55.4 12.65 54.7 14.45 L53.1 17.85 Q52.2 19.5 50.95 20.75 L48.3 23.1 Q46.85 24.15 45.25 24.9 L41.7 25.95 37.85 26.35 33.7 25.85 Q31.7 25.4 29.95 24.55 28.2 23.65 26.75 22.35 25.3 21.0 24.15 19.25 22.25 16.45 21.3 13.2 20.35 9.95 20.35 6.25 20.35 4.1 20.7 2.05 21.05 0.1 21.7 -1.75 22.35 -3.6 23.25 -5.15 24.15 -6.7 25.35 -8.0 26.55 -9.35 28.0 -10.4 29.4 -11.4 31.05 -12.1 L34.5 -13.2 M-8.75 -13.3 Q-6.35 -14.35 -3.25 -14.35 L0.1 -13.95 Q1.65 -13.5 2.9 -12.7 L5.15 -10.55 7.0 -7.6 7.0 -26.3 15.6 -26.3 15.6 25.5 7.55 25.5 7.55 17.85 6.55 19.9 5.5 21.65 4.35 23.1 3.0 24.3 1.6 25.2 0.0 25.8 -1.8 26.15 -3.75 26.35 -6.75 26.0 -9.5 25.1 -11.95 23.55 -14.0 21.4 -14.9 20.0 -15.8 18.4 -16.5 16.55 -17.15 14.55 -17.7 12.5 -18.05 10.3 -18.25 8.1 -18.4 5.85 Q-18.4 3.55 -18.0 1.3 -17.7 -1.0 -16.95 -3.05 L-15.3 -6.85 Q-14.25 -8.7 -13.0 -10.15 -11.2 -12.2 -8.75 -13.3 M138.9 -12.1 L138.85 -12.25 138.75 -12.4 138.6 -12.5 138.45 -12.5 137.75 -12.5 137.75 -11.7 138.4 -11.7 138.6 -11.7 138.75 -11.8 138.85 -11.9 138.9 -12.1 M137.3 -10.2 L137.3 -12.8 138.45 -12.8 138.75 -12.75 139.1 -12.65 139.25 -12.4 139.3 -12.1 139.25 -11.9 139.2 -11.7 139.05 -11.5 138.8 -11.4 139.35 -10.2 138.9 -10.2 138.45 -11.35 137.75 -11.35 137.75 -10.2 137.3 -10.2 M138.35 -13.45 L137.5 -13.3 136.85 -12.8 136.65 -12.55 136.5 -12.2 136.4 -11.9 136.4 -11.55 Q136.4 -11.2 136.55 -10.8 L136.7 -10.5 136.9 -10.2 137.2 -9.95 137.5 -9.8 137.9 -9.7 138.25 -9.65 139.05 -9.8 139.6 -10.15 139.9 -10.5 140.05 -10.8 140.2 -11.55 140.05 -12.25 139.9 -12.6 139.6 -12.9 139.05 -13.3 138.35 -13.45 M137.85 -13.75 L138.35 -13.8 139.2 -13.6 139.55 -13.4 139.9 -13.15 140.15 -12.8 140.3 -12.45 140.5 -12.0 140.55 -11.55 140.3 -10.65 140.15 -10.3 139.9 -9.95 139.5 -9.7 139.15 -9.45 138.25 -9.3 137.85 -9.35 137.4 -9.45 137.05 -9.7 136.7 -9.95 136.45 -10.3 136.2 -10.7 136.1 -11.1 136.05 -11.55 136.1 -12.0 136.2 -12.45 136.45 -12.8 136.7 -13.15 137.05 -13.4 137.45 -13.6 137.85 -13.75 M122.9 -13.55 L128.3 -13.0 Q130.7 -12.45 132.6 -11.3 134.45 -10.2 135.75 -8.55 137.05 -6.85 137.7 -4.7 L129.9 -3.1 129.45 -4.15 128.95 -5.05 128.3 -5.8 127.55 -6.4 126.6 -6.85 125.55 -7.2 124.3 -7.35 123.65 -7.4 122.9 -7.4 121.4 -7.35 120.15 -7.15 118.95 -6.75 117.95 -6.3 117.2 -5.7 116.6 -5.0 116.25 -4.15 116.15 -3.3 Q116.15 -2.45 116.45 -1.8 116.8 -1.1 117.45 -0.55 118.15 0.0 119.15 0.35 L121.65 1.05 129.9 2.75 Q132.3 3.2 134.1 4.2 135.9 5.1 137.15 6.5 138.35 7.9 138.9 9.75 139.55 11.6 139.55 13.85 L139.25 16.6 138.4 19.05 136.9 21.15 135.05 22.95 132.6 24.4 129.75 25.45 126.45 26.1 122.85 26.35 119.25 26.05 116.0 25.4 113.1 24.3 Q111.75 23.65 110.55 22.75 L109.2 21.6 108.15 20.3 107.35 18.7 106.6 16.8 114.7 15.2 115.3 16.4 116.0 17.35 116.85 18.2 117.75 18.85 118.85 19.3 120.05 19.65 121.5 19.8 123.15 19.85 126.45 19.55 Q127.85 19.25 128.9 18.6 L129.75 17.95 130.4 17.15 130.75 16.2 130.95 15.1 130.6 13.8 129.8 12.65 Q129.2 12.2 128.45 11.85 127.7 11.5 126.7 11.3 L119.7 9.9 Q116.75 9.4 114.55 8.4 112.35 7.45 110.95 6.05 L109.7 4.55 108.85 2.85 108.3 0.85 Q108.15 -0.2 108.15 -1.35 L108.35 -3.6 Q108.5 -4.65 108.9 -5.7 L109.85 -7.65 111.15 -9.35 Q112.15 -10.45 113.4 -11.25 114.55 -12.0 116.0 -12.55 L119.15 -13.3 122.9 -13.55 M79.05 -12.75 L86.9 -12.75 93.65 13.05 101.05 -12.75 108.35 -12.75 97.05 25.5 89.3 25.5 82.4 -1.35 75.6 25.5 67.55 25.5 55.7 -12.75 64.9 -12.75 72.5 13.05 79.05 -12.75" fill="#000000" fill-rule="evenodd" stroke="none"/>
  </g>
</svg>
