<?xml version="1.0" encoding="UTF-8" standalone="no"?>
<svg xmlns:ffdec="https://www.free-decompiler.com/flash" xmlns:xlink="http://www.w3.org/1999/xlink" ffdec:objectType="shape" height="18.05px" width="105.05px" xmlns="http://www.w3.org/2000/svg">
  <g transform="matrix(1.0, 0.0, 0.0, 1.0, 52.5, 9.0)">
    <path d="M-31.75 -4.15 L-29.75 -4.15 -29.75 8.65 -31.75 8.65 -31.75 -4.15 M-39.0 -8.6 L-35.85 -8.6 -35.85 8.65 -37.95 8.65 -37.95 -6.45 -43.55 8.65 -45.0 8.65 -50.7 -6.45 -50.7 8.65 -52.5 8.65 -52.5 -8.6 -49.3 -8.6 -44.1 5.15 -39.0 -8.6 M-31.8 -8.6 L-29.6 -8.6 -29.6 -6.45 -31.8 -6.45 -31.8 -8.6 M27.3 -1.45 L26.75 -2.05 26.1 -2.45 25.4 -2.75 24.6 -2.85 23.85 -2.75 23.15 -2.45 22.5 -2.05 21.95 -1.45 21.55 -0.75 21.3 0.15 21.1 2.2 Q21.1 3.4 21.35 4.4 21.55 5.35 22.0 6.0 22.5 6.65 23.15 7.0 L24.65 7.35 26.15 7.0 27.3 6.0 28.0 4.45 28.2 2.3 28.15 1.1 28.0 0.1 27.75 -0.75 27.3 -1.45 M38.35 -8.95 L38.85 -8.9 39.45 -8.85 39.45 -7.2 39.05 -7.3 38.8 -7.4 38.55 -7.4 38.25 -7.4 36.65 -7.1 36.15 -6.75 35.85 -6.2 35.7 -5.95 35.65 -5.8 35.6 -5.5 35.6 -4.95 35.6 -4.15 38.7 -4.15 38.7 -2.55 35.6 -2.55 35.6 8.65 33.7 8.65 33.7 -2.55 31.5 -2.55 31.5 -4.15 33.7 -4.15 33.75 -5.1 33.9 -5.85 34.0 -6.45 34.15 -7.0 34.65 -7.8 35.4 -8.45 36.35 -8.85 37.55 -9.0 37.95 -9.0 38.35 -8.95 M46.95 -4.15 L46.95 -2.55 44.1 -2.55 44.1 5.4 Q44.1 6.45 44.65 6.95 45.1 7.4 46.15 7.4 L46.5 7.4 46.85 7.4 47.2 7.35 47.7 7.25 47.7 8.9 47.1 8.95 46.65 9.0 46.2 9.0 45.8 9.05 44.2 8.75 43.05 8.0 42.35 6.85 42.15 5.15 42.15 -2.55 39.9 -2.55 39.9 -4.15 42.15 -4.15 42.2 -7.3 44.1 -7.5 44.1 -4.15 46.95 -4.15 M50.6 -4.4 L50.45 -4.4 49.75 -4.4 49.75 -3.6 50.4 -3.6 50.6 -3.6 50.8 -3.7 50.9 -3.8 50.95 -4.05 50.9 -4.2 50.8 -4.3 50.6 -4.4 M50.45 -4.75 L50.8 -4.7 51.1 -4.55 51.25 -4.3 51.3 -4.05 51.25 -3.8 51.2 -3.6 51.05 -3.45 50.85 -3.35 51.4 -2.15 50.95 -2.15 50.45 -3.25 49.75 -3.25 49.75 -2.15 49.35 -2.15 49.35 -4.75 50.45 -4.75 M51.65 -4.85 L51.05 -5.2 50.35 -5.4 49.55 -5.2 48.9 -4.75 48.7 -4.45 48.5 -4.15 48.4 -3.8 48.4 -3.5 Q48.4 -3.1 48.55 -2.75 L48.75 -2.4 48.95 -2.15 49.2 -1.85 49.55 -1.7 49.9 -1.6 50.3 -1.55 51.05 -1.7 51.65 -2.1 51.9 -2.4 52.1 -2.75 52.25 -3.5 52.1 -4.2 51.9 -4.5 51.65 -4.85 M51.2 -5.55 L51.6 -5.3 51.9 -5.05 52.2 -4.75 52.35 -4.35 52.5 -3.9 52.55 -3.5 52.35 -2.55 52.2 -2.2 51.9 -1.85 51.55 -1.6 51.15 -1.4 50.3 -1.2 49.85 -1.25 49.45 -1.4 49.05 -1.6 48.75 -1.85 48.45 -2.2 48.25 -2.6 48.15 -3.0 48.1 -3.5 48.15 -3.9 48.25 -4.35 48.45 -4.75 48.75 -5.05 49.05 -5.3 49.5 -5.55 49.85 -5.65 50.35 -5.7 51.2 -5.55 M-20.55 -2.75 L-21.3 -2.85 -22.05 -2.75 -22.7 -2.45 -23.3 -2.05 -23.8 -1.5 -24.15 -0.75 -24.45 0.15 -24.7 2.25 -24.45 4.4 -23.8 6.0 -22.75 7.0 -22.05 7.25 -21.3 7.35 -20.25 7.15 -19.3 6.55 -18.65 5.55 -18.25 4.2 -16.4 4.5 -16.65 5.55 -17.0 6.35 -17.35 7.0 -17.9 7.65 -18.65 8.25 -19.45 8.65 -20.35 8.95 -21.35 9.0 -22.55 8.9 -23.55 8.5 -24.5 7.95 -25.3 7.15 -25.9 6.2 -26.4 5.05 -26.65 3.75 -26.75 2.3 -26.65 0.85 -26.4 -0.45 -25.9 -1.65 -25.25 -2.6 -24.45 -3.4 -23.5 -3.95 -22.45 -4.35 -21.25 -4.45 -19.45 -4.2 -18.05 -3.35 Q-17.4 -2.75 -17.05 -1.9 -16.6 -1.1 -16.4 -0.05 L-18.25 0.35 -18.35 -0.3 -18.5 -0.85 -18.65 -1.2 -18.9 -1.6 -19.35 -2.15 -19.9 -2.5 -20.55 -2.75 M-13.7 -4.15 L-11.9 -4.15 -11.9 -1.15 -11.55 -2.0 -11.2 -2.5 -10.95 -2.95 -10.6 -3.4 -10.15 -3.8 -9.55 -4.2 -8.85 -4.4 -8.1 -4.5 -7.8 -4.45 -7.35 -4.45 -7.35 -2.55 -8.25 -2.5 -9.05 -2.3 -9.8 -2.0 -10.4 -1.45 -10.95 -0.8 -11.3 0.0 -11.6 0.9 -11.7 1.9 -11.7 8.65 -13.7 8.65 -13.7 -4.15 M19.85 -1.65 L20.55 -2.6 21.35 -3.4 22.35 -3.95 Q22.85 -4.25 23.45 -4.35 L24.7 -4.45 25.95 -4.35 27.1 -3.95 28.05 -3.4 28.85 -2.55 29.5 -1.6 30.0 -0.4 30.3 0.9 30.35 2.4 30.25 3.8 29.95 5.05 29.45 6.2 28.75 7.15 27.9 7.9 26.85 8.5 25.75 8.9 24.5 9.0 23.3 8.9 22.2 8.5 21.25 7.9 20.45 7.15 19.8 6.2 19.3 5.0 19.05 3.7 18.9 2.25 Q18.9 1.5 19.05 0.8 L19.35 -0.5 19.85 -1.65 M-0.05 -2.75 L-0.85 -2.85 -1.6 -2.75 -2.3 -2.45 -2.95 -2.05 -3.5 -1.45 -3.85 -0.75 -4.15 0.15 -4.35 2.2 -4.1 4.4 -3.45 6.0 -2.3 7.0 -0.8 7.35 0.75 7.0 1.85 6.0 2.55 4.45 2.8 2.3 2.7 1.1 2.55 0.1 2.3 -0.75 1.85 -1.45 1.3 -2.05 0.65 -2.45 -0.05 -2.75 M0.5 -4.35 Q1.1 -4.25 1.65 -3.95 L2.6 -3.4 3.45 -2.55 4.05 -1.6 4.55 -0.4 4.9 0.9 4.95 2.4 4.85 3.8 4.5 5.05 4.0 6.2 3.3 7.15 2.45 7.9 Q1.95 8.3 1.45 8.5 L0.3 8.9 -0.95 9.0 -2.15 8.9 -3.2 8.5 -4.2 7.9 -5.0 7.15 -5.65 6.2 -6.15 5.0 -6.4 3.7 -6.5 2.25 -6.4 0.8 -6.1 -0.5 -5.6 -1.65 -4.9 -2.6 -4.1 -3.4 -3.1 -3.95 -1.95 -4.35 -0.75 -4.45 0.5 -4.35 M7.05 -2.25 L7.5 -2.9 8.0 -3.45 8.7 -3.85 9.6 -4.2 10.5 -4.4 11.55 -4.45 13.35 -4.25 14.8 -3.65 15.9 -2.6 16.55 -1.2 14.75 -0.85 14.25 -1.7 13.5 -2.35 12.6 -2.75 11.45 -2.85 10.35 -2.7 9.45 -2.3 8.95 -1.7 8.7 -0.95 Q8.7 -0.55 8.9 -0.3 9.0 0.0 9.25 0.25 L9.85 0.6 10.7 0.85 13.25 1.25 15.0 1.8 16.15 2.55 16.85 3.7 17.15 5.1 17.05 5.9 16.75 6.65 16.35 7.3 15.7 7.9 14.95 8.4 14.0 8.7 11.85 9.0 9.4 8.65 Q8.35 8.3 7.55 7.6 L7.1 7.15 6.7 6.65 6.45 6.05 6.2 5.3 8.05 4.95 8.25 5.4 8.45 5.8 8.65 6.1 8.95 6.4 9.55 6.75 Q9.9 7.0 10.35 7.1 L11.15 7.3 12.05 7.35 13.3 7.2 14.25 6.75 14.8 6.1 15.1 5.25 Q15.1 3.75 12.9 3.3 L10.2 2.85 8.7 2.35 7.65 1.6 6.95 0.55 Q6.7 -0.05 6.7 -0.7 L6.85 -1.5 7.05 -2.25" fill="#000000" fill-rule="evenodd" stroke="none"/>
  </g>
</svg>
