<?xml version="1.0" encoding="UTF-8" standalone="no"?>
<svg xmlns:ffdec="https://www.free-decompiler.com/flash" xmlns:xlink="http://www.w3.org/1999/xlink" ffdec:objectType="shape" height="35.15px" width="44.8px" xmlns="http://www.w3.org/2000/svg">
  <g transform="matrix(1.0, 0.0, 0.0, 1.0, 22.4, 17.55)">
    <path d="M11.85 13.55 L19.95 -14.65 19.95 -14.7 20.1 -14.5 11.95 13.8 11.85 13.55" fill="#9c8200" fill-rule="evenodd" stroke="none"/>
    <path d="M19.3 -15.2 L19.95 -14.65 11.85 13.55 11.8 13.6 11.8 13.55 11.15 12.95 19.3 -15.2" fill="#74640a" fill-rule="evenodd" stroke="none"/>
    <path d="M18.85 -15.6 L18.75 -15.5 18.7 -15.4 18.7 -15.35 18.65 -15.35 18.65 -15.3 12.85 -13.25 Q10.2 -12.45 7.75 -12.05 L3.3 -11.65 -0.65 -11.9 -4.2 -12.65 -7.35 -13.9 -10.25 -15.45 Q-10.9 -15.8 -11.65 -16.3 L-12.95 -17.1 -12.95 -17.15 -13.0 -17.15 -13.0 -17.25 -12.95 -17.3 -12.95 -17.4 -13.0 -17.5 -11.65 -16.6 Q-10.9 -16.1 -10.25 -15.75 L-7.3 -14.2 Q-5.75 -13.45 -4.15 -12.95 L-0.6 -12.15 3.4 -11.9 7.9 -12.35 Q10.35 -12.75 13.05 -13.5 L18.85 -15.6" fill="#d1a700" fill-rule="evenodd" stroke="none"/>
    <path d="M-22.3 11.2 L-14.2 -16.8 -13.7 -17.15 -21.8 10.8 -22.3 11.2 M-13.7 -17.2 L-14.25 -16.8 -13.95 -17.15 -13.6 -17.45 -13.65 -17.4 -13.7 -17.25 -13.65 -17.25 -13.7 -17.2" fill="#628600" fill-rule="evenodd" stroke="none"/>
    <path d="M11.7 14.05 L11.65 14.1 11.6 14.1 Q5.8 16.45 0.55 17.2 -4.25 17.9 -8.65 17.3 L-12.6 16.45 -16.1 15.2 -19.3 13.65 -22.1 11.9 -22.05 11.9 -19.25 13.6 -16.15 15.15 -12.65 16.4 -8.8 17.25 -6.65 17.45 -4.45 17.5 0.25 17.15 Q5.55 16.35 11.4 14.0 L11.45 13.95 11.65 14.05 11.7 14.05" fill="#384c00" fill-rule="evenodd" stroke="none"/>
    <path d="M-22.1 11.85 L-22.1 11.9 Q-22.5 11.7 -22.4 11.3 L-22.1 11.85 M10.8 13.45 L11.4 14.0 Q5.55 16.35 0.25 17.15 L-4.45 17.5 -6.65 17.45 -8.8 17.25 -12.65 16.4 -16.15 15.15 -19.25 13.6 -22.05 11.9 -21.4 11.45 -21.1 11.6 -20.05 12.25 -18.65 13.05 -15.7 14.6 -12.45 15.8 -8.85 16.65 -4.85 16.9 -0.3 16.55 4.9 15.45 10.7 13.4 10.8 13.45" fill="#476100" fill-rule="evenodd" stroke="none"/>
    <path d="M-12.95 -17.4 L-12.95 -17.3 -13.0 -17.25 -13.0 -17.15 -13.4 -17.3 -13.5 -17.3 -13.6 -17.25 -13.65 -17.25 -13.7 -17.25 -13.65 -17.4 -13.6 -17.45 -13.45 -17.5 -13.3 -17.55 -13.15 -17.55 -13.0 -17.45 -12.95 -17.4" fill="url(#gradient0)" fill-rule="evenodd" stroke="none"/>
    <path d="M-13.0 -17.15 L-12.95 -17.15 -12.95 -17.1 -12.95 -17.05 -21.05 10.9 -21.1 10.9 -21.15 10.85 -21.15 10.95 Q-21.25 10.85 -21.3 10.85 L-21.45 10.8 -21.65 10.8 -21.75 10.8 -21.75 10.75 -21.8 10.8 -13.7 -17.15 -13.7 -17.2 -13.65 -17.25 -13.6 -17.25 -13.5 -17.3 -13.4 -17.3 -13.0 -17.15" fill="url(#gradient1)" fill-rule="evenodd" stroke="none"/>
    <path d="M10.55 12.85 L10.55 12.95 10.75 13.45 10.8 13.45 10.7 13.4 4.9 15.45 -0.3 16.55 -4.85 16.9 -8.85 16.65 -12.45 15.8 -15.7 14.6 -18.65 13.05 -20.05 12.25 -21.1 11.6 -21.35 11.45 -21.35 11.4 -21.35 11.3 -21.25 11.25 -21.2 11.1 -21.15 10.95 -21.15 10.85 -21.1 10.9 -21.05 10.9 -19.8 11.75 -18.4 12.6 -15.5 14.15 -12.35 15.4 -8.85 16.2 -4.9 16.45 -0.4 16.05 Q2.05 15.65 4.7 14.85 L10.45 12.85 10.55 12.8 10.55 12.85" fill="url(#gradient2)" fill-rule="evenodd" stroke="none"/>
    <path d="M-22.05 11.9 L-22.1 11.85 -22.4 11.3 -22.4 11.25 -22.3 11.2 -21.8 10.8 -21.75 10.75 -21.75 10.8 -21.8 10.8 -21.7 11.2 -21.55 11.3 -21.5 11.35 -21.4 11.4 -21.35 11.4 -21.35 11.45 -21.4 11.45 -22.05 11.9" fill="url(#gradient3)" fill-rule="evenodd" stroke="none"/>
    <path d="M-21.15 10.95 L-21.2 11.1 -21.25 11.25 -21.35 11.3 -21.35 11.4 -21.4 11.4 -21.5 11.35 -21.55 11.3 -21.7 11.2 -21.8 10.8 -21.75 10.8 -21.65 10.8 -21.45 10.8 -21.3 10.85 Q-21.25 10.85 -21.15 10.95" fill="url(#gradient4)" fill-rule="evenodd" stroke="none"/>
    <path d="M18.65 -15.3 L18.65 -15.35 18.7 -15.35 19.3 -15.2 11.15 12.95 10.6 12.85 10.55 12.85 10.55 12.8 10.45 12.85 10.5 12.8 18.65 -15.3" fill="url(#gradient5)" fill-rule="evenodd" stroke="none"/>
    <path d="M11.15 12.95 L11.15 13.05 10.75 13.45 10.55 12.95 10.55 12.85 10.6 12.85 11.15 12.95 M10.5 12.8 L10.45 12.85 10.45 12.8 10.5 12.8" fill="url(#gradient6)" fill-rule="evenodd" stroke="none"/>
    <path d="M11.15 12.95 L11.8 13.55 11.8 13.6 11.45 13.95 11.4 14.0 10.8 13.45 10.75 13.45 11.15 13.05 11.15 12.95" fill="url(#gradient7)" fill-rule="evenodd" stroke="none"/>
    <path d="M11.8 13.6 L11.85 13.55 11.95 13.8 11.8 14.0 11.7 14.05 11.65 14.05 11.45 13.95 11.8 13.6 M11.65 14.1 L11.6 14.1 11.65 14.1" fill="url(#gradient8)" fill-rule="evenodd" stroke="none"/>
    <path d="M18.7 -15.35 L18.7 -15.4 18.75 -15.5 18.85 -15.6 19.15 -15.6 19.3 -15.5 19.3 -15.2 18.7 -15.35" fill="url(#gradient9)" fill-rule="evenodd" stroke="none"/>
    <path d="M19.3 -15.2 L19.3 -15.5 19.35 -15.45 19.95 -15.0 19.95 -14.7 19.95 -14.65 19.3 -15.2" fill="url(#gradient10)" fill-rule="evenodd" stroke="none"/>
    <path d="M19.95 -14.7 L19.95 -15.0 20.1 -14.5 19.95 -14.7" fill="url(#gradient11)" fill-rule="evenodd" stroke="none"/>
    <path d="M16.45 10.9 L16.45 10.55 18.75 10.55 18.75 10.9 17.8 10.9 17.8 13.9 17.4 13.9 17.4 10.9 16.45 10.9 M22.4 13.95 L22.0 13.95 22.0 11.05 20.9 13.95 20.65 13.95 19.55 11.05 19.55 13.95 19.2 13.95 19.2 10.65 19.85 10.65 20.8 13.3 21.8 10.65 22.4 10.65 22.4 13.95" fill="#000000" fill-rule="evenodd" stroke="none"/>
  </g>
  <defs>
    <linearGradient gradientTransform="matrix(-4.0E-4, 0.0, 0.0, -2.0E-4, -10.85, -53.1)" gradientUnits="userSpaceOnUse" id="gradient0" spreadMethod="pad" x1="-819.2" x2="819.2">
      <stop offset="0.0" stop-color="#ffcc00"/>
      <stop offset="0.17254901960784313" stop-color="#ffcc00"/>
      <stop offset="0.4823529411764706" stop-color="#facb00"/>
      <stop offset="1.0" stop-color="#9c8200"/>
    </linearGradient>
    <linearGradient gradientTransform="matrix(-5.0E-4, -1.0E-4, 0.0049, -0.0172, -15.35, -10.4)" gradientUnits="userSpaceOnUse" id="gradient1" spreadMethod="pad" x1="-819.2" x2="819.2">
      <stop offset="0.0" stop-color="#9c8200"/>
      <stop offset="0.058823529411764705" stop-color="#9c8200"/>
      <stop offset="0.17254901960784313" stop-color="#ffcc00"/>
      <stop offset="0.3215686274509804" stop-color="#ffcc00"/>
      <stop offset="1.0" stop-color="#9c8200"/>
    </linearGradient>
    <linearGradient gradientTransform="matrix(0.0197, 0.0, 0.0, 0.0038, -5.3, -12.85)" gradientUnits="userSpaceOnUse" id="gradient2" spreadMethod="pad" x1="-819.2" x2="819.2">
      <stop offset="0.0" stop-color="#9c8200"/>
      <stop offset="0.34901960784313724" stop-color="#facb00"/>
      <stop offset="1.0" stop-color="#9c8200"/>
    </linearGradient>
    <linearGradient gradientTransform="matrix(-3.0E-4, -3.0E-4, 4.0E-4, -4.0E-4, -37.85, 25.65)" gradientUnits="userSpaceOnUse" id="gradient3" spreadMethod="pad" x1="-819.2" x2="819.2">
      <stop offset="0.0" stop-color="#9c8200"/>
      <stop offset="0.10588235294117647" stop-color="#9c8200"/>
      <stop offset="0.6588235294117647" stop-color="#facb00"/>
      <stop offset="1.0" stop-color="#9c8200"/>
    </linearGradient>
    <linearGradient gradientTransform="matrix(2.0E-4, 4.0E-4, -3.0E-4, 2.0E-4, -3.25, 0.9)" gradientUnits="userSpaceOnUse" id="gradient4" spreadMethod="pad" x1="-819.2" x2="819.2">
      <stop offset="0.0" stop-color="#9c8200"/>
      <stop offset="0.33725490196078434" stop-color="#ffcc00"/>
      <stop offset="0.803921568627451" stop-color="#d1a700"/>
      <stop offset="1.0" stop-color="#9c8200"/>
    </linearGradient>
    <linearGradient gradientTransform="matrix(-4.0E-4, -1.0E-4, 0.005, -0.0173, 15.8, -4.6)" gradientUnits="userSpaceOnUse" id="gradient5" spreadMethod="pad" x1="-819.2" x2="819.2">
      <stop offset="0.0" stop-color="#74640a"/>
      <stop offset="1.0" stop-color="#facb00"/>
    </linearGradient>
    <linearGradient gradientTransform="matrix(-4.0E-4, 0.0, 0.0, -4.0E-4, 9.05, 38.1)" gradientUnits="userSpaceOnUse" id="gradient6" spreadMethod="pad" x1="-819.2" x2="819.2">
      <stop offset="0.0" stop-color="#867300"/>
      <stop offset="1.0" stop-color="#d1a700"/>
    </linearGradient>
    <linearGradient gradientTransform="matrix(-2.0E-4, 5.0E-4, -6.0E-4, -3.0E-4, 34.8, 23.9)" gradientUnits="userSpaceOnUse" id="gradient7" spreadMethod="pad" x1="-819.2" x2="819.2">
      <stop offset="0.0" stop-color="#867300"/>
      <stop offset="1.0" stop-color="#9c8200"/>
    </linearGradient>
    <linearGradient gradientTransform="matrix(-1.0E-4, 4.0E-4, -3.0E-4, -1.0E-4, 37.1, 20.55)" gradientUnits="userSpaceOnUse" id="gradient8" spreadMethod="pad" x1="-819.2" x2="819.2">
      <stop offset="0.0" stop-color="#9c8200"/>
      <stop offset="1.0" stop-color="#74640a"/>
    </linearGradient>
    <linearGradient gradientTransform="matrix(2.0E-4, 3.0E-4, -3.0E-4, 2.0E-4, -8.35, 1.1)" gradientUnits="userSpaceOnUse" id="gradient9" spreadMethod="pad" x1="-819.2" x2="819.2">
      <stop offset="0.0" stop-color="#d1a700"/>
      <stop offset="1.0" stop-color="#74640a"/>
    </linearGradient>
    <linearGradient gradientTransform="matrix(-1.0E-4, 2.0E-4, -5.0E-4, -4.0E-4, -4.4, -35.25)" gradientUnits="userSpaceOnUse" id="gradient10" spreadMethod="pad" x1="-819.2" x2="819.2">
      <stop offset="0.0" stop-color="#d1a700"/>
      <stop offset="1.0" stop-color="#74640a"/>
    </linearGradient>
    <linearGradient gradientTransform="matrix(0.0, 3.0E-4, -1.0E-4, 0.0, -10.65, -14.75)" gradientUnits="userSpaceOnUse" id="gradient11" spreadMethod="pad" x1="-819.2" x2="819.2">
      <stop offset="0.0" stop-color="#867300"/>
      <stop offset="1.0" stop-color="#9c8200"/>
    </linearGradient>
  </defs>
</svg>
