<?xml version="1.0" encoding="UTF-8" standalone="no"?>
<svg xmlns:ffdec="https://www.free-decompiler.com/flash" xmlns:xlink="http://www.w3.org/1999/xlink" ffdec:objectType="shape" height="5.8px" width="31.75px" xmlns="http://www.w3.org/2000/svg">
  <g transform="matrix(1.0, 0.0, 0.0, 1.0, -72.8, -336.4)">
    <path d="M78.7 338.0 L83.8 336.8 88.3 336.4 92.25 336.65 95.75 337.45 Q97.3 337.9 98.9 338.65 100.3 339.3 101.8 340.2 L103.2 341.05 104.55 341.95 104.5 342.2 103.15 341.3 101.75 340.4 98.85 338.9 Q97.25 338.15 95.65 337.65 L92.15 336.9 88.2 336.65 83.7 337.05 78.6 338.25 Q75.85 339.05 72.8 340.3 L72.85 340.1 Q75.9 338.8 78.7 338.0" fill="#fe6200" fill-rule="evenodd" stroke="none"/>
  </g>
</svg>
