<?xml version="1.0" encoding="UTF-8" standalone="no"?>
<svg xmlns:ffdec="https://www.free-decompiler.com/flash" xmlns:xlink="http://www.w3.org/1999/xlink" ffdec:objectType="shape" height="6.05px" width="31.7px" xmlns="http://www.w3.org/2000/svg">
  <g transform="matrix(1.0, 0.0, 0.0, 1.0, 19.95, -10.85)">
    <path d="M7.35 14.4 L5.85 13.65 Q4.3 12.95 2.75 12.5 L-0.7 11.75 -4.55 11.5 -8.95 11.95 -14.0 13.15 -19.7 15.15 -19.8 15.1 -19.9 14.95 -19.95 14.85 -19.95 14.7 Q-16.9 13.4 -14.1 12.5 L-9.0 11.3 -4.5 10.85 -0.55 11.1 2.95 11.95 Q4.55 12.45 6.1 13.2 6.85 13.5 7.6 13.95 L9.0 14.75 10.4 15.6 11.75 16.5 11.6 16.8 11.55 16.85 11.45 16.9 10.1 16.05 8.75 15.2 7.35 14.4" fill="url(#gradient0)" fill-rule="evenodd" stroke="none"/>
  </g>
  <defs>
    <linearGradient gradientTransform="matrix(0.0193, 0.0, 0.0, 0.0037, -4.1, 4.3)" gradientUnits="userSpaceOnUse" id="gradient0" spreadMethod="pad" x1="-819.2" x2="819.2">
      <stop offset="0.0" stop-color="#6687ff"/>
      <stop offset="0.4196078431372549" stop-color="#d1dbff"/>
      <stop offset="1.0" stop-color="#3863ff"/>
    </linearGradient>
  </defs>
</svg>
