<?xml version="1.0" encoding="UTF-8" standalone="no"?>
<svg xmlns:ffdec="https://www.free-decompiler.com/flash" xmlns:xlink="http://www.w3.org/1999/xlink" ffdec:objectType="shape" height="4.95px" width="29.15px" xmlns="http://www.w3.org/2000/svg">
  <g transform="matrix(1.0, 0.0, 0.0, 1.0, -65.7, -365.85)">
    <path d="M94.05 370.3 L94.85 370.8 94.05 370.35 92.75 369.5 94.05 370.3 M65.7 369.55 Q68.7 368.3 71.35 367.5 L76.2 366.3 80.4 365.85 84.0 366.1 87.15 366.85 88.6 367.4 90.05 368.0 91.4 368.75 92.4 369.3 91.4 368.8 90.0 368.1 87.15 367.0 83.95 366.3 82.25 366.15 80.4 366.15 76.25 366.6 71.45 367.7 65.9 369.65 65.7 369.55" fill="#793200" fill-rule="evenodd" stroke="none"/>
  </g>
</svg>
