<?xml version="1.0" encoding="UTF-8" standalone="no"?>
<svg xmlns:ffdec="https://www.free-decompiler.com/flash" xmlns:xlink="http://www.w3.org/1999/xlink" ffdec:objectType="shape" height="5.85px" width="31.2px" xmlns="http://www.w3.org/2000/svg">
  <g transform="matrix(1.0, 0.0, 0.0, 1.0, -64.85, -365.3)">
    <path d="M80.45 366.05 L76.25 366.5 Q74.0 366.9 71.4 367.65 68.75 368.4 65.7 369.6 L64.85 368.95 Q67.85 367.7 70.6 366.9 L75.6 365.7 80.0 365.3 83.9 365.5 87.35 366.25 90.45 367.45 93.35 368.95 94.7 369.8 96.05 370.7 95.4 371.15 94.05 370.3 92.75 369.5 91.4 368.75 90.05 368.1 88.65 367.5 87.2 366.95 84.0 366.25 80.45 366.05" fill="#aa3500" fill-rule="evenodd" stroke="none"/>
  </g>
</svg>
