<?xml version="1.0" encoding="UTF-8" standalone="no"?>
<svg xmlns:ffdec="https://www.free-decompiler.com/flash" xmlns:xlink="http://www.w3.org/1999/xlink" ffdec:objectType="shape" height="2.9px" width="33.65px" xmlns="http://www.w3.org/2000/svg">
  <g transform="matrix(1.0, 0.0, 0.0, 1.0, 12.5, 17.55)">
    <path d="M-12.25 -17.5 L-12.1 -17.55 -11.95 -17.55 -11.8 -17.5 -11.8 -17.35 -11.8 -17.25 -11.8 -17.2 -12.5 -17.25 -12.45 -17.45 -12.25 -17.5" fill="url(#gradient0)" fill-rule="evenodd" stroke="none"/>
    <path d="M20.5 -15.15 L19.85 -15.35 19.85 -15.4 19.9 -15.5 20.05 -15.6 20.35 -15.6 20.5 -15.55 20.55 -15.45 20.5 -15.15" fill="url(#gradient1)" fill-rule="evenodd" stroke="none"/>
    <path d="M20.5 -15.55 L21.15 -15.0 21.1 -14.65 20.45 -15.2 20.5 -15.55" fill="url(#gradient2)" fill-rule="evenodd" stroke="none"/>
  </g>
  <defs>
    <linearGradient gradientTransform="matrix(-4.0E-4, 0.0, 0.0, -2.0E-4, -5.05, -119.3)" gradientUnits="userSpaceOnUse" id="gradient0" spreadMethod="pad" x1="-819.2" x2="819.2">
      <stop offset="0.0" stop-color="#70af00"/>
      <stop offset="0.17254901960784313" stop-color="#89d700"/>
      <stop offset="0.4823529411764706" stop-color="#89d700"/>
      <stop offset="1.0" stop-color="#628600"/>
    </linearGradient>
    <linearGradient gradientTransform="matrix(2.0E-4, 3.0E-4, -4.0E-4, 2.0E-4, -63.9, 35.2)" gradientUnits="userSpaceOnUse" id="gradient1" spreadMethod="pad" x1="-819.2" x2="819.2">
      <stop offset="0.0" stop-color="#70af00"/>
      <stop offset="1.0" stop-color="#384c00"/>
    </linearGradient>
    <linearGradient gradientTransform="matrix(-1.0E-4, 2.0E-4, -5.0E-4, -4.0E-4, -53.9, -77.8)" gradientUnits="userSpaceOnUse" id="gradient2" spreadMethod="pad" x1="-819.2" x2="819.2">
      <stop offset="0.0" stop-color="#628600"/>
      <stop offset="1.0" stop-color="#384c00"/>
    </linearGradient>
  </defs>
</svg>
