<?xml version="1.0" encoding="UTF-8" standalone="no"?>
<svg xmlns:ffdec="https://www.free-decompiler.com/flash" xmlns:xlink="http://www.w3.org/1999/xlink" ffdec:objectType="shape" height="6.3px" width="33.25px" xmlns="http://www.w3.org/2000/svg">
  <g transform="matrix(1.0, 0.0, 0.0, 1.0, 20.25, -10.85)">
    <path d="M11.9 13.5 Q11.6 13.2 11.65 12.8 L12.35 12.95 11.9 13.5" fill="url(#gradient0)" fill-rule="evenodd" stroke="none"/>
    <path d="M12.35 12.95 L13.0 13.5 12.55 14.0 11.85 13.45 12.35 12.95" fill="url(#gradient1)" fill-rule="evenodd" stroke="none"/>
    <path d="M-19.95 10.85 L-18.6 11.75 -17.25 12.6 -14.3 14.15 -11.15 15.4 -7.65 16.2 -3.7 16.45 0.8 16.05 5.9 14.85 Q8.7 14.05 11.75 12.8 11.7 13.2 12.0 13.5 8.95 14.75 6.15 15.6 L0.95 16.75 -3.6 17.15 -7.65 16.85 -11.25 16.0 -14.5 14.75 -17.45 13.15 -18.85 12.3 -20.25 11.4 -20.15 11.3 -20.1 11.2 -20.0 11.05 -19.95 10.85" fill="url(#gradient2)" fill-rule="evenodd" stroke="none"/>
  </g>
  <defs>
    <linearGradient gradientTransform="matrix(-4.0E-4, 0.0, 0.0, -4.0E-4, 14.9, -27.95)" gradientUnits="userSpaceOnUse" id="gradient0" spreadMethod="pad" x1="-819.2" x2="819.2">
      <stop offset="0.0" stop-color="#476100"/>
      <stop offset="1.0" stop-color="#628600"/>
    </linearGradient>
    <linearGradient gradientTransform="matrix(-3.0E-4, 3.0E-4, -4.0E-4, -4.0E-4, -17.7, -13.6)" gradientUnits="userSpaceOnUse" id="gradient1" spreadMethod="pad" x1="-819.2" x2="819.2">
      <stop offset="0.0" stop-color="#384c00"/>
      <stop offset="1.0" stop-color="#476100"/>
    </linearGradient>
    <linearGradient gradientTransform="matrix(0.0197, 0.0, 0.0, 0.0038, -4.15, 53.35)" gradientUnits="userSpaceOnUse" id="gradient2" spreadMethod="pad" x1="-819.2" x2="819.2">
      <stop offset="0.0" stop-color="#628600"/>
      <stop offset="0.3686274509803922" stop-color="#89d700"/>
      <stop offset="1.0" stop-color="#628600"/>
    </linearGradient>
  </defs>
</svg>
