<?xml version="1.0" encoding="UTF-8" standalone="no"?>
<svg xmlns:ffdec="https://www.free-decompiler.com/flash" xmlns:xlink="http://www.w3.org/1999/xlink" ffdec:objectType="shape" height="28.35px" width="41.7px" xmlns="http://www.w3.org/2000/svg">
  <g transform="matrix(1.0, 0.0, 0.0, 1.0, 21.2, 15.4)">
    <path d="M-21.2 11.25 L-20.55 10.75 -20.15 11.4 -20.85 11.9 Q-21.25 11.7 -21.2 11.25" fill="url(#gradient0)" fill-rule="evenodd" stroke="none"/>
    <path d="M-19.95 10.9 L-20.0 11.1 -20.05 11.25 -20.15 11.3 -20.25 11.4 -20.3 11.35 -20.35 11.3 -20.5 11.2 -20.6 10.8 -20.3 10.75 -20.1 10.85 -19.95 10.9" fill="url(#gradient1)" fill-rule="evenodd" stroke="none"/>
    <path d="M11.65 12.85 L19.85 -15.35 20.5 -15.2 12.35 12.95 11.65 12.85" fill="url(#gradient2)" fill-rule="evenodd" stroke="none"/>
  </g>
  <defs>
    <linearGradient gradientTransform="matrix(-3.0E-4, -3.0E-4, 4.0E-4, -4.0E-4, 12.55, -18.65)" gradientUnits="userSpaceOnUse" id="gradient0" spreadMethod="pad" x1="-819.2" x2="819.2">
      <stop offset="0.0" stop-color="#476100"/>
      <stop offset="0.10588235294117647" stop-color="#476100"/>
      <stop offset="0.6588235294117647" stop-color="#70af00"/>
      <stop offset="1.0" stop-color="#628600"/>
    </linearGradient>
    <linearGradient gradientTransform="matrix(2.0E-4, 4.0E-4, -3.0E-4, 2.0E-4, -60.0, 32.95)" gradientUnits="userSpaceOnUse" id="gradient1" spreadMethod="pad" x1="-819.2" x2="819.2">
      <stop offset="0.0" stop-color="#628600"/>
      <stop offset="0.33725490196078434" stop-color="#70af00"/>
      <stop offset="0.803921568627451" stop-color="#628600"/>
      <stop offset="1.0" stop-color="#628600"/>
    </linearGradient>
    <linearGradient gradientTransform="matrix(-4.0E-4, -1.0E-4, 0.0049, -0.0173, 35.3, -68.3)" gradientUnits="userSpaceOnUse" id="gradient2" spreadMethod="pad" x1="-819.2" x2="819.2">
      <stop offset="0.0" stop-color="#384c00"/>
      <stop offset="1.0" stop-color="#70af00"/>
    </linearGradient>
  </defs>
</svg>
