<?xml version="1.0" encoding="UTF-8" standalone="no"?>
<svg xmlns:ffdec="https://www.free-decompiler.com/flash" xmlns:xlink="http://www.w3.org/1999/xlink" ffdec:objectType="shape" height="52.65px" width="280.1px" xmlns="http://www.w3.org/2000/svg">
  <g transform="matrix(1.0, 0.0, 0.0, 1.0, 140.5, 26.3)">
    <path d="M-87.2 -25.5 L-73.4 26.35 -81.65 26.35 -91.4 -11.45 -101.8 26.35 -111.25 26.35 -120.6 -11.45 -130.5 26.35 -140.5 26.35 -126.35 -25.5 -116.8 -25.5 -107.35 12.55 -97.05 -25.5 -87.2 -25.5" fill="url(#gradient0)" fill-rule="evenodd" stroke="none"/>
    <path d="M-62.1 -25.5 L-62.1 12.75 -70.75 12.75 -70.75 -25.5 -62.1 -25.5" fill="url(#gradient1)" fill-rule="evenodd" stroke="none"/>
    <path d="M-46.15 -25.5 L-46.15 -5.85 Q-46.2 -3.65 -45.85 -1.85 -45.5 -0.15 -44.75 1.25 L-43.45 3.25 -42.65 4.1 -41.8 4.75 -40.85 5.25 -39.8 5.7 -38.8 5.95 -37.7 6.0 -36.4 5.9 -35.25 5.5 -34.25 4.85 -33.4 3.95 -32.65 2.9 -32.15 1.6 -31.85 0.1 -31.75 -1.6 -31.75 -25.5 -23.1 -25.5 -23.1 -0.8 -23.15 1.9 -23.5 4.2 -24.0 6.15 -24.75 7.9 -25.5 9.1 -26.45 10.2 -27.65 11.15 Q-28.25 11.65 -28.95 12.0 L-30.4 12.65 -31.95 13.15 -33.6 13.5 -35.2 13.6 -37.1 13.4 -38.85 13.05 -40.4 12.35 -41.85 11.35 -43.2 10.0 -44.5 8.35 -45.75 6.35 -47.0 3.9 -47.0 12.75 -54.8 12.75 -54.8 -25.5 -46.15 -25.5" fill="url(#gradient2)" fill-rule="evenodd" stroke="none"/>
    <path d="M15.6 -25.5 L15.6 26.35 7.0 26.35 7.0 7.6 Q6.2 9.3 5.2 10.55 L2.9 12.7 Q1.65 13.5 0.1 13.95 L-3.25 14.35 Q-6.35 14.35 -8.75 13.3 -11.2 12.2 -12.95 10.2 L-15.3 6.9 -16.95 3.05 Q-17.7 1.0 -18.0 -1.25 -18.4 -3.55 -18.35 -5.85 L-18.25 -8.05 -18.05 -10.3 -17.65 -12.5 -17.1 -14.55 -16.45 -16.55 -15.75 -18.4 -14.9 -20.0 -14.0 -21.4 -11.95 -23.5 -9.5 -25.1 -6.75 -26.0 -3.75 -26.3 -1.8 -26.15 0.0 -25.8 1.6 -25.2 3.0 -24.25 4.35 -23.1 5.5 -21.6 6.6 -19.9 7.55 -17.85 7.55 -25.5 15.6 -25.5 M3.45 -17.55 L2.05 -18.5 0.5 -19.05 -1.2 -19.25 -3.05 -19.05 -4.6 -18.4 -6.0 -17.35 -7.15 -15.95 Q-8.15 -14.3 -8.65 -11.9 -9.2 -9.5 -9.2 -6.35 -9.2 -3.15 -8.65 -0.6 L-7.95 1.65 -7.05 3.55 -5.85 5.0 -4.45 6.1 -2.8 6.75 -0.9 6.95 0.7 6.8 2.25 6.25 3.7 5.3 4.95 4.1 5.5 3.45 5.95 2.75 6.55 1.15 6.9 -0.65 7.0 -2.9 7.0 -9.4 6.85 -11.4 6.35 -13.3 5.6 -15.0 4.65 -16.4 3.45 -17.55" fill="url(#gradient3)" fill-rule="evenodd" stroke="none"/>
    <path d="M37.85 -26.3 L41.75 -25.95 45.25 -24.85 48.3 -23.1 50.95 -20.75 53.15 -17.85 54.7 -14.45 Q55.4 -12.65 55.7 -10.6 L56.05 -6.4 55.9 -2.95 55.3 0.15 54.3 3.0 52.85 5.7 Q51.55 7.75 50.05 9.2 L46.75 11.65 Q44.9 12.6 42.8 13.1 L38.35 13.6 34.5 13.2 31.05 12.15 28.0 10.4 Q26.55 9.35 25.35 8.0 24.15 6.7 23.25 5.15 22.35 3.6 21.7 1.75 21.05 -0.1 20.75 -2.0 20.35 -4.1 20.35 -6.25 20.35 -10.0 21.3 -13.2 22.2 -16.45 24.2 -19.25 25.3 -21.0 26.8 -22.35 28.25 -23.65 29.95 -24.55 31.7 -25.4 33.7 -25.85 L37.85 -26.3 M33.05 -17.3 L31.8 -15.85 Q31.25 -15.05 30.85 -14.0 L30.15 -11.8 29.7 -9.25 Q29.5 -7.85 29.55 -6.35 29.5 -4.8 29.7 -3.45 29.85 -2.05 30.15 -0.85 L30.85 1.4 31.85 3.15 33.1 4.6 34.6 5.65 36.35 6.3 38.35 6.5 Q40.4 6.5 42.0 5.7 L43.45 4.65 44.65 3.25 Q45.8 1.65 46.35 -0.75 46.85 -3.1 46.85 -6.2 46.85 -9.35 46.35 -11.75 L45.6 -14.0 44.65 -15.85 43.4 -17.3 41.9 -18.4 40.15 -19.05 38.15 -19.25 36.25 -19.05 34.5 -18.4 Q33.65 -17.95 33.05 -17.3" fill="url(#gradient4)" fill-rule="evenodd" stroke="none"/>
    <path d="M75.6 -25.5 L82.4 1.4 89.3 -25.5 97.1 -25.5 108.35 12.75 101.1 12.75 93.7 -13.05 86.95 12.75 79.05 12.75 72.5 -13.05 64.9 12.75 55.7 12.75 67.55 -25.5 75.6 -25.5" fill="url(#gradient5)" fill-rule="evenodd" stroke="none"/>
    <path d="M119.3 -26.05 L122.85 -26.3 126.45 -26.1 129.75 -25.45 132.6 -24.4 135.05 -22.9 136.95 -21.15 138.4 -19.05 139.25 -16.6 139.6 -13.85 Q139.55 -11.6 138.95 -9.75 138.35 -7.9 137.15 -6.5 135.9 -5.1 134.15 -4.2 132.3 -3.2 129.9 -2.7 L121.65 -1.05 119.15 -0.35 Q118.15 0.0 117.45 0.55 116.8 1.1 116.45 1.8 116.15 2.45 116.15 3.3 L116.25 4.2 116.65 5.0 117.25 5.7 118.0 6.3 118.95 6.8 120.15 7.15 121.45 7.35 122.9 7.45 123.65 7.45 124.3 7.35 125.55 7.2 126.6 6.9 127.55 6.4 128.3 5.8 128.95 5.05 129.5 4.2 129.9 3.1 137.7 4.75 136.65 7.15 132.5 7.15 132.5 11.35 Q130.65 12.45 128.3 13.0 L122.9 13.6 119.15 13.3 116.05 12.55 Q114.55 12.0 113.4 11.25 L111.2 9.35 109.9 7.65 108.9 5.7 Q108.5 4.65 108.35 3.6 L108.15 1.4 Q108.15 0.2 108.3 -0.85 L108.85 -2.85 109.7 -4.55 110.95 -6.0 Q112.35 -7.45 114.6 -8.4 116.75 -9.4 119.7 -9.9 L126.75 -11.3 Q127.7 -11.5 128.45 -11.85 129.2 -12.2 129.8 -12.65 L130.6 -13.8 130.95 -15.1 130.8 -16.15 130.4 -17.15 129.75 -17.95 128.9 -18.6 Q127.85 -19.25 126.45 -19.5 L123.15 -19.85 121.5 -19.8 120.1 -19.65 118.85 -19.3 117.75 -18.8 116.85 -18.15 116.05 -17.35 115.35 -16.4 114.7 -15.2 106.6 -16.75 107.35 -18.7 108.15 -20.25 109.25 -21.55 110.6 -22.75 113.1 -24.25 116.05 -25.4 119.3 -26.05" fill="url(#gradient6)" fill-rule="evenodd" stroke="none"/>
  </g>
  <defs>
    <linearGradient gradientTransform="matrix(0.0, -0.041, 0.0316, 0.0, -107.0, 0.45)" gradientUnits="userSpaceOnUse" id="gradient0" spreadMethod="pad" x1="-819.2" x2="819.2">
      <stop offset="0.25098039215686274" stop-color="#ffffff"/>
      <stop offset="1.0" stop-color="#999999"/>
    </linearGradient>
    <linearGradient gradientTransform="matrix(0.0, -0.0234, 0.0233, 0.0, -66.5, -6.35)" gradientUnits="userSpaceOnUse" id="gradient1" spreadMethod="pad" x1="-819.2" x2="819.2">
      <stop offset="0.25098039215686274" stop-color="#ffffff"/>
      <stop offset="1.0" stop-color="#999999"/>
    </linearGradient>
    <linearGradient gradientTransform="matrix(0.0, -0.024, 0.0239, 0.0, -38.95, -5.95)" gradientUnits="userSpaceOnUse" id="gradient2" spreadMethod="pad" x1="-819.2" x2="819.2">
      <stop offset="0.25098039215686274" stop-color="#ffffff"/>
      <stop offset="1.0" stop-color="#999999"/>
    </linearGradient>
    <linearGradient gradientTransform="matrix(0.0, -0.0317, 0.0321, 0.0, -1.4, 0.0)" gradientUnits="userSpaceOnUse" id="gradient3" spreadMethod="pad" x1="-819.2" x2="819.2">
      <stop offset="0.25098039215686274" stop-color="#ffffff"/>
      <stop offset="1.0" stop-color="#999999"/>
    </linearGradient>
    <linearGradient gradientTransform="matrix(0.0, -0.0244, 0.0244, 0.0, 38.2, -6.35)" gradientUnits="userSpaceOnUse" id="gradient4" spreadMethod="pad" x1="-819.2" x2="819.2">
      <stop offset="0.25098039215686274" stop-color="#ffffff"/>
      <stop offset="1.0" stop-color="#999999"/>
    </linearGradient>
    <linearGradient gradientTransform="matrix(0.0, -0.0233, 0.0233, 0.0, 81.95, -6.35)" gradientUnits="userSpaceOnUse" id="gradient5" spreadMethod="pad" x1="-819.2" x2="819.2">
      <stop offset="0.25098039215686274" stop-color="#ffffff"/>
      <stop offset="1.0" stop-color="#999999"/>
    </linearGradient>
    <linearGradient gradientTransform="matrix(0.0, -0.0244, 0.0244, 0.0, 123.1, -6.35)" gradientUnits="userSpaceOnUse" id="gradient6" spreadMethod="pad" x1="-819.2" x2="819.2">
      <stop offset="0.25098039215686274" stop-color="#ffffff"/>
      <stop offset="1.0" stop-color="#999999"/>
    </linearGradient>
  </defs>
</svg>
