<?xml version="1.0" encoding="UTF-8" standalone="no"?>
<svg xmlns:ffdec="https://www.free-decompiler.com/flash" xmlns:xlink="http://www.w3.org/1999/xlink" ffdec:objectType="shape" height="75.3px" width="85.4px" xmlns="http://www.w3.org/2000/svg">
  <g transform="matrix(1.0, 0.0, 0.0, 1.0, -55.05, -336.6)">
    <path d="M78.6 338.2 L83.75 337.0 88.2 336.6 92.15 336.85 95.7 337.6 98.85 338.85 101.75 340.4 103.15 341.25 104.5 342.15 96.35 370.3 95.0 369.4 93.6 368.55 90.7 367.0 Q89.1 366.25 87.5 365.8 L84.0 365.0 80.05 364.75 75.55 365.2 70.45 366.4 Q67.7 367.2 64.65 368.45 L72.8 340.25 Q75.85 339.0 78.6 338.2 M78.6 369.7 L82.55 369.95 86.1 370.75 89.25 371.95 92.15 373.5 93.55 374.35 94.9 375.25 86.75 403.4 85.4 402.5 84.0 401.65 81.1 400.1 77.95 398.9 Q76.2 398.35 74.4 398.1 L70.45 397.85 66.0 398.3 60.85 399.5 Q58.1 400.3 55.05 401.55 L63.2 373.4 Q66.25 372.1 69.05 371.3 L74.15 370.1 78.6 369.7 M110.1 346.0 L111.5 346.85 114.4 348.4 117.55 349.6 121.1 350.4 125.05 350.65 129.5 350.2 134.6 349.0 140.45 346.95 132.3 375.1 126.45 377.2 121.35 378.4 116.85 378.8 112.9 378.55 109.4 377.75 Q107.85 377.3 106.25 376.55 L103.35 375.0 101.95 374.15 100.6 373.25 108.75 345.1 110.1 346.0 M100.5 379.1 L101.9 379.95 104.8 381.5 107.95 382.7 111.5 383.5 115.45 383.75 119.9 383.3 125.05 382.1 130.85 380.05 122.7 408.25 116.85 410.3 111.75 411.5 107.3 411.9 103.35 411.65 99.8 410.9 96.65 409.65 93.75 408.1 92.35 407.25 91.0 406.35 99.15 378.2 100.5 379.1" fill="url(#gradient0)" fill-rule="evenodd" stroke="none"/>
  </g>
  <defs>
    <linearGradient gradientTransform="matrix(-0.0393, -0.0113, 0.0128, -0.0446, 109.7, 332.5)" gradientUnits="userSpaceOnUse" id="gradient0" spreadMethod="pad" x1="-819.2" x2="819.2">
      <stop offset="0.0" stop-color="#991e00"/>
      <stop offset="0.5450980392156862" stop-color="#991e00"/>
      <stop offset="0.7098039215686275" stop-color="#fe6200"/>
      <stop offset="0.8509803921568627" stop-color="#fea960"/>
      <stop offset="1.0" stop-color="#fe6200"/>
    </linearGradient>
  </defs>
</svg>
