<?xml version="1.0" encoding="UTF-8" standalone="no"?>
<svg xmlns:ffdec="https://www.free-decompiler.com/flash" xmlns:xlink="http://www.w3.org/1999/xlink" ffdec:objectType="shape" height="37.55px" width="50.8px" xmlns="http://www.w3.org/2000/svg">
  <g transform="matrix(1.0, 0.0, 0.0, 1.0, 23.4, 18.8)">
    <path d="M9.25 -18.8 L9.25 -5.6 10.7 -7.6 12.45 -8.95 Q13.4 -9.5 14.5 -9.75 L16.95 -10.0 19.15 -9.8 21.1 -9.15 22.75 -8.15 24.15 -6.6 25.55 -4.3 26.6 -1.6 27.2 1.4 27.4 4.55 27.25 7.6 26.65 10.35 25.75 12.9 24.45 15.15 23.05 16.75 21.4 17.9 19.5 18.55 17.35 18.75 14.7 18.45 Q13.5 18.1 12.5 17.45 11.4 16.8 10.55 15.8 L8.95 13.4 8.95 18.2 2.95 18.2 2.95 -18.8 9.25 -18.8 M12.9 -4.55 L11.85 -3.95 11.0 -3.1 10.3 -2.1 9.75 -0.9 9.35 0.4 9.25 1.85 9.25 5.8 9.35 7.5 9.75 8.95 10.25 10.3 10.95 11.45 11.8 12.4 12.85 13.1 13.95 13.5 15.25 13.7 16.5 13.5 17.6 13.05 18.55 12.25 19.35 11.2 19.95 9.8 20.45 8.2 Q20.8 6.4 20.8 4.15 L20.7 2.1 20.45 0.25 19.95 -1.3 19.3 -2.6 18.55 -3.7 17.6 -4.45 16.5 -4.95 15.3 -5.1 14.0 -4.95 12.9 -4.55" fill="url(#gradient0)" fill-rule="evenodd" stroke="none"/>
    <path d="M-18.0 -9.5 L-11.6 0.65 -5.75 -9.5 1.45 -9.5 -7.85 6.2 0.0 18.2 -5.25 18.2 -10.4 10.05 -15.0 18.2 -22.15 18.2 -14.15 4.8 -23.4 -9.5 -18.0 -9.5" fill="url(#gradient1)" fill-rule="evenodd" stroke="none"/>
  </g>
  <defs>
    <linearGradient gradientTransform="matrix(0.0, -0.0229, -0.0229, 0.0, 9.2, -5.6)" gradientUnits="userSpaceOnUse" id="gradient0" spreadMethod="pad" x1="-819.2" x2="819.2">
      <stop offset="0.16470588235294117" stop-color="#ffffff"/>
      <stop offset="1.0" stop-color="#f3562b"/>
    </linearGradient>
    <linearGradient gradientTransform="matrix(0.0, -0.0352, -0.0169, 0.0, -25.6, -9.5)" gradientUnits="userSpaceOnUse" id="gradient1" spreadMethod="pad" x1="-819.2" x2="819.2">
      <stop offset="0.16470588235294117" stop-color="#ffffff"/>
      <stop offset="1.0" stop-color="#f3562b"/>
    </linearGradient>
  </defs>
</svg>
