<?xml version="1.0" encoding="UTF-8" standalone="no"?>
<svg xmlns:ffdec="https://www.free-decompiler.com/flash" xmlns:xlink="http://www.w3.org/1999/xlink" ffdec:objectType="shape" height="37.6px" width="50.8px" xmlns="http://www.w3.org/2000/svg">
  <g transform="matrix(1.0, 0.0, 0.0, 1.0, 25.4, 18.8)">
    <path d="M-16.15 -4.8 L-24.15 -18.25 -17.0 -18.25 -12.4 -10.1 -7.25 -18.25 -2.0 -18.25 -9.85 -6.2 -0.55 9.45 -7.75 9.45 -13.6 -0.7 -20.0 9.45 -25.4 9.45 -16.15 -4.8 M10.5 -17.5 Q11.5 -18.15 12.7 -18.45 L15.35 -18.8 17.5 -18.55 19.4 -17.9 21.05 -16.8 22.45 -15.15 23.75 -12.9 24.65 -10.35 25.25 -7.6 25.4 -4.6 25.2 -1.4 24.6 1.55 23.55 4.25 22.15 6.6 20.75 8.1 19.1 9.15 17.15 9.8 14.95 10.0 12.5 9.7 Q11.4 9.45 10.45 8.9 9.5 8.35 8.7 7.55 L7.25 5.55 7.25 18.8 0.95 18.8 0.95 -18.25 6.95 -18.25 6.95 -13.45 8.55 -15.8 Q9.4 -16.85 10.5 -17.5 M13.25 -13.7 L11.95 -13.55 10.85 -13.1 Q10.3 -12.85 9.8 -12.4 L8.95 -11.5 8.25 -10.3 7.75 -8.95 7.35 -7.5 7.25 -5.85 7.25 -1.9 7.35 -0.45 7.75 0.85 8.3 2.05 9.0 3.1 9.85 3.95 10.9 4.55 12.0 4.9 13.3 5.1 14.5 4.9 15.6 4.45 16.55 3.7 17.3 2.6 17.95 1.3 18.45 -0.25 18.7 -2.1 18.8 -4.15 Q18.8 -6.45 18.45 -8.2 L17.95 -9.8 17.35 -11.25 16.55 -12.25 15.6 -13.05 14.5 -13.55 13.25 -13.7" fill="#f3562b" fill-rule="evenodd" stroke="none"/>
  </g>
</svg>
