<?xml version="1.0" encoding="UTF-8" standalone="no"?>
<svg xmlns:ffdec="https://www.free-decompiler.com/flash" xmlns:xlink="http://www.w3.org/1999/xlink" ffdec:objectType="shape" height="55.95px" width="86.1px" xmlns="http://www.w3.org/2000/svg">
  <g transform="matrix(1.0, 0.0, 0.0, 1.0, 52.1, 30.05)">
    <path d="M10.75 -21.65 L10.15 -23.9 8.75 -26.95 9.75 -28.05 14.9 -28.3 15.4 -27.8 10.3 -27.55 10.25 -27.5 10.1 -27.7 10.2 -27.45 9.7 -26.85 10.95 -24.35 11.65 -21.75 10.75 -21.65" fill="url(#gradient0)" fill-rule="evenodd" stroke="none"/>
    <path d="M15.4 -27.8 L14.9 -28.3 9.75 -28.05 8.75 -26.95 10.15 -23.9 10.75 -21.65 5.15 -21.2 Q4.25 -21.1 4.3 -20.7 L4.65 -20.05 4.2 -20.05 Q0.35 -20.0 -0.95 -21.35 -2.25 -22.7 -0.25 -24.7 1.7 -26.65 5.85 -28.1 9.95 -29.55 13.8 -29.6 17.65 -29.65 19.0 -28.25 20.25 -26.9 18.3 -24.9 L18.1 -24.75 15.6 -27.6 15.4 -27.8 M10.2 -27.45 L10.1 -27.7 10.25 -27.5 10.2 -27.45" fill="url(#gradient1)" fill-rule="evenodd" stroke="none"/>
    <path d="M10.25 -27.5 L10.3 -27.55 15.4 -27.8 15.6 -27.6 18.1 -24.75 18.4 -24.4 19.85 -22.35 11.75 -21.75 13.0 -22.75 Q11.95 -25.4 10.3 -27.5 L10.25 -27.5" fill="url(#gradient2)" fill-rule="evenodd" stroke="none"/>
    <path d="M11.65 -21.75 L10.95 -24.35 9.7 -26.85 10.2 -27.45 10.25 -27.5 10.3 -27.5 Q11.95 -25.4 13.0 -22.75 L11.75 -21.75 11.65 -21.7 11.65 -21.75" fill="url(#gradient3)" fill-rule="evenodd" stroke="none"/>
    <path d="M18.1 -24.75 L18.3 -24.9 Q20.25 -26.9 19.0 -28.25 17.65 -29.65 13.8 -29.6 9.95 -29.55 5.85 -28.1 1.7 -26.65 -0.25 -24.7 -2.25 -22.7 -0.95 -21.35 0.35 -20.0 4.2 -20.05 L4.65 -20.05 4.8 -19.75 3.9 -19.7 Q-0.3 -19.7 -1.7 -21.15 -3.15 -22.65 -1.0 -24.8 1.15 -26.95 5.6 -28.45 10.05 -30.0 14.2 -30.05 18.35 -30.1 19.75 -28.6 21.2 -27.15 19.05 -25.0 L18.4 -24.4 18.1 -24.75" fill="url(#gradient4)" fill-rule="evenodd" stroke="none"/>
    <path d="M10.75 -21.65 L11.65 -21.75 11.65 -21.7 11.75 -21.75 19.85 -22.35 25.2 -22.75 Q26.05 -22.85 26.5 -22.25 L33.85 -12.05 Q34.35 -11.25 33.25 -11.05 L15.35 -7.1 15.05 -7.5 32.45 -11.25 Q33.4 -11.45 32.45 -11.75 L14.75 -7.9 14.35 -8.45 Q13.9 -9.1 12.9 -9.0 L12.15 -8.95 5.35 -20.65 4.9 -20.9 4.7 -20.7 11.25 -8.9 10.55 -8.85 4.8 -19.75 4.65 -20.05 4.3 -20.7 Q4.25 -21.1 5.15 -21.2 L10.75 -21.65 M25.35 -22.05 L25.75 -22.3 6.8 -20.6 Q6.3 -20.55 6.55 -20.3 L6.5 -20.3 13.4 -9.05 31.7 -12.75 25.35 -22.05" fill="url(#gradient5)" fill-rule="evenodd" stroke="none"/>
    <path d="M6.55 -20.3 Q6.3 -20.55 6.8 -20.6 L25.75 -22.3 25.35 -22.05 6.55 -20.3" fill="url(#gradient6)" fill-rule="evenodd" stroke="none"/>
    <path d="M27.85 -13.55 Q22.2 -15.6 17.85 -19.1 17.25 -16.15 15.0 -14.1 17.25 -16.15 17.85 -19.1 22.2 -15.6 27.85 -13.55 M25.35 -22.05 L31.7 -12.75 13.4 -9.05 6.5 -20.3 6.55 -20.3 25.35 -22.05" fill="url(#gradient7)" fill-rule="evenodd" stroke="none"/>
    <path d="M5.35 -10.8 L5.0 -11.2 5.2 -11.4 Q7.4 -13.6 6.0 -15.1 4.55 -16.65 0.25 -16.6 -4.0 -16.55 -8.6 -14.9 -13.2 -13.35 -15.4 -11.15 -17.6 -8.95 -16.15 -7.45 -14.7 -5.95 -10.4 -5.95 L-9.95 -6.0 -9.75 -5.65 -10.8 -5.6 Q-15.4 -5.6 -17.0 -7.25 -18.6 -8.9 -16.2 -11.25 -13.8 -13.65 -8.85 -15.35 -3.95 -17.05 0.7 -17.1 5.3 -17.15 6.9 -15.5 8.45 -13.9 6.1 -11.5 L5.35 -10.8" fill="url(#gradient8)" fill-rule="evenodd" stroke="none"/>
    <path d="M2.25 -14.35 L1.45 -15.15 -4.25 -14.9 -5.4 -13.65 -3.8 -10.25 Q-3.35 -9.1 -3.15 -7.75 L-9.35 -7.25 Q-10.35 -7.15 -10.35 -6.7 L-9.95 -6.0 -10.4 -5.95 Q-14.7 -5.95 -16.15 -7.45 -17.6 -8.95 -15.4 -11.15 -13.2 -13.35 -8.6 -14.9 -4.0 -16.55 0.25 -16.6 4.55 -16.65 6.0 -15.1 7.4 -13.6 5.2 -11.4 L5.0 -11.2 2.25 -14.35 M-3.8 -14.2 L-3.85 -14.45 -3.7 -14.25 -3.8 -14.2" fill="url(#gradient9)" fill-rule="evenodd" stroke="none"/>
    <path d="M2.25 -14.35 L2.05 -14.55 -3.6 -14.35 -3.65 -14.3 -3.7 -14.25 -3.85 -14.45 -3.8 -14.2 -4.3 -13.55 -2.95 -10.75 -2.15 -7.85 -3.15 -7.75 Q-3.35 -9.1 -3.8 -10.25 L-5.4 -13.65 -4.25 -14.9 1.45 -15.15 2.25 -14.35" fill="url(#gradient10)" fill-rule="evenodd" stroke="none"/>
    <path d="M-3.65 -14.3 L-3.6 -14.35 2.05 -14.55 2.25 -14.35 5.0 -11.2 5.35 -10.8 6.95 -8.55 -2.05 -7.85 -0.65 -9.0 Q-1.8 -11.9 -3.65 -14.3" fill="url(#gradient11)" fill-rule="evenodd" stroke="none"/>
    <path d="M10.55 -8.85 L11.25 -8.9 12.15 -8.95 12.9 -9.0 Q13.9 -9.1 14.35 -8.45 L14.75 -7.9 15.05 -7.5 15.35 -7.1 22.5 2.9 Q23.1 3.8 21.85 4.0 L-0.2 8.9 Q-2.2 9.3 -2.55 8.25 -2.7 7.65 -9.75 -5.65 L-9.95 -6.0 -10.35 -6.7 Q-10.35 -7.15 -9.35 -7.25 L-3.15 -7.75 -2.15 -7.85 -2.1 -7.8 -2.05 -7.85 6.95 -8.55 10.55 -8.85 M13.05 -8.2 L13.1 -8.2 13.5 -8.45 -7.55 -6.6 Q-8.1 -6.55 -7.8 -6.3 L-7.85 -6.3 -0.2 6.2 20.1 2.1 13.05 -8.2 M21.0 3.25 L0.05 7.8 -0.95 7.5 -9.15 -6.65 Q-9.3 -7.0 -9.65 -6.9 L-9.85 -6.7 -1.7 7.95 Q-1.15 8.5 -0.35 8.4 L20.95 3.8 Q22.0 3.55 21.0 3.25" fill="url(#gradient12)" fill-rule="evenodd" stroke="none"/>
    <path d="M-7.8 -6.3 Q-8.1 -6.55 -7.55 -6.6 L13.5 -8.45 13.1 -8.2 13.05 -8.2 -7.8 -6.3" fill="url(#gradient13)" fill-rule="evenodd" stroke="none"/>
    <path d="M-2.15 -7.85 L-2.95 -10.75 -4.3 -13.55 -3.8 -14.2 -3.7 -14.25 -3.65 -14.3 Q-1.8 -11.9 -0.65 -9.0 L-2.05 -7.85 -2.1 -7.8 -2.15 -7.85" fill="url(#gradient14)" fill-rule="evenodd" stroke="none"/>
    <path d="M16.45 1.9 Q8.8 -1.1 4.05 -5.8 2.15 -1.95 0.2 -0.35 2.15 -1.95 4.05 -5.8 8.8 -1.1 16.45 1.9 M13.05 -8.2 L20.1 2.1 -0.2 6.2 -7.85 -6.3 -7.8 -6.3 13.05 -8.2" fill="url(#gradient15)" fill-rule="evenodd" stroke="none"/>
    <path d="M-32.1 2.65 L-40.7 3.35 Q-42.05 3.5 -42.0 4.1 L-41.45 5.15 -42.15 5.15 Q-48.1 5.2 -50.1 3.15 -52.1 1.05 -49.0 -2.0 -46.0 -5.05 -39.6 -7.25 -33.25 -9.45 -27.35 -9.55 -21.4 -9.6 -19.4 -7.5 -17.4 -5.45 -20.45 -2.35 L-20.75 -2.1 -24.6 -6.45 -25.65 -7.6 -33.55 -7.2 -35.15 -5.5 -33.0 -0.8 Q-32.35 0.85 -32.1 2.65 M-32.95 -6.25 L-33.05 -6.6 -32.85 -6.35 -32.95 -6.25" fill="url(#gradient16)" fill-rule="evenodd" stroke="none"/>
    <path d="M-30.65 2.55 L-32.1 2.65 Q-32.35 0.85 -33.0 -0.8 L-35.15 -5.5 -33.55 -7.2 -25.65 -7.6 -24.6 -6.45 -24.9 -6.75 -32.7 -6.45 -32.8 -6.35 -32.85 -6.35 -33.05 -6.6 -32.95 -6.25 -33.7 -5.35 -31.75 -1.45 Q-31.2 -0.2 -30.65 2.55" fill="url(#gradient17)" fill-rule="evenodd" stroke="none"/>
    <path d="M-20.3 -1.55 L-18.05 1.55 -30.55 2.55 -28.6 0.95 Q-30.2 -3.1 -32.75 -6.35 L-32.8 -6.35 -32.7 -6.45 -24.9 -6.75 -24.6 -6.45 -20.75 -2.1 -20.3 -1.55" fill="url(#gradient18)" fill-rule="evenodd" stroke="none"/>
    <path d="M-30.55 2.55 L-30.65 2.6 -30.65 2.55 Q-31.2 -0.2 -31.75 -1.45 L-33.7 -5.35 -32.95 -6.25 -32.85 -6.35 -32.8 -6.35 -32.75 -6.35 Q-30.2 -3.1 -28.6 0.95 L-30.55 2.55" fill="url(#gradient19)" fill-rule="evenodd" stroke="none"/>
    <path d="M-41.2 5.6 L-42.65 5.65 Q-49.05 5.7 -51.25 3.4 -53.45 1.1 -50.1 -2.15 -46.85 -5.45 -40.0 -7.8 -33.15 -10.2 -26.75 -10.25 -20.35 -10.35 -18.15 -8.05 -16.0 -5.8 -19.25 -2.5 L-20.3 -1.55 -20.75 -2.1 -20.45 -2.35 Q-17.4 -5.45 -19.4 -7.5 -21.4 -9.6 -27.35 -9.55 -33.25 -9.45 -39.6 -7.25 -46.0 -5.05 -49.0 -2.0 -52.1 1.05 -50.1 3.15 -48.1 5.2 -42.15 5.15 L-41.45 5.15 -41.2 5.6" fill="url(#gradient20)" fill-rule="evenodd" stroke="none"/>
    <path d="M-18.05 1.55 L-9.8 0.95 Q-8.45 0.8 -7.8 1.75 L3.5 17.45 Q4.3 18.7 2.6 19.0 L-27.95 25.75 Q-30.7 26.3 -31.2 24.85 -31.45 24.0 -41.2 5.6 L-41.45 5.15 -42.0 4.1 Q-42.05 3.5 -40.7 3.35 L-32.1 2.65 -30.65 2.55 -30.65 2.6 -30.55 2.55 -18.05 1.55 M1.35 18.65 Q2.8 18.35 1.4 17.95 L-27.65 24.25 -29.0 23.85 -40.35 4.2 Q-40.55 3.7 -41.05 3.85 -41.55 3.9 -41.35 4.15 L-30.05 24.45 Q-29.3 25.2 -28.2 25.05 L1.35 18.65 M-9.6 2.05 L-9.55 2.05 -9.0 1.7 -38.15 4.25 Q-38.9 4.3 -38.55 4.7 L-38.6 4.7 -28.0 22.05 0.2 16.35 -9.6 2.05" fill="url(#gradient21)" fill-rule="evenodd" stroke="none"/>
    <path d="M-38.55 4.7 Q-38.9 4.3 -38.15 4.25 L-9.0 1.7 -9.55 2.05 -9.6 2.05 -38.55 4.7" fill="url(#gradient22)" fill-rule="evenodd" stroke="none"/>
    <path d="M-9.6 2.05 L0.2 16.35 -28.0 22.05 -38.6 4.7 -38.55 4.7 -9.6 2.05 M-6.8 16.1 Q-14.25 14.25 -27.85 5.95 -26.7 10.5 -26.7 17.3 -26.7 10.5 -27.85 5.95 -14.25 14.25 -6.8 16.1" fill="url(#gradient23)" fill-rule="evenodd" stroke="none"/>
    <path d="M15.0 -14.1 Q17.25 -16.15 17.85 -19.1 22.2 -15.6 27.85 -13.55" fill="none" stroke="#ffcece" stroke-linecap="round" stroke-linejoin="round" stroke-width="1.5"/>
    <path d="M0.2 -0.35 Q2.15 -1.95 4.05 -5.8 8.8 -1.1 16.45 1.9" fill="none" stroke="#cca5a5" stroke-linecap="round" stroke-linejoin="round" stroke-width="1.75"/>
    <path d="M-26.7 17.3 Q-26.7 10.5 -27.85 5.95 -14.25 14.25 -6.8 16.1" fill="none" stroke="#ff9999" stroke-linecap="round" stroke-linejoin="round" stroke-width="2.15"/>
  </g>
  <defs>
    <linearGradient gradientTransform="matrix(-0.0016, 0.0035, -0.007, -0.0011, 13.15, -25.15)" gradientUnits="userSpaceOnUse" id="gradient0" spreadMethod="pad" x1="-819.2" x2="819.2">
      <stop offset="0.0" stop-color="#666699"/>
      <stop offset="1.0" stop-color="#9999cc"/>
    </linearGradient>
    <radialGradient cx="0" cy="0" gradientTransform="matrix(0.0199, -0.0069, -0.0115, -0.012, 4.1, -21.95)" gradientUnits="userSpaceOnUse" id="gradient1" r="819.2" spreadMethod="pad">
      <stop offset="0.0" stop-color="#ffffff"/>
      <stop offset="0.2823529411764706" stop-color="#dddddd"/>
      <stop offset="1.0" stop-color="#9999cc"/>
    </radialGradient>
    <linearGradient gradientTransform="matrix(-0.0055, -0.0035, 0.0045, -0.0025, 13.45, -24.25)" gradientUnits="userSpaceOnUse" id="gradient2" spreadMethod="pad" x1="-819.2" x2="819.2">
      <stop offset="0.0" stop-color="#333399"/>
      <stop offset="0.27450980392156865" stop-color="#6666cc"/>
      <stop offset="1.0" stop-color="#999999"/>
    </linearGradient>
    <linearGradient gradientTransform="matrix(-0.0034, -0.0018, 0.0026, -0.0017, 11.0, -24.6)" gradientUnits="userSpaceOnUse" id="gradient3" spreadMethod="pad" x1="-819.2" x2="819.2">
      <stop offset="0.0" stop-color="#9999cc"/>
      <stop offset="1.0" stop-color="#eeeeee"/>
    </linearGradient>
    <linearGradient gradientTransform="matrix(-0.0042, -0.0044, 0.0131, -0.0045, 9.05, -24.9)" gradientUnits="userSpaceOnUse" id="gradient4" spreadMethod="pad" x1="-819.2" x2="819.2">
      <stop offset="0.00784313725490196" stop-color="#ffffff"/>
      <stop offset="0.4823529411764706" stop-color="#9999cc"/>
      <stop offset="1.0" stop-color="#666699"/>
    </linearGradient>
    <linearGradient gradientTransform="matrix(0.0, 0.0114, -0.0188, 0.005, 18.65, -16.35)" gradientUnits="userSpaceOnUse" id="gradient5" spreadMethod="pad" x1="-819.2" x2="819.2">
      <stop offset="0.0" stop-color="#6666cc"/>
      <stop offset="0.32941176470588235" stop-color="#999999"/>
      <stop offset="0.8549019607843137" stop-color="#ffffff"/>
    </linearGradient>
    <linearGradient gradientTransform="matrix(-0.0118, 2.0E-4, -1.0E-4, -0.001, 16.0, -21.4)" gradientUnits="userSpaceOnUse" id="gradient6" spreadMethod="pad" x1="-819.2" x2="819.2">
      <stop offset="0.0" stop-color="#6666cc"/>
      <stop offset="0.0784313725490196" stop-color="#9999cc"/>
      <stop offset="1.0" stop-color="#ffffff"/>
    </linearGradient>
    <linearGradient gradientTransform="matrix(-0.0029, -0.0108, 0.0077, -0.002, 19.1, -15.55)" gradientUnits="userSpaceOnUse" id="gradient7" spreadMethod="pad" x1="-819.2" x2="819.2">
      <stop offset="0.32941176470588235" stop-color="#ffffff"/>
      <stop offset="1.0" stop-color="#66ccff"/>
    </linearGradient>
    <linearGradient gradientTransform="matrix(-0.0047, -0.0049, 0.0146, -0.0051, -5.05, -11.4)" gradientUnits="userSpaceOnUse" id="gradient8" spreadMethod="pad" x1="-819.2" x2="819.2">
      <stop offset="0.00784313725490196" stop-color="#ffffff"/>
      <stop offset="0.4823529411764706" stop-color="#9999cc"/>
      <stop offset="1.0" stop-color="#666699"/>
    </linearGradient>
    <radialGradient cx="0" cy="0" gradientTransform="matrix(0.0222, -0.0077, -0.0128, -0.0133, -10.55, -8.05)" gradientUnits="userSpaceOnUse" id="gradient9" r="819.2" spreadMethod="pad">
      <stop offset="0.0" stop-color="#ffffff"/>
      <stop offset="0.2823529411764706" stop-color="#dddddd"/>
      <stop offset="1.0" stop-color="#9999cc"/>
    </radialGradient>
    <linearGradient gradientTransform="matrix(-0.0017, 0.0039, -0.0077, -0.0013, -0.45, -11.65)" gradientUnits="userSpaceOnUse" id="gradient10" spreadMethod="pad" x1="-819.2" x2="819.2">
      <stop offset="0.0" stop-color="#666699"/>
      <stop offset="1.0" stop-color="#9999cc"/>
    </linearGradient>
    <linearGradient gradientTransform="matrix(-0.0061, -0.0039, 0.005, -0.0028, -0.15, -10.65)" gradientUnits="userSpaceOnUse" id="gradient11" spreadMethod="pad" x1="-819.2" x2="819.2">
      <stop offset="0.0" stop-color="#333399"/>
      <stop offset="0.27450980392156865" stop-color="#6666cc"/>
      <stop offset="1.0" stop-color="#999999"/>
    </linearGradient>
    <linearGradient gradientTransform="matrix(0.0, 0.0127, -0.0209, 0.0056, 5.65, -1.9)" gradientUnits="userSpaceOnUse" id="gradient12" spreadMethod="pad" x1="-819.2" x2="819.2">
      <stop offset="0.0" stop-color="#6666cc"/>
      <stop offset="0.32941176470588235" stop-color="#999999"/>
      <stop offset="0.8549019607843137" stop-color="#ffffff"/>
    </linearGradient>
    <linearGradient gradientTransform="matrix(-0.0131, 3.0E-4, -1.0E-4, -0.0011, 2.7, -7.5)" gradientUnits="userSpaceOnUse" id="gradient13" spreadMethod="pad" x1="-819.2" x2="819.2">
      <stop offset="0.0" stop-color="#6666cc"/>
      <stop offset="0.0784313725490196" stop-color="#9999cc"/>
      <stop offset="1.0" stop-color="#ffffff"/>
    </linearGradient>
    <linearGradient gradientTransform="matrix(-0.0038, -0.002, 0.0029, -0.0019, -2.9, -11.05)" gradientUnits="userSpaceOnUse" id="gradient14" spreadMethod="pad" x1="-819.2" x2="819.2">
      <stop offset="0.0" stop-color="#9999cc"/>
      <stop offset="1.0" stop-color="#eeeeee"/>
    </linearGradient>
    <linearGradient gradientTransform="matrix(-0.0032, -0.012, 0.0085, -0.0023, 6.15, -1.0)" gradientUnits="userSpaceOnUse" id="gradient15" spreadMethod="pad" x1="-819.2" x2="819.2">
      <stop offset="0.32941176470588235" stop-color="#ffffff"/>
      <stop offset="1.0" stop-color="#66ccff"/>
    </linearGradient>
    <radialGradient cx="0" cy="0" gradientTransform="matrix(0.0307, -0.0107, -0.0177, -0.0185, -42.3, 2.25)" gradientUnits="userSpaceOnUse" id="gradient16" r="819.2" spreadMethod="pad">
      <stop offset="0.0" stop-color="#ffffff"/>
      <stop offset="0.2823529411764706" stop-color="#dddddd"/>
      <stop offset="1.0" stop-color="#9999cc"/>
    </radialGradient>
    <linearGradient gradientTransform="matrix(-0.0024, 0.0054, -0.0107, -0.0017, -28.35, -2.7)" gradientUnits="userSpaceOnUse" id="gradient17" spreadMethod="pad" x1="-819.2" x2="819.2">
      <stop offset="0.0" stop-color="#666699"/>
      <stop offset="1.0" stop-color="#9999cc"/>
    </linearGradient>
    <linearGradient gradientTransform="matrix(-0.0085, -0.0054, 0.0069, -0.0038, -27.9, -1.3)" gradientUnits="userSpaceOnUse" id="gradient18" spreadMethod="pad" x1="-819.2" x2="819.2">
      <stop offset="0.0" stop-color="#333399"/>
      <stop offset="0.27450980392156865" stop-color="#6666cc"/>
      <stop offset="1.0" stop-color="#999999"/>
    </linearGradient>
    <linearGradient gradientTransform="matrix(-0.0052, -0.0028, 0.004, -0.0026, -31.7, -1.9)" gradientUnits="userSpaceOnUse" id="gradient19" spreadMethod="pad" x1="-819.2" x2="819.2">
      <stop offset="0.0" stop-color="#9999cc"/>
      <stop offset="1.0" stop-color="#eeeeee"/>
    </linearGradient>
    <linearGradient gradientTransform="matrix(-0.0065, -0.0067, 0.0202, -0.007, -34.7, -2.35)" gradientUnits="userSpaceOnUse" id="gradient20" spreadMethod="pad" x1="-819.2" x2="819.2">
      <stop offset="0.00784313725490196" stop-color="#ffffff"/>
      <stop offset="0.4823529411764706" stop-color="#9999cc"/>
      <stop offset="1.0" stop-color="#666699"/>
    </linearGradient>
    <linearGradient gradientTransform="matrix(0.0, 0.0176, -0.029, 0.0077, -19.85, 10.8)" gradientUnits="userSpaceOnUse" id="gradient21" spreadMethod="pad" x1="-819.2" x2="819.2">
      <stop offset="0.0" stop-color="#6666cc"/>
      <stop offset="0.32941176470588235" stop-color="#999999"/>
      <stop offset="0.8549019607843137" stop-color="#ffffff"/>
    </linearGradient>
    <linearGradient gradientTransform="matrix(-0.0182, 4.0E-4, -1.0E-4, -0.0015, -23.95, 3.05)" gradientUnits="userSpaceOnUse" id="gradient22" spreadMethod="pad" x1="-819.2" x2="819.2">
      <stop offset="0.0" stop-color="#6666cc"/>
      <stop offset="0.0784313725490196" stop-color="#9999cc"/>
      <stop offset="1.0" stop-color="#ffffff"/>
    </linearGradient>
    <linearGradient gradientTransform="matrix(-0.0045, -0.0167, 0.0118, -0.0032, -19.2, 12.05)" gradientUnits="userSpaceOnUse" id="gradient23" spreadMethod="pad" x1="-819.2" x2="819.2">
      <stop offset="0.32941176470588235" stop-color="#ffffff"/>
      <stop offset="1.0" stop-color="#66ccff"/>
    </linearGradient>
  </defs>
</svg>
