<?xml version="1.0" encoding="UTF-8" standalone="no"?>
<svg xmlns:ffdec="https://www.free-decompiler.com/flash" xmlns:xlink="http://www.w3.org/1999/xlink" ffdec:objectType="shape" height="62.15px" width="74.95px" xmlns="http://www.w3.org/2000/svg">
  <g transform="matrix(1.0, 0.0, 0.0, 1.0, 39.55, 42.4)">
    <path d="M30.15 -13.15 L30.25 -13.15 30.25 -13.25 30.35 -13.25 30.35 -13.35 30.45 -13.35 30.45 -13.45 30.5 -13.5 30.55 -13.5 30.55 -13.6 30.65 -13.6 30.65 -13.7 30.7 -13.8 30.75 -13.8 30.75 -13.85 30.8 -13.9 30.85 -13.9 30.85 -13.95 30.9 -14.0 30.95 -14.0 30.95 -14.1 31.1 -14.1 31.1 -14.3 31.2 -14.3 31.2 -14.4 31.3 -14.4 31.3 -14.55 31.35 -14.6 31.4 -14.6 31.4 -14.7 31.5 -14.7 31.5 -14.8 31.6 -14.8 31.6 -14.95 31.65 -15.05 31.7 -15.05 31.7 -15.1 31.75 -15.15 31.8 -15.15 31.8 -15.25 31.85 -15.35 31.9 -15.35 31.9 -15.4 31.95 -15.45 32.0 -15.45 32.0 -15.55 32.05 -15.65 32.1 -15.65 32.1 -15.7 32.2 -15.85 32.2 -15.9 32.25 -15.95 32.3 -15.95 32.3 -16.05 32.35 -16.15 32.4 -16.15 32.4 -16.2 32.5 -16.4 32.55 -16.4 32.55 -16.5 32.6 -16.6 32.65 -16.6 32.65 -16.7 32.7 -16.8 32.75 -16.8 32.75 -16.9 32.8 -17.0 32.85 -17.0 32.85 -17.1 32.9 -17.2 32.95 -17.2 32.95 -17.3 33.0 -17.4 33.05 -17.4 33.05 -17.55 33.1 -17.6 33.15 -17.6 33.15 -17.75 33.25 -17.95 33.25 -18.0 33.3 -18.15 33.35 -18.15 33.35 -18.25 33.45 -18.45 33.45 -18.5 33.5 -18.65 33.55 -18.65 33.55 -18.8 33.6 -18.95 33.65 -18.95 33.65 -19.1 33.7 -19.3 33.75 -19.3 33.75 -19.45 33.8 -19.6 33.9 -19.6 33.9 -20.0 34.0 -20.0 34.0 -20.4 34.1 -20.4 34.1 -20.85 34.2 -20.85 34.2 -21.35 34.3 -21.35 34.3 -21.85 34.4 -21.85 34.4 -23.05 34.45 -24.45 34.4 -25.85 34.4 -27.05 34.3 -27.05 34.25 -27.15 34.3 -27.15 34.3 -27.65 34.2 -27.65 34.2 -28.2 34.1 -28.2 34.1 -28.6 34.0 -28.6 34.0 -29.0 33.9 -29.0 33.9 -29.45 33.75 -29.45 33.75 -29.65 33.7 -29.65 33.55 -30.15 33.55 -30.35 33.45 -30.35 33.45 -30.6 33.4 -30.6 33.35 -30.65 33.35 -30.9 33.25 -30.9 33.25 -31.1 33.2 -31.1 33.15 -31.15 33.15 -31.4 33.05 -31.4 33.05 -31.6 32.95 -31.6 32.95 -31.8 32.85 -31.8 32.85 -32.05 32.75 -32.05 32.75 -32.25 32.65 -32.25 32.65 -32.45 32.55 -32.45 32.55 -32.65 32.45 -32.65 32.4 -32.65 32.4 -32.85 32.3 -32.85 32.3 -33.05 32.2 -33.05 32.2 -33.15 32.15 -33.15 32.1 -33.2 32.1 -33.35 32.0 -33.35 32.0 -33.6 31.9 -33.6 31.9 -33.7 31.8 -33.7 31.8 -33.9 31.7 -33.9 31.7 -34.0 31.6 -34.0 31.6 -34.2 31.5 -34.2 31.5 -34.3 31.4 -34.3 31.4 -34.4 31.3 -34.4 31.3 -34.6 31.2 -34.6 31.2 -34.7 31.1 -34.7 31.1 -34.95 30.85 -34.95 29.5 -36.45 Q24.5 -41.45 17.45 -41.45 10.45 -41.45 5.45 -36.45 0.5 -31.5 0.5 -24.45 0.5 -19.75 2.75 -15.95 L1.5 -16.25 Q-0.45 -19.95 -0.45 -24.45 -0.45 -31.9 4.8 -37.15 10.05 -42.4 17.45 -42.4 24.9 -42.4 30.15 -37.15 35.4 -31.85 35.4 -24.45 35.4 -17.05 30.15 -11.8 27.8 -9.45 25.05 -8.15 L25.0 -9.15 Q27.4 -10.4 29.5 -12.45 L30.15 -13.15 M7.8 -9.35 L5.55 -11.05 6.3 -11.65 6.6 -11.4 7.75 -10.5 7.8 -9.35" fill="url(#gradient0)" fill-rule="evenodd" stroke="none"/>
    <path d="M30.85 -34.95 L30.45 -34.95 30.45 -35.05 29.95 -35.05 29.95 -34.95 29.75 -34.95 29.75 -34.4 29.65 -34.4 29.65 -34.2 29.5 -34.2 29.5 -34.1 29.4 -34.1 29.4 -34.0 29.3 -34.0 29.3 -33.6 29.2 -33.6 29.2 -33.35 29.1 -33.35 29.1 -33.05 29.0 -33.05 29.0 -32.75 28.9 -32.75 28.9 -32.45 28.8 -32.45 28.8 -32.25 28.7 -32.25 28.7 -32.05 28.6 -32.05 28.6 -31.7 28.7 -31.7 28.7 -31.3 28.9 -31.3 28.9 -31.1 28.8 -31.1 28.8 -31.0 28.9 -31.0 28.9 -30.9 29.0 -30.9 29.0 -30.6 28.9 -30.6 28.9 -30.35 28.8 -30.35 28.8 -30.25 28.7 -30.25 28.7 -29.85 28.6 -29.85 28.6 -29.75 28.5 -29.75 28.5 -29.45 28.3 -29.45 28.3 -29.35 28.2 -29.35 28.2 -28.9 28.3 -28.9 28.3 -28.7 28.4 -28.7 28.4 -28.4 28.3 -28.4 28.3 -28.3 27.65 -28.3 27.65 -28.2 27.45 -28.2 27.45 -28.1 26.95 -28.1 26.95 -28.2 26.5 -28.2 26.5 -28.3 26.4 -28.3 26.4 -28.2 25.7 -28.2 25.7 -28.3 25.05 -28.3 25.05 -28.2 24.95 -28.2 24.95 -28.1 24.85 -28.1 24.85 -28.0 24.75 -28.0 24.75 -27.9 24.55 -27.9 24.55 -27.65 24.45 -27.65 24.45 -27.45 24.35 -27.45 24.35 -27.35 24.25 -27.35 24.25 -27.25 24.05 -27.25 24.05 -27.15 23.95 -27.15 23.95 -27.05 23.8 -27.05 23.8 -26.95 23.7 -26.95 23.7 -26.85 23.6 -26.85 23.6 -26.2 23.7 -26.2 23.7 -26.1 23.8 -26.1 23.8 -25.9 23.7 -25.9 23.7 -25.5 23.6 -25.5 23.6 -25.4 23.7 -25.4 23.7 -25.2 23.8 -25.2 23.8 -25.1 24.05 -25.1 24.05 -24.55 24.35 -24.55 24.35 -24.35 24.45 -24.35 24.45 -24.25 24.55 -24.25 24.55 -24.15 24.75 -24.15 24.75 -24.05 24.85 -24.05 24.85 -23.95 24.95 -23.95 24.95 -23.85 25.05 -23.85 25.05 -23.65 25.15 -23.65 25.15 -23.4 25.25 -23.4 25.25 -23.3 25.4 -23.3 25.4 -23.2 25.5 -23.2 25.5 -22.9 25.6 -22.9 25.6 -22.8 25.5 -22.8 25.5 -22.6 25.25 -22.6 25.25 -21.15 25.5 -21.15 25.5 -21.05 25.7 -21.05 25.7 -21.15 26.6 -21.15 26.6 -20.5 26.5 -20.5 26.5 -20.4 26.4 -20.4 26.4 -20.3 26.3 -20.3 26.3 -20.2 26.1 -20.2 26.1 -19.9 26.3 -19.9 26.3 -19.8 26.6 -19.8 26.6 -19.7 26.2 -19.7 26.2 -19.8 25.8 -19.8 25.8 -19.6 25.9 -19.6 25.9 -19.5 26.0 -19.5 26.0 -19.4 26.2 -19.4 26.2 -19.3 26.0 -19.3 26.0 -19.2 25.9 -19.2 25.9 -19.3 25.6 -19.3 25.6 -19.4 25.15 -19.4 25.15 -18.75 24.95 -18.75 24.95 -18.55 25.05 -18.55 25.05 -18.45 25.25 -18.45 25.25 -18.55 25.4 -18.55 25.4 -18.25 26.0 -18.25 26.0 -18.05 25.9 -18.05 25.9 -17.6 26.0 -17.6 26.0 -17.3 26.1 -17.3 26.1 -17.2 26.5 -17.2 26.5 -17.4 26.4 -17.4 26.4 -17.5 26.5 -17.5 26.5 -17.6 26.85 -17.6 26.85 -18.45 26.95 -18.45 26.95 -18.55 27.05 -18.55 27.05 -18.75 27.15 -18.75 27.15 -18.85 27.25 -18.85 27.25 -18.95 27.35 -18.95 27.35 -19.4 27.45 -19.4 27.45 -19.3 27.55 -19.3 27.55 -19.2 27.65 -19.2 27.65 -18.95 27.75 -18.95 27.75 -18.75 28.2 -18.75 28.2 -18.65 28.4 -18.65 28.4 -18.25 28.3 -18.25 28.3 -17.85 28.4 -17.85 28.4 -17.7 28.5 -17.7 28.5 -17.6 28.7 -17.6 28.7 -17.5 28.8 -17.5 28.8 -17.85 28.9 -17.85 28.9 -18.05 28.8 -18.05 28.8 -18.45 29.3 -18.45 29.3 -18.55 29.75 -18.55 29.75 -18.45 29.85 -18.45 29.85 -18.35 30.05 -18.35 30.05 -18.45 30.15 -18.45 30.15 -18.35 30.35 -18.35 30.35 -18.15 30.45 -18.15 30.45 -17.85 30.55 -17.85 30.55 -17.7 30.65 -17.7 30.65 -17.6 30.75 -17.6 30.75 -17.5 30.85 -17.5 30.85 -17.6 30.95 -17.6 30.95 -17.7 31.1 -17.7 31.1 -17.5 30.95 -17.5 30.95 -17.1 31.1 -17.1 31.1 -17.0 30.95 -17.0 30.95 -16.9 30.75 -16.9 30.75 -16.8 30.65 -16.8 30.65 -15.75 30.55 -15.75 30.55 -15.85 30.35 -15.85 30.35 -15.95 30.25 -15.95 30.25 -16.05 30.15 -16.05 30.15 -16.7 30.35 -16.7 30.35 -17.1 30.25 -17.1 30.25 -17.2 30.15 -17.2 30.15 -17.4 30.05 -17.4 30.05 -17.6 29.95 -17.6 29.95 -17.95 29.85 -17.95 29.85 -18.15 29.65 -18.15 29.65 -18.25 29.2 -18.25 29.2 -18.15 29.1 -18.15 29.1 -17.95 29.0 -17.95 29.0 -17.6 28.9 -17.6 28.9 -17.4 29.0 -17.4 29.0 -17.0 28.9 -17.0 28.9 -17.1 28.8 -17.1 28.8 -17.2 28.7 -17.2 28.7 -17.4 28.6 -17.4 28.6 -17.5 28.5 -17.5 28.5 -17.6 27.95 -17.6 27.95 -17.5 27.85 -17.5 27.85 -17.2 27.75 -17.2 27.75 -17.0 27.85 -17.0 27.85 -16.6 27.75 -16.6 27.75 -16.25 27.85 -16.25 27.85 -16.15 27.75 -16.15 27.75 -16.05 27.95 -16.05 27.95 -15.95 28.05 -15.95 28.05 -15.85 28.2 -15.85 28.2 -15.75 28.4 -15.75 28.4 -15.65 28.5 -15.65 28.5 -15.55 28.6 -15.55 28.6 -15.45 28.7 -15.45 28.7 -15.35 28.8 -15.35 28.8 -15.25 28.9 -15.25 28.9 -15.15 29.0 -15.15 29.0 -14.95 29.1 -14.95 29.1 -14.7 29.2 -14.7 29.2 -14.5 29.4 -14.5 29.4 -14.2 29.5 -14.2 29.5 -14.0 29.65 -14.0 29.65 -13.8 29.75 -13.8 29.75 -13.5 29.85 -13.5 29.85 -13.25 29.95 -13.25 29.95 -13.15 30.15 -13.15 29.5 -12.45 Q27.4 -10.4 25.0 -9.15 24.25 -18.75 23.9 -18.9 21.1 -20.35 19.0 -20.1 L15.65 -19.35 15.65 -19.7 15.55 -19.7 15.55 -20.0 15.65 -20.0 15.65 -20.1 15.85 -20.1 15.85 -20.2 15.95 -20.2 15.95 -20.3 16.05 -20.3 16.05 -20.5 15.85 -20.5 15.85 -20.65 15.65 -20.65 15.65 -20.75 15.2 -20.75 15.2 -20.65 15.0 -20.65 15.0 -20.75 14.9 -20.75 14.9 -20.85 14.8 -20.85 14.8 -20.95 14.9 -20.95 14.9 -21.05 15.0 -21.05 15.0 -21.15 14.9 -21.15 14.9 -21.25 14.2 -21.25 14.2 -21.85 14.0 -21.85 14.0 -22.1 13.75 -22.1 13.75 -22.2 13.85 -22.2 13.85 -22.4 13.75 -22.4 13.75 -22.5 13.65 -22.5 13.65 -22.6 13.45 -22.6 13.45 -22.8 13.35 -22.8 13.35 -22.9 13.25 -22.9 13.25 -23.0 13.05 -23.0 13.05 -23.2 12.95 -23.2 12.95 -23.65 13.05 -23.65 13.05 -23.85 13.15 -23.85 13.15 -24.05 13.25 -24.05 13.25 -24.35 13.15 -24.35 13.15 -24.45 12.85 -24.45 12.85 -24.35 12.75 -24.35 12.75 -24.25 12.65 -24.25 12.65 -24.15 12.55 -24.15 12.55 -23.95 12.4 -23.95 12.4 -23.65 12.3 -23.65 12.3 -23.55 11.4 -23.55 11.4 -23.65 10.45 -23.65 10.45 -23.75 10.25 -23.75 10.25 -23.85 10.15 -23.85 10.15 -23.95 10.05 -23.95 10.05 -24.35 10.15 -24.35 10.15 -24.65 10.25 -24.65 10.25 -24.9 10.35 -24.9 10.35 -25.2 10.45 -25.2 10.45 -25.3 10.75 -25.3 10.75 -25.4 11.1 -25.4 11.1 -25.3 11.3 -25.3 11.3 -25.2 11.4 -25.2 11.4 -25.0 11.7 -25.0 11.7 -24.9 12.2 -24.9 12.2 -25.2 12.1 -25.2 12.1 -25.8 12.75 -25.8 12.75 -26.55 12.65 -26.55 12.65 -26.65 12.75 -26.65 12.75 -26.85 12.85 -26.85 12.85 -26.95 13.05 -26.95 13.05 -27.05 13.25 -27.05 13.25 -26.95 13.65 -26.95 13.65 -27.05 13.75 -27.05 13.75 -26.95 13.85 -26.95 13.85 -26.75 14.0 -26.75 14.0 -26.65 14.3 -26.65 14.3 -26.55 14.5 -26.55 14.5 -26.45 15.0 -26.45 15.0 -26.65 15.2 -26.65 15.2 -26.75 15.3 -26.75 15.3 -26.85 15.45 -26.85 15.45 -26.75 16.05 -26.75 16.05 -26.85 16.25 -26.85 16.25 -26.95 16.35 -26.95 16.35 -27.05 16.45 -27.05 16.45 -27.15 16.55 -27.15 16.55 -27.25 16.65 -27.25 16.65 -27.35 16.8 -27.35 16.8 -27.45 17.0 -27.45 17.0 -27.55 17.4 -27.55 17.4 -27.65 17.5 -27.65 17.5 -27.8 17.7 -27.8 17.7 -27.9 17.8 -27.9 17.8 -28.0 17.9 -28.0 17.9 -28.1 18.0 -28.1 18.0 -28.6 18.95 -28.6 18.95 -28.9 19.25 -28.9 19.25 -29.0 19.7 -29.0 19.7 -29.1 20.0 -29.1 20.0 -29.25 20.1 -29.25 20.1 -29.35 20.3 -29.35 20.3 -29.45 20.5 -29.45 20.5 -30.25 20.4 -30.25 20.4 -30.35 20.3 -30.35 20.3 -30.6 20.2 -30.6 20.2 -30.7 20.1 -30.7 20.1 -30.9 20.0 -30.9 20.0 -31.1 19.9 -31.1 19.9 -31.5 19.8 -31.5 19.8 -32.05 19.7 -32.05 19.7 -32.25 19.55 -32.25 19.55 -32.35 19.45 -32.35 19.45 -32.45 19.35 -32.45 19.35 -32.55 19.25 -32.55 19.25 -32.65 19.05 -32.65 19.05 -32.75 18.65 -32.75 18.65 -32.95 18.45 -32.95 18.45 -33.05 18.35 -33.05 18.35 -33.15 18.25 -33.15 18.25 -33.5 18.1 -33.5 18.1 -33.7 18.0 -33.7 18.0 -33.9 17.9 -33.9 17.9 -34.0 17.8 -34.0 17.8 -34.3 17.7 -34.3 17.7 -34.5 17.6 -34.5 17.6 -34.7 17.5 -34.7 17.5 -34.95 17.4 -34.95 17.4 -35.05 16.8 -35.05 16.8 -35.15 16.9 -35.15 16.9 -35.75 16.8 -35.75 16.8 -35.85 16.55 -35.85 16.55 -35.95 16.35 -35.95 16.35 -35.85 16.05 -35.85 16.05 -36.15 15.95 -36.15 15.95 -36.4 15.65 -36.4 15.65 -36.5 15.75 -36.5 15.75 -36.8 15.65 -36.8 15.65 -37.0 15.55 -37.0 15.55 -37.3 15.45 -37.3 15.45 -37.4 15.2 -37.4 15.2 -37.75 15.45 -37.75 15.45 -38.25 15.3 -38.25 15.3 -38.35 15.2 -38.35 15.2 -38.45 15.1 -38.45 15.1 -38.65 15.0 -38.65 15.0 -38.75 14.9 -38.75 14.9 -38.95 15.0 -38.95 15.0 -39.4 15.1 -39.4 15.1 -39.5 15.2 -39.5 15.2 -39.6 15.55 -39.6 15.55 -39.7 15.65 -39.7 15.65 -39.8 15.75 -39.8 15.75 -40.1 15.65 -40.1 15.65 -40.3 15.45 -40.3 15.45 -40.2 15.2 -40.2 15.2 -40.3 15.0 -40.3 15.0 -40.2 14.6 -40.2 14.6 -40.0 14.4 -40.0 14.4 -39.7 14.6 -39.7 14.6 -39.5 14.5 -39.5 14.5 -39.4 14.3 -39.4 14.3 -39.5 14.1 -39.5 14.1 -39.4 14.0 -39.4 14.0 -39.3 13.85 -39.3 13.85 -39.2 13.75 -39.2 13.75 -37.95 13.85 -37.95 13.85 -37.5 14.0 -37.5 14.0 -37.4 14.1 -37.4 14.1 -36.6 14.0 -36.6 14.0 -36.4 14.1 -36.4 14.1 -36.15 14.2 -36.15 14.2 -36.05 14.1 -36.05 14.1 -35.35 14.2 -35.35 14.2 -35.05 14.3 -35.05 14.3 -34.5 14.4 -34.5 14.4 -33.8 14.5 -33.8 14.5 -33.5 14.6 -33.5 14.6 -31.8 14.5 -31.8 14.5 -31.7 14.4 -31.7 14.4 -31.6 14.3 -31.6 14.3 -31.5 14.1 -31.5 14.1 -31.4 13.85 -31.4 13.85 -31.3 13.75 -31.3 13.75 -31.2 13.65 -31.2 13.65 -31.1 13.55 -31.1 13.55 -31.0 13.45 -31.0 13.45 -30.45 13.35 -30.45 13.35 -30.25 13.25 -30.25 13.25 -30.05 13.15 -30.05 13.15 -29.95 13.05 -29.95 13.05 -29.85 12.95 -29.85 12.95 -29.55 12.85 -29.55 12.85 -29.35 12.95 -29.35 12.95 -28.9 13.05 -28.9 13.05 -28.8 13.25 -28.8 13.25 -28.6 13.35 -28.6 13.35 -28.3 13.45 -28.3 13.45 -28.1 13.55 -28.1 13.55 -27.9 13.65 -27.9 13.65 -27.45 13.55 -27.45 13.55 -27.35 13.15 -27.35 13.15 -27.25 12.4 -27.25 12.4 -27.15 12.2 -27.15 12.2 -26.85 12.1 -26.85 12.1 -26.65 12.0 -26.65 12.0 -26.55 11.8 -26.55 11.8 -26.45 11.5 -26.45 11.5 -26.35 11.4 -26.35 11.4 -26.2 11.3 -26.2 11.3 -26.1 11.2 -26.1 11.2 -26.0 10.05 -26.0 10.05 -25.8 9.5 -25.8 9.5 -25.7 9.3 -25.7 9.3 -25.6 8.9 -25.6 8.9 -25.5 8.7 -25.5 8.7 -25.2 8.6 -25.2 8.6 -24.75 8.5 -24.75 8.5 -24.65 8.4 -24.65 8.4 -24.55 8.15 -24.55 8.15 -24.35 7.95 -24.35 7.95 -24.25 7.85 -24.25 7.85 -24.05 7.65 -24.05 7.65 -24.25 7.75 -24.25 7.75 -24.35 7.85 -24.35 7.85 -24.55 7.95 -24.55 7.95 -24.65 8.05 -24.65 8.05 -24.9 7.75 -24.9 7.75 -24.75 7.55 -24.75 7.55 -24.55 7.45 -24.55 7.45 -24.45 7.35 -24.45 7.35 -24.25 7.25 -24.25 7.25 -24.15 7.15 -24.15 7.15 -24.05 6.95 -24.05 6.95 -23.85 6.85 -23.85 6.85 -23.65 6.7 -23.65 6.7 -23.55 6.6 -23.55 6.6 -23.3 6.5 -23.3 6.5 -23.2 6.4 -23.2 6.4 -22.9 6.3 -22.9 6.3 -22.8 6.0 -22.8 6.0 -22.7 5.9 -22.7 5.9 -22.6 5.8 -22.6 5.8 -22.4 5.6 -22.4 5.6 -22.2 5.5 -22.2 5.5 -22.1 5.4 -22.1 5.4 -21.85 5.25 -21.85 5.25 -21.65 5.15 -21.65 5.15 -20.65 5.25 -20.65 5.25 -20.1 5.4 -20.1 5.4 -19.4 5.25 -19.4 5.25 -19.3 5.15 -19.3 5.15 -19.2 4.95 -19.2 4.95 -19.05 4.85 -19.05 4.85 -18.95 4.65 -18.95 4.65 -18.85 4.55 -18.85 4.55 -18.65 4.45 -18.65 4.45 -18.55 4.35 -18.55 4.35 -18.45 4.25 -18.45 4.25 -18.15 4.15 -18.15 4.15 -17.85 4.25 -17.85 4.25 -17.7 4.05 -17.7 4.05 -17.6 3.9 -17.6 3.9 -17.3 3.7 -17.3 3.7 -17.1 3.6 -17.1 3.6 -17.0 3.5 -17.0 3.5 -16.9 3.2 -16.9 3.2 -16.8 2.8 -16.8 2.8 -16.7 2.7 -16.7 2.7 -16.6 2.6 -16.6 2.6 -16.4 2.7 -16.4 2.7 -16.15 2.8 -16.15 2.8 -15.95 2.75 -15.95 Q0.5 -19.75 0.5 -24.45 0.5 -31.5 5.45 -36.45 10.45 -41.45 17.45 -41.45 24.5 -41.45 29.5 -36.45 L30.85 -34.95 M30.45 -13.45 L30.45 -13.5 30.5 -13.5 30.45 -13.45 M30.65 -13.7 L30.65 -13.8 30.7 -13.8 30.65 -13.7 M30.75 -13.85 L30.75 -13.9 30.8 -13.9 30.75 -13.85 M30.85 -13.95 L30.85 -14.0 30.9 -14.0 30.85 -13.95 M31.3 -14.55 L31.3 -14.6 31.35 -14.6 31.3 -14.55 M31.6 -14.95 L31.6 -15.05 31.65 -15.05 31.6 -14.95 M31.7 -15.1 L31.7 -15.15 31.75 -15.15 31.7 -15.1 M31.8 -15.25 L31.8 -15.35 31.85 -15.35 31.8 -15.25 M31.9 -15.4 L31.9 -15.45 31.95 -15.45 31.9 -15.4 M32.0 -15.55 L32.0 -15.65 32.05 -15.65 32.0 -15.55 M32.1 -15.7 L32.1 -15.85 32.2 -15.85 32.1 -15.7 M32.2 -15.9 L32.2 -15.95 32.25 -15.95 32.2 -15.9 M32.3 -16.05 L32.3 -16.15 32.35 -16.15 32.3 -16.05 M32.4 -16.2 L32.4 -16.4 32.5 -16.4 32.4 -16.2 M32.55 -16.5 L32.55 -16.6 32.6 -16.6 32.55 -16.5 M32.65 -16.7 L32.65 -16.8 32.7 -16.8 32.65 -16.7 M32.75 -16.9 L32.75 -17.0 32.8 -17.0 32.75 -16.9 M32.85 -17.1 L32.85 -17.2 32.9 -17.2 32.85 -17.1 M32.95 -17.3 L32.95 -17.4 33.0 -17.4 32.95 -17.3 M33.05 -17.55 L33.05 -17.6 33.1 -17.6 33.05 -17.55 M33.15 -17.75 L33.15 -17.95 33.25 -17.95 33.15 -17.75 M33.25 -18.0 L33.25 -18.15 33.3 -18.15 33.25 -18.0 M33.35 -18.25 L33.35 -18.45 33.45 -18.45 33.35 -18.25 M33.45 -18.5 L33.45 -18.65 33.5 -18.65 33.45 -18.5 M33.55 -18.8 L33.55 -18.95 33.6 -18.95 33.55 -18.8 M33.65 -19.1 L33.65 -19.3 33.7 -19.3 33.65 -19.1 M33.75 -19.45 L33.75 -19.6 33.8 -19.6 33.75 -19.45 M34.4 -23.05 L34.4 -25.85 34.45 -24.45 34.4 -23.05 M34.3 -27.05 L34.2 -27.05 34.2 -27.15 34.25 -27.15 34.3 -27.05 M33.7 -29.65 L33.65 -29.65 33.65 -29.75 33.55 -29.75 33.55 -29.95 33.45 -29.95 33.45 -30.15 33.55 -30.15 33.7 -29.65 M33.4 -30.6 L33.35 -30.6 33.35 -30.65 33.4 -30.6 M33.2 -31.1 L33.15 -31.1 33.15 -31.15 33.2 -31.1 M32.45 -32.65 L32.4 -32.65 32.45 -32.65 M32.15 -33.15 L32.1 -33.15 32.1 -33.2 32.15 -33.15 M22.5 -25.7 L22.25 -25.7 22.25 -25.4 22.35 -25.4 22.35 -25.2 22.7 -25.2 22.7 -25.4 22.6 -25.4 22.6 -25.6 22.5 -25.6 22.5 -25.7 M34.2 -26.55 L34.1 -26.55 34.1 -26.2 34.0 -26.2 34.0 -26.1 33.9 -26.1 33.9 -25.8 33.75 -25.8 33.75 -25.7 33.65 -25.7 33.65 -25.6 33.55 -25.6 33.55 -25.4 33.45 -25.4 33.45 -25.2 33.35 -25.2 33.35 -25.0 33.25 -25.0 33.25 -24.9 33.15 -24.9 33.15 -24.65 33.05 -24.65 33.05 -24.55 32.95 -24.55 32.95 -24.45 32.75 -24.45 32.75 -24.55 32.85 -24.55 32.85 -24.75 32.95 -24.75 32.95 -25.0 33.05 -25.0 33.05 -25.2 33.15 -25.2 33.15 -25.4 33.25 -25.4 33.25 -25.6 33.35 -25.6 33.35 -25.8 33.45 -25.8 33.45 -26.2 33.65 -26.2 33.65 -26.45 33.75 -26.45 33.75 -26.55 33.9 -26.55 33.9 -26.65 34.1 -26.65 34.1 -26.75 34.2 -26.75 34.2 -26.55 M12.75 -25.0 L12.4 -25.0 12.4 -24.65 12.65 -24.65 12.65 -24.55 13.05 -24.55 13.05 -24.65 13.35 -24.65 13.35 -24.75 13.65 -24.75 13.65 -24.9 13.85 -24.9 13.85 -25.0 14.1 -25.0 14.1 -25.1 14.3 -25.1 14.3 -25.0 14.7 -25.0 14.7 -25.2 14.9 -25.2 14.9 -25.3 15.1 -25.3 15.1 -25.6 14.8 -25.6 14.8 -25.7 14.4 -25.7 14.4 -25.6 14.1 -25.6 14.1 -25.4 13.85 -25.4 13.85 -25.5 14.0 -25.5 14.0 -25.7 13.75 -25.7 13.75 -25.3 13.45 -25.3 13.45 -25.2 13.25 -25.2 13.25 -25.1 13.15 -25.1 13.15 -25.0 12.85 -25.0 12.85 -24.9 12.75 -24.9 12.75 -25.0 M13.85 -24.9 L13.85 -24.65 13.75 -24.65 13.75 -24.45 14.1 -24.45 14.1 -24.9 13.85 -24.9 M17.8 -28.7 L17.7 -28.7 17.7 -28.8 17.8 -28.8 17.8 -28.7 M16.25 -26.35 L16.15 -26.35 16.15 -25.8 16.25 -25.8 16.25 -25.7 16.45 -25.7 16.45 -26.45 16.25 -26.45 16.25 -26.35 M16.25 -25.6 L16.25 -25.5 16.35 -25.5 16.35 -25.6 16.25 -25.6 M16.05 -25.6 L16.05 -25.5 16.15 -25.5 16.15 -25.6 16.05 -25.6 M15.2 -25.7 L15.2 -25.4 15.95 -25.4 15.95 -25.6 15.65 -25.6 15.65 -25.7 15.2 -25.7 M15.3 -19.25 L15.3 -19.3 15.2 -19.3 15.2 -19.4 15.3 -19.4 15.3 -19.3 15.35 -19.3 15.3 -19.25 M13.05 -18.65 L12.75 -18.55 12.65 -18.5 12.65 -18.55 12.75 -18.55 12.75 -18.75 12.85 -18.75 12.85 -18.85 12.95 -18.85 12.95 -18.75 13.05 -18.75 13.05 -18.65 M7.75 -13.35 L7.75 -12.85 7.65 -12.85 7.65 -12.75 7.55 -12.75 7.55 -12.65 7.25 -12.65 7.25 -12.55 7.15 -12.55 7.15 -12.25 7.75 -12.25 7.75 -12.0 7.55 -12.0 7.55 -12.15 7.15 -12.15 7.15 -12.0 6.95 -12.0 6.95 -11.7 6.85 -11.7 6.85 -11.5 6.7 -11.5 6.7 -11.6 6.5 -11.6 6.5 -11.5 6.6 -11.5 6.6 -11.4 6.85 -11.4 6.85 -11.3 6.95 -11.3 6.95 -11.2 7.05 -11.2 7.05 -11.1 7.15 -11.1 7.15 -11.0 7.25 -11.0 7.25 -11.1 7.35 -11.1 7.35 -10.9 7.45 -10.9 7.45 -10.8 7.55 -10.8 7.55 -10.9 7.75 -10.9 7.75 -10.5 6.6 -11.4 6.3 -11.65 6.6 -12.1 6.75 -12.45 6.75 -12.4 6.75 -12.55 6.65 -12.85 6.6 -13.05 6.7 -13.05 6.7 -12.85 6.95 -12.85 6.95 -12.95 7.05 -12.95 7.05 -13.05 7.15 -13.05 7.15 -13.35 7.05 -13.35 7.05 -13.5 7.55 -13.5 7.55 -13.35 7.75 -13.35 M14.6 -24.65 L14.2 -24.65 14.2 -24.45 14.6 -24.45 14.6 -24.65 M14.1 -24.35 L14.0 -24.35 14.0 -23.95 14.2 -23.95 14.2 -24.25 14.1 -24.25 14.1 -24.35 M13.45 -24.05 L13.45 -23.95 13.85 -23.95 13.85 -24.05 13.45 -24.05 M11.9 -20.95 L11.9 -20.65 12.0 -20.65 12.0 -20.4 11.9 -20.4 11.9 -20.5 11.8 -20.5 11.8 -20.85 11.7 -20.85 11.7 -20.95 11.9 -20.95 M12.55 -20.2 L12.55 -20.5 12.65 -20.5 12.65 -20.2 12.75 -20.2 12.75 -20.1 12.3 -20.1 12.3 -20.2 12.55 -20.2 M11.2 -19.9 L11.6 -19.9 11.6 -19.8 11.7 -19.8 11.7 -19.9 12.0 -19.9 12.0 -19.8 11.8 -19.8 11.8 -19.7 11.7 -19.7 11.7 -19.6 11.4 -19.6 11.4 -19.7 11.3 -19.7 11.3 -19.8 11.2 -19.8 11.2 -19.9 M13.15 -20.95 L13.15 -20.85 13.25 -20.85 13.25 -20.75 13.35 -20.75 13.35 -20.5 13.45 -20.5 13.45 -20.4 13.25 -20.4 13.25 -20.75 12.85 -20.75 12.85 -20.85 12.75 -20.85 12.75 -20.95 13.15 -20.95 M12.95 -20.3 L13.05 -20.3 13.05 -20.2 12.95 -20.2 12.95 -20.3 M15.1 -19.5 L15.1 -19.4 15.0 -19.4 15.0 -19.5 15.1 -19.5 M2.9 -15.9 L2.8 -15.95 2.9 -15.95 2.9 -15.9 M32.95 -23.0 L32.95 -22.9 32.4 -22.9 32.4 -22.8 32.3 -22.8 32.3 -22.9 31.9 -22.9 31.9 -22.8 31.7 -22.8 31.7 -22.7 31.6 -22.7 31.6 -22.5 31.5 -22.5 31.5 -22.4 31.4 -22.4 31.4 -21.95 31.3 -21.95 31.3 -22.1 31.2 -22.1 31.2 -22.5 31.1 -22.5 31.1 -22.6 30.95 -22.6 30.95 -22.8 30.65 -22.8 30.65 -22.7 30.55 -22.7 30.55 -22.6 30.45 -22.6 30.45 -22.4 30.35 -22.4 30.35 -21.95 30.25 -21.95 30.25 -21.65 30.15 -21.65 30.15 -21.55 29.95 -21.55 29.95 -21.45 29.85 -21.45 29.85 -21.35 29.75 -21.35 29.75 -21.25 29.5 -21.25 29.5 -21.45 29.75 -21.45 29.75 -21.55 29.85 -21.55 29.85 -21.65 30.05 -21.65 30.05 -21.85 30.15 -21.85 30.15 -22.3 30.05 -22.3 30.05 -22.4 29.85 -22.4 29.85 -22.5 29.65 -22.5 29.65 -22.7 29.5 -22.7 29.5 -22.6 29.1 -22.6 29.1 -22.5 29.0 -22.5 29.0 -22.3 29.3 -22.3 29.3 -21.85 29.1 -21.85 29.1 -21.75 29.0 -21.75 29.0 -21.55 28.8 -21.55 28.8 -21.45 28.7 -21.45 28.7 -22.2 28.6 -22.2 28.6 -22.3 28.3 -22.3 28.3 -21.65 28.4 -21.65 28.4 -21.35 28.2 -21.35 28.2 -21.45 27.75 -21.45 27.75 -21.35 27.65 -21.35 27.65 -21.65 27.55 -21.65 27.55 -21.75 27.25 -21.75 27.25 -21.85 27.05 -21.85 27.05 -22.2 26.95 -22.2 26.95 -22.3 26.85 -22.3 26.85 -22.7 27.05 -22.7 27.05 -22.6 27.75 -22.6 27.75 -22.5 28.7 -22.5 28.7 -22.6 28.8 -22.6 28.8 -23.2 28.9 -23.2 28.9 -23.3 29.2 -23.3 29.2 -23.4 29.5 -23.4 29.5 -23.55 29.65 -23.55 29.65 -23.75 29.75 -23.75 29.75 -23.85 29.95 -23.85 29.95 -23.95 30.25 -23.95 30.25 -23.85 30.15 -23.85 30.15 -23.65 30.25 -23.65 30.25 -23.55 30.95 -23.55 30.95 -23.65 31.5 -23.65 31.5 -23.75 32.65 -23.75 32.65 -23.65 32.75 -23.65 32.75 -23.55 32.85 -23.55 32.85 -23.3 32.95 -23.3 32.95 -23.2 33.05 -23.2 33.05 -23.0 32.95 -23.0 M32.2 -24.55 L32.2 -24.35 32.1 -24.35 32.1 -24.25 32.0 -24.25 32.0 -24.15 31.9 -24.15 31.9 -24.05 31.8 -24.05 31.8 -24.45 32.0 -24.45 32.0 -24.55 32.2 -24.55 M31.3 -17.0 L31.7 -17.0 31.7 -16.9 31.8 -16.9 31.8 -16.8 31.6 -16.8 31.6 -16.9 31.3 -16.9 31.3 -17.0 M30.85 -15.65 L30.85 -15.55 30.95 -15.55 30.95 -15.45 31.1 -15.45 31.1 -15.35 31.2 -15.35 31.2 -15.25 31.3 -15.25 31.3 -15.05 30.95 -15.05 30.95 -15.15 30.85 -15.15 30.85 -15.25 30.75 -15.25 30.75 -15.65 30.85 -15.65 M29.5 -23.65 L29.4 -23.65 29.4 -23.75 29.5 -23.75 29.5 -23.65 M26.4 -22.8 L26.6 -22.8 26.6 -22.6 26.2 -22.6 26.2 -22.7 25.8 -22.7 25.8 -22.8 26.0 -22.8 26.0 -22.9 26.4 -22.9 26.4 -22.8 M27.55 -21.95 L27.55 -22.2 27.25 -22.2 27.25 -21.95 27.55 -21.95 M26.5 -20.3 L26.6 -20.3 26.6 -20.0 26.4 -20.0 26.4 -20.2 26.5 -20.2 26.5 -20.3 M26.0 -18.65 L26.0 -18.75 26.3 -18.75 26.3 -18.55 26.1 -18.55 26.1 -18.65 26.0 -18.65 M27.35 -19.7 L27.15 -19.7 27.15 -19.8 26.95 -19.8 26.95 -19.9 27.65 -19.9 27.65 -19.8 27.55 -19.8 27.55 -19.6 27.35 -19.6 27.35 -19.7" fill="url(#gradient1)" fill-rule="evenodd" stroke="none"/>
    <path d="M30.15 -13.15 L29.95 -13.15 29.95 -13.25 29.85 -13.25 29.85 -13.5 29.75 -13.5 29.75 -13.8 29.65 -13.8 29.65 -14.0 29.5 -14.0 29.5 -14.2 29.4 -14.2 29.4 -14.5 29.2 -14.5 29.2 -14.7 29.1 -14.7 29.1 -14.95 29.0 -14.95 29.0 -15.15 28.9 -15.15 28.9 -15.25 28.8 -15.25 28.8 -15.35 28.7 -15.35 28.7 -15.45 28.6 -15.45 28.6 -15.55 28.5 -15.55 28.5 -15.65 28.4 -15.65 28.4 -15.75 28.2 -15.75 28.2 -15.85 28.05 -15.85 28.05 -15.95 27.95 -15.95 27.95 -16.05 27.75 -16.05 27.75 -16.15 27.85 -16.15 27.85 -16.25 27.75 -16.25 27.75 -16.6 27.85 -16.6 27.85 -17.0 27.75 -17.0 27.75 -17.2 27.85 -17.2 27.85 -17.5 27.95 -17.5 27.95 -17.6 28.5 -17.6 28.5 -17.5 28.6 -17.5 28.6 -17.4 28.7 -17.4 28.7 -17.2 28.8 -17.2 28.8 -17.1 28.9 -17.1 28.9 -17.0 29.0 -17.0 29.0 -17.4 28.9 -17.4 28.9 -17.6 29.0 -17.6 29.0 -17.95 29.1 -17.95 29.1 -18.15 29.2 -18.15 29.2 -18.25 29.65 -18.25 29.65 -18.15 29.85 -18.15 29.85 -17.95 29.95 -17.95 29.95 -17.6 30.05 -17.6 30.05 -17.4 30.15 -17.4 30.15 -17.2 30.25 -17.2 30.25 -17.1 30.35 -17.1 30.35 -16.7 30.15 -16.7 30.15 -16.05 30.25 -16.05 30.25 -15.95 30.35 -15.95 30.35 -15.85 30.55 -15.85 30.55 -15.75 30.65 -15.75 30.65 -16.8 30.75 -16.8 30.75 -16.9 30.95 -16.9 30.95 -17.0 31.1 -17.0 31.1 -17.1 30.95 -17.1 30.95 -17.5 31.1 -17.5 31.1 -17.7 30.95 -17.7 30.95 -17.6 30.85 -17.6 30.85 -17.5 30.75 -17.5 30.75 -17.6 30.65 -17.6 30.65 -17.7 30.55 -17.7 30.55 -17.85 30.45 -17.85 30.45 -18.15 30.35 -18.15 30.35 -18.35 30.15 -18.35 30.15 -18.45 30.05 -18.45 30.05 -18.35 29.85 -18.35 29.85 -18.45 29.75 -18.45 29.75 -18.55 29.3 -18.55 29.3 -18.45 28.8 -18.45 28.8 -18.05 28.9 -18.05 28.9 -17.85 28.8 -17.85 28.8 -17.5 28.7 -17.5 28.7 -17.6 28.5 -17.6 28.5 -17.7 28.4 -17.7 28.4 -17.85 28.3 -17.85 28.3 -18.25 28.4 -18.25 28.4 -18.65 28.2 -18.65 28.2 -18.75 27.75 -18.75 27.75 -18.95 27.65 -18.95 27.65 -19.2 27.55 -19.2 27.55 -19.3 27.45 -19.3 27.45 -19.4 27.35 -19.4 27.35 -18.95 27.25 -18.95 27.25 -18.85 27.15 -18.85 27.15 -18.75 27.05 -18.75 27.05 -18.55 26.95 -18.55 26.95 -18.45 26.85 -18.45 26.85 -17.6 26.5 -17.6 26.5 -17.5 26.4 -17.5 26.4 -17.4 26.5 -17.4 26.5 -17.2 26.1 -17.2 26.1 -17.3 26.0 -17.3 26.0 -17.6 25.9 -17.6 25.9 -18.05 26.0 -18.05 26.0 -18.25 25.4 -18.25 25.4 -18.55 25.25 -18.55 25.25 -18.45 25.05 -18.45 25.05 -18.55 24.95 -18.55 24.95 -18.75 25.15 -18.75 25.15 -19.4 25.6 -19.4 25.6 -19.3 25.9 -19.3 25.9 -19.2 26.0 -19.2 26.0 -19.3 26.2 -19.3 26.2 -19.4 26.0 -19.4 26.0 -19.5 25.9 -19.5 25.9 -19.6 25.8 -19.6 25.8 -19.8 26.2 -19.8 26.2 -19.7 26.6 -19.7 26.6 -19.8 26.3 -19.8 26.3 -19.9 26.1 -19.9 26.1 -20.2 26.3 -20.2 26.3 -20.3 26.4 -20.3 26.4 -20.4 26.5 -20.4 26.5 -20.5 26.6 -20.5 26.6 -21.15 25.7 -21.15 25.7 -21.05 25.5 -21.05 25.5 -21.15 25.25 -21.15 25.25 -22.6 25.5 -22.6 25.5 -22.8 25.6 -22.8 25.6 -22.9 25.5 -22.9 25.5 -23.2 25.4 -23.2 25.4 -23.3 25.25 -23.3 25.25 -23.4 25.15 -23.4 25.15 -23.65 25.05 -23.65 25.05 -23.85 24.95 -23.85 24.95 -23.95 24.85 -23.95 24.85 -24.05 24.75 -24.05 24.75 -24.15 24.55 -24.15 24.55 -24.25 24.45 -24.25 24.45 -24.35 24.35 -24.35 24.35 -24.55 24.05 -24.55 24.05 -25.1 23.8 -25.1 23.8 -25.2 23.7 -25.2 23.7 -25.4 23.6 -25.4 23.6 -25.5 23.7 -25.5 23.7 -25.9 23.8 -25.9 23.8 -26.1 23.7 -26.1 23.7 -26.2 23.6 -26.2 23.6 -26.85 23.7 -26.85 23.7 -26.95 23.8 -26.95 23.8 -27.05 23.95 -27.05 23.95 -27.15 24.05 -27.15 24.05 -27.25 24.25 -27.25 24.25 -27.35 24.35 -27.35 24.35 -27.45 24.45 -27.45 24.45 -27.65 24.55 -27.65 24.55 -27.9 24.75 -27.9 24.75 -28.0 24.85 -28.0 24.85 -28.1 24.95 -28.1 24.95 -28.2 25.05 -28.2 25.05 -28.3 25.7 -28.3 25.7 -28.2 26.4 -28.2 26.4 -28.3 26.5 -28.3 26.5 -28.2 26.95 -28.2 26.95 -28.1 27.45 -28.1 27.45 -28.2 27.65 -28.2 27.65 -28.3 28.3 -28.3 28.3 -28.4 28.4 -28.4 28.4 -28.7 28.3 -28.7 28.3 -28.9 28.2 -28.9 28.2 -29.35 28.3 -29.35 28.3 -29.45 28.5 -29.45 28.5 -29.75 28.6 -29.75 28.6 -29.85 28.7 -29.85 28.7 -30.25 28.8 -30.25 28.8 -30.35 28.9 -30.35 28.9 -30.6 29.0 -30.6 29.0 -30.9 28.9 -30.9 28.9 -31.0 28.8 -31.0 28.8 -31.1 28.9 -31.1 28.9 -31.3 28.7 -31.3 28.7 -31.7 28.6 -31.7 28.6 -32.05 28.7 -32.05 28.7 -32.25 28.8 -32.25 28.8 -32.45 28.9 -32.45 28.9 -32.75 29.0 -32.75 29.0 -33.05 29.1 -33.05 29.1 -33.35 29.2 -33.35 29.2 -33.6 29.3 -33.6 29.3 -34.0 29.4 -34.0 29.4 -34.1 29.5 -34.1 29.5 -34.2 29.65 -34.2 29.65 -34.4 29.75 -34.4 29.75 -34.95 29.95 -34.95 29.95 -35.05 30.45 -35.05 30.45 -34.95 30.85 -34.95 31.1 -34.95 31.1 -34.7 31.2 -34.7 31.2 -34.6 31.3 -34.6 31.3 -34.4 31.4 -34.4 31.4 -34.3 31.5 -34.3 31.5 -34.2 31.6 -34.2 31.6 -34.0 31.7 -34.0 31.7 -33.9 31.8 -33.9 31.8 -33.7 31.9 -33.7 31.9 -33.6 32.0 -33.6 32.0 -33.35 32.1 -33.35 32.1 -33.2 32.1 -33.15 32.15 -33.15 32.2 -33.15 32.2 -33.05 32.3 -33.05 32.3 -32.85 32.4 -32.85 32.4 -32.65 32.45 -32.65 32.55 -32.65 32.55 -32.45 32.65 -32.45 32.65 -32.25 32.75 -32.25 32.75 -32.05 32.85 -32.05 32.85 -31.8 32.95 -31.8 32.95 -31.6 33.05 -31.6 33.05 -31.4 33.15 -31.4 33.15 -31.15 33.15 -31.1 33.2 -31.1 33.25 -31.1 33.25 -30.9 33.35 -30.9 33.35 -30.65 33.35 -30.6 33.4 -30.6 33.45 -30.6 33.45 -30.35 33.55 -30.35 33.55 -30.15 33.45 -30.15 33.45 -29.95 33.55 -29.95 33.55 -29.75 33.65 -29.75 33.65 -29.65 33.7 -29.65 33.75 -29.65 33.75 -29.45 33.9 -29.45 33.9 -29.0 34.0 -29.0 34.0 -28.6 34.1 -28.6 34.1 -28.2 34.2 -28.2 34.2 -27.65 34.3 -27.65 34.3 -27.15 34.25 -27.15 34.2 -27.15 34.2 -27.05 34.3 -27.05 34.4 -27.05 34.4 -25.85 34.4 -23.05 34.4 -21.85 34.3 -21.85 34.3 -21.35 34.2 -21.35 34.2 -20.85 34.1 -20.85 34.1 -20.4 34.0 -20.4 34.0 -20.0 33.9 -20.0 33.9 -19.6 33.8 -19.6 33.75 -19.6 33.75 -19.45 33.75 -19.3 33.7 -19.3 33.65 -19.3 33.65 -19.1 33.65 -18.95 33.6 -18.95 33.55 -18.95 33.55 -18.8 33.55 -18.65 33.5 -18.65 33.45 -18.65 33.45 -18.5 33.45 -18.45 33.35 -18.45 33.35 -18.25 33.35 -18.15 33.3 -18.15 33.25 -18.15 33.25 -18.0 33.25 -17.95 33.15 -17.95 33.15 -17.75 33.15 -17.6 33.1 -17.6 33.05 -17.6 33.05 -17.55 33.05 -17.4 33.0 -17.4 32.95 -17.4 32.95 -17.3 32.95 -17.2 32.9 -17.2 32.85 -17.2 32.85 -17.1 32.85 -17.0 32.8 -17.0 32.75 -17.0 32.75 -16.9 32.75 -16.8 32.7 -16.8 32.65 -16.8 32.65 -16.7 32.65 -16.6 32.6 -16.6 32.55 -16.6 32.55 -16.5 32.55 -16.4 32.5 -16.4 32.4 -16.4 32.4 -16.2 32.4 -16.15 32.35 -16.15 32.3 -16.15 32.3 -16.05 32.3 -15.95 32.25 -15.95 32.2 -15.95 32.2 -15.9 32.2 -15.85 32.1 -15.85 32.1 -15.7 32.1 -15.65 32.05 -15.65 32.0 -15.65 32.0 -15.55 32.0 -15.45 31.95 -15.45 31.9 -15.45 31.9 -15.4 31.9 -15.35 31.85 -15.35 31.8 -15.35 31.8 -15.25 31.8 -15.15 31.75 -15.15 31.7 -15.15 31.7 -15.1 31.7 -15.05 31.65 -15.05 31.6 -15.05 31.6 -14.95 31.6 -14.8 31.5 -14.8 31.5 -14.7 31.4 -14.7 31.4 -14.6 31.35 -14.6 31.3 -14.6 31.3 -14.55 31.3 -14.4 31.2 -14.4 31.2 -14.3 31.1 -14.3 31.1 -14.1 30.95 -14.1 30.95 -14.0 30.9 -14.0 30.85 -14.0 30.85 -13.95 30.85 -13.9 30.8 -13.9 30.75 -13.9 30.75 -13.85 30.75 -13.8 30.7 -13.8 30.65 -13.8 30.65 -13.7 30.65 -13.6 30.55 -13.6 30.55 -13.5 30.5 -13.5 30.45 -13.5 30.45 -13.45 30.45 -13.35 30.35 -13.35 30.35 -13.25 30.25 -13.25 30.25 -13.15 30.15 -13.15 M34.2 -26.55 L34.2 -26.75 34.1 -26.75 34.1 -26.65 33.9 -26.65 33.9 -26.55 33.75 -26.55 33.75 -26.45 33.65 -26.45 33.65 -26.2 33.45 -26.2 33.45 -25.8 33.35 -25.8 33.35 -25.6 33.25 -25.6 33.25 -25.4 33.15 -25.4 33.15 -25.2 33.05 -25.2 33.05 -25.0 32.95 -25.0 32.95 -24.75 32.85 -24.75 32.85 -24.55 32.75 -24.55 32.75 -24.45 32.95 -24.45 32.95 -24.55 33.05 -24.55 33.05 -24.65 33.15 -24.65 33.15 -24.9 33.25 -24.9 33.25 -25.0 33.35 -25.0 33.35 -25.2 33.45 -25.2 33.45 -25.4 33.55 -25.4 33.55 -25.6 33.65 -25.6 33.65 -25.7 33.75 -25.7 33.75 -25.8 33.9 -25.8 33.9 -26.1 34.0 -26.1 34.0 -26.2 34.1 -26.2 34.1 -26.55 34.2 -26.55 M32.95 -23.0 L33.05 -23.0 33.05 -23.2 32.95 -23.2 32.95 -23.3 32.85 -23.3 32.85 -23.55 32.75 -23.55 32.75 -23.65 32.65 -23.65 32.65 -23.75 31.5 -23.75 31.5 -23.65 30.95 -23.65 30.95 -23.55 30.25 -23.55 30.25 -23.65 30.15 -23.65 30.15 -23.85 30.25 -23.85 30.25 -23.95 29.95 -23.95 29.95 -23.85 29.75 -23.85 29.75 -23.75 29.65 -23.75 29.65 -23.55 29.5 -23.55 29.5 -23.4 29.2 -23.4 29.2 -23.3 28.9 -23.3 28.9 -23.2 28.8 -23.2 28.8 -22.6 28.7 -22.6 28.7 -22.5 27.75 -22.5 27.75 -22.6 27.05 -22.6 27.05 -22.7 26.85 -22.7 26.85 -22.3 26.95 -22.3 26.95 -22.2 27.05 -22.2 27.05 -21.85 27.25 -21.85 27.25 -21.75 27.55 -21.75 27.55 -21.65 27.65 -21.65 27.65 -21.35 27.75 -21.35 27.75 -21.45 28.2 -21.45 28.2 -21.35 28.4 -21.35 28.4 -21.65 28.3 -21.65 28.3 -22.3 28.6 -22.3 28.6 -22.2 28.7 -22.2 28.7 -21.45 28.8 -21.45 28.8 -21.55 29.0 -21.55 29.0 -21.75 29.1 -21.75 29.1 -21.85 29.3 -21.85 29.3 -22.3 29.0 -22.3 29.0 -22.5 29.1 -22.5 29.1 -22.6 29.5 -22.6 29.5 -22.7 29.65 -22.7 29.65 -22.5 29.85 -22.5 29.85 -22.4 30.05 -22.4 30.05 -22.3 30.15 -22.3 30.15 -21.85 30.05 -21.85 30.05 -21.65 29.85 -21.65 29.85 -21.55 29.75 -21.55 29.75 -21.45 29.5 -21.45 29.5 -21.25 29.75 -21.25 29.75 -21.35 29.85 -21.35 29.85 -21.45 29.95 -21.45 29.95 -21.55 30.15 -21.55 30.15 -21.65 30.25 -21.65 30.25 -21.95 30.35 -21.95 30.35 -22.4 30.45 -22.4 30.45 -22.6 30.55 -22.6 30.55 -22.7 30.65 -22.7 30.65 -22.8 30.95 -22.8 30.95 -22.6 31.1 -22.6 31.1 -22.5 31.2 -22.5 31.2 -22.1 31.3 -22.1 31.3 -21.95 31.4 -21.95 31.4 -22.4 31.5 -22.4 31.5 -22.5 31.6 -22.5 31.6 -22.7 31.7 -22.7 31.7 -22.8 31.9 -22.8 31.9 -22.9 32.3 -22.9 32.3 -22.8 32.4 -22.8 32.4 -22.9 32.95 -22.9 32.95 -23.0 M32.2 -24.55 L32.0 -24.55 32.0 -24.45 31.8 -24.45 31.8 -24.05 31.9 -24.05 31.9 -24.15 32.0 -24.15 32.0 -24.25 32.1 -24.25 32.1 -24.35 32.2 -24.35 32.2 -24.55 M30.85 -15.65 L30.75 -15.65 30.75 -15.25 30.85 -15.25 30.85 -15.15 30.95 -15.15 30.95 -15.05 31.3 -15.05 31.3 -15.25 31.2 -15.25 31.2 -15.35 31.1 -15.35 31.1 -15.45 30.95 -15.45 30.95 -15.55 30.85 -15.55 30.85 -15.65 M31.3 -17.0 L31.3 -16.9 31.6 -16.9 31.6 -16.8 31.8 -16.8 31.8 -16.9 31.7 -16.9 31.7 -17.0 31.3 -17.0 M26.4 -22.8 L26.4 -22.9 26.0 -22.9 26.0 -22.8 25.8 -22.8 25.8 -22.7 26.2 -22.7 26.2 -22.6 26.6 -22.6 26.6 -22.8 26.4 -22.8 M29.5 -23.65 L29.5 -23.75 29.4 -23.75 29.4 -23.65 29.5 -23.65 M27.35 -19.7 L27.35 -19.6 27.55 -19.6 27.55 -19.8 27.65 -19.8 27.65 -19.9 26.95 -19.9 26.95 -19.8 27.15 -19.8 27.15 -19.7 27.35 -19.7 M26.0 -18.65 L26.1 -18.65 26.1 -18.55 26.3 -18.55 26.3 -18.75 26.0 -18.75 26.0 -18.65 M26.5 -20.3 L26.5 -20.2 26.4 -20.2 26.4 -20.0 26.6 -20.0 26.6 -20.3 26.5 -20.3" fill="url(#gradient2)" fill-rule="evenodd" stroke="none"/>
    <path d="M2.8 -15.95 L2.8 -16.15 2.7 -16.15 2.7 -16.4 2.6 -16.4 2.6 -16.6 2.7 -16.6 2.7 -16.7 2.8 -16.7 2.8 -16.8 3.2 -16.8 3.2 -16.9 3.5 -16.9 3.5 -17.0 3.6 -17.0 3.6 -17.1 3.7 -17.1 3.7 -17.3 3.9 -17.3 3.9 -17.6 4.05 -17.6 4.05 -17.7 4.25 -17.7 4.25 -17.85 4.15 -17.85 4.15 -18.15 4.25 -18.15 4.25 -18.45 4.35 -18.45 4.35 -18.55 4.45 -18.55 4.45 -18.65 4.55 -18.65 4.55 -18.85 4.65 -18.85 4.65 -18.95 4.85 -18.95 4.85 -19.05 4.95 -19.05 4.95 -19.2 5.15 -19.2 5.15 -19.3 5.25 -19.3 5.25 -19.4 5.4 -19.4 5.4 -20.1 5.25 -20.1 5.25 -20.65 5.15 -20.65 5.15 -21.65 5.25 -21.65 5.25 -21.85 5.4 -21.85 5.4 -22.1 5.5 -22.1 5.5 -22.2 5.6 -22.2 5.6 -22.4 5.8 -22.4 5.8 -22.6 5.9 -22.6 5.9 -22.7 6.0 -22.7 6.0 -22.8 6.3 -22.8 6.3 -22.9 6.4 -22.9 6.4 -23.2 6.5 -23.2 6.5 -23.3 6.6 -23.3 6.6 -23.55 6.7 -23.55 6.7 -23.65 6.85 -23.65 6.85 -23.85 6.95 -23.85 6.95 -24.05 7.15 -24.05 7.15 -24.15 7.25 -24.15 7.25 -24.25 7.35 -24.25 7.35 -24.45 7.45 -24.45 7.45 -24.55 7.55 -24.55 7.55 -24.75 7.75 -24.75 7.75 -24.9 8.05 -24.9 8.05 -24.65 7.95 -24.65 7.95 -24.55 7.85 -24.55 7.85 -24.35 7.75 -24.35 7.75 -24.25 7.65 -24.25 7.65 -24.05 7.85 -24.05 7.85 -24.25 7.95 -24.25 7.95 -24.35 8.15 -24.35 8.15 -24.55 8.4 -24.55 8.4 -24.65 8.5 -24.65 8.5 -24.75 8.6 -24.75 8.6 -25.2 8.7 -25.2 8.7 -25.5 8.9 -25.5 8.9 -25.6 9.3 -25.6 9.3 -25.7 9.5 -25.7 9.5 -25.8 10.05 -25.8 10.05 -26.0 11.2 -26.0 11.2 -26.1 11.3 -26.1 11.3 -26.2 11.4 -26.2 11.4 -26.35 11.5 -26.35 11.5 -26.45 11.8 -26.45 11.8 -26.55 12.0 -26.55 12.0 -26.65 12.1 -26.65 12.1 -26.85 12.2 -26.85 12.2 -27.15 12.4 -27.15 12.4 -27.25 13.15 -27.25 13.15 -27.35 13.55 -27.35 13.55 -27.45 13.65 -27.45 13.65 -27.9 13.55 -27.9 13.55 -28.1 13.45 -28.1 13.45 -28.3 13.35 -28.3 13.35 -28.6 13.25 -28.6 13.25 -28.8 13.05 -28.8 13.05 -28.9 12.95 -28.9 12.95 -29.35 12.85 -29.35 12.85 -29.55 12.95 -29.55 12.95 -29.85 13.05 -29.85 13.05 -29.95 13.15 -29.95 13.15 -30.05 13.25 -30.05 13.25 -30.25 13.35 -30.25 13.35 -30.45 13.45 -30.45 13.45 -31.0 13.55 -31.0 13.55 -31.1 13.65 -31.1 13.65 -31.2 13.75 -31.2 13.75 -31.3 13.85 -31.3 13.85 -31.4 14.1 -31.4 14.1 -31.5 14.3 -31.5 14.3 -31.6 14.4 -31.6 14.4 -31.7 14.5 -31.7 14.5 -31.8 14.6 -31.8 14.6 -33.5 14.5 -33.5 14.5 -33.8 14.4 -33.8 14.4 -34.5 14.3 -34.5 14.3 -35.05 14.2 -35.05 14.2 -35.35 14.1 -35.35 14.1 -36.05 14.2 -36.05 14.2 -36.15 14.1 -36.15 14.1 -36.4 14.0 -36.4 14.0 -36.6 14.1 -36.6 14.1 -37.4 14.0 -37.4 14.0 -37.5 13.85 -37.5 13.85 -37.95 13.75 -37.95 13.75 -39.2 13.85 -39.2 13.85 -39.3 14.0 -39.3 14.0 -39.4 14.1 -39.4 14.1 -39.5 14.3 -39.5 14.3 -39.4 14.5 -39.4 14.5 -39.5 14.6 -39.5 14.6 -39.7 14.4 -39.7 14.4 -40.0 14.6 -40.0 14.6 -40.2 15.0 -40.2 15.0 -40.3 15.2 -40.3 15.2 -40.2 15.45 -40.2 15.45 -40.3 15.65 -40.3 15.65 -40.1 15.75 -40.1 15.75 -39.8 15.65 -39.8 15.65 -39.7 15.55 -39.7 15.55 -39.6 15.2 -39.6 15.2 -39.5 15.1 -39.5 15.1 -39.4 15.0 -39.4 15.0 -38.95 14.9 -38.95 14.9 -38.75 15.0 -38.75 15.0 -38.65 15.1 -38.65 15.1 -38.45 15.2 -38.45 15.2 -38.35 15.3 -38.35 15.3 -38.25 15.45 -38.25 15.45 -37.75 15.2 -37.75 15.2 -37.4 15.45 -37.4 15.45 -37.3 15.55 -37.3 15.55 -37.0 15.65 -37.0 15.65 -36.8 15.75 -36.8 15.75 -36.5 15.65 -36.5 15.65 -36.4 15.95 -36.4 15.95 -36.15 16.05 -36.15 16.05 -35.85 16.35 -35.85 16.35 -35.95 16.55 -35.95 16.55 -35.85 16.8 -35.85 16.8 -35.75 16.9 -35.75 16.9 -35.15 16.8 -35.15 16.8 -35.05 17.4 -35.05 17.4 -34.95 17.5 -34.95 17.5 -34.7 17.6 -34.7 17.6 -34.5 17.7 -34.5 17.7 -34.3 17.8 -34.3 17.8 -34.0 17.9 -34.0 17.9 -33.9 18.0 -33.9 18.0 -33.7 18.1 -33.7 18.1 -33.5 18.25 -33.5 18.25 -33.15 18.35 -33.15 18.35 -33.05 18.45 -33.05 18.45 -32.95 18.65 -32.95 18.65 -32.75 19.05 -32.75 19.05 -32.65 19.25 -32.65 19.25 -32.55 19.35 -32.55 19.35 -32.45 19.45 -32.45 19.45 -32.35 19.55 -32.35 19.55 -32.25 19.7 -32.25 19.7 -32.05 19.8 -32.05 19.8 -31.5 19.9 -31.5 19.9 -31.1 20.0 -31.1 20.0 -30.9 20.1 -30.9 20.1 -30.7 20.2 -30.7 20.2 -30.6 20.3 -30.6 20.3 -30.35 20.4 -30.35 20.4 -30.25 20.5 -30.25 20.5 -29.45 20.3 -29.45 20.3 -29.35 20.1 -29.35 20.1 -29.25 20.0 -29.25 20.0 -29.1 19.7 -29.1 19.7 -29.0 19.25 -29.0 19.25 -28.9 18.95 -28.9 18.95 -28.6 18.0 -28.6 18.0 -28.1 17.9 -28.1 17.9 -28.0 17.8 -28.0 17.8 -27.9 17.7 -27.9 17.7 -27.8 17.5 -27.8 17.5 -27.65 17.4 -27.65 17.4 -27.55 17.0 -27.55 17.0 -27.45 16.8 -27.45 16.8 -27.35 16.65 -27.35 16.65 -27.25 16.55 -27.25 16.55 -27.15 16.45 -27.15 16.45 -27.05 16.35 -27.05 16.35 -26.95 16.25 -26.95 16.25 -26.85 16.05 -26.85 16.05 -26.75 15.45 -26.75 15.45 -26.85 15.3 -26.85 15.3 -26.75 15.2 -26.75 15.2 -26.65 15.0 -26.65 15.0 -26.45 14.5 -26.45 14.5 -26.55 14.3 -26.55 14.3 -26.65 14.0 -26.65 14.0 -26.75 13.85 -26.75 13.85 -26.95 13.75 -26.95 13.75 -27.05 13.65 -27.05 13.65 -26.95 13.25 -26.95 13.25 -27.05 13.05 -27.05 13.05 -26.95 12.85 -26.95 12.85 -26.85 12.75 -26.85 12.75 -26.65 12.65 -26.65 12.65 -26.55 12.75 -26.55 12.75 -25.8 12.1 -25.8 12.1 -25.2 12.2 -25.2 12.2 -24.9 11.7 -24.9 11.7 -25.0 11.4 -25.0 11.4 -25.2 11.3 -25.2 11.3 -25.3 11.1 -25.3 11.1 -25.4 10.75 -25.4 10.75 -25.3 10.45 -25.3 10.45 -25.2 10.35 -25.2 10.35 -24.9 10.25 -24.9 10.25 -24.65 10.15 -24.65 10.15 -24.35 10.05 -24.35 10.05 -23.95 10.15 -23.95 10.15 -23.85 10.25 -23.85 10.25 -23.75 10.45 -23.75 10.45 -23.65 11.4 -23.65 11.4 -23.55 12.3 -23.55 12.3 -23.65 12.4 -23.65 12.4 -23.95 12.55 -23.95 12.55 -24.15 12.65 -24.15 12.65 -24.25 12.75 -24.25 12.75 -24.35 12.85 -24.35 12.85 -24.45 13.15 -24.45 13.15 -24.35 13.25 -24.35 13.25 -24.05 13.15 -24.05 13.15 -23.85 13.05 -23.85 13.05 -23.65 12.95 -23.65 12.95 -23.2 13.05 -23.2 13.05 -23.0 13.25 -23.0 13.25 -22.9 13.35 -22.9 13.35 -22.8 13.45 -22.8 13.45 -22.6 13.65 -22.6 13.65 -22.5 13.75 -22.5 13.75 -22.4 13.85 -22.4 13.85 -22.2 13.75 -22.2 13.75 -22.1 14.0 -22.1 14.0 -21.85 14.2 -21.85 14.2 -21.25 14.9 -21.25 14.9 -21.15 15.0 -21.15 15.0 -21.05 14.9 -21.05 14.9 -20.95 14.8 -20.95 14.8 -20.85 14.9 -20.85 14.9 -20.75 15.0 -20.75 15.0 -20.65 15.2 -20.65 15.2 -20.75 15.65 -20.75 15.65 -20.65 15.85 -20.65 15.85 -20.5 16.05 -20.5 16.05 -20.3 15.95 -20.3 15.95 -20.2 15.85 -20.2 15.85 -20.1 15.65 -20.1 15.65 -20.0 15.55 -20.0 15.55 -19.7 15.65 -19.7 15.65 -19.35 15.35 -19.3 15.3 -19.3 15.3 -19.4 15.2 -19.4 15.2 -19.3 15.3 -19.3 15.3 -19.25 13.15 -18.65 13.05 -18.65 13.05 -18.75 12.95 -18.75 12.95 -18.85 12.85 -18.85 12.85 -18.75 12.75 -18.75 12.75 -18.55 12.65 -18.55 12.65 -18.5 Q8.4 -17.25 7.95 -16.35 7.75 -15.95 7.75 -13.35 L7.55 -13.35 7.55 -13.5 7.05 -13.5 7.05 -13.35 7.15 -13.35 7.15 -13.05 7.05 -13.05 7.05 -12.95 6.95 -12.95 6.95 -12.85 6.7 -12.85 6.7 -13.05 6.6 -13.05 6.0 -14.25 Q5.2 -15.25 4.15 -15.65 L2.9 -15.9 2.9 -15.95 2.8 -15.95 M17.8 -28.7 L17.8 -28.8 17.7 -28.8 17.7 -28.7 17.8 -28.7 M7.75 -12.85 L7.75 -12.25 7.15 -12.25 7.15 -12.55 7.25 -12.55 7.25 -12.65 7.55 -12.65 7.55 -12.75 7.65 -12.75 7.65 -12.85 7.75 -12.85 M7.75 -12.0 L7.75 -10.9 7.55 -10.9 7.55 -10.8 7.45 -10.8 7.45 -10.9 7.35 -10.9 7.35 -11.1 7.25 -11.1 7.25 -11.0 7.15 -11.0 7.15 -11.1 7.05 -11.1 7.05 -11.2 6.95 -11.2 6.95 -11.3 6.85 -11.3 6.85 -11.4 6.6 -11.4 6.6 -11.5 6.5 -11.5 6.5 -11.6 6.7 -11.6 6.7 -11.5 6.85 -11.5 6.85 -11.7 6.95 -11.7 6.95 -12.0 7.15 -12.0 7.15 -12.15 7.55 -12.15 7.55 -12.0 7.75 -12.0 M15.1 -19.5 L15.0 -19.5 15.0 -19.4 15.1 -19.4 15.1 -19.5 M12.95 -20.3 L12.95 -20.2 13.05 -20.2 13.05 -20.3 12.95 -20.3 M13.15 -20.95 L12.75 -20.95 12.75 -20.85 12.85 -20.85 12.85 -20.75 13.25 -20.75 13.25 -20.4 13.45 -20.4 13.45 -20.5 13.35 -20.5 13.35 -20.75 13.25 -20.75 13.25 -20.85 13.15 -20.85 13.15 -20.95 M11.2 -19.9 L11.2 -19.8 11.3 -19.8 11.3 -19.7 11.4 -19.7 11.4 -19.6 11.7 -19.6 11.7 -19.7 11.8 -19.7 11.8 -19.8 12.0 -19.8 12.0 -19.9 11.7 -19.9 11.7 -19.8 11.6 -19.8 11.6 -19.9 11.2 -19.9 M12.55 -20.2 L12.3 -20.2 12.3 -20.1 12.75 -20.1 12.75 -20.2 12.65 -20.2 12.65 -20.5 12.55 -20.5 12.55 -20.2 M11.9 -20.95 L11.7 -20.95 11.7 -20.85 11.8 -20.85 11.8 -20.5 11.9 -20.5 11.9 -20.4 12.0 -20.4 12.0 -20.65 11.9 -20.65 11.9 -20.95" fill="url(#gradient3)" fill-rule="evenodd" stroke="none"/>
    <path d="M22.5 -25.7 L22.5 -25.6 22.6 -25.6 22.6 -25.4 22.7 -25.4 22.7 -25.2 22.35 -25.2 22.35 -25.4 22.25 -25.4 22.25 -25.7 22.5 -25.7" fill="url(#gradient4)" fill-rule="evenodd" stroke="none"/>
    <path d="M12.75 -25.0 L12.75 -24.9 12.85 -24.9 12.85 -25.0 13.15 -25.0 13.15 -25.1 13.25 -25.1 13.25 -25.2 13.45 -25.2 13.45 -25.3 13.75 -25.3 13.75 -25.7 14.0 -25.7 14.0 -25.5 13.85 -25.5 13.85 -25.4 14.1 -25.4 14.1 -25.6 14.4 -25.6 14.4 -25.7 14.8 -25.7 14.8 -25.6 15.1 -25.6 15.1 -25.3 14.9 -25.3 14.9 -25.2 14.7 -25.2 14.7 -25.0 14.3 -25.0 14.3 -25.1 14.1 -25.1 14.1 -25.0 13.85 -25.0 13.85 -24.9 13.65 -24.9 13.65 -24.75 13.35 -24.75 13.35 -24.65 13.05 -24.65 13.05 -24.55 12.65 -24.55 12.65 -24.65 12.4 -24.65 12.4 -25.0 12.75 -25.0" fill="url(#gradient5)" fill-rule="evenodd" stroke="none"/>
    <path d="M13.85 -24.9 L14.1 -24.9 14.1 -24.45 13.75 -24.45 13.75 -24.65 13.85 -24.65 13.85 -24.9" fill="url(#gradient6)" fill-rule="evenodd" stroke="none"/>
    <path d="M16.25 -26.35 L16.25 -26.45 16.45 -26.45 16.45 -25.7 16.25 -25.7 16.25 -25.8 16.15 -25.8 16.15 -26.35 16.25 -26.35" fill="url(#gradient7)" fill-rule="evenodd" stroke="none"/>
    <path d="M16.05 -25.6 L16.15 -25.6 16.15 -25.5 16.05 -25.5 16.05 -25.6" fill="url(#gradient8)" fill-rule="evenodd" stroke="none"/>
    <path d="M16.25 -25.6 L16.35 -25.6 16.35 -25.5 16.25 -25.5 16.25 -25.6" fill="url(#gradient9)" fill-rule="evenodd" stroke="none"/>
    <path d="M15.2 -25.7 L15.65 -25.7 15.65 -25.6 15.95 -25.6 15.95 -25.4 15.2 -25.4 15.2 -25.7" fill="url(#gradient10)" fill-rule="evenodd" stroke="none"/>
    <path d="M14.6 -24.65 L14.6 -24.45 14.2 -24.45 14.2 -24.65 14.6 -24.65" fill="url(#gradient11)" fill-rule="evenodd" stroke="none"/>
    <path d="M14.1 -24.35 L14.1 -24.25 14.2 -24.25 14.2 -23.95 14.0 -23.95 14.0 -24.35 14.1 -24.35" fill="url(#gradient12)" fill-rule="evenodd" stroke="none"/>
    <path d="M13.45 -24.05 L13.85 -24.05 13.85 -23.95 13.45 -23.95 13.45 -24.05" fill="url(#gradient13)" fill-rule="evenodd" stroke="none"/>
    <path d="M27.55 -21.95 L27.25 -21.95 27.25 -22.2 27.55 -22.2 27.55 -21.95" fill="url(#gradient14)" fill-rule="evenodd" stroke="none"/>
    <path d="M18.75 -19.2 Q19.1 -18.9 19.85 -7.65 L19.9 -6.7 20.2 -1.15 Q21.25 16.5 20.8 17.05 20.4 17.55 15.75 18.0 11.0 18.45 10.35 18.05 9.7 17.55 8.9 1.0 L8.5 -8.9 8.5 -10.0 8.45 -11.1 8.45 -12.75 8.45 -13.05 Q8.4 -15.9 8.65 -16.15 8.95 -16.55 11.2 -17.35 L12.25 -17.7 12.3 -17.7 12.95 -17.9 13.7 -18.15 16.65 -18.95 18.75 -19.2 M12.6 -14.3 L12.55 -14.2 Q12.4 -13.9 12.5 -13.1 L12.55 -12.55 Q12.6 -12.05 12.75 -11.95 12.95 -11.75 13.9 -11.95 14.85 -12.15 15.0 -12.45 L15.05 -13.75 14.9 -14.85 13.65 -14.75 12.6 -14.3 M11.85 -13.25 L11.75 -14.0 10.55 -13.85 9.5 -13.4 Q9.35 -13.3 9.35 -12.75 L9.35 -12.3 9.4 -12.0 9.5 -11.4 9.7 -11.1 10.45 -11.05 10.8 -11.15 Q11.75 -11.4 11.85 -11.65 L11.85 -13.25 M15.55 -14.0 Q15.6 -13.0 15.85 -12.7 L17.1 -12.75 Q18.05 -13.0 18.2 -13.25 L18.25 -14.65 18.1 -15.8 16.8 -15.7 15.65 -15.2 Q15.45 -15.0 15.55 -14.0 M9.75 -10.0 Q9.6 -9.9 9.6 -9.35 L9.6 -8.9 9.7 -8.25 Q9.75 -7.8 9.9 -7.65 L10.95 -7.7 11.05 -7.75 Q11.95 -8.0 12.05 -8.25 L12.05 -8.3 12.15 -9.5 12.0 -10.6 10.8 -10.45 9.75 -10.0 M9.75 -5.6 Q9.85 -4.65 10.05 -4.45 10.25 -4.25 11.2 -4.45 12.1 -4.7 12.2 -4.95 L12.3 -6.25 12.1 -7.3 12.0 -7.35 10.9 -7.25 9.9 -6.75 Q9.7 -6.55 9.75 -5.6 M10.1 -3.3 Q9.85 -3.05 9.95 -2.1 10.0 -1.2 10.25 -0.95 L11.4 -1.0 12.4 -1.45 12.5 -2.75 12.35 -3.8 11.1 -3.75 10.1 -3.3 M18.45 -11.2 L18.25 -12.35 16.95 -12.2 15.85 -11.75 Q15.6 -11.55 15.7 -10.5 15.75 -9.5 16.0 -9.25 L17.25 -9.3 Q18.2 -9.55 18.35 -9.8 L18.45 -11.2 M15.45 -6.65 L15.35 -7.6 15.3 -8.1 14.05 -8.0 12.95 -7.5 12.85 -7.1 12.85 -6.3 Q12.9 -5.35 13.1 -5.1 L14.3 -5.15 Q15.2 -5.4 15.4 -5.65 L15.45 -6.65 M15.9 -7.55 L15.9 -7.05 15.95 -6.6 Q16.05 -6.0 16.25 -5.8 L17.45 -5.85 Q18.4 -6.05 18.55 -6.35 L18.6 -6.55 18.65 -7.5 18.65 -7.75 18.45 -8.9 17.15 -8.8 16.05 -8.3 Q15.9 -8.15 15.9 -7.55 M12.8 -10.8 L12.7 -9.65 Q12.75 -8.65 12.95 -8.45 L14.15 -8.5 Q15.05 -8.75 15.25 -9.0 15.4 -9.3 15.15 -11.4 L13.9 -11.3 12.8 -10.8 M14.15 -4.45 L13.1 -3.95 Q12.9 -3.8 12.95 -2.8 13.0 -1.8 13.25 -1.55 L14.45 -1.6 15.5 -2.15 15.55 -3.45 15.4 -4.55 14.15 -4.45 M18.8 -4.1 L18.65 -5.3 17.35 -5.2 16.25 -4.65 Q16.0 -4.5 16.1 -3.45 16.15 -2.4 16.4 -2.2 L17.65 -2.25 Q18.6 -2.5 18.75 -2.75 L18.8 -4.1 M18.7 -1.65 L10.85 0.0 9.45 0.25 Q9.7 8.5 10.2 11.4 L14.6 11.1 19.6 10.4 18.95 -1.7 18.7 -1.65 M14.2 13.05 Q14.4 12.5 13.85 11.9 L10.75 12.15 Q9.9 12.85 10.7 13.75 L12.75 13.6 13.85 13.55 14.2 13.05 M19.65 12.6 Q19.85 12.05 19.25 11.45 L16.1 11.9 Q15.3 12.6 16.15 13.45 L17.3 13.3 19.3 13.1 19.65 12.6" fill="url(#gradient15)" fill-rule="evenodd" stroke="none"/>
    <path d="M11.85 -13.25 L11.85 -11.65 Q11.75 -11.4 10.8 -11.15 L10.45 -11.05 9.7 -11.1 9.5 -11.4 9.4 -12.0 9.35 -12.3 9.35 -12.75 Q9.35 -13.3 9.5 -13.4 L10.55 -13.85 11.75 -14.0 11.85 -13.25 M12.6 -14.3 L13.65 -14.75 14.9 -14.85 15.05 -13.75 15.0 -12.45 Q14.85 -12.15 13.9 -11.95 12.95 -11.75 12.75 -11.95 12.6 -12.05 12.55 -12.55 L12.5 -13.1 Q12.4 -13.9 12.55 -14.2 L12.6 -14.3 M14.9 -13.0 L14.5 -13.3 Q14.1 -13.3 14.15 -12.95 14.15 -12.6 14.5 -12.6 14.9 -12.65 14.9 -13.0 M15.55 -14.0 Q15.45 -15.0 15.65 -15.2 L16.8 -15.7 18.1 -15.8 18.25 -14.65 18.2 -13.25 Q18.05 -13.0 17.1 -12.75 L15.85 -12.7 Q15.6 -13.0 15.55 -14.0 M17.5 -14.4 Q17.1 -14.4 17.15 -14.0 17.15 -13.65 17.55 -13.7 17.9 -13.7 17.9 -14.05 L17.5 -14.4 M11.5 -11.7 Q11.9 -11.75 11.9 -12.1 11.9 -12.4 11.5 -12.4 11.1 -12.35 11.15 -12.05 11.15 -11.7 11.5 -11.7" fill="#333333" fill-rule="evenodd" stroke="none"/>
    <path d="M15.65 -19.35 L19.0 -20.1 Q21.1 -20.35 23.9 -18.9 24.25 -18.75 25.0 -9.15 L25.05 -8.15 25.55 -0.95 Q26.65 16.7 26.35 17.65 25.9 19.3 23.4 19.6 18.55 20.0 18.45 19.2 L14.0 19.4 11.45 19.3 Q9.95 19.05 9.45 18.4 8.85 17.65 8.15 1.2 L7.8 -9.35 7.75 -10.5 7.75 -10.9 7.75 -12.0 7.75 -12.25 7.75 -12.85 7.75 -13.35 Q7.75 -15.95 7.95 -16.35 8.4 -17.25 12.65 -18.5 L12.75 -18.55 13.05 -18.65 13.15 -18.65 15.3 -19.25 15.35 -19.3 15.65 -19.35 M18.75 -19.2 L16.65 -18.95 13.7 -18.15 12.95 -17.9 12.3 -17.7 12.25 -17.7 11.2 -17.35 Q8.95 -16.55 8.65 -16.15 8.4 -15.9 8.45 -13.05 L8.45 -12.75 8.45 -11.1 8.5 -10.0 8.5 -8.9 8.9 1.0 Q9.7 17.55 10.35 18.05 11.0 18.45 15.75 18.0 20.4 17.55 20.8 17.05 21.25 16.5 20.2 -1.15 L19.9 -6.7 19.85 -7.65 Q19.1 -18.9 18.75 -19.2 M24.55 -7.95 L24.45 -8.9 Q23.95 -15.05 23.45 -18.25 L19.65 -19.35 20.55 -7.75 20.6 -6.8 20.9 -0.5 Q21.6 13.8 21.45 16.5 21.45 16.9 22.25 16.95 L24.0 16.85 Q25.55 16.8 25.8 16.4 26.0 15.65 25.2 1.95 L24.55 -7.95" fill="url(#gradient16)" fill-rule="evenodd" stroke="none"/>
    <path d="M9.75 -10.0 L10.8 -10.45 12.0 -10.6 12.15 -9.5 12.05 -8.3 12.05 -8.25 Q11.95 -8.0 11.05 -7.75 L10.95 -7.7 9.9 -7.65 Q9.75 -7.8 9.7 -8.25 L9.6 -8.9 9.6 -9.35 Q9.6 -9.9 9.75 -10.0 M18.45 -11.2 L18.35 -9.8 Q18.2 -9.55 17.25 -9.3 L16.0 -9.25 Q15.75 -9.5 15.7 -10.5 15.6 -11.55 15.85 -11.75 L16.95 -12.2 18.25 -12.35 18.45 -11.2 M17.85 -10.25 Q18.2 -10.25 18.2 -10.6 18.15 -11.0 17.8 -10.95 L17.4 -10.6 Q17.45 -10.25 17.85 -10.25 M12.8 -10.8 L13.9 -11.3 15.15 -11.4 Q15.4 -9.3 15.25 -9.0 15.05 -8.75 14.15 -8.5 L12.95 -8.45 Q12.75 -8.65 12.7 -9.65 L12.8 -10.8 M14.25 -9.65 Q14.25 -9.35 14.65 -9.35 15.05 -9.35 15.05 -9.7 L14.6 -10.05 Q14.25 -10.05 14.25 -9.65 M12.05 -8.8 Q12.05 -9.15 11.65 -9.15 11.25 -9.15 11.3 -8.75 11.3 -8.4 11.65 -8.4 12.05 -8.45 12.05 -8.8" fill="#666666" fill-rule="evenodd" stroke="none"/>
    <path d="M9.75 -5.6 Q9.7 -6.55 9.9 -6.75 L10.9 -7.25 12.0 -7.35 12.1 -7.3 12.3 -6.25 12.2 -4.95 Q12.1 -4.7 11.2 -4.45 10.25 -4.25 10.05 -4.45 9.85 -4.65 9.75 -5.6 M15.9 -7.55 Q15.9 -8.15 16.05 -8.3 L17.15 -8.8 18.45 -8.9 18.65 -7.75 18.65 -7.5 18.6 -6.55 18.55 -6.35 Q18.4 -6.05 17.45 -5.85 L16.25 -5.8 Q16.05 -6.0 15.95 -6.6 L15.9 -7.05 15.9 -7.55 M15.45 -6.65 L15.4 -5.65 Q15.2 -5.4 14.3 -5.15 L13.1 -5.1 Q12.9 -5.35 12.85 -6.3 L12.85 -7.1 12.95 -7.5 14.05 -8.0 15.3 -8.1 15.35 -7.6 15.45 -6.65 M17.9 -6.85 Q18.3 -6.9 18.3 -7.25 18.25 -7.55 17.85 -7.55 17.5 -7.55 17.5 -7.2 17.55 -6.85 17.9 -6.85 M15.2 -6.2 Q15.15 -6.6 14.75 -6.55 14.4 -6.55 14.4 -6.2 14.45 -5.8 14.8 -5.8 15.2 -5.85 15.2 -6.2 M12.15 -5.65 Q12.1 -6.05 11.7 -6.0 11.3 -6.0 11.35 -5.65 11.35 -5.25 11.75 -5.25 12.15 -5.3 12.15 -5.65 M18.7 -1.65 L18.95 -1.7 19.6 10.4 14.6 11.1 10.2 11.4 Q9.7 8.5 9.45 0.25 L10.85 0.0 9.6 0.25 Q9.85 8.25 10.3 11.05 L14.6 10.8 19.4 10.1 18.7 -1.65" fill="#999999" fill-rule="evenodd" stroke="none"/>
    <path d="M10.1 -3.3 L11.1 -3.75 12.35 -3.8 12.5 -2.75 12.4 -1.45 11.4 -1.0 10.25 -0.95 Q10.0 -1.2 9.95 -2.1 9.85 -3.05 10.1 -3.3 M14.15 -4.45 L15.4 -4.55 15.55 -3.45 15.5 -2.15 14.45 -1.6 13.25 -1.55 Q13.0 -1.8 12.95 -2.8 12.9 -3.8 13.1 -3.95 L14.15 -4.45 M14.55 -2.55 Q14.55 -2.25 14.95 -2.25 15.35 -2.25 15.35 -2.6 L14.9 -2.95 Q14.55 -2.95 14.55 -2.55 M12.3 -1.9 Q12.3 -2.25 11.9 -2.25 11.5 -2.25 11.5 -1.85 11.5 -1.5 11.9 -1.5 12.3 -1.55 12.3 -1.9 M18.8 -4.1 L18.75 -2.75 Q18.6 -2.5 17.65 -2.25 L16.4 -2.2 Q16.15 -2.4 16.1 -3.45 16.0 -4.5 16.25 -4.65 L17.35 -5.2 18.65 -5.3 18.8 -4.1 M18.5 -3.5 L18.1 -3.85 Q17.7 -3.85 17.7 -3.5 17.75 -3.15 18.15 -3.15 18.5 -3.15 18.5 -3.5 M12.75 13.6 L10.7 13.75 Q9.9 12.85 10.75 12.15 L13.85 11.9 Q14.4 12.5 14.2 13.05 L13.85 12.4 11.15 12.55 Q10.5 13.0 11.15 13.7 L12.75 13.6 M19.65 12.6 L19.25 11.95 16.55 12.25 Q15.9 12.75 16.6 13.4 L17.3 13.3 16.15 13.45 Q15.3 12.6 16.1 11.9 L19.25 11.45 Q19.85 12.05 19.65 12.6" fill="#cccccc" fill-rule="evenodd" stroke="none"/>
    <path d="M10.85 0.0 L18.7 -1.65 19.4 10.1 14.6 10.8 10.3 11.05 Q9.85 8.25 9.6 0.25 L10.85 0.0" fill="url(#gradient17)" fill-rule="evenodd" stroke="none"/>
    <path d="M24.55 -7.95 L25.2 1.95 Q26.0 15.65 25.8 16.4 25.55 16.8 24.0 16.85 L22.25 16.95 Q21.45 16.9 21.45 16.5 21.6 13.8 20.9 -0.5 L20.6 -6.8 20.55 -7.75 19.65 -19.35 23.45 -18.25 Q23.95 -15.05 24.45 -8.9 L24.55 -7.95" fill="url(#gradient18)" fill-rule="evenodd" stroke="none"/>
    <path d="M14.9 -13.0 Q14.9 -12.65 14.5 -12.6 14.15 -12.6 14.15 -12.95 14.1 -13.3 14.5 -13.3 L14.9 -13.0 M17.5 -14.4 L17.9 -14.05 Q17.9 -13.7 17.55 -13.7 17.15 -13.65 17.15 -14.0 17.1 -14.4 17.5 -14.4 M17.85 -10.25 Q17.45 -10.25 17.4 -10.6 L17.8 -10.95 Q18.15 -11.0 18.2 -10.6 18.2 -10.25 17.85 -10.25 M17.9 -6.85 Q17.55 -6.85 17.5 -7.2 17.5 -7.55 17.85 -7.55 18.25 -7.55 18.3 -7.25 18.3 -6.9 17.9 -6.85 M14.25 -9.65 Q14.25 -10.05 14.6 -10.05 L15.05 -9.7 Q15.05 -9.35 14.65 -9.35 14.25 -9.35 14.25 -9.65 M11.5 -11.7 Q11.15 -11.7 11.15 -12.05 11.1 -12.35 11.5 -12.4 11.9 -12.4 11.9 -12.1 11.9 -11.75 11.5 -11.7 M12.05 -8.8 Q12.05 -8.45 11.65 -8.4 11.3 -8.4 11.3 -8.75 11.25 -9.15 11.65 -9.15 12.05 -9.15 12.05 -8.8 M15.2 -6.2 Q15.2 -5.85 14.8 -5.8 14.45 -5.8 14.4 -6.2 14.4 -6.55 14.75 -6.55 15.15 -6.6 15.2 -6.2 M12.15 -5.65 Q12.15 -5.3 11.75 -5.25 11.35 -5.25 11.35 -5.65 11.3 -6.0 11.7 -6.0 12.1 -6.05 12.15 -5.65 M18.5 -3.5 Q18.5 -3.15 18.15 -3.15 17.75 -3.15 17.7 -3.5 17.7 -3.85 18.1 -3.85 L18.5 -3.5" fill="url(#gradient19)" fill-rule="evenodd" stroke="none"/>
    <path d="M12.3 -1.9 Q12.3 -1.55 11.9 -1.5 11.5 -1.5 11.5 -1.85 11.5 -2.25 11.9 -2.25 12.3 -2.25 12.3 -1.9 M14.55 -2.55 Q14.55 -2.95 14.9 -2.95 L15.35 -2.6 Q15.35 -2.25 14.95 -2.25 14.55 -2.25 14.55 -2.55 M12.75 13.6 L11.15 13.7 Q10.5 13.0 11.15 12.55 L13.85 12.4 14.2 13.05 13.85 13.55 12.75 13.6 M17.3 13.3 L16.6 13.4 Q15.9 12.75 16.55 12.25 L19.25 11.95 19.65 12.6 19.3 13.1 17.3 13.3" fill="#ffffff" fill-rule="evenodd" stroke="none"/>
    <path d="M2.75 -15.95 L2.8 -15.95 2.9 -15.9 4.15 -15.65 Q5.2 -15.25 6.0 -14.25 L6.6 -13.05 6.65 -12.85 6.75 -12.55 6.75 -12.4 6.75 -12.45 6.5 -12.95 Q6.15 -13.45 5.3 -13.55 L4.45 -13.7 4.3 -13.75 -17.7 -18.4 -19.65 -18.45 Q-20.8 -18.35 -21.75 -17.7 L-22.2 -17.45 -25.5 -15.0 -34.2 -8.4 -34.2 -8.45 -34.25 -8.45 Q-35.3 -9.6 -33.55 -10.5 -28.1 -14.95 -22.7 -19.45 -21.55 -20.4 -20.1 -20.55 L-17.2 -20.35 1.5 -16.25 2.75 -15.95" fill="url(#gradient20)" fill-rule="evenodd" stroke="none"/>
    <path d="M5.55 -11.05 L4.55 -10.65 -8.95 -4.7 -10.25 -4.9 -10.65 -4.95 -34.2 -8.4 -25.5 -15.0 -22.2 -17.45 -21.75 -17.7 -20.45 -18.25 -19.65 -18.45 -17.7 -18.4 4.3 -13.75 4.45 -13.7 5.3 -13.55 Q6.15 -13.45 6.5 -12.95 L6.75 -12.45 6.6 -12.1 6.3 -11.65 5.55 -11.05 M-20.55 -13.55 L-23.75 -14.15 -25.7 -12.7 -27.5 -11.35 -29.2 -10.15 -30.85 -8.95 -27.95 -8.5 -25.25 -8.1 -22.55 -7.7 -19.8 -7.25 -17.15 -6.85 -14.4 -6.45 -11.65 -6.0 -9.2 -5.65 -7.05 -6.6 -4.85 -7.65 -2.6 -8.65 -0.05 -9.85 -2.85 -10.35 -5.75 -10.85 -8.7 -11.4 -11.65 -11.95 -14.6 -12.5 -17.5 -13.0 -20.55 -13.55 M-15.55 -13.8 L-7.5 -12.35 -3.8 -14.35 -12.1 -16.05 -15.55 -13.8" fill="url(#gradient21)" fill-rule="evenodd" stroke="none"/>
    <path d="M-25.7 -12.7 L-23.75 -14.15 -20.55 -13.55 -22.6 -12.15 -25.7 -12.7 -22.6 -12.15 -20.55 -13.55 -17.5 -13.0 -14.6 -12.5 -11.65 -11.95 -8.7 -11.4 -5.75 -10.85 -2.85 -10.35 -0.05 -9.85 -2.6 -8.65 -4.85 -7.65 -7.05 -6.6 -9.2 -5.65 -11.65 -6.0 -14.4 -6.45 -17.15 -6.85 -19.8 -7.25 -22.55 -7.7 -25.25 -8.1 -27.95 -8.5 -30.85 -8.95 -29.2 -10.15 -27.5 -11.35 -25.7 -12.7 M-12.4 -3.0 L-12.25 -2.6 -12.3 -2.5 -15.5 11.5 -15.95 12.2 -16.4 12.35 -15.8 11.85 -12.5 -2.65 -12.65 -3.1 -12.4 -3.0 M-26.2 -9.65 L-29.2 -10.15 -26.2 -9.65 -24.5 -10.85 -21.6 -10.35 -24.5 -10.85 -26.2 -9.65 -23.4 -9.2 -21.6 -10.35 -19.6 -11.65 -22.6 -12.15 -24.5 -10.85 -27.5 -11.35 -24.5 -10.85 -22.6 -12.15 -19.6 -11.65 -21.6 -10.35 -23.4 -9.2 -26.2 -9.65 -27.95 -8.5 -26.2 -9.65 M-25.25 -8.1 L-23.4 -9.2 -20.7 -8.8 -22.55 -7.7 -20.7 -8.8 -23.4 -9.2 -25.25 -8.1 M-17.5 -13.0 L-19.6 -11.65 -16.75 -11.15 -18.8 -9.9 -21.6 -10.35 -18.8 -9.9 -16.75 -11.15 -19.6 -11.65 -17.5 -13.0 M-16.0 -9.45 L-17.9 -8.35 -20.7 -8.8 -18.8 -9.9 -16.0 -9.45 -13.9 -10.65 -11.05 -10.15 -13.2 -9.0 -16.0 -9.45 -13.2 -9.0 -11.05 -10.15 -13.9 -10.65 -16.75 -11.15 -14.6 -12.5 -16.75 -11.15 -13.9 -10.65 -11.65 -11.95 -13.9 -10.65 -16.0 -9.45 -18.8 -9.9 -20.7 -8.8 -17.9 -8.35 -16.0 -9.45 M-19.8 -7.25 L-17.9 -8.35 -15.2 -7.9 -13.2 -9.0 -10.3 -8.55 -12.45 -7.45 -14.4 -6.45 -12.45 -7.45 -15.2 -7.9 Q-16.2 -7.4 -17.15 -6.85 -16.2 -7.4 -15.2 -7.9 L-12.45 -7.45 -10.3 -8.55 -13.2 -9.0 -15.2 -7.9 -17.9 -8.35 -19.8 -7.25 M-11.65 -6.0 L-9.6 -7.0 -7.05 -6.6 -9.6 -7.0 -11.65 -6.0 M-8.7 -11.4 L-11.05 -10.15 -8.15 -9.65 -10.3 -8.55 -7.45 -8.05 -9.6 -7.0 -12.45 -7.45 -9.6 -7.0 -7.45 -8.05 -10.3 -8.55 -8.15 -9.65 -11.05 -10.15 -8.7 -11.4 M-2.85 -10.35 L-5.25 -9.15 -8.15 -9.65 -5.75 -10.85 -8.15 -9.65 -5.25 -9.15 -2.85 -10.35 M-4.85 -7.65 L-7.45 -8.05 -5.25 -9.15 -2.6 -8.65 -5.25 -9.15 -7.45 -8.05 -4.85 -7.65" fill="#e6e6e6" fill-rule="evenodd" stroke="none"/>
    <path d="M-10.25 -4.9 L-9.1 -4.7 -12.6 10.9 Q-12.85 12.0 -13.55 13.15 -14.35 14.5 -14.95 14.5 L-25.5 14.85 -37.55 13.3 -38.05 13.05 Q-38.9 12.0 -38.75 9.75 L-34.2 -8.4 -10.65 -4.95 -10.25 -4.9 M-12.4 -3.0 L-12.85 -3.2 -30.85 -5.7 -32.2 -5.65 Q-32.55 -5.45 -32.75 -4.4 L-36.3 9.95 Q-36.55 11.15 -35.0 11.15 L-16.95 12.4 -16.4 12.35 -15.95 12.2 -15.45 11.55 -12.3 -2.35 -12.25 -2.6 -12.4 -3.0" fill="url(#gradient22)" fill-rule="evenodd" stroke="none"/>
    <path d="M-16.4 12.35 L-16.95 12.4 -35.0 11.15 Q-36.55 11.15 -36.3 9.95 L-32.75 -4.4 Q-32.55 -5.45 -32.2 -5.65 L-30.85 -5.7 -12.85 -3.2 -12.4 -3.0 -12.65 -3.1 -12.5 -2.65 -15.8 11.85 -16.4 12.35 M-12.25 -2.6 L-12.3 -2.35 -15.45 11.55 -15.95 12.2 -15.5 11.5 -12.3 -2.5 -12.25 -2.6" fill="url(#gradient23)" fill-rule="evenodd" stroke="none"/>
    <path d="M-15.55 -13.8 L-12.1 -16.05 -3.8 -14.35 -7.5 -12.35 -15.55 -13.8" fill="#9999cc" fill-rule="evenodd" stroke="none"/>
    <path d="M-38.05 13.05 L-37.95 13.15 Q-39.85 12.05 -39.5 9.65 L-35.0 -8.15 Q-34.7 -8.6 -34.25 -8.45 L-34.2 -8.45 -34.2 -8.4 -38.75 9.75 Q-38.9 12.0 -38.05 13.05" fill="url(#gradient24)" fill-rule="evenodd" stroke="none"/>
    <path d="M-20.55 -13.55 L-23.75 -14.15 -25.7 -12.7 -27.5 -11.35 -29.2 -10.15 -30.85 -8.95 -27.95 -8.5 -25.25 -8.1 -22.55 -7.7 -19.8 -7.25 -17.15 -6.85 -14.4 -6.45 -11.65 -6.0 -9.2 -5.65 -7.05 -6.6 -4.85 -7.65 -2.6 -8.65 -0.05 -9.85 -2.85 -10.35 -5.75 -10.85 -8.7 -11.4 -11.65 -11.95 -14.6 -12.5 -17.5 -13.0 -20.55 -13.55" ffdec:has-small-stroke="true" ffdec:original-stroke-width="0.75" fill="none" stroke="#7d7dc5" stroke-linecap="round" stroke-linejoin="round" stroke-width="1.0"/>
    <path d="M-25.7 -12.7 L-22.6 -12.15 -20.55 -13.55 M-21.6 -10.35 L-24.5 -10.85 -26.2 -9.65 -23.4 -9.2 -21.6 -10.35 -19.6 -11.65 -22.6 -12.15 -24.5 -10.85 -27.5 -11.35 M-22.55 -7.7 L-20.7 -8.8 -23.4 -9.2 -25.25 -8.1 M-26.2 -9.65 L-27.95 -8.5 M-29.2 -10.15 L-26.2 -9.65 M-14.4 -6.45 L-12.45 -7.45 -15.2 -7.9 Q-16.2 -7.4 -17.15 -6.85 M-12.45 -7.45 L-10.3 -8.55 -13.2 -9.0 -15.2 -7.9 -17.9 -8.35 -19.8 -7.25 M-14.6 -12.5 L-16.75 -11.15 -13.9 -10.65 -11.65 -11.95 M-13.9 -10.65 L-16.0 -9.45 -13.2 -9.0 -11.05 -10.15 -13.9 -10.65 M-16.0 -9.45 L-18.8 -9.9 -20.7 -8.8 -17.9 -8.35 -16.0 -9.45 M-21.6 -10.35 L-18.8 -9.9 -16.75 -11.15 -19.6 -11.65 -17.5 -13.0 M-2.6 -8.65 L-5.25 -9.15 -7.45 -8.05 -4.85 -7.65 M-5.75 -10.85 L-8.15 -9.65 -5.25 -9.15 -2.85 -10.35 M-12.45 -7.45 L-9.6 -7.0 -7.45 -8.05 -10.3 -8.55 -8.15 -9.65 -11.05 -10.15 -8.7 -11.4 M-7.05 -6.6 L-9.6 -7.0 -11.65 -6.0" fill="none" stroke="#7d7dc5" stroke-linecap="round" stroke-linejoin="round" stroke-width="1.0"/>
  </g>
  <defs>
    <linearGradient gradientTransform="matrix(0.0, 0.0219, -0.0219, 0.0, 17.45, -24.4)" gradientUnits="userSpaceOnUse" id="gradient0" spreadMethod="pad" x1="-819.2" x2="819.2">
      <stop offset="0.0" stop-color="#6666cc"/>
      <stop offset="0.7058823529411765" stop-color="#ffffff"/>
    </linearGradient>
    <radialGradient cx="0" cy="0" gradientTransform="matrix(0.0344, 0.0, 0.0, -0.0344, 15.3, -15.7)" gradientUnits="userSpaceOnUse" id="gradient1" r="819.2" spreadMethod="pad">
      <stop offset="0.49019607843137253" stop-color="#ffffff"/>
      <stop offset="0.8196078431372549" stop-color="#9999ff"/>
      <stop offset="0.9921568627450981" stop-color="#003399"/>
    </radialGradient>
    <linearGradient gradientTransform="matrix(0.0, 0.0066, -0.0134, 0.0, 29.0, -24.1)" gradientUnits="userSpaceOnUse" id="gradient2" spreadMethod="pad" x1="-819.2" x2="819.2">
      <stop offset="0.0" stop-color="#9999cc"/>
      <stop offset="1.0" stop-color="#ffffff"/>
    </linearGradient>
    <linearGradient gradientTransform="matrix(-0.0011, 0.0109, -0.0181, -0.0018, 11.55, -25.4)" gradientUnits="userSpaceOnUse" id="gradient3" spreadMethod="pad" x1="-819.2" x2="819.2">
      <stop offset="0.0" stop-color="#9999cc"/>
      <stop offset="1.0" stop-color="#ffffff"/>
    </linearGradient>
    <linearGradient gradientTransform="matrix(3.0E-4, 0.0, 0.0, 3.0E-4, 22.45, -25.45)" gradientUnits="userSpaceOnUse" id="gradient4" spreadMethod="pad" x1="-819.2" x2="819.2">
      <stop offset="0.0" stop-color="#9999cc"/>
      <stop offset="1.0" stop-color="#ffffff"/>
    </linearGradient>
    <linearGradient gradientTransform="matrix(0.0016, 0.0, 0.0, 7.0E-4, 13.75, -25.15)" gradientUnits="userSpaceOnUse" id="gradient5" spreadMethod="pad" x1="-819.2" x2="819.2">
      <stop offset="0.0" stop-color="#9999cc"/>
      <stop offset="1.0" stop-color="#ffffff"/>
    </linearGradient>
    <linearGradient gradientTransform="matrix(2.0E-4, 0.0, 0.0, 3.0E-4, 13.9, -24.7)" gradientUnits="userSpaceOnUse" id="gradient6" spreadMethod="pad" x1="-819.2" x2="819.2">
      <stop offset="0.0" stop-color="#9999cc"/>
      <stop offset="1.0" stop-color="#ffffff"/>
    </linearGradient>
    <linearGradient gradientTransform="matrix(2.0E-4, 0.0, 0.0, 5.0E-4, 16.3, -26.1)" gradientUnits="userSpaceOnUse" id="gradient7" spreadMethod="pad" x1="-819.2" x2="819.2">
      <stop offset="0.0" stop-color="#9999cc"/>
      <stop offset="1.0" stop-color="#ffffff"/>
    </linearGradient>
    <linearGradient gradientTransform="matrix(1.0E-4, 0.0, 0.0, 1.0E-4, 16.1, -25.55)" gradientUnits="userSpaceOnUse" id="gradient8" spreadMethod="pad" x1="-819.2" x2="819.2">
      <stop offset="0.0" stop-color="#9999cc"/>
      <stop offset="1.0" stop-color="#ffffff"/>
    </linearGradient>
    <linearGradient gradientTransform="matrix(1.0E-4, 0.0, 0.0, 1.0E-4, 16.3, -25.55)" gradientUnits="userSpaceOnUse" id="gradient9" spreadMethod="pad" x1="-819.2" x2="819.2">
      <stop offset="0.0" stop-color="#9999cc"/>
      <stop offset="1.0" stop-color="#ffffff"/>
    </linearGradient>
    <linearGradient gradientTransform="matrix(5.0E-4, 0.0, 0.0, 2.0E-4, 15.55, -25.55)" gradientUnits="userSpaceOnUse" id="gradient10" spreadMethod="pad" x1="-819.2" x2="819.2">
      <stop offset="0.0" stop-color="#9999cc"/>
      <stop offset="1.0" stop-color="#ffffff"/>
    </linearGradient>
    <linearGradient gradientTransform="matrix(2.0E-4, 0.0, 0.0, 1.0E-4, 14.4, -24.55)" gradientUnits="userSpaceOnUse" id="gradient11" spreadMethod="pad" x1="-819.2" x2="819.2">
      <stop offset="0.0" stop-color="#9999cc"/>
      <stop offset="1.0" stop-color="#ffffff"/>
    </linearGradient>
    <linearGradient gradientTransform="matrix(1.0E-4, 0.0, 0.0, 2.0E-4, 14.1, -24.15)" gradientUnits="userSpaceOnUse" id="gradient12" spreadMethod="pad" x1="-819.2" x2="819.2">
      <stop offset="0.0" stop-color="#9999cc"/>
      <stop offset="1.0" stop-color="#ffffff"/>
    </linearGradient>
    <linearGradient gradientTransform="matrix(2.0E-4, 0.0, 0.0, 1.0E-4, 13.65, -24.0)" gradientUnits="userSpaceOnUse" id="gradient13" spreadMethod="pad" x1="-819.2" x2="819.2">
      <stop offset="0.0" stop-color="#9999cc"/>
      <stop offset="1.0" stop-color="#ffffff"/>
    </linearGradient>
    <linearGradient gradientTransform="matrix(2.0E-4, 0.0, 0.0, 2.0E-4, 27.4, -22.1)" gradientUnits="userSpaceOnUse" id="gradient14" spreadMethod="pad" x1="-819.2" x2="819.2">
      <stop offset="0.0" stop-color="#9999cc"/>
      <stop offset="1.0" stop-color="#ffffff"/>
    </linearGradient>
    <linearGradient gradientTransform="matrix(0.0017, 0.0125, 0.02, -0.0027, 14.75, -7.0)" gradientUnits="userSpaceOnUse" id="gradient15" spreadMethod="pad" x1="-819.2" x2="819.2">
      <stop offset="0.0" stop-color="#999999"/>
      <stop offset="0.7607843137254902" stop-color="#ffffff"/>
    </linearGradient>
    <linearGradient gradientTransform="matrix(-0.0019, -0.0145, 0.0244, -0.0032, 17.15, -2.7)" gradientUnits="userSpaceOnUse" id="gradient16" spreadMethod="pad" x1="-819.2" x2="819.2">
      <stop offset="0.0" stop-color="#ffffff"/>
      <stop offset="1.0" stop-color="#666666"/>
    </linearGradient>
    <linearGradient gradientTransform="matrix(7.0E-4, 0.0056, 0.0091, -0.0012, 14.45, 4.8)" gradientUnits="userSpaceOnUse" id="gradient17" spreadMethod="pad" x1="-819.2" x2="819.2">
      <stop offset="0.0" stop-color="#ccffcc"/>
      <stop offset="1.0" stop-color="#ffffff"/>
    </linearGradient>
    <linearGradient gradientTransform="matrix(0.0013, 0.0098, 0.0163, -0.0022, 21.5, -6.85)" gradientUnits="userSpaceOnUse" id="gradient18" spreadMethod="pad" x1="-819.2" x2="819.2">
      <stop offset="0.0" stop-color="#999999"/>
      <stop offset="1.0" stop-color="#ffffff"/>
    </linearGradient>
    <linearGradient gradientTransform="matrix(-5.0E-4, 0.0, 0.0, 4.0E-4, 11.55, -12.1)" gradientUnits="userSpaceOnUse" id="gradient19" spreadMethod="pad" x1="-819.2" x2="819.2">
      <stop offset="0.0" stop-color="#dddddd"/>
      <stop offset="1.0" stop-color="#999999"/>
    </linearGradient>
    <linearGradient gradientTransform="matrix(-6.0E-4, -0.0066, 0.0252, -0.0022, -12.8, -14.85)" gradientUnits="userSpaceOnUse" id="gradient20" spreadMethod="pad" x1="-819.2" x2="819.2">
      <stop offset="0.27450980392156865" stop-color="#7d7dc5"/>
      <stop offset="1.0" stop-color="#a7a7d3"/>
    </linearGradient>
    <linearGradient gradientTransform="matrix(8.0E-4, -0.0078, 0.0245, 0.0026, -13.75, -11.5)" gradientUnits="userSpaceOnUse" id="gradient21" spreadMethod="pad" x1="-819.2" x2="819.2">
      <stop offset="0.0" stop-color="#7d7dc5"/>
      <stop offset="0.43529411764705883" stop-color="#7d7dc5"/>
      <stop offset="1.0" stop-color="#ffffff"/>
    </linearGradient>
    <linearGradient gradientTransform="matrix(-0.0018, 0.0146, -0.0182, -0.0023, -23.25, 3.1)" gradientUnits="userSpaceOnUse" id="gradient22" spreadMethod="pad" x1="-819.2" x2="819.2">
      <stop offset="0.043137254901960784" stop-color="#a7a7d3"/>
      <stop offset="0.8" stop-color="#ffffff"/>
    </linearGradient>
    <radialGradient cx="0" cy="0" gradientTransform="matrix(0.025, 0.0, 0.0, -0.025, -28.2, 9.9)" gradientUnits="userSpaceOnUse" id="gradient23" r="819.2" spreadMethod="pad">
      <stop offset="0.5333333333333333" stop-color="#ffffff"/>
      <stop offset="1.0" stop-color="#66ccff"/>
    </radialGradient>
    <linearGradient gradientTransform="matrix(0.0033, 0.0, 0.0, 0.0132, -36.9, 2.3)" gradientUnits="userSpaceOnUse" id="gradient24" spreadMethod="pad" x1="-819.2" x2="819.2">
      <stop offset="0.1803921568627451" stop-color="#ffffff"/>
      <stop offset="1.0" stop-color="#6699cc"/>
    </linearGradient>
  </defs>
</svg>
