<?xml version="1.0" encoding="UTF-8" standalone="no"?>
<svg xmlns:ffdec="https://www.free-decompiler.com/flash" xmlns:xlink="http://www.w3.org/1999/xlink" ffdec:objectType="shape" height="35.15px" width="60.1px" xmlns="http://www.w3.org/2000/svg">
  <g transform="matrix(1.0, 0.0, 0.0, 1.0, 27.15, 34.0)">
    <path d="M2.15 -34.0 L-26.6 -34.0 -26.65 -34.0 -26.5 -33.75 -26.45 -33.75 -26.35 -33.45 -26.25 -33.4 -25.1 -30.95 -25.15 -30.95 -24.6 -29.85 -19.65 -19.35 -19.05 -18.85 -16.45 -17.6 -15.2 -17.35 -8.6 -17.35 Q-7.8 -17.35 -7.3 -17.85 L-6.3 -18.8 -5.65 -19.35 7.55 -19.35 Q8.15 -19.4 8.15 -19.65 L8.1 -19.85 7.4 -21.4 7.15 -21.85 7.9 -21.85 8.85 -19.85 Q9.35 -18.85 7.8 -18.85 L-5.05 -18.85 -6.65 -17.35 Q-7.15 -16.85 -8.35 -16.85 L-15.35 -16.85 Q-16.1 -16.85 -17.15 -17.35 L-19.65 -18.6 -20.45 -19.35 -27.1 -33.5 Q-27.35 -34.0 -26.55 -34.0 L2.15 -34.0 Q2.95 -34.0 3.2 -33.5 L11.3 -22.9 11.4 -22.25 11.3 -22.85 3.2 -33.45 Q3.0 -33.9 2.45 -33.95 L2.4 -34.0 2.15 -34.0 M10.6 -22.6 Q10.55 -22.4 10.0 -22.35 L-5.45 -22.35 -5.55 -22.4 6.9 -22.4 7.65 -22.4 10.05 -22.4 Q10.5 -22.4 10.6 -22.6" fill="url(#gradient0)" fill-rule="evenodd" stroke="none"/>
    <path d="M2.4 -33.45 L2.4 -33.5 2.15 -34.0 2.45 -33.95 Q3.0 -33.9 3.2 -33.45 L11.3 -22.85 11.4 -22.25 Q11.2 -21.85 10.25 -21.85 L7.9 -21.85 7.15 -21.85 7.15 -21.9 -14.8 -21.9 Q-16.75 -21.9 -17.9 -23.4 L-25.55 -33.45 -24.8 -33.45 -17.1 -23.4 Q-16.45 -22.6 -15.6 -22.4 L-15.05 -22.35 -5.45 -22.35 10.0 -22.35 Q10.55 -22.4 10.6 -22.6 L10.55 -22.85 2.5 -33.35 2.4 -33.45 M-25.6 -33.45 L-25.55 -33.45 -25.5 -33.35 -25.6 -33.45" fill="url(#gradient1)" fill-rule="evenodd" stroke="none"/>
    <path d="M-26.6 -34.0 L-26.45 -33.75 -26.5 -33.75 -26.65 -34.0 -26.6 -34.0 M2.45 -33.95 L2.15 -34.0 2.4 -34.0 2.45 -33.95" fill="#996600" fill-rule="evenodd" stroke="none"/>
    <path d="M2.15 -34.0 L2.4 -33.5 2.4 -33.45 1.65 -33.45 -24.8 -33.45 -25.55 -33.45 -25.6 -33.45 -26.35 -33.45 -26.45 -33.75 -26.6 -34.0 2.15 -34.0 M-25.55 -33.45 L-25.55 -33.5 -25.55 -33.45" fill="url(#gradient2)" fill-rule="evenodd" stroke="none"/>
    <path d="M1.65 -33.45 L2.4 -33.45 2.5 -33.35 7.65 -22.4 6.9 -22.4 1.65 -33.45" fill="url(#gradient3)" fill-rule="evenodd" stroke="none"/>
    <path d="M2.5 -33.35 L10.55 -22.85 10.6 -22.6 Q10.5 -22.4 10.05 -22.4 L7.65 -22.4 2.5 -33.35" fill="url(#gradient4)" fill-rule="evenodd" stroke="none"/>
    <path d="M-25.55 -33.45 L-25.55 -33.5 -25.55 -33.45 -17.9 -23.4 Q-16.75 -21.9 -14.8 -21.9 L7.15 -21.9 7.15 -21.85 7.4 -21.4 -14.55 -21.4 Q-17.3 -21.4 -18.65 -23.4 L-24.35 -30.9 -24.4 -30.95 -25.5 -33.35 -25.55 -33.45" fill="url(#gradient5)" fill-rule="evenodd" stroke="none"/>
    <path d="M-5.45 -22.35 L-15.05 -22.35 -15.6 -22.4 -15.45 -22.4 -5.55 -22.4 -5.45 -22.35 M7.4 -21.4 L8.1 -19.85 8.15 -19.65 8.1 -19.85 -5.15 -19.85 -5.65 -19.35 -6.3 -18.8 -5.15 -19.85 -6.3 -19.85 -8.45 -17.85 -15.45 -17.85 -16.3 -18.1 -18.35 -19.1 -19.0 -19.65 -24.35 -30.9 -18.65 -23.4 Q-17.3 -21.4 -14.55 -21.4 L7.4 -21.4 M-24.6 -29.85 L-25.15 -30.95 -25.1 -30.95 -24.6 -29.85" fill="url(#gradient6)" fill-rule="evenodd" stroke="none"/>
    <path d="M8.15 -19.65 Q8.15 -19.4 7.55 -19.35 L-5.65 -19.35 -5.15 -19.85 8.1 -19.85 8.15 -19.65 M-6.3 -18.8 L-7.3 -17.85 -8.45 -17.85 -6.3 -19.85 -5.15 -19.85 -6.3 -18.8" fill="#ffffff" fill-rule="evenodd" stroke="none"/>
    <path d="M-24.8 -33.45 L1.65 -33.45 6.9 -22.4 -5.55 -22.4 -15.45 -22.4 -15.6 -22.4 Q-16.45 -22.6 -17.1 -23.4 L-24.8 -33.45" fill="url(#gradient7)" fill-rule="evenodd" stroke="none"/>
    <path d="M-26.35 -33.45 L-25.6 -33.45 -24.4 -30.95 -26.25 -33.4 -26.35 -33.45" fill="url(#gradient8)" fill-rule="evenodd" stroke="none"/>
    <path d="M-7.3 -17.85 Q-7.8 -17.35 -8.6 -17.35 L-15.2 -17.35 -16.45 -17.6 -19.05 -18.85 -19.65 -19.35 -24.6 -29.85 -25.1 -30.95 -26.25 -33.4 -24.4 -30.95 -25.6 -33.45 -25.5 -33.35 -24.4 -30.95 -24.35 -30.9 -19.0 -19.65 -18.35 -19.1 -16.3 -18.1 -15.45 -17.85 -8.45 -17.85 -7.3 -17.85" fill="url(#gradient9)" fill-rule="evenodd" stroke="none"/>
    <path d="M19.05 -24.4 Q19.65 -24.05 19.25 -23.8 L18.7 -23.7 18.2 -23.85 17.9 -24.2 18.0 -24.5 18.55 -24.6 19.05 -24.4" fill="#99ff66" fill-rule="evenodd" stroke="none"/>
    <path d="M22.0 -20.3 L14.9 -19.85 20.4 -13.9 27.5 -14.6 22.0 -20.3 M21.9 -22.7 L22.05 -22.7 22.75 -22.0 22.65 -22.0 10.95 -21.4 10.9 -21.4 10.5 -21.85 10.05 -22.3 21.9 -22.7 M24.3 -17.4 L18.2 -16.8 17.6 -17.4 23.8 -17.9 24.3 -17.4 M24.65 -16.0 L20.05 -15.55 19.55 -16.1 24.25 -16.5 24.65 -16.0 M22.4 -20.8 L28.85 -14.15 19.85 -13.15 13.4 -20.25 22.4 -20.8" fill="#666699" fill-rule="evenodd" stroke="none"/>
    <path d="M22.0 -20.3 L27.5 -14.6 20.4 -13.9 14.9 -19.85 22.0 -20.3 M24.65 -16.0 L24.25 -16.5 19.55 -16.1 20.05 -15.55 24.65 -16.0 M24.3 -17.4 L23.8 -17.9 17.6 -17.4 18.2 -16.8 24.3 -17.4" fill="#9999cc" fill-rule="evenodd" stroke="none"/>
    <path d="M21.9 -22.7 L10.05 -22.3 10.5 -21.85 10.1 -22.25 7.55 -25.15 7.45 -25.25 19.3 -25.45 21.9 -22.7 M10.95 -21.4 L22.65 -22.0 32.2 -12.05 31.65 -11.95 31.25 -11.9 20.65 -10.45 10.95 -21.4 M22.4 -20.8 L13.4 -20.25 19.85 -13.15 28.85 -14.15 22.4 -20.8 M19.05 -24.4 L18.55 -24.6 18.0 -24.5 17.9 -24.2 18.2 -23.85 18.7 -23.7 19.25 -23.8 Q19.65 -24.05 19.05 -24.4" fill="url(#gradient10)" fill-rule="evenodd" stroke="none"/>
    <path d="M10.5 -21.85 L10.9 -21.4 -3.5 -11.05 -4.1 -11.8 10.1 -22.25 10.5 -21.85" fill="url(#gradient11)" fill-rule="evenodd" stroke="none"/>
    <path d="M10.9 -21.4 L10.95 -21.4 20.65 -10.45 20.6 -10.45 0.4 0.85 1.8 0.6 0.15 0.95 -7.7 -12.55 7.5 -25.15 7.55 -25.15 10.1 -22.25 -4.1 -11.8 -3.5 -11.05 10.9 -21.4 M31.65 -11.95 L31.6 -11.95 31.25 -11.9 31.65 -11.95" fill="url(#gradient12)" fill-rule="evenodd" stroke="none"/>
    <path d="M31.6 -11.95 L32.05 -12.0 11.1 -1.35 1.8 0.6 0.4 0.85 20.6 -10.45 20.65 -10.45 31.25 -11.9 31.6 -11.95" fill="url(#gradient13)" fill-rule="evenodd" stroke="none"/>
    <path d="M22.65 -22.0 L22.75 -22.0 22.05 -22.7 21.9 -22.7 19.3 -25.45 7.45 -25.25 7.55 -25.15 7.5 -25.15 -7.7 -12.55 0.15 0.95 1.8 0.6 11.1 -1.35 32.05 -12.0 31.6 -11.95 31.65 -11.95 32.2 -12.05 22.65 -22.0 M19.7 -25.8 L32.95 -11.95 11.5 -1.1 -0.05 1.15 -8.35 -12.55 7.05 -25.6 19.7 -25.8" fill="url(#gradient14)" fill-rule="evenodd" stroke="none"/>
  </g>
  <defs>
    <linearGradient gradientTransform="matrix(0.005, 0.0105, -0.0204, 0.0, -6.6, -25.4)" gradientUnits="userSpaceOnUse" id="gradient0" spreadMethod="pad" x1="-819.2" x2="819.2">
      <stop offset="0.0" stop-color="#996600"/>
      <stop offset="1.0" stop-color="#ffffff"/>
    </linearGradient>
    <linearGradient gradientTransform="matrix(-0.0035, -0.0074, 0.0194, 0.0, -7.1, -27.95)" gradientUnits="userSpaceOnUse" id="gradient1" spreadMethod="pad" x1="-819.2" x2="819.2">
      <stop offset="0.0" stop-color="#ffffff"/>
      <stop offset="0.3686274509803922" stop-color="#ffffff"/>
      <stop offset="0.8901960784313725" stop-color="#ffcc66"/>
      <stop offset="1.0" stop-color="#cc9900"/>
    </linearGradient>
    <linearGradient gradientTransform="matrix(0.0175, 0.0, 2.0E-4, 3.0E-4, -12.15, -33.75)" gradientUnits="userSpaceOnUse" id="gradient2" spreadMethod="pad" x1="-819.2" x2="819.2">
      <stop offset="0.0" stop-color="#996600"/>
      <stop offset="1.0" stop-color="#cc9900"/>
    </linearGradient>
    <linearGradient gradientTransform="matrix(0.0032, 0.0068, -5.0E-4, 0.0, 4.65, -27.95)" gradientUnits="userSpaceOnUse" id="gradient3" spreadMethod="pad" x1="-819.2" x2="819.2">
      <stop offset="0.0" stop-color="#cc9900"/>
      <stop offset="0.6745098039215687" stop-color="#ffffff"/>
    </linearGradient>
    <linearGradient gradientTransform="matrix(-0.0032, -0.0068, 0.0019, 0.0, 6.6, -27.95)" gradientUnits="userSpaceOnUse" id="gradient4" spreadMethod="pad" x1="-819.2" x2="819.2">
      <stop offset="0.0" stop-color="#ffffff"/>
      <stop offset="1.0" stop-color="#ffff99"/>
    </linearGradient>
    <linearGradient gradientTransform="matrix(-0.0035, -0.0074, 0.0166, 0.0, -9.1, -27.45)" gradientUnits="userSpaceOnUse" id="gradient5" spreadMethod="pad" x1="-819.2" x2="819.2">
      <stop offset="0.0" stop-color="#ffffff"/>
      <stop offset="1.0" stop-color="#996600"/>
    </linearGradient>
    <linearGradient gradientTransform="matrix(-0.0039, -0.0083, 0.0171, 0.0, -7.95, -24.2)" gradientUnits="userSpaceOnUse" id="gradient6" spreadMethod="pad" x1="-819.2" x2="819.2">
      <stop offset="0.0" stop-color="#ffffff"/>
      <stop offset="0.9921568627450981" stop-color="#ffcc66"/>
    </linearGradient>
    <linearGradient gradientTransform="matrix(-0.0032, -0.0068, 0.0166, 0.0, -9.35, -27.95)" gradientUnits="userSpaceOnUse" id="gradient7" spreadMethod="pad" x1="-819.2" x2="819.2">
      <stop offset="0.0" stop-color="#ffffff"/>
      <stop offset="1.0" stop-color="#ffcc66"/>
    </linearGradient>
    <linearGradient gradientTransform="matrix(8.0E-4, -8.0E-4, 0.0019, 9.0E-4, -25.1, -32.2)" gradientUnits="userSpaceOnUse" id="gradient8" spreadMethod="pad" x1="-819.2" x2="819.2">
      <stop offset="0.0" stop-color="#ffcc66"/>
      <stop offset="1.0" stop-color="#cc9900"/>
    </linearGradient>
    <linearGradient gradientTransform="matrix(0.0047, 0.0099, -0.0071, 0.0, -16.7, -25.4)" gradientUnits="userSpaceOnUse" id="gradient9" spreadMethod="pad" x1="-819.2" x2="819.2">
      <stop offset="0.0" stop-color="#ffcc66"/>
      <stop offset="0.34509803921568627" stop-color="#ffff99"/>
      <stop offset="1.0" stop-color="#ffffff"/>
    </linearGradient>
    <linearGradient gradientTransform="matrix(-0.0096, -0.01, 0.006, -0.0021, 19.4, -18.5)" gradientUnits="userSpaceOnUse" id="gradient10" spreadMethod="pad" x1="-819.2" x2="819.2">
      <stop offset="0.0" stop-color="#6666cc"/>
      <stop offset="1.0" stop-color="#aaaaaa"/>
    </linearGradient>
    <linearGradient gradientTransform="matrix(-0.0109, 0.0047, -0.0026, -0.0021, 3.25, -16.7)" gradientUnits="userSpaceOnUse" id="gradient11" spreadMethod="pad" x1="-819.2" x2="819.2">
      <stop offset="0.0" stop-color="#9999cc"/>
      <stop offset="1.0" stop-color="#9999cc"/>
    </linearGradient>
    <linearGradient gradientTransform="matrix(-0.0043, 0.0162, -0.0155, 0.0027, 8.85, -13.65)" gradientUnits="userSpaceOnUse" id="gradient12" spreadMethod="pad" x1="-819.2" x2="819.2">
      <stop offset="0.0" stop-color="#9999cc"/>
      <stop offset="1.0" stop-color="#eeeeee"/>
    </linearGradient>
    <linearGradient gradientTransform="matrix(0.0026, 0.0026, -0.0201, 0.0074, 15.9, -5.9)" gradientUnits="userSpaceOnUse" id="gradient13" spreadMethod="pad" x1="-819.2" x2="819.2">
      <stop offset="0.0" stop-color="#9999cc"/>
      <stop offset="1.0" stop-color="#ffffff"/>
    </linearGradient>
    <linearGradient gradientTransform="matrix(-0.0057, 0.0213, -0.0163, 0.0028, 16.65, -14.55)" gradientUnits="userSpaceOnUse" id="gradient14" spreadMethod="pad" x1="-819.2" x2="819.2">
      <stop offset="0.0" stop-color="#666699"/>
      <stop offset="0.4666666666666667" stop-color="#9999cc"/>
      <stop offset="0.8627450980392157" stop-color="#ffffff"/>
    </linearGradient>
  </defs>
</svg>
