<?xml version="1.0" encoding="UTF-8" standalone="no"?>
<svg xmlns:ffdec="https://www.free-decompiler.com/flash" xmlns:xlink="http://www.w3.org/1999/xlink" ffdec:objectType="shape" height="36.15px" width="55.85px" xmlns="http://www.w3.org/2000/svg">
  <g transform="matrix(1.0, 0.0, 0.0, 1.0, 31.8, 18.05)">
    <path d="M-20.9 -2.2 L-22.35 -2.15 Q-28.75 -2.1 -30.95 -4.4 -33.15 -6.7 -29.8 -9.95 -26.55 -13.25 -19.7 -15.6 -12.85 -18.0 -6.45 -18.05 -0.05 -18.15 2.15 -15.85 4.3 -13.6 1.05 -10.3 L0.0 -9.35 -0.45 -9.9 -0.15 -10.15 Q2.9 -13.25 0.9 -15.3 -1.1 -17.4 -7.05 -17.35 -12.95 -17.25 -19.3 -15.05 -25.7 -12.85 -28.7 -9.8 -31.8 -6.75 -29.8 -4.65 -27.8 -2.6 -21.85 -2.65 L-21.15 -2.65 -20.9 -2.2" fill="url(#gradient0)" fill-rule="evenodd" stroke="none"/>
    <path d="M-11.8 -5.15 L-20.4 -4.45 Q-21.75 -4.3 -21.7 -3.7 L-21.15 -2.65 -21.85 -2.65 Q-27.8 -2.6 -29.8 -4.65 -31.8 -6.75 -28.7 -9.8 -25.7 -12.85 -19.3 -15.05 -12.95 -17.25 -7.05 -17.35 -1.1 -17.4 0.9 -15.3 2.9 -13.25 -0.15 -10.15 L-0.45 -9.9 -4.3 -14.25 -5.35 -15.4 -13.25 -15.0 -14.85 -13.3 -12.7 -8.6 Q-12.05 -6.95 -11.8 -5.15 M-12.65 -14.05 L-12.75 -14.4 -12.55 -14.15 -12.65 -14.05" fill="url(#gradient1)" fill-rule="evenodd" stroke="none"/>
    <path d="M-10.35 -5.25 L-11.8 -5.15 Q-12.05 -6.95 -12.7 -8.6 L-14.85 -13.3 -13.25 -15.0 -5.35 -15.4 -4.3 -14.25 -4.6 -14.55 -12.4 -14.25 -12.5 -14.15 -12.55 -14.15 -12.75 -14.4 -12.65 -14.05 -13.4 -13.15 -11.45 -9.25 Q-10.9 -8.0 -10.35 -5.25" fill="url(#gradient2)" fill-rule="evenodd" stroke="none"/>
    <path d="M10.7 -5.75 L10.75 -5.75 11.3 -6.1 -17.85 -3.55 Q-18.6 -3.5 -18.25 -3.1 L-18.3 -3.1 -7.7 14.25 20.5 8.55 10.7 -5.75 M2.25 -6.25 L10.5 -6.85 Q11.85 -7.0 12.5 -6.05 L23.8 9.65 Q24.6 10.9 22.9 11.2 L-7.65 17.95 Q-10.4 18.5 -10.9 17.05 -11.15 16.2 -20.9 -2.2 L-21.15 -2.65 -21.7 -3.7 Q-21.75 -4.3 -20.4 -4.45 L-11.8 -5.15 -10.35 -5.25 -10.35 -5.2 -10.25 -5.25 2.25 -6.25 M-20.75 -3.95 Q-21.25 -3.9 -21.05 -3.65 L-9.75 16.65 Q-9.0 17.4 -7.9 17.25 L21.65 10.85 Q23.1 10.55 21.7 10.15 L-7.35 16.45 -8.7 16.05 -20.05 -3.6 Q-20.25 -4.1 -20.75 -3.95" fill="url(#gradient3)" fill-rule="evenodd" stroke="none"/>
    <path d="M-18.25 -3.1 Q-18.6 -3.5 -17.85 -3.55 L11.3 -6.1 10.75 -5.75 10.7 -5.75 -18.25 -3.1" fill="url(#gradient4)" fill-rule="evenodd" stroke="none"/>
    <path d="M10.7 -5.75 L20.5 8.55 -7.7 14.25 -18.3 -3.1 -18.25 -3.1 10.7 -5.75" fill="url(#gradient5)" fill-rule="evenodd" stroke="none"/>
    <path d="M-10.25 -5.25 L-10.35 -5.2 -10.35 -5.25 Q-10.9 -8.0 -11.45 -9.25 L-13.4 -13.15 -12.65 -14.05 -12.55 -14.15 -12.5 -14.15 -12.45 -14.15 Q-9.9 -10.9 -8.3 -6.85 L-10.25 -5.25" fill="url(#gradient6)" fill-rule="evenodd" stroke="none"/>
    <path d="M0.0 -9.35 L2.25 -6.25 -10.25 -5.25 -8.3 -6.85 Q-9.9 -10.9 -12.45 -14.15 L-12.5 -14.15 -12.4 -14.25 -4.6 -14.55 -4.3 -14.25 -0.45 -9.9 0.0 -9.35" fill="url(#gradient7)" fill-rule="evenodd" stroke="none"/>
  </g>
  <defs>
    <linearGradient gradientTransform="matrix(-0.0065, -0.0067, 0.0202, -0.007, -14.4, -10.15)" gradientUnits="userSpaceOnUse" id="gradient0" spreadMethod="pad" x1="-819.2" x2="819.2">
      <stop offset="0.00784313725490196" stop-color="#ffffff"/>
      <stop offset="0.4823529411764706" stop-color="#9999cc"/>
      <stop offset="1.0" stop-color="#666699"/>
    </linearGradient>
    <radialGradient cx="0" cy="0" gradientTransform="matrix(0.0307, -0.0107, -0.0177, -0.0185, -22.0, -5.55)" gradientUnits="userSpaceOnUse" id="gradient1" r="819.2" spreadMethod="pad">
      <stop offset="0.0" stop-color="#ffffff"/>
      <stop offset="0.2823529411764706" stop-color="#dddddd"/>
      <stop offset="1.0" stop-color="#9999cc"/>
    </radialGradient>
    <linearGradient gradientTransform="matrix(-0.0024, 0.0054, -0.0107, -0.0017, -8.05, -10.5)" gradientUnits="userSpaceOnUse" id="gradient2" spreadMethod="pad" x1="-819.2" x2="819.2">
      <stop offset="0.0" stop-color="#666699"/>
      <stop offset="1.0" stop-color="#9999cc"/>
    </linearGradient>
    <linearGradient gradientTransform="matrix(0.0, 0.0176, -0.029, 0.0077, 0.45, 3.0)" gradientUnits="userSpaceOnUse" id="gradient3" spreadMethod="pad" x1="-819.2" x2="819.2">
      <stop offset="0.0" stop-color="#6666cc"/>
      <stop offset="0.32941176470588235" stop-color="#999999"/>
      <stop offset="0.8549019607843137" stop-color="#ffffff"/>
    </linearGradient>
    <linearGradient gradientTransform="matrix(-0.0182, 4.0E-4, -1.0E-4, -0.0015, -3.65, -4.75)" gradientUnits="userSpaceOnUse" id="gradient4" spreadMethod="pad" x1="-819.2" x2="819.2">
      <stop offset="0.0" stop-color="#6666cc"/>
      <stop offset="0.0784313725490196" stop-color="#9999cc"/>
      <stop offset="1.0" stop-color="#ffffff"/>
    </linearGradient>
    <linearGradient gradientTransform="matrix(-0.0045, -0.0167, 0.0118, -0.0032, 1.1, 4.25)" gradientUnits="userSpaceOnUse" id="gradient5" spreadMethod="pad" x1="-819.2" x2="819.2">
      <stop offset="0.32941176470588235" stop-color="#ffffff"/>
      <stop offset="1.0" stop-color="#66ccff"/>
    </linearGradient>
    <linearGradient gradientTransform="matrix(-0.0052, -0.0028, 0.004, -0.0026, -11.4, -9.7)" gradientUnits="userSpaceOnUse" id="gradient6" spreadMethod="pad" x1="-819.2" x2="819.2">
      <stop offset="0.0" stop-color="#9999cc"/>
      <stop offset="1.0" stop-color="#eeeeee"/>
    </linearGradient>
    <linearGradient gradientTransform="matrix(-0.0085, -0.0054, 0.0069, -0.0038, -7.6, -9.1)" gradientUnits="userSpaceOnUse" id="gradient7" spreadMethod="pad" x1="-819.2" x2="819.2">
      <stop offset="0.0" stop-color="#333399"/>
      <stop offset="0.27450980392156865" stop-color="#6666cc"/>
      <stop offset="1.0" stop-color="#999999"/>
    </linearGradient>
  </defs>
</svg>
