<?xml version="1.0" encoding="UTF-8" standalone="no"?>
<svg xmlns:ffdec="https://www.free-decompiler.com/flash" xmlns:xlink="http://www.w3.org/1999/xlink" ffdec:objectType="shape" height="28.85px" width="39.85px" xmlns="http://www.w3.org/2000/svg">
  <g transform="matrix(1.0, 0.0, 0.0, 1.0, 19.9, 14.4)">
    <path d="M-4.2 -3.2 L-5.1 -2.2 -12.75 1.2 -12.85 1.75 Q-15.3 1.7 -18.4 5.35 L-18.85 6.05 Q-18.45 2.5 -16.7 1.2 L-13.7 -1.35 -12.85 -2.15 -4.2 -3.2 M-18.95 9.95 L-18.75 10.1 -18.9 10.2 -18.95 9.95" fill="url(#gradient0)" fill-rule="evenodd" stroke="none"/>
    <path d="M-1.85 2.75 L0.1 1.9 4.05 0.1 Q6.6 -1.35 18.2 -10.9 19.55 -12.05 18.9 -13.1 L16.5 -13.2 9.2 -9.95 Q2.7 -6.9 0.3 -5.5 -2.55 -3.8 -4.65 -1.2 L-5.1 -2.2 -4.2 -3.2 Q-2.55 -4.85 -0.6 -6.0 1.75 -7.35 8.65 -10.5 L16.25 -13.85 Q18.3 -15.1 19.45 -13.55 20.55 -12.05 19.15 -10.85 6.4 -0.2 3.8 1.2 L13.4 -6.35 Q2.45 1.85 -0.75 3.25 -1.0 2.9 -1.6 2.7 L-1.85 2.75" fill="url(#gradient1)" fill-rule="evenodd" stroke="none"/>
    <path d="M-4.65 -1.2 Q-2.55 -3.8 0.3 -5.5 2.7 -6.9 9.2 -9.95 L16.5 -13.2 18.9 -13.1 Q19.55 -12.05 18.2 -10.9 6.6 -1.35 4.05 0.1 L0.1 1.9 -1.85 2.75 Q-3.4 2.75 -4.3 1.35 -5.2 -0.15 -4.65 -1.2" fill="url(#gradient2)" fill-rule="evenodd" stroke="none"/>
    <path d="M-5.45 7.85 Q-6.0 9.5 -7.55 10.35 -8.5 10.9 -9.15 14.45 -9.95 13.65 -10.8 13.45 L-13.8 12.95 -15.85 11.75 Q-16.7 11.1 -17.6 11.1 -18.1 11.1 -18.6 10.3 L-18.75 10.1 -18.95 9.95 -19.9 10.0 -19.9 9.95 Q-18.9 9.45 -18.75 8.8 L-17.5 6.55 Q-16.3 4.7 -15.4 4.15 L-13.2 3.05 -13.3 3.35 -5.45 7.85 M-16.2 7.45 Q-16.7 7.95 -16.75 9.6 L-15.6 8.15 -13.6 5.95 -16.2 7.45 M-14.35 8.2 Q-14.85 8.7 -14.95 10.35 L-13.05 8.3 -11.6 6.0 -14.35 8.2 M-11.95 8.2 Q-12.45 8.7 -13.15 11.1 L-11.4 9.0 Q-11.05 8.35 -10.0 7.45 -11.45 7.7 -11.95 8.2 M-11.05 9.85 Q-11.55 10.35 -11.65 12.0 L-10.5 10.6 -8.3 7.8 -11.05 9.85" fill="url(#gradient3)" fill-rule="evenodd" stroke="none"/>
    <path d="M-16.2 7.45 L-13.6 5.95 -15.6 8.15 -16.75 9.6 Q-16.7 7.95 -16.2 7.45" fill="url(#gradient4)" fill-rule="evenodd" stroke="none"/>
    <path d="M-14.35 8.2 L-11.6 6.0 -13.05 8.3 -14.95 10.35 Q-14.85 8.7 -14.35 8.2" fill="url(#gradient5)" fill-rule="evenodd" stroke="none"/>
    <path d="M-11.95 8.2 Q-11.45 7.7 -10.0 7.45 -11.05 8.35 -11.4 9.0 L-13.15 11.1 Q-12.45 8.7 -11.95 8.2" fill="url(#gradient6)" fill-rule="evenodd" stroke="none"/>
    <path d="M-11.05 9.85 L-8.3 7.8 -10.5 10.6 -11.65 12.0 Q-11.55 10.35 -11.05 9.85" fill="url(#gradient7)" fill-rule="evenodd" stroke="none"/>
    <path d="M-18.85 6.05 L-18.4 5.35 Q-15.3 1.7 -12.85 1.75 L-13.2 3.05 -15.4 4.15 Q-16.3 4.7 -17.5 6.55 L-18.75 8.8 Q-18.9 9.45 -19.9 9.95 L-19.85 9.5 Q-19.65 7.4 -18.85 6.05" fill="url(#gradient8)" fill-rule="evenodd" stroke="none"/>
    <path d="M-1.85 2.75 L-1.6 2.7 Q-1.0 2.9 -0.75 3.25 L-0.75 3.3 -5.15 8.05 -5.45 7.85 -13.3 3.35 -13.2 3.05 -12.85 1.75 -12.75 1.2 -5.1 -2.2 -4.65 -1.2 Q-5.2 -0.15 -4.3 1.35 -3.4 2.75 -1.85 2.75 M-12.15 2.85 L-5.3 6.95 -2.15 3.65 Q-3.05 3.5 -4.1 2.7 -5.45 1.7 -5.95 -0.5 L-11.9 1.85 -12.0 2.35 -12.05 2.35 -12.15 2.85" fill="url(#gradient9)" fill-rule="evenodd" stroke="none"/>
    <path d="M-6.0 6.1 L-5.65 6.3 -3.45 4.0 Q-4.15 3.5 -4.8 3.3 L-6.8 1.7 Q-7.4 1.35 -11.3 2.95 L-10.35 3.5 -10.4 3.5 -10.05 3.7 -9.4 4.1 -6.0 6.15 -6.0 6.1 M-12.0 2.35 L-11.9 1.85 -5.95 -0.5 Q-5.45 1.7 -4.1 2.7 -3.05 3.5 -2.15 3.65 L-5.3 6.95 -12.15 2.85 Q-7.55 0.95 -5.8 1.25 -5.9 0.1 -6.95 0.45 L-12.0 2.35" fill="url(#gradient10)" fill-rule="evenodd" stroke="none"/>
    <path d="M-10.35 3.5 L-11.3 2.95 Q-7.4 1.35 -6.8 1.7 L-4.8 3.3 Q-4.15 3.5 -3.45 4.0 L-5.65 6.3 -6.0 6.1 Q-5.8 4.75 -6.8 4.1 -7.55 3.6 -8.75 3.5 L-9.35 3.3 -9.95 3.5 -10.35 3.5" fill="url(#gradient11)" fill-rule="evenodd" stroke="none"/>
    <path d="M-6.0 6.1 L-6.0 6.15 -9.4 4.1 -9.35 4.1 Q-8.7 4.1 -8.7 3.7 L-8.75 3.5 Q-7.55 3.6 -6.8 4.1 -5.8 4.75 -6.0 6.1 M-10.05 3.7 L-10.4 3.5 -10.35 3.5 -9.95 3.5 -10.05 3.7" fill="url(#gradient12)" fill-rule="evenodd" stroke="none"/>
    <path d="M-9.4 4.1 L-10.05 3.7 -9.95 3.5 -9.35 3.3 -8.75 3.5 -8.7 3.7 Q-8.7 4.1 -9.35 4.1 L-9.4 4.1 M-12.15 2.85 L-12.05 2.35 -12.0 2.35 -6.95 0.45 Q-5.9 0.1 -5.8 1.25 -7.55 0.95 -12.15 2.85" fill="#ffffff" fill-rule="evenodd" stroke="none"/>
  </g>
  <defs>
    <linearGradient gradientTransform="matrix(-0.0043, -0.0034, 0.0078, -0.0099, -10.0, 0.9)" gradientUnits="userSpaceOnUse" id="gradient0" spreadMethod="pad" x1="-819.2" x2="819.2">
      <stop offset="0.0" stop-color="#0066cc"/>
      <stop offset="0.7137254901960784" stop-color="#0099ff"/>
      <stop offset="1.0" stop-color="#0099ff"/>
    </linearGradient>
    <linearGradient gradientTransform="matrix(-0.0047, -0.0047, 0.0126, -0.0126, 7.25, -4.55)" gradientUnits="userSpaceOnUse" id="gradient1" spreadMethod="pad" x1="-819.2" x2="819.2">
      <stop offset="0.0" stop-color="#006600"/>
      <stop offset="1.0" stop-color="#333333"/>
    </linearGradient>
    <linearGradient gradientTransform="matrix(-0.004, -0.004, 0.0119, -0.0119, 7.25, -4.85)" gradientUnits="userSpaceOnUse" id="gradient2" spreadMethod="pad" x1="-819.2" x2="819.2">
      <stop offset="0.0" stop-color="#006600"/>
      <stop offset="1.0" stop-color="#66cc33"/>
    </linearGradient>
    <linearGradient gradientTransform="matrix(-0.0031, 0.0058, -0.0068, -0.0036, -12.8, 8.15)" gradientUnits="userSpaceOnUse" id="gradient3" spreadMethod="pad" x1="-819.2" x2="819.2">
      <stop offset="0.0" stop-color="#660000"/>
      <stop offset="0.16862745098039217" stop-color="#660000"/>
      <stop offset="0.3058823529411765" stop-color="#996600"/>
      <stop offset="0.615686274509804" stop-color="#ffcc66"/>
      <stop offset="1.0" stop-color="#996600"/>
    </linearGradient>
    <linearGradient gradientTransform="matrix(-0.0019, 0.0023, -5.0E-4, -4.0E-4, -15.2, 8.2)" gradientUnits="userSpaceOnUse" id="gradient4" spreadMethod="pad" x1="-819.2" x2="819.2">
      <stop offset="0.0" stop-color="#ffcc66"/>
      <stop offset="0.32941176470588235" stop-color="#ffcc66"/>
      <stop offset="0.44313725490196076" stop-color="#ffff99"/>
      <stop offset="0.7215686274509804" stop-color="#ffcc66"/>
      <stop offset="1.0" stop-color="#ffcc66"/>
    </linearGradient>
    <linearGradient gradientTransform="matrix(-0.0021, 0.0025, -5.0E-4, -4.0E-4, -13.3, 8.45)" gradientUnits="userSpaceOnUse" id="gradient5" spreadMethod="pad" x1="-819.2" x2="819.2">
      <stop offset="0.0" stop-color="#ffcc66"/>
      <stop offset="0.32941176470588235" stop-color="#ffcc66"/>
      <stop offset="0.44313725490196076" stop-color="#ffff99"/>
      <stop offset="0.7215686274509804" stop-color="#ffcc66"/>
      <stop offset="1.0" stop-color="#ffcc66"/>
    </linearGradient>
    <linearGradient gradientTransform="matrix(-0.0019, 0.0022, -5.0E-4, -4.0E-4, -11.55, 9.7)" gradientUnits="userSpaceOnUse" id="gradient6" spreadMethod="pad" x1="-819.2" x2="819.2">
      <stop offset="0.0" stop-color="#ffcc66"/>
      <stop offset="0.32941176470588235" stop-color="#ffcc66"/>
      <stop offset="0.44313725490196076" stop-color="#ffff99"/>
      <stop offset="0.7215686274509804" stop-color="#ffcc66"/>
      <stop offset="1.0" stop-color="#ffcc66"/>
    </linearGradient>
    <linearGradient gradientTransform="matrix(-0.0021, 0.0025, -4.0E-4, -4.0E-4, -10.0, 10.25)" gradientUnits="userSpaceOnUse" id="gradient7" spreadMethod="pad" x1="-819.2" x2="819.2">
      <stop offset="0.0" stop-color="#ffcc66"/>
      <stop offset="0.32941176470588235" stop-color="#ffcc66"/>
      <stop offset="0.44313725490196076" stop-color="#ffff99"/>
      <stop offset="0.7215686274509804" stop-color="#ffcc66"/>
      <stop offset="1.0" stop-color="#ffcc66"/>
    </linearGradient>
    <linearGradient gradientTransform="matrix(0.0, 0.005, -0.0049, 0.0, -15.85, 5.8)" gradientUnits="userSpaceOnUse" id="gradient8" spreadMethod="pad" x1="-819.2" x2="819.2">
      <stop offset="0.0" stop-color="#660000"/>
      <stop offset="0.4588235294117647" stop-color="#996600"/>
      <stop offset="0.8392156862745098" stop-color="#ffcc66"/>
      <stop offset="1.0" stop-color="#996600"/>
    </linearGradient>
    <linearGradient gradientTransform="matrix(-0.0042, 0.0042, -0.0044, -0.0044, -7.2, 3.05)" gradientUnits="userSpaceOnUse" id="gradient9" spreadMethod="pad" x1="-819.2" x2="819.2">
      <stop offset="0.0" stop-color="#333333"/>
      <stop offset="1.0" stop-color="#0066cc"/>
    </linearGradient>
    <linearGradient gradientTransform="matrix(-0.0061, 0.0, 0.0, -0.0045, -7.15, 3.2)" gradientUnits="userSpaceOnUse" id="gradient10" spreadMethod="pad" x1="-819.2" x2="819.2">
      <stop offset="0.0" stop-color="#99ccff"/>
      <stop offset="1.0" stop-color="#ffffff"/>
    </linearGradient>
    <linearGradient gradientTransform="matrix(-0.0034, 0.0019, -0.0017, -0.003, -7.65, 3.95)" gradientUnits="userSpaceOnUse" id="gradient11" spreadMethod="pad" x1="-819.2" x2="819.2">
      <stop offset="0.0" stop-color="#0066cc"/>
      <stop offset="0.6078431372549019" stop-color="#99ccff"/>
      <stop offset="1.0" stop-color="#99ccff"/>
    </linearGradient>
    <linearGradient gradientTransform="matrix(0.0027, 0.0, 0.0, 0.0016, -8.2, 4.8)" gradientUnits="userSpaceOnUse" id="gradient12" spreadMethod="pad" x1="-819.2" x2="819.2">
      <stop offset="0.0" stop-color="#99ccff"/>
      <stop offset="1.0" stop-color="#ccffff"/>
    </linearGradient>
  </defs>
</svg>
