<?xml version="1.0" encoding="UTF-8" standalone="no"?>
<svg xmlns:ffdec="https://www.free-decompiler.com/flash" xmlns:xlink="http://www.w3.org/1999/xlink" ffdec:objectType="shape" height="23.6px" width="51.25px" xmlns="http://www.w3.org/2000/svg">
  <g transform="matrix(1.0, 0.0, 0.0, 1.0, 30.05, 18.0)">
    <path d="M21.15 -9.95 L21.2 -8.9 Q20.3 -12.15 13.9 -14.15 7.45 -16.1 -0.75 -15.75 -9.85 -15.3 -17.25 -12.15 -25.75 -8.4 -29.85 -1.75 L-29.9 -2.65 Q-31.0 -7.0 -23.85 -11.45 -16.55 -15.85 -5.6 -17.35 5.3 -18.9 13.2 -16.7 21.0 -14.45 21.15 -9.95" fill="url(#gradient0)" fill-rule="evenodd" stroke="none"/>
    <path d="M18.95 -9.45 Q17.85 -12.55 11.75 -14.0 4.6 -15.75 -5.6 -14.3 -15.7 -12.85 -22.15 -9.2 -28.55 -5.5 -27.65 -1.55 -26.9 1.4 -22.15 3.2 -18.4 4.65 -13.35 4.95 L-13.65 5.6 Q-19.3 5.35 -23.45 3.9 -28.9 2.0 -29.7 -1.3 -30.75 -5.6 -23.75 -9.85 -16.7 -14.1 -5.7 -15.7 5.25 -17.25 13.25 -15.1 20.25 -13.2 21.15 -9.45 L18.95 -9.45" fill="url(#gradient1)" fill-rule="evenodd" stroke="none"/>
  </g>
  <defs>
    <linearGradient gradientTransform="matrix(0.0312, -0.0044, 0.001, 0.0073, -7.05, -10.75)" gradientUnits="userSpaceOnUse" id="gradient0" spreadMethod="pad" x1="-819.2" x2="819.2">
      <stop offset="0.0" stop-color="#003399"/>
      <stop offset="0.5215686274509804" stop-color="#ffffff"/>
      <stop offset="0.792156862745098" stop-color="#99ccff"/>
      <stop offset="1.0" stop-color="#9999ff"/>
    </linearGradient>
    <linearGradient gradientTransform="matrix(-0.0144, 0.0192, -0.0192, -0.0144, -4.25, -5.35)" gradientUnits="userSpaceOnUse" id="gradient1" spreadMethod="pad" x1="-819.2" x2="819.2">
      <stop offset="0.0" stop-color="#003399"/>
      <stop offset="0.3176470588235294" stop-color="#ff3300"/>
      <stop offset="1.0" stop-color="#99ccff"/>
    </linearGradient>
  </defs>
</svg>
