<?xml version="1.0" encoding="UTF-8" standalone="no"?>
<svg xmlns:ffdec="https://www.free-decompiler.com/flash" xmlns:xlink="http://www.w3.org/1999/xlink" ffdec:objectType="shape" height="19.55px" width="23.85px" xmlns="http://www.w3.org/2000/svg">
  <g transform="matrix(1.0, 0.0, 0.0, 1.0, 4.55, -18.45)">
    <path d="M-3.9 31.75 L-4.55 24.5 17.75 22.75 19.3 29.3 Q18.8 37.0 8.8 37.9 -1.75 38.8 -3.9 31.75" fill="url(#gradient0)" fill-rule="evenodd" stroke="none"/>
    <path d="M-3.55 25.15 L16.9 23.4 18.15 29.55 Q2.65 33.55 -2.95 31.35 L-3.55 25.15" fill="url(#gradient1)" fill-rule="evenodd" stroke="none"/>
    <path d="M18.2 29.4 Q17.9 36.3 8.4 37.1 -0.95 38.0 -3.0 31.35 L18.2 29.4" fill="url(#gradient2)" fill-rule="evenodd" stroke="none"/>
    <path d="M1.5 19.45 L2.7 24.7 3.25 29.55 0.05 29.8 -1.65 24.75 -2.1 19.75 1.5 19.45" fill="#333333" fill-rule="evenodd" stroke="none"/>
    <path d="M1.55 24.55 L2.65 29.6 0.85 29.75 -0.75 24.7 1.55 24.55" fill="url(#gradient3)" fill-rule="evenodd" stroke="none"/>
    <path d="M1.45 24.65 L-1.05 24.85 -1.5 20.3 0.9 20.1 1.45 24.65" fill="url(#gradient4)" fill-rule="evenodd" stroke="none"/>
    <path d="M10.15 18.85 L13.75 18.45 14.65 23.4 14.5 28.7 11.25 28.95 10.15 18.85" fill="#333333" fill-rule="evenodd" stroke="none"/>
    <path d="M11.95 23.7 L14.35 23.5 14.1 28.7 12.3 28.9 11.95 23.7" fill="url(#gradient5)" fill-rule="evenodd" stroke="none"/>
    <path d="M13.3 19.1 L14.15 23.6 11.7 23.85 10.95 19.3 13.3 19.1" fill="url(#gradient6)" fill-rule="evenodd" stroke="none"/>
    <path d="M13.5 32.65 L1.7 33.65 Q0.65 33.75 1.35 32.6 L13.7 31.55 Q14.5 32.55 13.5 32.65" fill="url(#gradient7)" fill-rule="evenodd" stroke="none"/>
    <path d="M12.75 34.85 L3.25 35.65 Q2.25 35.75 2.95 34.65 L12.95 33.8 Q14.0 34.55 12.75 34.85" fill="url(#gradient8)" fill-rule="evenodd" stroke="none"/>
    <path d="M0.55 33.05 Q0.65 32.45 1.35 32.6 2.05 32.7 1.95 33.3 1.85 33.9 1.15 33.8 0.45 33.65 0.55 33.05" fill="#ffffff" fill-rule="evenodd" stroke="none"/>
    <path d="M2.3 35.1 Q2.4 34.5 3.1 34.6 3.8 34.75 3.7 35.35 3.6 35.95 2.9 35.8 2.2 35.7 2.3 35.1" fill="#ffffff" fill-rule="evenodd" stroke="none"/>
    <path d="M3.3 29.45 L2.7 24.35 5.25 24.3 3.3 29.45" fill="#666699" fill-rule="evenodd" stroke="none"/>
    <path d="M14.7 23.5 L16.9 23.25 14.4 28.6 14.7 23.5" fill="#666699" fill-rule="evenodd" stroke="none"/>
    <path d="M14.0 32.25 L13.6 32.95 1.45 33.95 1.3 33.3 14.0 32.25" fill="url(#gradient9)" fill-rule="evenodd" stroke="none"/>
    <path d="M13.4 34.3 L13.15 34.9 3.25 35.7 3.1 35.05 13.4 34.3" fill="url(#gradient10)" fill-rule="evenodd" stroke="none"/>
  </g>
  <defs>
    <linearGradient gradientTransform="matrix(0.0018, 0.009, -0.0099, 0.0014, 7.65, 30.4)" gradientUnits="userSpaceOnUse" id="gradient0" spreadMethod="pad" x1="-819.2" x2="819.2">
      <stop offset="0.0" stop-color="#333366"/>
      <stop offset="1.0" stop-color="#ffffff"/>
    </linearGradient>
    <linearGradient gradientTransform="matrix(-0.0013, 0.0069, -0.0133, -0.0024, 7.25, 27.5)" gradientUnits="userSpaceOnUse" id="gradient1" spreadMethod="pad" x1="-819.2" x2="819.2">
      <stop offset="0.0" stop-color="#9999ff"/>
      <stop offset="1.0" stop-color="#666699"/>
    </linearGradient>
    <linearGradient gradientTransform="matrix(0.0096, -0.0059, 0.0047, 0.0061, 8.7, 32.65)" gradientUnits="userSpaceOnUse" id="gradient2" spreadMethod="pad" x1="-819.2" x2="819.2">
      <stop offset="0.0" stop-color="#9999cc"/>
      <stop offset="1.0" stop-color="#9999cc"/>
    </linearGradient>
    <linearGradient gradientTransform="matrix(-2.0E-4, 0.0032, -0.0023, -2.0E-4, 1.0, 27.0)" gradientUnits="userSpaceOnUse" id="gradient3" spreadMethod="pad" x1="-819.2" x2="819.2">
      <stop offset="0.6470588235294118" stop-color="#ffcc66"/>
      <stop offset="1.0" stop-color="#9999ff"/>
    </linearGradient>
    <linearGradient gradientTransform="matrix(-6.0E-4, 0.003, -0.0022, -4.0E-4, -0.05, 22.4)" gradientUnits="userSpaceOnUse" id="gradient4" spreadMethod="pad" x1="-819.2" x2="819.2">
      <stop offset="0.0" stop-color="#ffff99"/>
      <stop offset="0.4470588235294118" stop-color="#ffcc66"/>
      <stop offset="1.0" stop-color="#996600"/>
    </linearGradient>
    <linearGradient gradientTransform="matrix(-2.0E-4, 0.0034, -0.0015, -1.0E-4, 13.05, 26.15)" gradientUnits="userSpaceOnUse" id="gradient5" spreadMethod="pad" x1="-819.2" x2="819.2">
      <stop offset="0.7137254901960784" stop-color="#ffcc66"/>
      <stop offset="1.0" stop-color="#9999ff"/>
    </linearGradient>
    <linearGradient gradientTransform="matrix(0.0014, 0.0028, -0.002, 8.0E-4, 12.45, 21.5)" gradientUnits="userSpaceOnUse" id="gradient6" spreadMethod="pad" x1="-819.2" x2="819.2">
      <stop offset="0.0" stop-color="#ffff99"/>
      <stop offset="0.4470588235294118" stop-color="#ffcc66"/>
      <stop offset="1.0" stop-color="#996600"/>
    </linearGradient>
    <linearGradient gradientTransform="matrix(0.0058, -0.0036, 0.0024, 0.0032, 7.55, 32.5)" gradientUnits="userSpaceOnUse" id="gradient7" spreadMethod="pad" x1="-819.2" x2="819.2">
      <stop offset="0.0" stop-color="#9999cc"/>
      <stop offset="0.23529411764705882" stop-color="#9999cc"/>
      <stop offset="1.0" stop-color="#6666cc"/>
    </linearGradient>
    <linearGradient gradientTransform="matrix(0.0048, -0.003, 0.002, 0.0027, 7.95, 34.6)" gradientUnits="userSpaceOnUse" id="gradient8" spreadMethod="pad" x1="-819.2" x2="819.2">
      <stop offset="0.0" stop-color="#9999cc"/>
      <stop offset="0.23529411764705882" stop-color="#9999cc"/>
      <stop offset="1.0" stop-color="#6666cc"/>
    </linearGradient>
    <linearGradient gradientTransform="matrix(0.0074, 0.0014, -4.0E-4, 0.0023, 7.6, 33.05)" gradientUnits="userSpaceOnUse" id="gradient9" spreadMethod="pad" x1="-819.2" x2="819.2">
      <stop offset="0.0" stop-color="#ffffff"/>
      <stop offset="1.0" stop-color="#ccccff"/>
    </linearGradient>
    <linearGradient gradientTransform="matrix(0.006, 0.0011, -4.0E-4, 0.002, 8.2, 34.95)" gradientUnits="userSpaceOnUse" id="gradient10" spreadMethod="pad" x1="-819.2" x2="819.2">
      <stop offset="0.0" stop-color="#ffffff"/>
      <stop offset="1.0" stop-color="#ccccff"/>
    </linearGradient>
  </defs>
</svg>
