<svg xmlns="http://www.w3.org/2000/svg" viewBox="-22.6500 -20.0500 45.3000 40.1000" width="45.30" height="40.10">
<path d="M14.2000,-9.8000 Q11.2500,-10.7000 7.0000,-9.1500 L7.0000,6.1000 Q7.0000,8.2000 5.5000,9.7000 Q4.5500,10.6500 3.4500,11.0000 L3.1000,11.0500 L1.9000,11.2000 L0.7000,11.0500 Q-0.6500,10.7500 -1.7000,9.7000 L-2.2500,9.0000 Q-3.2000,7.8000 -3.2000,6.1000 Q-3.2000,4.4000 -2.2500,3.1500 L-1.7000,2.5000 Q-0.2000,1.0000 1.9000,1.0000 L3.4500,1.2000 Q4.6000,1.6000 5.5000,2.5000 L5.7000,2.7000 L5.7000,-14.6000 Q11.1500,-15.9500 14.5000,-13.2000 Q17.8500,-10.5000 17.6500,-5.2500 Q17.1500,-8.9000 14.2000,-9.8000" fill="#ffffff" fill-rule="evenodd" stroke="none"/>
<path d="M-0.2500,-5.9500 Q-3.2000,-6.8500 -7.4500,-5.3000 L-7.4500,9.9500 Q-7.4500,12.0500 -8.9500,13.5500 Q-9.9000,14.5000 -11.0000,14.8500 L-11.3500,14.9000 L-12.5500,15.0500 L-13.7500,14.9000 Q-15.1000,14.6000 -16.1500,13.5500 L-16.7000,12.8500 Q-17.6500,11.6500 -17.6500,9.9500 Q-17.6500,8.2500 -16.7000,7.0000 L-16.1500,6.3500 Q-14.6500,4.8500 -12.5500,4.8500 L-11.0000,5.0500 Q-9.8500,5.4500 -8.9500,6.3500 L-8.7500,6.5500 L-8.7500,-10.7500 Q-3.3000,-12.1000 0.0500,-9.3500 Q3.4000,-6.6500 3.2000,-1.4000 Q2.7000,-5.0500 -0.2500,-5.9500" fill="#ffffff" fill-rule="evenodd" stroke="none"/>
</svg>
