<?xml version="1.0" encoding="UTF-8" standalone="no"?>
<svg xmlns:ffdec="https://www.free-decompiler.com/flash" xmlns:xlink="http://www.w3.org/1999/xlink" ffdec:objectType="shape" height="66.1px" width="131.35px" xmlns="http://www.w3.org/2000/svg">
  <g transform="matrix(1.0, 0.0, 0.0, 1.0, 0.05, 0.0)">
    <path d="M91.0 8.65 L90.9 8.55 90.05 7.4 89.25 7.3 89.1 7.2 16.9 1.55 15.85 0.0 89.05 5.9 90.45 7.85 91.0 8.65 M17.5 2.5 L18.95 3.75 29.75 20.35 29.1 20.25 17.5 2.5 M119.95 48.8 L116.7 44.25 116.7 44.2 119.8 48.5 119.95 48.8" fill="#cc9900" fill-rule="evenodd" stroke="none"/>
    <path d="M117.15 36.75 L115.7 36.75 115.5 36.65 116.65 32.9 118.35 32.85 117.7 35.05 117.15 36.75 M110.15 36.65 L109.85 36.65 76.65 19.05 72.55 31.5 71.05 31.45 75.6 18.35 110.15 36.65 M70.4 33.35 L72.2 33.45 71.05 36.8 69.8 35.1 70.4 33.35 M114.95 38.5 L116.6 38.5 108.7 64.35 80.3 49.55 79.0 47.75 107.5 62.65 114.95 38.5 M118.1 32.7 L118.15 32.7 118.4 32.65 118.35 32.8 118.1 32.7" fill="#ffffff" fill-rule="evenodd" stroke="none"/>
    <path d="M115.7 36.75 L113.05 36.7 74.9 16.4 69.95 31.45 68.3 31.4 67.8 31.2 73.85 14.6 74.9 15.15 115.5 36.65 115.7 36.75 M109.85 36.65 L88.2 36.25 78.05 31.7 72.55 31.5 76.65 19.05 109.85 36.65 M77.9 33.65 L78.6 33.7 81.45 35.0 77.9 33.65" fill="#99ccff" fill-rule="evenodd" stroke="none"/>
    <path d="M52.75 35.1 Q51.65 34.45 50.6 34.45 49.6 34.5 49.35 35.15 49.05 35.8 49.7 36.7 L51.6 38.25 Q52.75 38.85 53.75 38.8 54.7 38.8 54.95 38.15 55.2 37.45 54.55 36.6 53.9 35.7 52.75 35.1 M56.8 32.75 L58.05 33.75 Q59.5 35.0 60.6 36.55 62.3 38.8 62.35 40.7 L62.35 41.15 62.1 42.15 Q61.2 44.45 57.6 44.55 53.95 44.65 49.75 42.45 45.5 40.2 43.1 36.95 40.8 33.7 41.7 31.35 42.65 29.0 46.3 28.9 L48.0 29.0 49.55 29.3 Q51.75 29.85 54.15 31.1 55.55 31.85 56.8 32.75 M55.95 33.55 L53.75 32.2 Q51.8 31.2 50.05 30.8 L47.6 30.55 Q44.65 30.55 43.9 32.45 43.15 34.3 45.0 36.9 46.85 39.45 50.25 41.25 53.65 43.05 56.55 42.95 59.4 42.85 60.15 41.05 60.85 39.1 59.0 36.55 57.75 34.85 55.95 33.55 M53.3 33.75 Q55.55 34.9 56.8 36.65 58.0 38.3 57.6 39.55 57.05 40.8 55.15 40.85 53.25 40.9 51.05 39.75 48.75 38.5 47.55 36.8 46.3 35.1 46.85 33.85 47.25 32.6 49.2 32.55 51.1 32.55 53.3 33.75 M20.35 53.85 L20.35 53.8 19.85 52.8 27.65 49.3 11.3 26.95 4.65 31.45 4.5 31.55 4.05 30.65 3.9 30.3 11.3 25.15 29.65 49.8 20.35 53.85 M9.45 31.8 L22.1 49.35 21.0 49.8 8.5 32.4 9.45 31.8 M26.05 34.15 Q25.45 33.3 26.4 33.2 27.35 33.1 27.95 33.95 28.55 34.8 27.65 34.95 26.65 35.0 26.05 34.15 M77.85 52.6 L66.75 52.1 65.05 49.75 76.15 50.25 77.85 52.6 M60.1 50.4 L61.55 52.45 54.9 52.2 53.65 50.15 60.1 50.4" fill="#cccccc" fill-rule="evenodd" stroke="none"/>
    <path d="M23.3 28.95 Q24.25 28.8 24.9 29.7 25.45 30.55 24.5 30.65 23.55 30.75 22.95 29.9 22.3 29.0 23.3 28.95" fill="#999999" fill-rule="evenodd" stroke="none"/>
    <path d="M21.8 25.45 Q22.4 26.35 21.5 26.45 20.55 26.55 19.9 25.65 19.3 24.8 20.3 24.75 21.2 24.65 21.8 25.45" fill="#666666" fill-rule="evenodd" stroke="none"/>
    <path d="M127.7 36.95 Q128.9 38.6 127.85 38.75 L118.4 38.55 116.6 38.5 114.95 38.5 113.25 38.45 111.5 38.45 87.95 38.0 81.45 35.0 78.6 33.7 77.9 33.65 72.2 33.45 70.4 33.35 68.65 33.3 68.45 33.3 67.05 31.35 67.45 31.35 68.3 31.4 69.95 31.45 71.05 31.45 72.55 31.5 78.05 31.7 88.2 36.25 109.85 36.65 110.15 36.65 113.05 36.7 115.7 36.75 117.15 36.75 118.95 36.8 127.7 36.95 M41.15 21.95 L18.8 2.6 21.85 2.85 44.35 22.45 41.15 21.95" fill="url(#gradient0)" fill-rule="evenodd" stroke="none"/>
    <path d="M118.4 38.55 L127.85 38.75 Q128.9 38.6 127.7 36.95 L90.95 9.8 98.8 21.3 97.75 20.75 73.85 7.95 66.1 30.05 64.85 28.35 Q61.95 24.95 58.75 24.55 L44.35 22.45 21.85 2.85 18.8 2.6 41.15 21.95 39.65 21.75 24.35 8.45 18.95 3.75 17.5 2.5 16.35 1.5 16.9 1.55 89.1 7.2 89.25 7.3 90.9 8.55 91.0 8.65 128.75 36.85 Q130.5 37.95 130.25 38.7 130.1 39.35 128.95 39.6 L128.6 39.65 118.15 39.45 118.4 38.55 M89.9 9.9 L97.75 20.75 89.9 9.9" fill="url(#gradient1)" fill-rule="evenodd" stroke="none"/>
    <path d="M90.9 8.55 L89.25 7.3 90.05 7.4 90.9 8.55 M24.35 8.45 L39.65 21.75 32.3 20.7 24.35 8.45 M119.95 48.8 L120.2 49.15 120.5 49.9 Q120.55 50.9 118.2 51.15 L114.6 51.15 114.85 50.25 115.6 50.25 Q117.65 50.05 117.05 49.2 L115.2 49.15 116.7 44.25 119.95 48.8 M83.3 52.1 Q83.1 52.7 83.05 53.6 L82.85 53.0 81.55 51.2 83.3 52.1 M83.0 55.15 Q82.85 58.6 81.8 58.65 L73.9 58.7 77.35 57.65 79.6 57.6 79.75 56.9 81.55 56.45 Q82.65 55.95 83.0 55.15" fill="url(#gradient2)" fill-rule="evenodd" stroke="none"/>
    <path d="M118.95 36.8 L117.15 36.75 117.7 35.05 118.4 32.85 118.35 32.8 118.4 32.65 118.15 32.7 117.55 32.4 75.1 9.5 75.05 9.65 74.7 10.65 67.45 31.35 67.05 31.35 66.1 30.05 73.85 7.95 97.75 20.75 98.8 21.3 120.2 32.75 118.95 36.8 M116.6 38.5 L118.4 38.55 118.15 39.45 116.7 44.2 116.7 44.25 115.2 49.15 114.85 50.25 114.6 51.15 110.05 66.1 83.3 52.1 81.55 51.2 80.3 49.55 108.7 64.35 116.6 38.5" fill="url(#gradient3)" fill-rule="evenodd" stroke="none"/>
    <path d="M127.7 36.95 L118.95 36.8 120.2 32.75 98.8 21.3 90.95 9.8 127.7 36.95" fill="url(#gradient4)" fill-rule="evenodd" stroke="none"/>
    <path d="M72.2 33.45 L77.9 33.65 81.45 35.0 87.95 38.0 111.5 38.45 105.05 59.2 76.45 44.2 71.05 36.85 72.2 33.45" fill="url(#gradient5)" fill-rule="evenodd" stroke="none"/>
    <path d="M118.1 32.7 L118.35 32.8 118.4 32.85 118.35 32.85 116.65 32.9 Q96.45 22.15 76.25 11.35 L75.1 9.5 117.55 32.4 118.1 32.7" fill="url(#gradient6)" fill-rule="evenodd" stroke="none"/>
    <path d="M113.05 36.7 L110.15 36.65 75.6 18.35 71.05 31.45 69.95 31.45 74.9 16.4 113.05 36.7 M68.65 33.3 L70.4 33.35 69.8 35.1 68.6 33.45 68.65 33.3 M113.25 38.45 L114.95 38.5 107.5 62.65 79.0 47.75 77.7 45.95 106.3 60.85 113.25 38.45 M118.15 32.7 L118.1 32.7 117.55 32.4 118.15 32.7 M118.35 32.85 L118.4 32.85 117.7 35.05 118.35 32.85 M116.65 32.9 L115.5 36.65 74.9 15.15 76.25 11.35 Q96.45 22.15 116.65 32.9 M75.05 9.65 L74.7 10.65 75.05 9.65 M71.05 36.8 L72.2 33.45 71.05 36.85 71.05 36.8" fill="url(#gradient7)" fill-rule="evenodd" stroke="none"/>
    <path d="M111.5 38.45 L113.25 38.45 106.3 60.85 77.7 45.95 76.45 44.2 105.05 59.2 111.5 38.45" fill="url(#gradient8)" fill-rule="evenodd" stroke="none"/>
    <path d="M18.95 3.75 L24.35 8.45 32.3 20.7 29.75 20.35 18.95 3.75 M115.2 49.15 L117.05 49.2 Q117.65 50.05 115.6 50.25 L114.85 50.25 115.2 49.15 M79.75 56.9 L79.6 57.6 77.35 57.65 79.75 56.9" fill="url(#gradient9)" fill-rule="evenodd" stroke="none"/>
    <path d="M67.05 31.35 L68.45 33.3 68.6 33.45 69.8 35.1 71.05 36.8 71.05 36.85 76.45 44.2 77.7 45.95 79.0 47.75 80.3 49.55 81.55 51.2 82.85 53.0 83.05 53.6 Q83.2 54.45 83.0 55.15 82.65 55.95 81.55 56.45 L79.75 56.9 77.35 57.65 73.9 58.7 69.95 60.0 28.25 58.55 Q22.05 58.3 18.25 53.0 L1.15 28.75 Q-0.95 25.45 0.7 24.4 L6.95 19.05 Q9.5 17.65 13.5 18.2 L29.1 20.25 29.75 20.35 32.3 20.7 39.65 21.75 41.15 21.95 44.35 22.45 58.75 24.55 Q61.95 24.95 64.85 28.35 L66.1 30.05 67.05 31.35 M65.7 31.3 L65.65 31.3 63.85 28.75 Q61.5 25.9 58.75 25.5 L18.15 19.9 Q23.1 20.7 26.05 24.6 L40.7 44.3 Q42.75 47.75 35.75 49.6 37.9 52.25 41.75 52.65 L53.1 53.3 53.2 53.3 53.6 53.3 56.7 53.5 77.6 54.7 79.7 54.8 80.15 54.85 Q82.45 54.85 81.2 52.8 L70.6 38.15 70.6 38.1 65.7 31.3 M33.45 48.9 Q41.2 47.55 39.2 44.1 L25.45 25.75 Q22.4 20.1 11.65 19.15 L11.65 19.2 Q10.0 18.75 8.35 19.8 7.25 20.45 2.15 25.2 0.55 26.05 2.25 28.1 L4.05 30.65 4.5 31.55 4.65 31.45 20.25 53.7 20.35 53.8 20.35 53.85 Q23.35 57.6 27.4 57.75 29.45 56.8 39.4 53.05 35.4 51.6 33.95 49.55 L33.45 48.9" fill="url(#gradient10)" fill-rule="evenodd" stroke="none"/>
    <path d="M68.3 31.4 L67.45 31.35 74.7 10.65 75.05 9.65 75.1 9.5 76.25 11.35 74.9 15.15 73.85 14.6 67.8 31.2 68.3 31.4 M68.45 33.3 L68.65 33.3 68.6 33.45 68.45 33.3" fill="url(#gradient11)" fill-rule="evenodd" stroke="none"/>
    <path d="M43.6 24.1 L46.85 24.65 Q50.45 25.5 54.35 27.55 57.4 29.2 59.9 31.15 L62.05 33.0 62.9 33.9 64.2 35.45 64.9 36.35 65.45 37.15 66.6 39.15 Q67.25 40.5 67.5 41.75 L67.65 42.95 67.6 43.9 67.25 45.4 Q65.8 49.2 60.05 49.4 55.0 49.5 49.25 46.9 L47.3 45.9 45.85 45.15 45.0 44.65 Q39.7 41.4 36.55 37.0 32.8 31.8 34.2 28.05 L34.25 27.9 34.4 27.5 Q34.9 26.55 35.65 25.9 37.65 24.1 41.7 24.05 L42.3 24.05 43.6 24.1 M51.45 28.65 Q49.45 27.9 47.6 27.6 L46.2 27.45 45.15 27.45 Q40.75 27.5 39.65 30.35 L39.35 31.6 Q39.1 34.0 41.35 37.1 43.1 39.6 45.8 41.6 L49.3 43.8 Q54.45 46.45 58.85 46.3 63.2 46.15 64.25 43.35 L64.5 42.3 64.5 41.3 64.5 41.05 64.35 40.3 Q64.05 39.15 63.35 37.9 L62.5 36.6 59.95 33.8 58.9 32.9 55.65 30.65 54.6 30.05 Q52.95 29.2 51.45 28.65" fill="url(#gradient12)" fill-rule="evenodd" stroke="none"/>
    <path d="M43.6 24.1 L42.3 24.05 41.7 24.05 Q37.65 24.1 35.65 25.9 34.9 26.55 34.4 27.5 L34.25 27.9 34.2 28.05 Q32.8 31.8 36.55 37.0 39.7 41.4 45.0 44.65 L45.85 45.15 47.3 45.9 49.25 46.9 Q55.0 49.5 60.05 49.4 65.8 49.2 67.25 45.4 L67.6 43.9 67.65 42.95 67.5 41.75 Q67.25 40.5 66.6 39.15 L65.45 37.15 64.9 36.35 64.2 35.45 62.9 33.9 62.05 33.0 59.9 31.15 Q57.4 29.2 54.35 27.55 50.45 25.5 46.85 24.65 L43.6 24.1 M65.7 31.3 L70.6 38.1 70.6 38.15 81.2 52.8 Q82.45 54.85 80.15 54.85 L79.7 54.8 77.6 54.7 56.7 53.5 53.6 53.3 53.2 53.3 53.1 53.3 41.75 52.65 Q37.9 52.25 35.75 49.6 42.75 47.75 40.7 44.3 L26.05 24.6 Q23.1 20.7 18.15 19.9 L58.75 25.5 Q61.5 25.9 63.85 28.75 L65.65 31.3 65.7 31.3 M60.1 50.4 L53.65 50.15 54.9 52.2 61.55 52.45 60.1 50.4 M77.85 52.6 L76.15 50.25 65.05 49.75 66.75 52.1 77.85 52.6" fill="url(#gradient13)" fill-rule="evenodd" stroke="none"/>
    <path d="M51.45 28.65 Q52.95 29.2 54.6 30.05 L55.65 30.65 58.9 32.9 59.95 33.8 62.5 36.6 63.35 37.9 Q64.05 39.15 64.35 40.3 L64.5 41.05 64.5 41.3 64.5 42.3 64.25 43.35 Q63.2 46.15 58.85 46.3 54.45 46.45 49.3 43.8 L45.8 41.6 Q43.1 39.6 41.35 37.1 39.1 34.0 39.35 31.6 L39.65 30.35 Q40.75 27.5 45.15 27.45 L46.2 27.45 47.6 27.6 Q49.45 27.9 51.45 28.65 M56.8 32.75 Q55.55 31.85 54.15 31.1 51.75 29.85 49.55 29.3 L48.0 29.0 46.3 28.9 Q42.65 29.0 41.7 31.35 40.8 33.7 43.1 36.95 45.5 40.2 49.75 42.45 53.95 44.65 57.6 44.55 61.2 44.45 62.1 42.15 L62.35 41.15 62.35 40.7 Q62.3 38.8 60.6 36.55 59.5 35.0 58.05 33.75 L56.8 32.75" fill="url(#gradient14)" fill-rule="evenodd" stroke="none"/>
    <path d="M52.75 35.1 Q53.9 35.7 54.55 36.6 55.2 37.45 54.95 38.15 54.7 38.8 53.75 38.8 52.75 38.85 51.6 38.25 L49.7 36.7 Q49.05 35.8 49.35 35.15 49.6 34.5 50.6 34.45 51.65 34.45 52.75 35.1" fill="url(#gradient15)" fill-rule="evenodd" stroke="none"/>
    <path d="M55.95 33.55 Q57.75 34.85 59.0 36.55 60.85 39.1 60.15 41.05 59.4 42.85 56.55 42.95 53.65 43.05 50.25 41.25 46.85 39.45 45.0 36.9 43.15 34.3 43.9 32.45 44.65 30.55 47.6 30.55 L50.05 30.8 Q51.8 31.2 53.75 32.2 L55.95 33.55 M53.3 33.75 Q51.1 32.55 49.2 32.55 47.25 32.6 46.85 33.85 46.3 35.1 47.55 36.8 48.75 38.5 51.05 39.75 53.25 40.9 55.15 40.85 57.05 40.8 57.6 39.55 58.0 38.3 56.8 36.65 55.55 34.9 53.3 33.75" fill="url(#gradient16)" fill-rule="evenodd" stroke="none"/>
    <path d="M11.65 19.2 L11.8 19.25 33.45 48.9 33.95 49.55 Q35.4 51.6 39.4 53.05 29.45 56.8 27.4 57.75 23.35 57.6 20.35 53.85 L29.65 49.8 11.3 25.15 3.9 30.3 4.05 30.65 2.25 28.1 Q0.55 26.05 2.15 25.2 7.25 20.45 8.35 19.8 10.0 18.75 11.65 19.2 M20.35 53.8 L20.25 53.7 4.65 31.45 11.3 26.95 27.65 49.3 19.85 52.8 20.35 53.8 M9.45 31.8 L8.5 32.4 21.0 49.8 22.1 49.35 9.45 31.8" fill="url(#gradient17)" fill-rule="evenodd" stroke="none"/>
    <path d="M11.65 19.2 L11.65 19.15 Q22.4 20.1 25.45 25.75 L39.2 44.1 Q41.2 47.55 33.45 48.9 L11.8 19.25 11.65 19.2 M23.3 28.95 Q22.3 29.0 22.95 29.9 23.55 30.75 24.5 30.65 25.45 30.55 24.9 29.7 24.25 28.8 23.3 28.95 M21.8 25.45 Q21.2 24.65 20.3 24.75 19.3 24.8 19.9 25.65 20.55 26.55 21.5 26.45 22.4 26.35 21.8 25.45 M26.05 34.15 Q26.65 35.0 27.65 34.95 28.55 34.8 27.95 33.95 27.35 33.1 26.4 33.2 25.45 33.3 26.05 34.15" fill="url(#gradient18)" fill-rule="evenodd" stroke="none"/>
    <path d="M128.95 39.6 L129.05 39.6 Q130.55 39.4 130.7 38.65 130.95 37.9 129.25 36.8 L90.45 7.85" fill="none" stroke="#ffffcc" stroke-linecap="round" stroke-linejoin="round" stroke-width="1.1"/>
    <path d="M118.15 39.45 L128.6 39.65 128.95 39.6 Q130.1 39.35 130.25 38.7 130.5 37.95 128.75 36.85 L91.0 8.65 90.9 8.55 89.25 7.3 89.1 7.2 16.9 1.55 16.35 1.5 17.5 2.5 18.95 3.75 24.35 8.45 39.65 21.75" fill="none" stroke="#cc9900" stroke-linecap="round" stroke-linejoin="round" stroke-width="1.1"/>
    <path d="M97.75 20.75 L89.9 9.9" fill="none" stroke="#ffcc66" stroke-linecap="round" stroke-linejoin="round" stroke-width="1.1"/>
  </g>
  <defs>
    <linearGradient gradientTransform="matrix(-0.0194, -0.0269, 0.0479, -0.0049, 73.8, 20.6)" gradientUnits="userSpaceOnUse" id="gradient0" spreadMethod="pad" x1="-819.2" x2="819.2">
      <stop offset="0.0" stop-color="#ffffff"/>
      <stop offset="1.0" stop-color="#ffffff"/>
    </linearGradient>
    <linearGradient gradientTransform="matrix(0.0203, 0.0281, -0.0497, 0.0051, 73.65, 20.45)" gradientUnits="userSpaceOnUse" id="gradient1" spreadMethod="pad" x1="-819.2" x2="819.2">
      <stop offset="0.0" stop-color="#ffcc66"/>
      <stop offset="0.596078431372549" stop-color="#ffff99"/>
      <stop offset="1.0" stop-color="#ffffff"/>
    </linearGradient>
    <linearGradient gradientTransform="matrix(0.0261, 0.0361, -0.0408, 0.0042, 69.15, 28.15)" gradientUnits="userSpaceOnUse" id="gradient2" spreadMethod="pad" x1="-819.2" x2="819.2">
      <stop offset="0.0" stop-color="#cc9900"/>
      <stop offset="0.26666666666666666" stop-color="#ffcc66"/>
      <stop offset="0.5411764705882353" stop-color="#ffff99"/>
      <stop offset="0.803921568627451" stop-color="#ffffff"/>
    </linearGradient>
    <linearGradient gradientTransform="matrix(-0.0253, -0.0351, 0.0363, -0.0037, 91.25, 37.05)" gradientUnits="userSpaceOnUse" id="gradient3" spreadMethod="pad" x1="-819.2" x2="819.2">
      <stop offset="0.396078431372549" stop-color="#ffffff"/>
      <stop offset="1.0" stop-color="#666666"/>
    </linearGradient>
    <linearGradient gradientTransform="matrix(0.013, 0.018, -0.0104, 0.0011, 109.05, 23.85)" gradientUnits="userSpaceOnUse" id="gradient4" spreadMethod="pad" x1="-819.2" x2="819.2">
      <stop offset="0.0" stop-color="#ffff99"/>
      <stop offset="1.0" stop-color="#ffffff"/>
    </linearGradient>
    <linearGradient gradientTransform="matrix(-0.0053, -0.014, 0.0232, 0.0023, 89.45, 35.95)" gradientUnits="userSpaceOnUse" id="gradient5" spreadMethod="pad" x1="-819.2" x2="819.2">
      <stop offset="0.0" stop-color="#ffffff"/>
      <stop offset="0.7176470588235294" stop-color="#99ccff"/>
    </linearGradient>
    <linearGradient gradientTransform="matrix(-0.0113, -0.0157, 0.0152, -0.0015, 96.65, 21.2)" gradientUnits="userSpaceOnUse" id="gradient6" spreadMethod="pad" x1="-819.2" x2="819.2">
      <stop offset="0.0" stop-color="#cccccc"/>
      <stop offset="1.0" stop-color="#ccccff"/>
    </linearGradient>
    <linearGradient gradientTransform="matrix(-0.0238, -0.033, 0.0342, -0.0035, 91.35, 37.05)" gradientUnits="userSpaceOnUse" id="gradient7" spreadMethod="pad" x1="-819.2" x2="819.2">
      <stop offset="0.0" stop-color="#ffffff"/>
      <stop offset="1.0" stop-color="#dddddd"/>
    </linearGradient>
    <linearGradient gradientTransform="matrix(-0.0099, -0.0137, 0.0268, -0.0027, 97.9, 49.7)" gradientUnits="userSpaceOnUse" id="gradient8" spreadMethod="pad" x1="-819.2" x2="819.2">
      <stop offset="0.0" stop-color="#ffffff"/>
      <stop offset="1.0" stop-color="#999999"/>
    </linearGradient>
    <linearGradient gradientTransform="matrix(-0.0253, -0.035, 0.039, -0.004, 67.5, 28.05)" gradientUnits="userSpaceOnUse" id="gradient9" spreadMethod="pad" x1="-819.2" x2="819.2">
      <stop offset="0.0" stop-color="#ffffff"/>
      <stop offset="1.0" stop-color="#ffcc66"/>
    </linearGradient>
    <linearGradient gradientTransform="matrix(0.0179, 0.0247, -0.0334, 0.0034, 35.4, 34.45)" gradientUnits="userSpaceOnUse" id="gradient10" spreadMethod="pad" x1="-819.2" x2="819.2">
      <stop offset="0.0" stop-color="#333333"/>
      <stop offset="1.0" stop-color="#ffffff"/>
    </linearGradient>
    <linearGradient gradientTransform="matrix(-0.0125, -0.0173, 0.0192, -0.002, 69.65, 25.25)" gradientUnits="userSpaceOnUse" id="gradient11" spreadMethod="pad" x1="-819.2" x2="819.2">
      <stop offset="0.0" stop-color="#cccccc"/>
      <stop offset="1.0" stop-color="#ccccff"/>
    </linearGradient>
    <linearGradient gradientTransform="matrix(-0.0112, -0.0155, 0.0164, -0.0017, 50.7, 36.7)" gradientUnits="userSpaceOnUse" id="gradient12" spreadMethod="pad" x1="-819.2" x2="819.2">
      <stop offset="0.0" stop-color="#ffffff"/>
      <stop offset="1.0" stop-color="#999999"/>
    </linearGradient>
    <linearGradient gradientTransform="matrix(0.0169, 0.0235, -0.0245, 0.0025, 48.45, 37.4)" gradientUnits="userSpaceOnUse" id="gradient13" spreadMethod="pad" x1="-819.2" x2="819.2">
      <stop offset="0.0" stop-color="#999999"/>
      <stop offset="0.5450980392156862" stop-color="#ffffff"/>
    </linearGradient>
    <linearGradient gradientTransform="matrix(0.0072, 0.01, -0.0142, 0.0014, 52.0, 36.85)" gradientUnits="userSpaceOnUse" id="gradient14" spreadMethod="pad" x1="-819.2" x2="819.2">
      <stop offset="0.0" stop-color="#999999"/>
      <stop offset="0.5450980392156862" stop-color="#ffffff"/>
    </linearGradient>
    <linearGradient gradientTransform="matrix(-0.0019, -0.0027, 0.0028, -3.0E-4, 52.1, 36.55)" gradientUnits="userSpaceOnUse" id="gradient15" spreadMethod="pad" x1="-819.2" x2="819.2">
      <stop offset="0.0" stop-color="#ffffff"/>
      <stop offset="1.0" stop-color="#0099ff"/>
    </linearGradient>
    <linearGradient gradientTransform="matrix(0.0047, 0.0066, -0.0094, 0.001, 52.05, 36.75)" gradientUnits="userSpaceOnUse" id="gradient16" spreadMethod="pad" x1="-819.2" x2="819.2">
      <stop offset="0.0" stop-color="#999999"/>
      <stop offset="0.5450980392156862" stop-color="#ffffff"/>
    </linearGradient>
    <linearGradient gradientTransform="matrix(0.0165, 0.0229, -0.0111, 0.0011, 18.95, 38.35)" gradientUnits="userSpaceOnUse" id="gradient17" spreadMethod="pad" x1="-819.2" x2="819.2">
      <stop offset="0.0" stop-color="#cccccc"/>
      <stop offset="1.0" stop-color="#ffffff"/>
    </linearGradient>
    <linearGradient gradientTransform="matrix(0.0076, 0.0105, -0.0223, 0.0023, 23.65, 29.9)" gradientUnits="userSpaceOnUse" id="gradient18" spreadMethod="pad" x1="-819.2" x2="819.2">
      <stop offset="0.0" stop-color="#999999"/>
      <stop offset="1.0" stop-color="#ffffff"/>
    </linearGradient>
  </defs>
</svg>
