<svg xmlns="http://www.w3.org/2000/svg" viewBox="-57.5000 -14.0000 115.0500 28.0500" width="115.05" height="28.05">
<path d="M7.0500,-2.2500 L6.8500,-1.5000 L6.7000,-0.7000 Q6.7000,-0.0500 6.9500,0.5500 L7.6500,1.6000 L8.7000,2.3500 L10.2000,2.8500 L12.9000,3.3000 Q15.1000,3.7500 15.1000,5.2500 L14.8000,6.1000 L14.2500,6.7500 L13.3000,7.2000 L12.0500,7.3500 L11.1500,7.3000 L10.3500,7.1000 Q9.9000,7.0000 9.5500,6.7500 L8.9500,6.4000 L8.6500,6.1000 L8.4500,5.8000 L8.2500,5.4000 L8.0500,4.9500 L6.2000,5.3000 L6.4500,6.0500 L6.7000,6.6500 L7.1000,7.1500 L7.5500,7.6000 Q8.3500,8.3000 9.4000,8.6500 L11.8500,9.0000 L14.0000,8.7000 L14.9500,8.4000 L15.7000,7.9000 L16.3500,7.3000 L16.7500,6.6500 L17.0500,5.9000 L17.1500,5.1000 L16.8500,3.7000 L16.1500,2.5500 L15.0000,1.8000 L13.2500,1.2500 L10.7000,0.8500 L9.8500,0.6000 L9.2500,0.2500 Q9.0000,-0.0000 8.9000,-0.3000 Q8.7000,-0.5500 8.7000,-0.9500 L8.9500,-1.7000 L9.4500,-2.3000 L10.3500,-2.7000 L11.4500,-2.8500 L12.6000,-2.7500 L13.5000,-2.3500 L14.2500,-1.7000 L14.7500,-0.8500 L16.5500,-1.2000 L15.9000,-2.6000 L14.8000,-3.6500 L13.3500,-4.2500 L11.5500,-4.4500 L10.5000,-4.4000 L9.6000,-4.2000 L8.7000,-3.8500 L8.0000,-3.4500 L7.5000,-2.9000 L7.0500,-2.2500 M0.5000,-4.3500 L-0.7500,-4.4500 L-1.9500,-4.3500 L-3.1000,-3.9500 L-4.1000,-3.4000 L-4.9000,-2.6000 L-5.6000,-1.6500 L-6.1000,-0.5000 L-6.4000,0.8000 L-6.5000,2.2500 L-6.4000,3.7000 L-6.1500,5.0000 L-5.6500,6.2000 L-5.0000,7.1500 L-4.2000,7.9000 L-3.2000,8.5000 L-2.1500,8.9000 L-0.9500,9.0000 L0.3000,8.9000 L1.4500,8.5000 Q1.9500,8.3000 2.4500,7.9000 L3.3000,7.1500 L4.0000,6.2000 L4.5000,5.0500 L4.8500,3.8000 L4.9500,2.4000 L4.9000,0.9000 L4.5500,-0.4000 L4.0500,-1.6000 L3.4500,-2.5500 L2.6000,-3.4000 L1.6500,-3.9500 Q1.1000,-4.2500 0.5000,-4.3500 M0.6500,-2.4500 L1.3000,-2.0500 L1.8500,-1.4500 L2.3000,-0.7500 L2.5500,0.1000 L2.7000,1.1000 L2.8000,2.3000 L2.5500,4.4500 L1.8500,6.0000 L0.7500,7.0000 L-0.8000,7.3500 L-2.3000,7.0000 L-3.4500,6.0000 L-4.1000,4.4000 L-4.3500,2.2000 L-4.1500,0.1500 L-3.8500,-0.7500 L-3.5000,-1.4500 L-2.9500,-2.0500 L-2.3000,-2.4500 L-1.6000,-2.7500 L-0.8500,-2.8500 L-0.0500,-2.7500 L0.6500,-2.4500 M19.8500,-1.6500 L19.3500,-0.5000 L19.0500,0.8000 Q18.9000,1.5000 18.9000,2.2500 L19.0500,3.7000 L19.3000,5.0000 L19.8000,6.2000 L20.4500,7.1500 L21.2500,7.9000 L22.2000,8.5000 L23.3000,8.9000 L24.5000,9.0000 L25.7500,8.9000 L26.8500,8.5000 L27.9000,7.9000 L28.7500,7.1500 L29.4500,6.2000 L29.9500,5.0500 L30.2500,3.8000 L30.3500,2.4000 L30.3000,0.9000 L30.0000,-0.4000 L29.5000,-1.6000 L28.8500,-2.5500 L28.0500,-3.4000 L27.1000,-3.9500 L25.9500,-4.3500 L24.7000,-4.4500 L23.4500,-4.3500 Q22.8500,-4.2500 22.3500,-3.9500 L21.3500,-3.4000 L20.5500,-2.6000 L19.8500,-1.6500 M-13.7000,-4.1500 L-13.7000,8.6500 L-11.7000,8.6500 L-11.7000,1.9000 L-11.6000,0.9000 L-11.3000,0.0000 L-10.9500,-0.8000 L-10.4000,-1.4500 L-9.8000,-2.0000 L-9.0500,-2.3000 L-8.2500,-2.5000 L-7.3500,-2.5500 L-7.3500,-4.4500 L-7.8000,-4.4500 L-8.1000,-4.5000 L-8.8500,-4.4000 L-9.5500,-4.2000 L-10.1500,-3.8000 L-10.6000,-3.4000 L-10.9500,-2.9500 L-11.2000,-2.5000 L-11.5500,-2.0000 L-11.9000,-1.1500 L-11.9000,-4.1500 L-13.7000,-4.1500 M-20.5500,-2.7500 L-19.9000,-2.5000 L-19.3500,-2.1500 L-18.9000,-1.6000 L-18.6500,-1.2000 L-18.5000,-0.8500 L-18.3500,-0.3000 L-18.2500,0.3500 L-16.4000,-0.0500 Q-16.6000,-1.1000 -17.0500,-1.9000 Q-17.4000,-2.7500 -18.0500,-3.3500 L-19.4500,-4.2000 L-21.2500,-4.4500 L-22.4500,-4.3500 L-23.5000,-3.9500 L-24.4500,-3.4000 L-25.2500,-2.6000 L-25.9000,-1.6500 L-26.4000,-0.4500 L-26.6500,0.8500 L-26.7500,2.3000 L-26.6500,3.7500 L-26.4000,5.0500 L-25.9000,6.2000 L-25.3000,7.1500 L-24.5000,7.9500 L-23.5500,8.5000 L-22.5500,8.9000 L-21.3500,9.0000 L-20.3500,8.9500 L-19.4500,8.6500 L-18.6500,8.2500 L-17.9000,7.6500 L-17.3500,7.0000 L-17.0000,6.3500 L-16.6500,5.5500 L-16.4000,4.5000 L-18.2500,4.2000 L-18.6500,5.5500 L-19.3000,6.5500 L-20.2500,7.1500 L-21.3000,7.3500 L-22.0500,7.2500 L-22.7500,7.0000 L-23.8000,6.0000 L-24.4500,4.4000 L-24.7000,2.2500 L-24.4500,0.1500 L-24.1500,-0.7500 L-23.8000,-1.5000 L-23.3000,-2.0500 L-22.7000,-2.4500 L-22.0500,-2.7500 L-21.3000,-2.8500 L-20.5500,-2.7500 M51.2000,-5.5500 L50.3500,-5.7000 L49.8500,-5.6500 L49.5000,-5.5500 L49.0500,-5.3000 L48.7500,-5.0500 L48.4500,-4.7500 L48.2500,-4.3500 L48.1500,-3.9000 L48.1000,-3.5000 L48.1500,-3.0000 L48.2500,-2.6000 L48.4500,-2.2000 L48.7500,-1.8500 L49.0500,-1.6000 L49.4500,-1.4000 L49.8500,-1.2500 L50.3000,-1.2000 L51.1500,-1.4000 L51.5500,-1.6000 L51.9000,-1.8500 L52.2000,-2.2000 L52.3500,-2.5500 L52.5500,-3.5000 L52.5000,-3.9000 L52.3500,-4.3500 L52.2000,-4.7500 L51.9000,-5.0500 L51.6000,-5.3000 L51.2000,-5.5500 M51.6500,-4.8500 L51.9000,-4.5000 L52.1000,-4.2000 L52.2500,-3.5000 L52.1000,-2.7500 L51.9000,-2.4000 L51.6500,-2.1000 L51.0500,-1.7000 L50.3000,-1.5500 L49.9000,-1.6000 L49.5500,-1.7000 L49.2000,-1.8500 L48.9500,-2.1500 L48.7500,-2.4000 L48.5500,-2.7500 Q48.4000,-3.1000 48.4000,-3.5000 L48.4000,-3.8000 L48.5000,-4.1500 L48.7000,-4.4500 L48.9000,-4.7500 L49.5500,-5.2000 L50.3500,-5.4000 L51.0500,-5.2000 L51.6500,-4.8500 M50.4500,-4.7500 L49.3500,-4.7500 L49.3500,-2.1500 L49.7500,-2.1500 L49.7500,-3.2500 L50.4500,-3.2500 L50.9500,-2.1500 L51.4000,-2.1500 L50.8500,-3.3500 L51.0500,-3.4500 L51.2000,-3.6000 L51.2500,-3.8000 L51.3000,-4.0500 L51.2500,-4.3000 L51.1000,-4.5500 L50.8000,-4.7000 L50.4500,-4.7500 M50.6000,-4.4000 L50.8000,-4.3000 L50.9000,-4.2000 L50.9500,-4.0500 L50.9000,-3.8000 L50.8000,-3.7000 L50.6000,-3.6000 L50.4000,-3.6000 L49.7500,-3.6000 L49.7500,-4.4000 L50.4500,-4.4000 L50.6000,-4.4000 M46.9500,-4.1500 L44.1000,-4.1500 L44.1000,-7.5000 L42.2000,-7.3000 L42.1500,-4.1500 L39.9000,-4.1500 L39.9000,-2.5500 L42.1500,-2.5500 L42.1500,5.1500 L42.3500,6.8500 L43.0500,8.0000 L44.2000,8.7500 L45.8000,9.0500 L46.2000,9.0000 L46.6500,9.0000 L47.1000,8.9500 L47.7000,8.9000 L47.7000,7.2500 L47.2000,7.3500 L46.8500,7.4000 L46.5000,7.4000 L46.1500,7.4000 Q45.1000,7.4000 44.6500,6.9500 Q44.1000,6.4500 44.1000,5.4000 L44.1000,-2.5500 L46.9500,-2.5500 L46.9500,-4.1500 M38.3500,-8.9500 L37.9500,-9.0000 L37.5500,-9.0000 L36.3500,-8.8500 L35.4000,-8.4500 L34.6500,-7.8000 L34.1500,-7.0000 L34.0000,-6.4500 L33.9000,-5.8500 L33.7500,-5.1000 L33.7000,-4.1500 L31.5000,-4.1500 L31.5000,-2.5500 L33.7000,-2.5500 L33.7000,8.6500 L35.6000,8.6500 L35.6000,-2.5500 L38.7000,-2.5500 L38.7000,-4.1500 L35.6000,-4.1500 L35.6000,-4.9500 L35.6000,-5.5000 L35.6500,-5.8000 L35.7000,-5.9500 L35.8500,-6.2000 L36.1500,-6.7500 L36.6500,-7.1000 L38.2500,-7.4000 L38.5500,-7.4000 L38.8000,-7.4000 L39.0500,-7.3000 L39.4500,-7.2000 L39.4500,-8.8500 L38.8500,-8.9000 L38.3500,-8.9500 M27.3000,-1.4500 L27.7500,-0.7500 L28.0000,0.1000 L28.1500,1.1000 L28.2000,2.3000 L28.0000,4.4500 L27.3000,6.0000 L26.1500,7.0000 L24.6500,7.3500 L23.1500,7.0000 Q22.5000,6.6500 22.0000,6.0000 Q21.5500,5.3500 21.3500,4.4000 Q21.1000,3.4000 21.1000,2.2000 L21.3000,0.1500 L21.5500,-0.7500 L21.9500,-1.4500 L22.5000,-2.0500 L23.1500,-2.4500 L23.8500,-2.7500 L24.6000,-2.8500 L25.4000,-2.7500 L26.1000,-2.4500 L26.7500,-2.0500 L27.3000,-1.4500 M-31.8000,-8.6000 L-31.8000,-6.4500 L-29.6000,-6.4500 L-29.6000,-8.6000 L-31.8000,-8.6000 M-39.0000,-8.6000 L-44.1000,5.1500 L-49.3000,-8.6000 L-52.5000,-8.6000 L-52.5000,8.6500 L-50.7000,8.6500 L-50.7000,-6.4500 L-45.0000,8.6500 L-43.5500,8.6500 L-37.9500,-6.4500 L-37.9500,8.6500 L-35.8500,8.6500 L-35.8500,-8.6000 L-39.0000,-8.6000 M-31.7500,-4.1500 L-31.7500,8.6500 L-29.7500,8.6500 L-29.7500,-4.1500 L-31.7500,-4.1500" fill="#000000" fill-rule="evenodd" stroke="none"/>
</svg>
