<svg xmlns="http://www.w3.org/2000/svg" viewBox="-24.9500 5.8500 41.7000 16.0500" width="41.70" height="16.05">
<defs>
<linearGradient id="grad1" x1="-19.9500" y1="70.5000" x2="11.7500" y2="70.5000" gradientUnits="userSpaceOnUse">
  <stop offset="0.0000" stop-color="#ff861d"/>
  <stop offset="0.2235" stop-color="#ff861d"/>
  <stop offset="0.4510" stop-color="#ffc390"/>
  <stop offset="0.5216" stop-color="#ffc390"/>
  <stop offset="0.6863" stop-color="#fe6200"/>
  <stop offset="1.0000" stop-color="#fe6200"/>
</linearGradient>
</defs>
<path d="M-14.1000,12.5000 L-9.0000,11.3000 L-4.5000,10.8500 L-0.5500,11.1000 Q1.2000,11.3500 2.9500,11.9000 Q4.5000,12.4000 6.1000,13.1500 L7.6000,13.9000 L9.0000,14.7000 L10.4000,15.6000 L11.7500,16.5000 L11.6000,16.7500 L11.5000,16.8500 L11.4500,16.9000 L10.1000,16.0000 L8.7000,15.1500 L7.3000,14.4000 L5.8500,13.6500 L2.7500,12.4500 L-0.7000,11.7000 L-4.5500,11.5000 L-8.9500,11.9500 L-14.0000,13.1000 Q-16.7500,13.9000 -19.7500,15.1500 L-19.8500,15.0500 L-19.9000,14.9500 L-19.9500,14.8000 L-19.9500,14.6500 Q-16.9000,13.3500 -14.1000,12.5000" fill="url(#grad1)" fill-rule="evenodd" stroke="none"/>
</svg>
