<svg xmlns="http://www.w3.org/2000/svg" viewBox="-17.3000 -17.3500 32.8500 32.8500" width="32.85" height="32.85">
<defs>
<radialGradient id="grad1" cx="-8.6500" cy="-8.4000" r="20.1500" gradientUnits="userSpaceOnUse">
  <stop offset="0.0000" stop-color="#7cf83e"/>
  <stop offset="0.4471" stop-color="#66cc33"/>
  <stop offset="1.0000" stop-color="#0d7d03"/>
</radialGradient>
</defs>
<path d="M9.4500,-11.2000 Q10.0500,-10.6000 10.0500,-9.6500 L10.0500,7.8500 Q10.0500,8.7500 9.4000,9.4000 Q8.8000,10.0000 7.9000,10.0000 L-9.6000,10.0000 Q-10.5500,10.0000 -11.1500,9.3500 Q-11.8000,8.7500 -11.8000,7.8500 L-11.8000,-9.6500 Q-11.8000,-10.6000 -11.1500,-11.2000 Q-10.5500,-11.8500 -9.6000,-11.8500 L7.9000,-11.8500 Q8.8000,-11.8500 9.4500,-11.2000 M4.5000,-6.3000 L2.1000,-7.9500 Q0.7000,-8.5500 -0.8000,-8.5500 Q-2.3500,-8.5500 -3.7500,-7.9500 Q-5.1500,-7.3500 -6.1500,-6.3000 Q-7.2000,-5.3000 -7.8000,-3.9000 Q-8.4000,-2.5500 -8.4000,-1.0000 L-7.9500,1.4500 L-7.1000,3.2000 L-8.8000,4.9000 L-3.7000,4.9000 L-3.7000,-0.2000 L-5.6500,1.8000 Q-6.4000,0.5000 -6.4000,-1.0000 L-5.9500,-3.1500 L-4.8000,-4.9000 Q-4.0000,-5.7000 -3.0000,-6.1000 L-0.8500,-6.5500 L1.3000,-6.1000 Q2.3000,-5.7000 3.1000,-4.9000 L4.3000,-3.1500 Q4.7000,-2.1500 4.7000,-1.0000 Q4.7000,0.1500 4.3000,1.2000 L3.1000,2.9500 L1.3000,4.1500 L-0.8000,4.6000 L-0.8500,4.6000 Q-1.2500,4.6000 -1.5000,4.8500 L-1.8000,5.6000 L-1.5000,6.3000 L-0.8000,6.6000 L2.1000,6.0000 L4.5000,4.3500 Q5.5500,3.3000 6.1500,1.9500 Q6.7000,0.5500 6.7500,-1.0000 Q6.7000,-2.5500 6.1500,-3.9000 Q5.5500,-5.3000 4.5000,-6.3000" fill="url(#grad1)" fill-rule="evenodd" stroke="none"/>
<path d="M4.5000,-6.3000 L2.1000,-7.9500 Q0.7000,-8.5500 -0.8000,-8.5500 Q-2.3500,-8.5500 -3.7500,-7.9500 Q-5.1500,-7.3500 -6.1500,-6.3000 Q-7.2000,-5.3000 -7.8000,-3.9000 Q-8.4000,-2.5500 -8.4000,-1.0000 L-7.9500,1.4500 L-7.1000,3.2000 L-8.8000,4.9000 L-3.7000,4.9000 L-3.7000,-0.2000 L-5.6500,1.8000 Q-6.4000,0.5000 -6.4000,-1.0000 L-5.9500,-3.1500 L-4.8000,-4.9000 Q-4.0000,-5.7000 -3.0000,-6.1000 L-0.8500,-6.5500 L1.3000,-6.1000 Q2.3000,-5.7000 3.1000,-4.9000 L4.3000,-3.1500 Q4.7000,-2.1500 4.7000,-1.0000 Q4.7000,0.1500 4.3000,1.2000 L3.1000,2.9500 L1.3000,4.1500 L-0.8000,4.6000 L-0.8500,4.6000 Q-1.2500,4.6000 -1.5000,4.8500 L-1.8000,5.6000 L-1.5000,6.3000 L-0.8000,6.6000 L2.1000,6.0000 L4.5000,4.3500 Q5.5500,3.3000 6.1500,1.9500 Q6.7000,0.5500 6.7500,-1.0000 Q6.7000,-2.5500 6.1500,-3.9000 Q5.5500,-5.3000 4.5000,-6.3000" fill="#ffffff" fill-rule="evenodd" stroke="none"/>
<path d="M9.4500,-11.2000 Q10.0500,-10.6000 10.0500,-9.6500 L10.0500,7.8500 Q10.0500,8.7500 9.4000,9.4000 Q8.8000,10.0000 7.9000,10.0000 L-9.6000,10.0000 Q-10.5500,10.0000 -11.1500,9.3500 Q-11.8000,8.7500 -11.8000,7.8500 L-11.8000,-9.6500 Q-11.8000,-10.6000 -11.1500,-11.2000 Q-10.5500,-11.8500 -9.6000,-11.8500 L7.9000,-11.8500 Q8.8000,-11.8500 9.4500,-11.2000" fill="none" stroke="#ffffff" stroke-width="1.00" stroke-linecap="round" stroke-linejoin="round"/>
</svg>
