<svg xmlns="http://www.w3.org/2000/svg" viewBox="-17.5000 -22.5500 43.6500 12.9000" width="43.65" height="12.90">
<defs>
<linearGradient id="grad1" x1="-4.7125" y1="-119.2875" x2="-5.3875" y2="-119.3125" gradientUnits="userSpaceOnUse">
  <stop offset="0.0000" stop-color="#70af00"/>
  <stop offset="0.1725" stop-color="#89d700"/>
  <stop offset="0.4824" stop-color="#89d700"/>
  <stop offset="1.0000" stop-color="#628600"/>
</linearGradient>
<linearGradient id="grad2" x1="-64.0500" y1="34.9500" x2="-63.7500" y2="35.4500" gradientUnits="userSpaceOnUse">
  <stop offset="0.0000" stop-color="#70af00"/>
  <stop offset="1.0000" stop-color="#384c00"/>
</linearGradient>
<linearGradient id="grad3" x1="-53.8000" y1="-77.9250" x2="-54.0000" y2="-77.6750" gradientUnits="userSpaceOnUse">
  <stop offset="0.0000" stop-color="#628600"/>
  <stop offset="1.0000" stop-color="#384c00"/>
</linearGradient>
</defs>
<path d="M-11.9500,-17.5500 L-12.1000,-17.5500 L-12.2500,-17.5000 L-12.4500,-17.4500 L-12.5000,-17.2500 L-11.8000,-17.2000 L-11.8000,-17.2500 L-11.8000,-17.3500 L-11.8000,-17.5000 L-11.9500,-17.5500" fill="url(#grad1)" fill-rule="evenodd" stroke="none"/>
<path d="M20.5000,-15.1500 L19.8500,-15.3500 L19.8500,-15.4000 L19.9000,-15.5000 L20.0500,-15.6000 L20.3500,-15.6000 L20.5000,-15.5500 L20.5500,-15.4500 L20.5000,-15.1500" fill="url(#grad2)" fill-rule="evenodd" stroke="none"/>
<path d="M20.5000,-15.5500 L20.4500,-15.2000 L21.1000,-14.6500 L21.1500,-15.0000 L20.5000,-15.5500" fill="url(#grad3)" fill-rule="evenodd" stroke="none"/>
</svg>
