<svg xmlns="http://www.w3.org/2000/svg" viewBox="-25.2500 5.8500 43.2500 16.3000" width="43.25" height="16.30">
<defs>
<linearGradient id="grad1" x1="15.2375" y1="-27.9375" x2="14.5625" y2="-27.9625" gradientUnits="userSpaceOnUse">
  <stop offset="0.0000" stop-color="#476100"/>
  <stop offset="1.0000" stop-color="#628600"/>
</linearGradient>
<linearGradient id="grad2" x1="-17.4750" y1="-13.8500" x2="-17.9250" y2="-13.3500" gradientUnits="userSpaceOnUse">
  <stop offset="0.0000" stop-color="#384c00"/>
  <stop offset="1.0000" stop-color="#476100"/>
</linearGradient>
<linearGradient id="grad3" x1="-20.2750" y1="53.3500" x2="11.9750" y2="53.3500" gradientUnits="userSpaceOnUse">
  <stop offset="0.0000" stop-color="#628600"/>
  <stop offset="0.3686" stop-color="#89d700"/>
  <stop offset="1.0000" stop-color="#628600"/>
</linearGradient>
</defs>
<path d="M11.9000,13.5000 Q11.6000,13.2000 11.6500,12.8000 L12.3500,12.9500 L11.9000,13.5000" fill="url(#grad1)" fill-rule="evenodd" stroke="none"/>
<path d="M12.3500,12.9500 L13.0000,13.5000 L12.5500,14.0000 L11.8500,13.4500 L12.3500,12.9500" fill="url(#grad2)" fill-rule="evenodd" stroke="none"/>
<path d="M-19.9500,10.8500 L-18.6000,11.7500 L-17.2500,12.6000 L-14.3000,14.1500 L-11.1500,15.4000 L-7.6500,16.2000 L-3.7000,16.4500 L0.8000,16.0500 L5.9000,14.8500 Q8.7000,14.0500 11.7500,12.8000 Q11.7000,13.2000 12.0000,13.5000 Q8.9500,14.7500 6.1500,15.6000 L0.9500,16.7500 L-3.6000,17.1500 L-7.6500,16.8500 L-11.2500,16.0000 L-14.5000,14.7500 L-17.4500,13.1500 L-18.8500,12.3000 L-20.2500,11.4000 L-20.1500,11.3000 L-20.1000,11.2000 L-20.0000,11.0500 L-19.9500,10.8500" fill="url(#grad3)" fill-rule="evenodd" stroke="none"/>
</svg>
