<svg xmlns="http://www.w3.org/2000/svg" viewBox="-26.2000 -20.4000 51.7000 38.3500" width="51.70" height="38.35">
<defs>
<linearGradient id="grad1" x1="12.8000" y1="-18.3750" x2="12.3000" y2="-18.9250" gradientUnits="userSpaceOnUse">
  <stop offset="0.0000" stop-color="#476100"/>
  <stop offset="0.1059" stop-color="#476100"/>
  <stop offset="0.6588" stop-color="#70af00"/>
  <stop offset="1.0000" stop-color="#628600"/>
</linearGradient>
<linearGradient id="grad2" x1="-60.1625" y1="32.6500" x2="-59.8375" y2="33.2500" gradientUnits="userSpaceOnUse">
  <stop offset="0.0000" stop-color="#628600"/>
  <stop offset="0.3373" stop-color="#70af00"/>
  <stop offset="0.8039" stop-color="#628600"/>
  <stop offset="1.0000" stop-color="#628600"/>
</linearGradient>
<linearGradient id="grad3" x1="35.6500" y1="-68.2000" x2="34.9500" y2="-68.4000" gradientUnits="userSpaceOnUse">
  <stop offset="0.0000" stop-color="#384c00"/>
  <stop offset="1.0000" stop-color="#70af00"/>
</linearGradient>
</defs>
<path d="M-21.2000,11.2500 L-20.5500,10.7500 L-20.1500,11.4000 L-20.8500,11.9000 Q-21.2500,11.7000 -21.2000,11.2500" fill="url(#grad1)" fill-rule="evenodd" stroke="none"/>
<path d="M-19.9500,10.9000 L-20.0000,11.1000 L-20.0500,11.2500 L-20.1500,11.3000 L-20.2500,11.4000 L-20.3000,11.3500 L-20.3500,11.3000 L-20.5000,11.2000 L-20.6000,10.8000 L-20.3000,10.7500 L-20.1000,10.8500 L-19.9500,10.9000" fill="url(#grad2)" fill-rule="evenodd" stroke="none"/>
<path d="M11.6500,12.8500 L19.8500,-15.3500 L20.5000,-15.2000 L12.3500,12.9500 L11.6500,12.8500" fill="url(#grad3)" fill-rule="evenodd" stroke="none"/>
</svg>
