<svg xmlns="http://www.w3.org/2000/svg" viewBox="-24.9500 5.8500 41.7000 16.0500" width="41.70" height="16.05">
<defs>
<linearGradient id="grad1" x1="-19.9500" y1="4.3000" x2="11.7500" y2="4.3000" gradientUnits="userSpaceOnUse">
  <stop offset="0.0000" stop-color="#6687ff"/>
  <stop offset="0.4196" stop-color="#d1dbff"/>
  <stop offset="1.0000" stop-color="#3863ff"/>
</linearGradient>
</defs>
<path d="M7.3500,14.4000 L5.8500,13.6500 Q4.3000,12.9500 2.7500,12.5000 L-0.7000,11.7500 L-4.5500,11.5000 L-8.9500,11.9500 L-14.0000,13.1500 L-19.7000,15.1500 L-19.8000,15.1000 L-19.9000,14.9500 L-19.9500,14.8500 L-19.9500,14.7000 Q-16.9000,13.4000 -14.1000,12.5000 L-9.0000,11.3000 L-4.5000,10.8500 L-0.5500,11.1000 L2.9500,11.9500 Q4.5500,12.4500 6.1000,13.2000 Q6.8500,13.5000 7.6000,13.9500 L9.0000,14.7500 L10.4000,15.6000 L11.7500,16.5000 L11.6000,16.8000 L11.5500,16.8500 L11.4500,16.9000 L10.1000,16.0500 L8.7500,15.2000 L7.3500,14.4000" fill="url(#grad1)" fill-rule="evenodd" stroke="none"/>
</svg>
