<svg xmlns="http://www.w3.org/2000/svg" viewBox="50.0500 331.6000 95.4000 85.3000" width="95.40" height="85.30">
<defs>
<linearGradient id="grad1" x1="141.9000" y1="341.7250" x2="77.5000" y2="323.2750" gradientUnits="userSpaceOnUse">
  <stop offset="0.0000" stop-color="#facb00"/>
  <stop offset="0.0941" stop-color="#ffcc00"/>
  <stop offset="0.1686" stop-color="#ffd428"/>
  <stop offset="0.3176" stop-color="#d1a700"/>
  <stop offset="0.4510" stop-color="#867300"/>
  <stop offset="1.0000" stop-color="#867300"/>
</linearGradient>
</defs>
<path d="M78.6000,338.2000 L83.7500,337.0000 L88.2000,336.6000 L92.1500,336.8500 L95.7000,337.6000 L98.8500,338.8500 L101.7500,340.4000 L103.1500,341.2500 L104.5000,342.1500 L96.3500,370.3000 L95.0000,369.4000 L93.6000,368.5500 L90.7000,367.0000 Q89.1000,366.2500 87.5000,365.8000 L84.0000,365.0000 L80.0500,364.7500 L75.5500,365.2000 L70.4500,366.4000 Q67.7000,367.2000 64.6500,368.4500 L72.8000,340.2500 Q75.8500,339.0000 78.6000,338.2000 M78.6000,369.7000 L82.5500,369.9500 L86.1000,370.7500 L89.2500,371.9500 L92.1500,373.5000 L93.5500,374.3500 L94.9000,375.2500 L86.7500,403.4000 L85.4000,402.5000 L84.0000,401.6500 L81.1000,400.1000 L77.9500,398.9000 Q76.2000,398.3500 74.4000,398.1000 L70.4500,397.8500 L66.0000,398.3000 L60.8500,399.5000 Q58.1000,400.3000 55.0500,401.5500 L63.2000,373.4000 Q66.2500,372.1000 69.0500,371.3000 L74.1500,370.1000 L78.6000,369.7000 M110.1000,346.0000 L111.5000,346.8500 L114.4000,348.4000 L117.5500,349.6000 L121.1000,350.4000 L125.0500,350.6500 L129.5000,350.2000 L134.6000,349.0000 L140.4500,346.9500 L132.3000,375.1000 L126.4500,377.2000 L121.3500,378.4000 L116.8500,378.8000 L112.9000,378.5500 L109.4000,377.7500 Q107.8500,377.3000 106.2500,376.5500 L103.3500,375.0000 L101.9500,374.1500 L100.6000,373.2500 L108.7500,345.1000 L110.1000,346.0000 M100.5000,379.1000 L101.9000,379.9500 L104.8000,381.5000 L107.9500,382.7000 L111.5000,383.5000 L115.4500,383.7500 L119.9000,383.3000 L125.0500,382.1000 L130.8500,380.0500 L122.7000,408.2500 L116.8500,410.3000 L111.7500,411.5000 L107.3000,411.9000 L103.3500,411.6500 L99.8000,410.9000 L96.6500,409.6500 L93.7500,408.1000 L92.3500,407.2500 L91.0000,406.3500 L99.1500,378.2000 L100.5000,379.1000" fill="url(#grad1)" fill-rule="evenodd" stroke="none"/>
</svg>
