<svg xmlns="http://www.w3.org/2000/svg" viewBox="-30.4000 -23.8000 60.8000 47.6000" width="60.80" height="47.60">
<path d="M13.2500,-13.7000 L14.5000,-13.5500 L15.6000,-13.0500 L16.5500,-12.2500 L17.3500,-11.2500 L17.9500,-9.8000 L18.4500,-8.2000 Q18.8000,-6.4500 18.8000,-4.1500 L18.7000,-2.1000 L18.4500,-0.2500 L17.9500,1.3000 L17.3000,2.6000 L16.5500,3.7000 L15.6000,4.4500 L14.5000,4.9000 L13.3000,5.1000 L12.0000,4.9000 L10.9000,4.5500 L9.8500,3.9500 L9.0000,3.1000 L8.3000,2.0500 L7.7500,0.8500 L7.3500,-0.4500 L7.2500,-1.9000 L7.2500,-5.8500 L7.3500,-7.5000 L7.7500,-8.9500 L8.2500,-10.3000 L8.9500,-11.5000 L9.8000,-12.4000 Q10.3000,-12.8500 10.8500,-13.1000 L11.9500,-13.5500 L13.2500,-13.7000 M17.5000,-18.5500 L15.3500,-18.8000 L12.7000,-18.4500 Q11.5000,-18.1500 10.5000,-17.5000 Q9.4000,-16.8500 8.5500,-15.8000 L6.9500,-13.4500 L6.9500,-18.2500 L0.9500,-18.2500 L0.9500,18.8000 L7.2500,18.8000 L7.2500,5.5500 L8.7000,7.5500 Q9.5000,8.3500 10.4500,8.9000 Q11.4000,9.4500 12.5000,9.7000 L14.9500,10.0000 L17.1500,9.8000 L19.1000,9.1500 L20.7500,8.1000 L22.1500,6.6000 L23.5500,4.2500 L24.6000,1.5500 L25.2000,-1.4000 L25.4000,-4.6000 L25.2500,-7.6000 L24.6500,-10.3500 L23.7500,-12.9000 L22.4500,-15.1500 L21.0500,-16.8000 L19.4000,-17.9000 L17.5000,-18.5500 M-16.1500,-4.8000 L-25.4000,9.4500 L-20.0000,9.4500 L-13.6000,-0.7000 L-7.7500,9.4500 L-0.5500,9.4500 L-9.8500,-6.2000 L-2.0000,-18.2500 L-7.2500,-18.2500 L-12.4000,-10.1000 L-17.0000,-18.2500 L-24.1500,-18.2500 L-16.1500,-4.8000" fill="#f3562b" fill-rule="evenodd" stroke="none"/>
</svg>
