<svg xmlns="http://www.w3.org/2000/svg" viewBox="357.5000 -455.0000 60.9500 33.5000" width="60.95" height="33.50">
<path d="M412.5000,-446.4500 L412.5000,-429.5500 Q412.5000,-428.5000 411.7500,-427.7500 Q411.0000,-427.0000 409.9500,-427.0000 L365.5500,-427.0000 Q364.5000,-427.0000 363.7500,-427.7500 Q363.0000,-428.5000 363.0000,-429.5500 L363.0000,-446.4500 Q363.0000,-447.5000 363.7500,-448.2500 Q364.5000,-449.0000 365.5500,-449.0000 L409.9500,-449.0000 M409.9500,-449.0000 Q411.0000,-449.0000 411.7500,-448.2500 Q412.5000,-447.5000 412.5000,-446.4500" fill="#000000" fill-rule="evenodd" stroke="none"/>
<path d="M365.5500,-449.0000 L365.5500,-449.5000 M412.5000,-446.4500 L412.5000,-429.5500 Q412.5000,-428.5000 411.7500,-427.7500 Q411.0000,-427.0000 409.9500,-427.0000 L365.5500,-427.0000 Q364.5000,-427.0000 363.7500,-427.7500 Q363.0000,-428.5000 363.0000,-429.5500 L363.0000,-446.4500 Q363.0000,-447.5000 363.7500,-448.2500 Q364.5000,-449.0000 365.5500,-449.0000 L409.9500,-449.0000 L409.9500,-449.5000 M409.9500,-449.0000 Q411.0000,-449.0000 411.7500,-448.2500 Q412.5000,-447.5000 412.5000,-446.4500 L412.9500,-446.4500" fill="none" stroke="#000000" stroke-width="1.00" stroke-linecap="round" stroke-linejoin="round"/>
</svg>
