<svg xmlns="http://www.w3.org/2000/svg" viewBox="-30.5000 -16.5500 60.9500 33.5000" width="60.95" height="33.50">
<path d="M24.5000,-8.0000 L24.5000,8.9000 Q24.5000,9.9500 23.7500,10.7000 Q23.0000,11.4500 21.9500,11.4500 L-22.4500,11.4500 Q-23.5000,11.4500 -24.2500,10.7000 Q-25.0000,9.9500 -25.0000,8.9000 L-25.0000,-8.0000 Q-25.0000,-9.0500 -24.2500,-9.8000 Q-23.5000,-10.5500 -22.4500,-10.5500 M21.9500,-10.5500 Q23.0000,-10.5500 23.7500,-9.8000 Q24.5000,-9.0500 24.5000,-8.0000 M-22.4500,-10.5500 L21.9500,-10.5500" fill="#ffffff" fill-rule="evenodd" stroke="none"/>
<path d="M21.9500,-10.5500 L21.9500,-11.0000 M24.5000,-8.0000 L24.5000,8.9000 Q24.5000,9.9500 23.7500,10.7000 Q23.0000,11.4500 21.9500,11.4500 L-22.4500,11.4500 Q-23.5000,11.4500 -24.2500,10.7000 Q-25.0000,9.9500 -25.0000,8.9000 L-25.0000,-8.0000 Q-25.0000,-9.0500 -24.2500,-9.8000 Q-23.5000,-10.5500 -22.4500,-10.5500 L-22.4500,-11.0500 M21.9500,-10.5500 Q23.0000,-10.5500 23.7500,-9.8000 Q24.5000,-9.0500 24.5000,-8.0000 L24.9500,-8.0000 M-22.4500,-10.5500 L21.9500,-10.5500" fill="none" stroke="#000000" stroke-width="1.00" stroke-linecap="round" stroke-linejoin="round"/>
</svg>
