<svg xmlns="http://www.w3.org/2000/svg" viewBox="-17.2000 -17.2500 32.8500 32.8500" width="32.85" height="32.85">
<defs>
<radialGradient id="grad1" cx="-6.1000" cy="-6.2500" r="17.1375" gradientUnits="userSpaceOnUse">
  <stop offset="0.0000" stop-color="#ff837d"/>
  <stop offset="0.5843" stop-color="#e13300"/>
  <stop offset="1.0000" stop-color="#ab2200"/>
</radialGradient>
</defs>
<path d="M9.5500,-11.1000 Q10.1500,-10.5000 10.1500,-9.5500 L10.1500,7.9500 Q10.1500,8.8500 9.5000,9.5000 Q8.9000,10.1000 8.0000,10.1000 L-9.5000,10.1000 Q-10.4500,10.1000 -11.0500,9.4500 Q-11.7000,8.8500 -11.7000,7.9500 L-11.7000,-9.5500 Q-11.7000,-10.5000 -11.0500,-11.1000 Q-10.4500,-11.7500 -9.5000,-11.7500 L8.0000,-11.7500 Q8.9000,-11.7500 9.5500,-11.1000" fill="url(#grad1)" fill-rule="evenodd" stroke="none"/>
<path d="M9.5500,-11.1000 Q10.1500,-10.5000 10.1500,-9.5500 L10.1500,7.9500 Q10.1500,8.8500 9.5000,9.5000 Q8.9000,10.1000 8.0000,10.1000 L-9.5000,10.1000 Q-10.4500,10.1000 -11.0500,9.4500 Q-11.7000,8.8500 -11.7000,7.9500 L-11.7000,-9.5500 Q-11.7000,-10.5000 -11.0500,-11.1000 Q-10.4500,-11.7500 -9.5000,-11.7500 L8.0000,-11.7500 Q8.9000,-11.7500 9.5500,-11.1000" fill="none" stroke="#ffffff" stroke-width="1.00" stroke-linecap="round" stroke-linejoin="round"/>
<path d="M-6.1000,-6.2500 L-0.7500,-0.8000 L4.5000,-6.3000 M4.4500,4.5500 L-0.7500,-0.8000 L-5.9000,4.5500" fill="none" stroke="#ffffff" stroke-width="3.00" stroke-linecap="round" stroke-linejoin="round"/>
</svg>
