<?xml version="1.0" encoding="UTF-8" standalone="no"?>
<svg xmlns:ffdec="https://www.free-decompiler.com/flash" xmlns:xlink="http://www.w3.org/1999/xlink" ffdec:objectType="shape" height="27.6px" width="55.25px" xmlns="http://www.w3.org/2000/svg">
  <g transform="matrix(1.0, 0.0, 0.0, 1.0, 17.8, 6.35)">
    <path d="M9.05 -4.8 L9.05 -4.0 9.45 -4.0 9.15 -3.8 8.8 -3.6 8.1 -3.15 4.0 0.25 3.95 0.25 3.6 0.6 3.6 0.65 Q1.35 2.85 1.05 4.1 0.9 5.05 2.2 5.3 L2.55 5.5 2.6 5.8 2.4 6.1 Q1.55 6.6 0.45 6.85 L0.25 6.9 0.3 6.85 -0.5 6.95 Q-0.55 6.75 -0.75 6.7 L-1.1 6.65 -2.0 6.85 Q-3.85 6.5 -4.6 5.6 -5.6 4.55 -5.05 2.85 -4.55 1.05 -2.45 -1.1 L-2.5 -1.1 0.15 -3.55 Q1.95 -5.05 3.95 -6.35 L5.75 -6.35 0.85 -2.9 -1.7 -0.5 Q-3.65 1.45 -4.1 3.05 -4.5 4.3 -3.8 5.05 -3.1 5.8 -1.2 6.1 L-1.15 6.1 0.05 6.0 0.9 5.8 Q-0.25 5.2 0.05 3.95 0.3 2.5 2.8 0.1 L2.85 0.05 3.25 -0.35 Q5.15 -2.25 7.5 -3.85 L8.2 -4.3 9.05 -4.8" fill="url(#gradient0)" fill-rule="evenodd" stroke="none"/>
    <path d="M5.75 -6.35 L8.25 -6.35 9.05 -6.15 9.05 -4.8 8.2 -4.3 7.5 -3.85 Q5.15 -2.25 3.25 -0.35 L2.85 0.05 2.8 0.1 Q0.3 2.5 0.05 3.95 -0.25 5.2 0.9 5.8 L0.05 6.0 -1.15 6.1 -1.2 6.1 Q-3.1 5.8 -3.8 5.05 -4.5 4.3 -4.1 3.05 -3.65 1.45 -1.7 -0.5 L0.85 -2.9 5.75 -6.35" fill="url(#gradient1)" fill-rule="evenodd" stroke="none"/>
    <path d="M9.15 -3.8 L13.75 -4.0 18.6 -4.0 20.8 -3.5 20.05 -2.55 Q17.55 0.35 14.35 2.8 L12.4 4.15 Q7.55 7.25 3.75 7.7 1.35 7.9 0.45 6.85 1.55 6.6 2.4 6.1 L2.6 5.8 2.55 5.5 2.2 5.3 Q0.9 5.05 1.05 4.1 1.35 2.85 3.6 0.65 L3.6 0.6 3.95 0.25 4.0 0.25 8.1 -3.15 8.8 -3.6 9.15 -3.8" fill="url(#gradient2)" fill-rule="evenodd" stroke="none"/>
    <path d="M20.8 -3.5 L21.6 -3.3 21.0 -2.6 Q18.45 0.4 15.1 2.95 L12.85 4.55 9.75 6.35 9.4 6.25 Q9.2 6.25 9.05 6.4 L8.85 6.7 8.8 6.7 8.75 6.75 8.75 6.8 8.7 6.85 Q5.7 8.2 3.1 8.45 0.75 8.7 -0.35 7.85 L-0.25 7.7 -0.2 7.35 -0.45 7.1 -0.5 7.1 -0.5 6.95 0.3 6.85 0.25 6.9 0.45 6.85 Q1.35 7.9 3.75 7.7 7.55 7.25 12.4 4.15 L14.35 2.8 Q17.55 0.35 20.05 -2.55 L20.8 -3.5" fill="url(#gradient3)" fill-rule="evenodd" stroke="none"/>
    <path d="M16.35 8.7 Q16.25 7.85 16.65 6.8 17.1 5.25 18.35 3.5 L18.35 3.55 Q19.6 1.7 21.75 -0.4 23.1 -1.75 24.55 -2.9 L24.9 -3.0 25.25 -2.85 25.35 -2.55 25.35 -2.45 25.2 -2.25 Q23.8 -1.15 22.5 0.15 20.4 2.2 19.2 3.95 L19.2 4.0 Q18.0 5.6 17.6 7.05 17.2 8.05 17.35 8.75 17.6 10.0 19.4 10.25 21.5 10.5 24.85 9.2 25.0 9.05 25.2 9.05 L27.45 8.0 30.85 6.1 36.6 1.85 37.45 1.1 37.45 2.35 37.3 2.45 31.45 6.8 27.95 8.75 26.3 9.55 26.15 9.45 25.8 9.35 Q25.55 9.4 25.45 9.55 L25.35 9.85 24.4 10.3 Q21.3 11.4 19.25 11.1 17.15 10.85 16.6 9.6 L16.75 9.45 16.9 9.15 16.75 8.8 16.4 8.7 16.35 8.7" fill="url(#gradient4)" fill-rule="evenodd" stroke="none"/>
    <path d="M25.35 -2.45 L27.15 -2.1 Q27.8 -0.7 30.0 -0.85 32.9 1.0 36.8 1.0 L37.45 1.0 37.45 1.1 36.6 1.85 30.85 6.1 27.45 8.0 25.2 9.05 Q25.0 9.05 24.85 9.2 21.5 10.5 19.4 10.25 17.6 10.0 17.35 8.75 17.2 8.05 17.6 7.05 18.0 5.6 19.2 4.0 L19.2 3.95 Q20.4 2.2 22.5 0.15 23.8 -1.15 25.2 -2.25 L25.35 -2.45" fill="url(#gradient5)" fill-rule="evenodd" stroke="none"/>
    <path d="M12.65 9.35 L14.85 8.8 16.35 8.7 16.4 8.7 16.75 8.8 16.9 9.15 16.75 9.45 16.6 9.6 Q12.1 13.75 9.95 18.65 18.35 13.35 24.4 10.3 L25.35 9.85 25.45 9.55 Q25.55 9.4 25.8 9.35 L26.15 9.45 26.3 9.55 27.4 10.7 Q28.5 12.4 27.3 15.15 26.05 18.05 23.0 19.95 21.75 20.75 17.55 21.1 13.65 21.4 9.65 21.05 5.1 20.7 2.95 19.75 1.05 18.95 1.0 17.9 L1.15 17.85 1.5 17.65 1.55 17.35 1.35 17.05 1.25 17.0 Q1.3 16.9 1.4 16.9 L1.8 16.9 1.7 17.0 1.65 17.3 1.85 17.6 2.05 17.65 Q2.0 18.35 3.4 18.95 5.1 19.7 8.45 20.05 L8.45 20.0 8.45 19.7 Q10.45 14.25 15.15 9.7 L15.05 9.7 12.4 10.35 12.35 10.25 12.1 10.0 11.7 10.0 11.6 10.1 11.6 9.75 11.7 9.65 11.75 9.75 12.1 9.95 12.5 9.85 12.65 9.55 12.65 9.35 M26.5 11.15 L26.55 11.15 26.05 10.55 Q19.3 13.8 9.35 20.15 L9.75 20.15 Q13.65 20.5 17.45 20.2 21.25 19.9 22.4 19.25 25.15 17.5 26.35 14.85 27.3 12.55 26.5 11.15" fill="url(#gradient6)" fill-rule="evenodd" stroke="none"/>
    <path d="M24.4 10.3 Q18.35 13.35 9.95 18.65 12.1 13.75 16.6 9.6 17.15 10.85 19.25 11.1 21.3 11.4 24.4 10.3" fill="url(#gradient7)" fill-rule="evenodd" stroke="none"/>
    <path d="M26.5 11.15 Q27.3 12.55 26.35 14.85 25.15 17.5 22.4 19.25 21.25 19.9 17.45 20.2 13.65 20.5 9.75 20.15 L9.35 20.15 Q19.3 13.8 26.05 10.55 L26.55 11.15 26.5 11.15 M12.4 10.35 L15.05 9.7 15.15 9.7 Q10.45 14.25 8.45 19.7 L8.45 20.0 8.45 20.05 Q5.1 19.7 3.4 18.95 2.0 18.35 2.05 17.65 L2.25 17.65 Q7.2 16.5 9.2 14.65 11.7 12.15 12.4 10.55 L12.4 10.35" fill="url(#gradient8)" fill-rule="evenodd" stroke="none"/>
    <path d="M9.75 6.35 L9.75 6.4 9.9 6.6 10.0 6.7 10.05 7.0 9.9 7.25 9.55 7.35 9.5 7.35 8.95 8.05 Q12.55 8.35 12.65 9.35 L12.65 9.55 12.5 9.85 12.1 9.95 11.75 9.75 11.7 9.65 11.65 9.45 Q11.65 9.05 8.25 8.85 4.7 12.85 -1.85 17.4 L0.95 17.0 1.25 17.0 1.35 17.05 1.55 17.35 1.5 17.65 1.15 17.85 1.0 17.9 -6.15 18.7 Q-10.8 19.0 -14.15 18.75 L-16.75 18.3 Q-18.1 17.85 -17.75 17.15 L-17.8 17.15 Q-17.4 15.2 -13.25 12.3 -9.65 9.75 -5.8 8.2 L-5.7 8.15 Q-3.85 7.35 -2.0 6.85 L-1.1 6.65 -0.75 6.7 Q-0.55 6.75 -0.5 6.95 L-0.5 7.1 -0.45 7.1 -0.2 7.35 -0.25 7.7 -0.35 7.85 -0.5 7.9 -1.5 8.25 -1.45 8.3 -1.45 8.4 Q-1.05 11.35 -2.05 16.4 4.2 12.0 7.6 8.15 L7.65 8.1 8.7 6.85 8.75 6.8 8.75 6.75 8.8 6.7 8.85 6.7 9.05 6.4 Q9.2 6.25 9.4 6.25 L9.75 6.35 M-2.4 8.9 L-5.4 9.0 Q-9.15 10.5 -12.6 13.0 L-12.65 13.0 Q-16.4 15.65 -16.8 17.35 L-16.4 17.45 -14.05 17.85 Q-10.8 18.1 -6.25 17.8 L-3.3 17.55 -3.3 17.4 Q-2.1 12.05 -2.4 8.9" fill="url(#gradient9)" fill-rule="evenodd" stroke="none"/>
    <path d="M11.6 10.1 L11.7 10.0 12.1 10.0 12.35 10.25 12.4 10.35 12.4 10.55 Q11.7 12.15 9.2 14.65 7.2 16.5 2.25 17.65 L2.05 17.65 1.85 17.6 1.65 17.3 1.7 17.0 1.8 16.9 Q1.85 16.8 2.0 16.8 6.6 15.75 8.45 14.05 10.8 11.75 11.45 10.25 L11.6 10.1" fill="url(#gradient10)" fill-rule="evenodd" stroke="none"/>
    <path d="M1.25 17.0 L0.95 17.0 -1.85 17.4 Q4.7 12.85 8.25 8.85 11.65 9.05 11.65 9.45 L11.7 9.65 11.6 9.75 11.6 10.1 11.45 10.25 Q10.8 11.75 8.45 14.05 6.6 15.75 2.0 16.8 1.85 16.8 1.8 16.9 L1.4 16.9 Q1.3 16.9 1.25 17.0 M-2.4 8.9 Q-2.1 12.05 -3.3 17.4 L-3.3 17.55 -6.25 17.8 Q-10.8 18.1 -14.05 17.85 L-16.4 17.45 -16.8 17.35 Q-16.4 15.65 -12.65 13.0 L-12.6 13.0 Q-9.15 10.5 -5.4 9.0 L-2.4 8.9" fill="url(#gradient11)" fill-rule="evenodd" stroke="none"/>
    <path d="M-0.35 7.85 Q0.75 8.7 3.1 8.45 5.7 8.2 8.7 6.85 L7.65 8.1 7.6 8.15 Q4.2 12.0 -2.05 16.4 -1.05 11.35 -1.45 8.4 L-1.45 8.3 -1.5 8.25 -0.5 7.9 -0.35 7.85" fill="url(#gradient12)" fill-rule="evenodd" stroke="none"/>
  </g>
  <defs>
    <linearGradient gradientTransform="matrix(-0.0085, 0.0068, -0.0066, -0.0065, 3.55, 0.05)" gradientUnits="userSpaceOnUse" id="gradient0" spreadMethod="pad" x1="-819.2" x2="819.2">
      <stop offset="0.396078431372549" stop-color="#ffffff"/>
      <stop offset="1.0" stop-color="#999999"/>
    </linearGradient>
    <radialGradient cx="0" cy="0" gradientTransform="matrix(0.0264, 0.0, -0.0216, 0.0233, 17.0, -10.25)" gradientUnits="userSpaceOnUse" id="gradient1" r="819.2" spreadMethod="pad">
      <stop offset="0.4235294117647059" stop-color="#ffffff"/>
      <stop offset="1.0" stop-color="#666666"/>
    </radialGradient>
    <linearGradient gradientTransform="matrix(-0.0049, 0.0108, -0.0083, -0.0029, 9.75, 2.35)" gradientUnits="userSpaceOnUse" id="gradient2" spreadMethod="pad" x1="-819.2" x2="819.2">
      <stop offset="0.24313725490196078" stop-color="#ffffff"/>
      <stop offset="0.7686274509803922" stop-color="#ffd67b"/>
    </linearGradient>
    <linearGradient gradientTransform="matrix(-0.0095, 0.009, 0.0111, 6.0E-4, 4.5, 2.85)" gradientUnits="userSpaceOnUse" id="gradient3" spreadMethod="pad" x1="-819.2" x2="819.2">
      <stop offset="0.0" stop-color="#ffffff"/>
      <stop offset="1.0" stop-color="#ad7394"/>
    </linearGradient>
    <linearGradient gradientTransform="matrix(-0.0034, 0.0095, -0.0094, -0.0027, 26.1, 6.75)" gradientUnits="userSpaceOnUse" id="gradient4" spreadMethod="pad" x1="-819.2" x2="819.2">
      <stop offset="0.18823529411764706" stop-color="#ffffff"/>
      <stop offset="1.0" stop-color="#b57b7b"/>
    </linearGradient>
    <linearGradient gradientTransform="matrix(-0.0038, 0.0124, -0.0085, -0.002, 25.65, 6.45)" gradientUnits="userSpaceOnUse" id="gradient5" spreadMethod="pad" x1="-819.2" x2="819.2">
      <stop offset="0.17254901960784313" stop-color="#ffffff"/>
      <stop offset="0.792156862745098" stop-color="#ffcc66"/>
    </linearGradient>
    <linearGradient gradientTransform="matrix(-0.0047, 0.0105, -0.008, -0.0028, 15.2, 14.4)" gradientUnits="userSpaceOnUse" id="gradient6" spreadMethod="pad" x1="-819.2" x2="819.2">
      <stop offset="0.0" stop-color="#efffef"/>
      <stop offset="0.26666666666666666" stop-color="#ccffcc"/>
      <stop offset="1.0" stop-color="#7bb57b"/>
    </linearGradient>
    <linearGradient gradientTransform="matrix(-0.0069, 0.0068, 0.0059, 5.0E-4, 17.45, 13.35)" gradientUnits="userSpaceOnUse" id="gradient7" spreadMethod="pad" x1="-819.2" x2="819.2">
      <stop offset="0.0" stop-color="#99ccff"/>
      <stop offset="0.09411764705882353" stop-color="#99ccff"/>
      <stop offset="0.396078431372549" stop-color="#ffffff"/>
      <stop offset="1.0" stop-color="#ccffff"/>
    </linearGradient>
    <radialGradient cx="0" cy="0" gradientTransform="matrix(0.0208, 0.0, -0.0169, 0.0183, 19.2, 10.1)" gradientUnits="userSpaceOnUse" id="gradient8" r="819.2" spreadMethod="pad">
      <stop offset="0.0" stop-color="#ffffff"/>
      <stop offset="0.4980392156862745" stop-color="#ccffcc"/>
      <stop offset="1.0" stop-color="#84de84"/>
    </radialGradient>
    <linearGradient gradientTransform="matrix(-0.0037, 0.0109, -0.0083, -0.0022, -3.0, 12.1)" gradientUnits="userSpaceOnUse" id="gradient9" spreadMethod="pad" x1="-819.2" x2="819.2">
      <stop offset="0.07058823529411765" stop-color="#ffffff"/>
      <stop offset="0.6392156862745098" stop-color="#849cd6"/>
    </linearGradient>
    <linearGradient gradientTransform="matrix(-0.0014, 0.0057, -0.0052, -0.001, 7.0, 13.8)" gradientUnits="userSpaceOnUse" id="gradient10" spreadMethod="pad" x1="-819.2" x2="819.2">
      <stop offset="0.07058823529411765" stop-color="#ffffff"/>
      <stop offset="0.6392156862745098" stop-color="#849cd6"/>
    </linearGradient>
    <radialGradient cx="0" cy="0" gradientTransform="matrix(0.0208, 0.0, -0.0169, 0.0183, 3.75, 7.7)" gradientUnits="userSpaceOnUse" id="gradient11" r="819.2" spreadMethod="pad">
      <stop offset="0.0" stop-color="#ffffff"/>
      <stop offset="0.7843137254901961" stop-color="#99ccff"/>
    </radialGradient>
    <linearGradient gradientTransform="matrix(-0.0055, 0.0067, 0.0068, -5.0E-4, -0.05, 11.65)" gradientUnits="userSpaceOnUse" id="gradient12" spreadMethod="pad" x1="-819.2" x2="819.2">
      <stop offset="0.0" stop-color="#5465fd"/>
      <stop offset="0.30980392156862746" stop-color="#99ccff"/>
      <stop offset="1.0" stop-color="#ccffff"/>
    </linearGradient>
  </defs>
</svg>
