<?xml version="1.0" encoding="UTF-8" standalone="no"?>
<svg xmlns:ffdec="https://www.free-decompiler.com/flash" xmlns:xlink="http://www.w3.org/1999/xlink" ffdec:objectType="shape" height="45.7px" width="72.0px" xmlns="http://www.w3.org/2000/svg">
  <g transform="matrix(1.0, 0.0, 0.0, 1.0, 37.0, 22.35)">
    <path d="M17.95 -20.6 Q18.65 -20.2 18.15 -19.85 L17.5 -19.75 16.85 -19.95 16.5 -20.35 16.65 -20.75 17.3 -20.85 17.95 -20.6" fill="#99ff66" fill-rule="evenodd" stroke="none"/>
    <path d="M21.55 -15.6 L12.85 -15.05 19.6 -7.7 28.3 -8.6 21.55 -15.6 M21.45 -18.55 L21.6 -18.55 22.45 -17.65 22.35 -17.65 7.95 -16.9 7.9 -16.95 7.45 -17.5 6.9 -18.05 21.45 -18.55 M24.35 -12.05 L16.85 -11.3 16.15 -12.05 23.75 -12.65 24.35 -12.05 M24.8 -10.3 L19.15 -9.75 18.55 -10.4 24.3 -10.9 24.8 -10.3 M22.05 -16.2 L29.95 -8.0 18.9 -6.8 11.0 -15.5 22.05 -16.2" fill="#666699" fill-rule="evenodd" stroke="none"/>
    <path d="M21.55 -15.6 L28.3 -8.6 19.6 -7.7 12.85 -15.05 21.55 -15.6 M24.8 -10.3 L24.3 -10.9 18.55 -10.4 19.15 -9.75 24.8 -10.3 M24.35 -12.05 L23.75 -12.65 16.15 -12.05 16.85 -11.3 24.35 -12.05" fill="#9999cc" fill-rule="evenodd" stroke="none"/>
    <path d="M21.45 -18.55 L6.9 -18.05 7.45 -17.5 6.95 -18.0 3.8 -21.55 3.7 -21.65 18.25 -21.9 21.45 -18.55 M7.95 -16.9 L22.35 -17.65 34.05 -5.45 33.4 -5.35 32.9 -5.25 19.9 -3.5 7.95 -16.9 M22.05 -16.2 L11.0 -15.5 18.9 -6.8 29.95 -8.0 22.05 -16.2 M17.95 -20.6 L17.3 -20.85 16.65 -20.75 16.5 -20.35 16.85 -19.95 17.5 -19.75 18.15 -19.85 Q18.65 -20.2 17.95 -20.6" fill="url(#gradient0)" fill-rule="evenodd" stroke="none"/>
    <path d="M7.45 -17.5 L7.9 -16.95 -9.75 -4.2 -10.5 -5.15 6.95 -18.0 7.45 -17.5" fill="url(#gradient1)" fill-rule="evenodd" stroke="none"/>
    <path d="M7.9 -16.95 L7.95 -16.9 19.9 -3.5 19.85 -3.5 -5.0 10.4 -3.25 10.05 -5.3 10.5 -14.9 -6.05 3.75 -21.55 3.8 -21.55 6.95 -18.0 -10.5 -5.15 -9.75 -4.2 7.9 -16.95 M33.4 -5.35 L33.35 -5.3 32.9 -5.25 33.4 -5.35" fill="url(#gradient2)" fill-rule="evenodd" stroke="none"/>
    <path d="M33.35 -5.3 L33.9 -5.4 8.15 7.7 -3.25 10.05 -5.0 10.4 19.85 -3.5 19.9 -3.5 32.9 -5.25 33.35 -5.3" fill="url(#gradient3)" fill-rule="evenodd" stroke="none"/>
    <path d="M22.35 -17.65 L22.45 -17.65 21.6 -18.55 21.45 -18.55 18.25 -21.9 3.7 -21.65 3.8 -21.55 3.75 -21.55 -14.9 -6.05 -5.3 10.5 -3.25 10.05 8.15 7.7 33.9 -5.4 33.35 -5.3 33.4 -5.35 34.05 -5.45 22.35 -17.65 M18.7 -22.35 L35.0 -5.35 Q21.8 1.35 8.65 8.0 L-5.55 10.75 -15.7 -6.05 3.2 -22.1 18.7 -22.35" fill="url(#gradient4)" fill-rule="evenodd" stroke="none"/>
    <path d="M-26.35 2.6 L-27.05 2.6 Q-33.0 2.65 -35.0 0.6 -37.0 -1.5 -33.9 -4.55 -30.9 -7.6 -24.5 -9.8 -18.15 -12.0 -12.25 -12.1 -6.3 -12.15 -4.3 -10.05 -2.3 -8.0 -5.35 -4.9 L-5.65 -4.65 -9.5 -9.0 -10.55 -10.15 -18.45 -9.75 -20.05 -8.05 -17.9 -3.35 Q-17.25 -1.7 -17.0 0.1 L-25.6 0.8 Q-26.95 0.95 -26.9 1.55 L-26.35 2.6 M-17.75 -8.9 L-17.85 -8.8 -17.95 -9.15 -17.75 -8.9" fill="url(#gradient5)" fill-rule="evenodd" stroke="none"/>
    <path d="M-17.0 0.1 Q-17.25 -1.7 -17.9 -3.35 L-20.05 -8.05 -18.45 -9.75 -10.55 -10.15 -9.5 -9.0 -9.8 -9.3 -17.6 -9.0 -17.7 -8.9 -17.75 -8.9 -17.95 -9.15 -17.85 -8.8 -18.6 -7.9 -16.65 -4.0 Q-16.1 -2.75 -15.55 0.0 L-17.0 0.1" fill="url(#gradient6)" fill-rule="evenodd" stroke="none"/>
    <path d="M-17.7 -8.9 L-17.65 -8.9 Q-15.1 -5.65 -13.5 -1.6 L-15.45 0.0 -15.55 0.05 -15.55 0.0 Q-16.1 -2.75 -16.65 -4.0 L-18.6 -7.9 -17.85 -8.8 -17.75 -8.9 -17.7 -8.9" fill="url(#gradient7)" fill-rule="evenodd" stroke="none"/>
    <path d="M-5.65 -4.65 L-5.2 -4.1 -2.95 -1.0 -15.45 0.0 -13.5 -1.6 Q-15.1 -5.65 -17.65 -8.9 L-17.7 -8.9 -17.6 -9.0 -9.8 -9.3 -9.5 -9.0 -5.65 -4.65" fill="url(#gradient8)" fill-rule="evenodd" stroke="none"/>
    <path d="M-23.45 2.15 Q-23.8 1.75 -23.05 1.7 L6.1 -0.85 5.55 -0.5 5.5 -0.5 -23.45 2.15" fill="url(#gradient9)" fill-rule="evenodd" stroke="none"/>
    <path d="M5.5 -0.5 L15.3 13.8 -12.9 19.5 -23.5 2.15 -23.45 2.15 5.5 -0.5" fill="url(#gradient10)" fill-rule="evenodd" stroke="none"/>
    <path d="M-26.1 3.05 L-26.35 2.6 -26.9 1.55 Q-26.95 0.95 -25.6 0.8 L-17.0 0.1 -15.55 0.0 -15.55 0.05 -15.45 0.0 -2.95 -1.0 5.3 -1.6 Q6.65 -1.75 7.3 -0.8 L18.6 14.9 Q19.4 16.15 17.7 16.45 L-12.85 23.2 Q-15.6 23.75 -16.1 22.3 -16.35 21.45 -26.1 3.05 M-25.25 1.65 Q-25.45 1.15 -25.95 1.3 -26.45 1.35 -26.25 1.6 L-14.95 21.9 Q-14.2 22.65 -13.1 22.5 L16.45 16.1 Q17.9 15.8 16.5 15.4 L-12.55 21.7 Q-13.05 21.75 -13.9 21.3 L-25.25 1.65 M-23.45 2.15 L-23.5 2.15 -12.9 19.5 15.3 13.8 5.5 -0.5 5.55 -0.5 6.1 -0.85 -23.05 1.7 Q-23.8 1.75 -23.45 2.15" fill="url(#gradient11)" fill-rule="evenodd" stroke="none"/>
    <path d="M-5.65 -4.65 L-5.35 -4.9 Q-2.3 -8.0 -4.3 -10.05 -6.3 -12.15 -12.25 -12.1 -18.15 -12.0 -24.5 -9.8 -30.9 -7.6 -33.9 -4.55 -37.0 -1.5 -35.0 0.6 -33.0 2.65 -27.05 2.6 L-26.35 2.6 -26.1 3.05 -27.55 3.1 Q-33.95 3.15 -36.15 0.85 -38.35 -1.45 -35.0 -4.7 -31.75 -8.0 -24.9 -10.35 -18.05 -12.75 -11.65 -12.8 -5.25 -12.9 -3.05 -10.6 -0.9 -8.35 -4.15 -5.05 L-5.2 -4.1 -5.65 -4.65" fill="url(#gradient12)" fill-rule="evenodd" stroke="none"/>
  </g>
  <defs>
    <linearGradient gradientTransform="matrix(-0.0118, -0.0122, 0.0074, -0.0025, 18.35, -13.4)" gradientUnits="userSpaceOnUse" id="gradient0" spreadMethod="pad" x1="-819.2" x2="819.2">
      <stop offset="0.0" stop-color="#6666cc"/>
      <stop offset="1.0" stop-color="#aaaaaa"/>
    </linearGradient>
    <linearGradient gradientTransform="matrix(-0.0133, 0.0058, -0.0032, -0.0026, -1.45, -11.15)" gradientUnits="userSpaceOnUse" id="gradient1" spreadMethod="pad" x1="-819.2" x2="819.2">
      <stop offset="0.0" stop-color="#9999cc"/>
      <stop offset="1.0" stop-color="#9999cc"/>
    </linearGradient>
    <linearGradient gradientTransform="matrix(-0.0053, 0.0199, -0.0191, 0.0033, 5.4, -7.4)" gradientUnits="userSpaceOnUse" id="gradient2" spreadMethod="pad" x1="-819.2" x2="819.2">
      <stop offset="0.0" stop-color="#9999cc"/>
      <stop offset="1.0" stop-color="#eeeeee"/>
    </linearGradient>
    <linearGradient gradientTransform="matrix(0.0032, 0.0032, -0.0246, 0.009, 14.05, 2.1)" gradientUnits="userSpaceOnUse" id="gradient3" spreadMethod="pad" x1="-819.2" x2="819.2">
      <stop offset="0.0" stop-color="#9999cc"/>
      <stop offset="1.0" stop-color="#ffffff"/>
    </linearGradient>
    <linearGradient gradientTransform="matrix(-0.007, 0.0262, -0.02, 0.0034, 14.95, -8.5)" gradientUnits="userSpaceOnUse" id="gradient4" spreadMethod="pad" x1="-819.2" x2="819.2">
      <stop offset="0.0" stop-color="#666699"/>
      <stop offset="0.4666666666666667" stop-color="#9999cc"/>
      <stop offset="0.8627450980392157" stop-color="#ffffff"/>
    </linearGradient>
    <radialGradient cx="0" cy="0" gradientTransform="matrix(0.0307, -0.0107, -0.0177, -0.0185, -27.2, -0.3)" gradientUnits="userSpaceOnUse" id="gradient5" r="819.2" spreadMethod="pad">
      <stop offset="0.0" stop-color="#ffffff"/>
      <stop offset="0.2823529411764706" stop-color="#dddddd"/>
      <stop offset="1.0" stop-color="#9999cc"/>
    </radialGradient>
    <linearGradient gradientTransform="matrix(-0.0024, 0.0054, -0.0107, -0.0017, -13.25, -5.25)" gradientUnits="userSpaceOnUse" id="gradient6" spreadMethod="pad" x1="-819.2" x2="819.2">
      <stop offset="0.0" stop-color="#666699"/>
      <stop offset="1.0" stop-color="#9999cc"/>
    </linearGradient>
    <linearGradient gradientTransform="matrix(-0.0052, -0.0028, 0.004, -0.0026, -16.6, -4.45)" gradientUnits="userSpaceOnUse" id="gradient7" spreadMethod="pad" x1="-819.2" x2="819.2">
      <stop offset="0.0" stop-color="#9999cc"/>
      <stop offset="1.0" stop-color="#eeeeee"/>
    </linearGradient>
    <linearGradient gradientTransform="matrix(-0.0085, -0.0054, 0.0069, -0.0038, -12.8, -3.85)" gradientUnits="userSpaceOnUse" id="gradient8" spreadMethod="pad" x1="-819.2" x2="819.2">
      <stop offset="0.0" stop-color="#333399"/>
      <stop offset="0.27450980392156865" stop-color="#6666cc"/>
      <stop offset="1.0" stop-color="#999999"/>
    </linearGradient>
    <linearGradient gradientTransform="matrix(-0.0182, 4.0E-4, -1.0E-4, -0.0015, -8.85, 0.5)" gradientUnits="userSpaceOnUse" id="gradient9" spreadMethod="pad" x1="-819.2" x2="819.2">
      <stop offset="0.0" stop-color="#6666cc"/>
      <stop offset="0.0784313725490196" stop-color="#9999cc"/>
      <stop offset="1.0" stop-color="#ffffff"/>
    </linearGradient>
    <linearGradient gradientTransform="matrix(-0.0045, -0.0167, 0.0118, -0.0032, -4.1, 9.5)" gradientUnits="userSpaceOnUse" id="gradient10" spreadMethod="pad" x1="-819.2" x2="819.2">
      <stop offset="0.32941176470588235" stop-color="#ffffff"/>
      <stop offset="1.0" stop-color="#66ccff"/>
    </linearGradient>
    <linearGradient gradientTransform="matrix(0.0, 0.0176, -0.029, 0.0077, -4.75, 8.25)" gradientUnits="userSpaceOnUse" id="gradient11" spreadMethod="pad" x1="-819.2" x2="819.2">
      <stop offset="0.0" stop-color="#6666cc"/>
      <stop offset="0.32941176470588235" stop-color="#999999"/>
      <stop offset="0.8549019607843137" stop-color="#ffffff"/>
    </linearGradient>
    <linearGradient gradientTransform="matrix(-0.0065, -0.0067, 0.0202, -0.007, -19.6, -4.9)" gradientUnits="userSpaceOnUse" id="gradient12" spreadMethod="pad" x1="-819.2" x2="819.2">
      <stop offset="0.00784313725490196" stop-color="#ffffff"/>
      <stop offset="0.4823529411764706" stop-color="#9999cc"/>
      <stop offset="1.0" stop-color="#666699"/>
    </linearGradient>
  </defs>
</svg>
